<?xml version="1.0" encoding="utf-8"?>
<!-- Generator: Adobe Illustrator 16.0.4, SVG Export Plug-In . SVG Version: 6.00 Build 0)  -->
<!DOCTYPE svg PUBLIC "-//W3C//DTD SVG 1.1//EN" "http://www.w3.org/Graphics/SVG/1.1/DTD/svg11.dtd">
<svg version="1.1" id="Capa_1" xmlns="http://www.w3.org/2000/svg" xmlns:xlink="http://www.w3.org/1999/xlink" x="0px" y="0px"
	 width="16px" height="16px" viewBox="133.73 133.73 16 16" enable-background="new 133.73 133.73 16 16" xml:space="preserve">
<g>
	<path fill="#333333" d="M133.73,141.455h7.725v-7.725h-7.725V141.455z M135.937,137.041h1.104v-1.104
		c0-0.304,0.247-0.552,0.552-0.552s0.552,0.248,0.552,0.552v1.104h1.104c0.305,0,0.552,0.247,0.552,0.552s-0.247,0.552-0.552,0.552
		h-1.104v1.104c0,0.305-0.247,0.552-0.552,0.552s-0.552-0.247-0.552-0.552v-1.104h-1.104c-0.304,0-0.552-0.247-0.552-0.552
		S135.633,137.041,135.937,137.041z"/>
	<path fill="#333333" d="M142.006,133.73v7.725h7.724v-7.725H142.006z M147.523,138.144h-3.31c-0.305,0-0.552-0.247-0.552-0.552
		s0.247-0.552,0.552-0.552h3.31c0.305,0,0.552,0.247,0.552,0.552S147.828,138.144,147.523,138.144z"/>
	<path fill="#333333" d="M142.006,149.73h7.724v-7.724h-7.724V149.73z M144.213,144.489h3.31c0.305,0,0.552,0.247,0.552,0.552
		s-0.247,0.552-0.552,0.552h-3.31c-0.305,0-0.552-0.247-0.552-0.552S143.909,144.489,144.213,144.489z M144.213,146.144h3.31
		c0.305,0,0.552,0.247,0.552,0.552s-0.247,0.552-0.552,0.552h-3.31c-0.305,0-0.552-0.247-0.552-0.552
		S143.909,146.144,144.213,146.144z"/>
	<path fill="#333333" d="M133.73,149.73h7.725v-7.724h-7.725V149.73z M135.823,144.878c-0.215-0.215-0.215-0.564,0-0.779
		c0.215-0.216,0.565-0.216,0.78,0l0.989,0.989l0.989-0.989c0.215-0.216,0.565-0.216,0.78,0c0.215,0.215,0.215,0.564,0,0.779
		l-0.989,0.989l0.989,0.989c0.215,0.216,0.215,0.565,0,0.78c-0.108,0.108-0.249,0.162-0.39,0.162s-0.283-0.054-0.39-0.162
		l-0.989-0.989l-0.989,0.989c-0.107,0.108-0.249,0.162-0.39,0.162s-0.282-0.054-0.39-0.162c-0.215-0.215-0.215-0.564,0-0.78
		l0.989-0.989L135.823,144.878z"/>
</g>
</svg>
