<?xml version="1.0" encoding="utf-8"?>
<!-- Generator: Adobe Illustrator 16.0.4, SVG Export Plug-In . SVG Version: 6.00 Build 0)  -->
<!DOCTYPE svg PUBLIC "-//W3C//DTD SVG 1.1//EN" "http://www.w3.org/Graphics/SVG/1.1/DTD/svg11.dtd">
<svg version="1.1" id="Capa_1" xmlns="http://www.w3.org/2000/svg" xmlns:xlink="http://www.w3.org/1999/xlink" x="0px" y="0px"
	 width="283.46px" height="283.46px" viewBox="0 0 283.46 283.46" enable-background="new 0 0 283.46 283.46" xml:space="preserve">
<g>
	<path fill="#666666" d="M75.302,112.644c-4.893,0-8.874-3.981-8.874-8.874V84.174H46.833c-4.893,0-8.873-3.98-8.873-8.873
		c0-4.893,3.98-8.874,8.873-8.874h19.596V46.833c0-4.893,3.981-8.873,8.874-8.873c4.892,0,8.873,3.98,8.873,8.873v19.596h19.596
		c4.893,0,8.874,3.981,8.874,8.874c0,4.892-3.981,8.873-8.874,8.873H84.174v19.596C84.174,108.663,80.194,112.644,75.302,112.644z"
		/>
	<path fill="#666666" d="M75.302,111.268c-4.134,0-7.497-3.363-7.497-7.497V82.798H46.833c-4.134,0-7.497-3.363-7.497-7.497
		c0-4.134,3.362-7.497,7.497-7.497h20.972V46.833c0-4.134,3.363-7.497,7.497-7.497c4.133,0,7.497,3.362,7.497,7.497v20.972h20.972
		c4.134,0,7.498,3.363,7.498,7.497c0,4.133-3.363,7.497-7.498,7.497H82.798v20.972C82.798,107.904,79.435,111.268,75.302,111.268z"
		/>
	<path fill="#666666" d="M75.302,109.892c-3.375,0-6.122-2.746-6.122-6.121V81.422H46.833c-3.375,0-6.122-2.746-6.122-6.121
		c0-3.375,2.746-6.122,6.122-6.122H69.18V46.833c0-3.375,2.746-6.122,6.122-6.122c3.375,0,6.121,2.746,6.121,6.122V69.18h22.348
		c3.375,0,6.122,2.746,6.122,6.122c0,3.375-2.746,6.121-6.122,6.121H81.422v22.348C81.422,107.146,78.677,109.892,75.302,109.892z"
		/>
	<path fill="#666666" d="M103.771,70.557H80.046V46.833c0-2.624-2.125-4.745-4.745-4.745c-2.62,0-4.745,2.121-4.745,4.745v23.724
		H46.833c-2.619,0-4.745,2.121-4.745,4.745c0,2.624,2.126,4.745,4.745,4.745h23.724v23.724c0,2.625,2.125,4.745,4.745,4.745
		c2.619,0,4.745-2.121,4.745-4.745V80.046h23.724c2.62,0,4.746-2.121,4.746-4.745C108.516,72.677,106.39,70.557,103.771,70.557z"/>
	<path fill="#666666" d="M179.689,84.174c-4.893,0-8.873-3.98-8.873-8.873c0-4.893,3.98-8.874,8.873-8.874h56.938
		c4.893,0,8.872,3.981,8.872,8.874c0,4.892-3.979,8.873-8.872,8.873H179.689z"/>
	<path fill="#666666" d="M179.689,82.798c-4.134,0-7.496-3.363-7.496-7.497c0-4.134,3.362-7.497,7.496-7.497h56.938
		c4.133,0,7.497,3.363,7.497,7.497c0,4.133-3.364,7.497-7.497,7.497H179.689z"/>
	<path fill="#666666" d="M179.689,81.422c-3.375,0-6.121-2.746-6.121-6.121c0-3.375,2.746-6.122,6.121-6.122h56.938
		c3.375,0,6.12,2.746,6.12,6.122c0,3.375-2.745,6.121-6.12,6.121H179.689z"/>
	<path fill="#666666" d="M236.627,70.557h-56.938c-2.619,0-4.744,2.121-4.744,4.745c0,2.624,2.125,4.745,4.744,4.745h56.938
		c2.62,0,4.746-2.121,4.746-4.745C241.374,72.677,239.248,70.557,236.627,70.557z"/>
	<path fill="#666666" d="M0,283.46V0h283.46v283.46H0z M265.713,265.713v-115.11h-115.11v115.11H265.713z M132.857,265.713v-115.11
		H17.746v115.11H132.857z M265.713,132.857V17.746h-115.11v115.111H265.713z M132.857,132.857V17.746H17.746v115.111H132.857z"/>
	<path fill="#666666" d="M1.376,282.085V1.376h280.709v280.709H1.376z M267.09,267.09V149.228H149.228V267.09H267.09z
		 M134.233,267.09V149.228H16.37V267.09H134.233z M267.09,134.233V16.37H149.228v117.864H267.09z M134.233,134.233V16.37H16.37
		v117.864H134.233z"/>
	<path fill="#666666" d="M2.752,280.707V2.752h277.955v277.955H2.752z M268.465,268.465V147.849H147.849v120.616H268.465z
		 M135.609,268.465V147.849H14.994v120.616H135.609z M268.465,135.609V14.994H147.849v120.615H268.465z M135.609,135.609V14.994
		H14.994v120.615H135.609z"/>
	<path fill="#666666" d="M146.475,4.128h-9.49H4.128v132.857v9.49v132.857h132.857h9.49h132.857V146.475v-9.49V4.128H146.475z
		 M13.618,13.618h123.367v123.367H13.618V13.618z M13.618,269.842V146.475h123.367v123.367H13.618z M269.842,269.842H146.475
		V146.475h123.367V269.842z M146.475,136.985V13.618h123.367v123.367H146.475z"/>
	<path fill="#666666" d="M179.689,231.266c-4.893,0-8.873-3.98-8.873-8.872c0-4.895,3.98-8.874,8.873-8.874h56.938
		c4.893,0,8.872,3.979,8.872,8.874c0,4.892-3.979,8.872-8.872,8.872H179.689z"/>
	<path fill="#666666" d="M179.689,229.892c-4.134,0-7.496-3.364-7.496-7.498s3.362-7.497,7.496-7.497h56.938
		c4.133,0,7.497,3.363,7.497,7.497s-3.364,7.498-7.497,7.498H179.689z"/>
	<path fill="#666666" d="M179.689,228.513c-3.375,0-6.121-2.746-6.121-6.119c0-3.377,2.746-6.123,6.121-6.123h56.938
		c3.375,0,6.12,2.746,6.12,6.123c0,3.373-2.745,6.119-6.12,6.119H179.689z"/>
	<path fill="#666666" d="M179.689,227.138h56.938c2.62,0,4.746-2.122,4.746-4.744c0-2.624-2.126-4.746-4.746-4.746h-56.938
		c-2.619,0-4.744,2.122-4.744,4.746C174.945,225.016,177.07,227.138,179.689,227.138z"/>
	<path fill="#666666" d="M179.689,202.796c-4.893,0-8.873-3.98-8.873-8.872c0-4.893,3.98-8.873,8.873-8.873h56.938
		c4.893,0,8.872,3.98,8.872,8.873c0,4.892-3.979,8.872-8.872,8.872H179.689z"/>
	<path fill="#666666" d="M179.689,201.422c-4.134,0-7.496-3.364-7.496-7.498c0-4.135,3.362-7.496,7.496-7.496h56.938
		c4.133,0,7.497,3.361,7.497,7.496c0,4.134-3.364,7.498-7.497,7.498H179.689z"/>
	<path fill="#666666" d="M179.689,200.043c-3.375,0-6.121-2.746-6.121-6.119c0-3.376,2.746-6.122,6.121-6.122h56.938
		c3.375,0,6.12,2.746,6.12,6.122c0,3.373-2.745,6.119-6.12,6.119H179.689z"/>
	<path fill="#666666" d="M179.689,198.668h56.938c2.62,0,4.746-2.12,4.746-4.744c0-2.625-2.126-4.745-4.746-4.745h-56.938
		c-2.619,0-4.744,2.12-4.744,4.745C174.945,196.548,177.07,198.668,179.689,198.668z"/>
	<path fill="#666666" d="M99.026,240.754c-2.368,0-4.596-0.921-6.273-2.597l-17.451-17.451l-17.451,17.451
		c-1.678,1.676-3.906,2.597-6.273,2.597c-2.368,0-4.596-0.921-6.273-2.597c-1.678-1.679-2.602-3.908-2.602-6.274
		c0-2.371,0.924-4.6,2.602-6.275l17.45-17.449l-17.451-17.451c-3.458-3.459-3.458-9.086-0.001-12.547
		c1.68-1.679,3.909-2.602,6.275-2.602c2.368,0,4.596,0.923,6.273,2.602l17.452,17.45l17.45-17.45
		c1.679-1.679,3.907-2.602,6.274-2.602s4.595,0.923,6.273,2.602c3.458,3.461,3.458,9.088,0.001,12.547l-17.452,17.451L105.3,225.61
		c1.677,1.676,2.6,3.902,2.6,6.273c0,2.368-0.923,4.596-2.6,6.274C103.623,239.833,101.395,240.754,99.026,240.754z"/>
	<path fill="#666666" d="M99.026,239.38c-2.002,0-3.884-0.781-5.301-2.195l-18.423-18.424l-18.424,18.424
		c-1.416,1.414-3.298,2.195-5.3,2.195c-2.002,0-3.885-0.781-5.301-2.195c-1.417-1.419-2.197-3.3-2.197-5.302
		c0-2.001,0.78-3.884,2.198-5.301L64.7,208.159l-18.424-18.424c-2.922-2.922-2.922-7.678-0.001-10.602
		c1.418-1.416,3.301-2.197,5.302-2.197s3.884,0.781,5.3,2.197l18.425,18.424l18.423-18.424c1.418-1.416,3.3-2.197,5.301-2.197
		c2,0,3.883,0.781,5.3,2.197c2.922,2.924,2.922,7.68,0.001,10.602l-18.424,18.424l18.424,18.424c1.417,1.417,2.197,3.3,2.197,5.301
		c0,2.002-0.78,3.883-2.198,5.302C102.911,238.599,101.028,239.38,99.026,239.38z"/>
	<path fill="#666666" d="M99.026,238.002c-1.634,0-3.172-0.636-4.328-1.792l-19.396-19.397L55.904,236.21
		c-1.156,1.156-2.692,1.792-4.327,1.792s-3.172-0.636-4.328-1.792c-1.157-1.157-1.794-2.695-1.794-4.327
		c0-1.636,0.637-3.171,1.794-4.328l19.396-19.396L47.25,188.762c-2.385-2.387-2.385-6.271,0-8.656
		c1.158-1.156,2.694-1.794,4.328-1.794s3.17,0.638,4.327,1.794l19.397,19.396l19.396-19.396c1.157-1.156,2.695-1.794,4.328-1.794
		c1.633,0,3.17,0.638,4.327,1.792c2.385,2.387,2.385,6.271,0,8.658l-19.397,19.396l19.396,19.396c2.386,2.388,2.386,6.27,0,8.655
		C102.197,237.367,100.66,238.002,99.026,238.002z"/>
	<path fill="#666666" d="M102.381,181.079c-1.855-1.854-4.854-1.854-6.709,0l-20.37,20.372l-20.37-20.372
		c-1.855-1.854-4.854-1.854-6.709,0c-1.855,1.856-1.855,4.854,0,6.711l20.369,20.369l-20.369,20.37
		c-1.855,1.854-1.855,4.854,0,6.709c0.925,0.925,2.14,1.39,3.354,1.39s2.429-0.465,3.354-1.39l20.37-20.37l20.37,20.37
		c0.925,0.925,2.14,1.39,3.354,1.39s2.429-0.465,3.355-1.39c1.855-1.855,1.855-4.854,0-6.709l-20.37-20.37l20.37-20.369
		C104.236,185.933,104.236,182.935,102.381,181.079z"/>
</g>
</svg>
