<?xml version="1.0" encoding="utf-8"?>
<!-- Generator: Adobe Illustrator 16.0.4, SVG Export Plug-In . SVG Version: 6.00 Build 0)  -->
<!DOCTYPE svg PUBLIC "-//W3C//DTD SVG 1.1//EN" "http://www.w3.org/Graphics/SVG/1.1/DTD/svg11.dtd">
<svg version="1.1" id="Capa_1" xmlns="http://www.w3.org/2000/svg" xmlns:xlink="http://www.w3.org/1999/xlink" x="0px" y="0px"
	 width="22px" height="22.002px" viewBox="231.607 231.605 22 22.002" enable-background="new 231.607 231.605 22 22.002"
	 xml:space="preserve">
<path fill="#D1D3D4" d="M234.357,235.044v-2.75c0-0.38,0.307-0.688,0.688-0.688s0.688,0.309,0.688,0.688v2.75
	c0,0.38-0.307,0.688-0.688,0.688S234.357,235.424,234.357,235.044z"/>
<path fill="#D1D3D4" d="M246.044,235.732c0.38,0,0.688-0.309,0.688-0.688v-2.75c0-0.38-0.309-0.688-0.688-0.688
	s-0.688,0.309-0.688,0.688v2.75C245.357,235.424,245.664,235.732,246.044,235.732z"/>
<path fill="#D1D3D4" d="M248.107,242.607c-3.038,0-5.5,2.462-5.5,5.5s2.462,5.5,5.5,5.5c3.037,0,5.5-2.462,5.5-5.5
	S251.145,242.607,248.107,242.607z M248.107,252.23c-2.275,0-4.125-1.849-4.125-4.125c0-2.274,1.85-4.125,4.125-4.125
	c2.274,0,4.125,1.851,4.125,4.125C252.232,250.382,250.382,252.23,248.107,252.23z"/>
<rect x="235.107" y="240.107" fill="#017E40" width="2.5" height="2.5"/>
<rect x="235.107" y="243.855" fill="#017E40" width="2.5" height="2.5"/>
<rect x="238.857" y="240.107" fill="#D1B857" width="2.5" height="2.5"/>
<rect x="238.857" y="243.855" fill="#017E40" width="2.5" height="2.5"/>
<path fill="#D1D3D4" d="M232.982,247.97v-9.487h15.125v2.75h1.375v-5.363c0-0.836-0.666-1.512-1.489-1.512h-0.573v0.688
	c0,0.758-0.616,1.375-1.375,1.375c-0.758,0-1.375-0.617-1.375-1.375v-0.688h-8.25v0.688c0,0.758-0.615,1.375-1.375,1.375
	c-0.758,0-1.375-0.617-1.375-1.375v-0.688h-0.572c-0.824,0-1.49,0.676-1.49,1.512v12.101c0,0.834,0.666,1.513,1.49,1.513h8.135
	v-1.377h-8.135C233.034,248.105,232.982,248.041,232.982,247.97z"/>
<rect x="242.607" y="240.107" fill="#017E40" width="2.5" height="2.5"/>
<path fill="#017E40" d="M249.481,247.605h-1.874v-1.874c0-0.346-0.28-0.626-0.626-0.626s-0.625,0.28-0.625,0.626v2.501
	c0,0.345,0.279,0.625,0.625,0.625h2.5c0.346,0,0.626-0.28,0.626-0.625C250.107,247.886,249.827,247.605,249.481,247.605z"/>
</svg>
