<?xml version="1.0" encoding="utf-8"?>
<!-- Generator: Adobe Illustrator 16.0.4, SVG Export Plug-In . SVG Version: 6.00 Build 0)  -->
<!DOCTYPE svg PUBLIC "-//W3C//DTD SVG 1.1//EN" "http://www.w3.org/Graphics/SVG/1.1/DTD/svg11.dtd">
<svg version="1.1" id="Layer_1" xmlns="http://www.w3.org/2000/svg" xmlns:xlink="http://www.w3.org/1999/xlink" x="0px" y="0px"
	 width="24px" height="24px" viewBox="0 0 24 24" enable-background="new 0 0 24 24" xml:space="preserve">
<g id="Bounding_Boxes" opacity="0.3">
	<g id="ui_x5F_spec_x5F_header_copy_2">
	</g>
	<path fill="none" d="M0,0h24v24H0V0z"/>
</g>
<g id="Outline">
	<g id="ui_x5F_spec_x5F_header">
	</g>
	<path fill="#666666" d="M15,4v7H6H5.17L4,12.17V4H15 M16,2H3C2.45,2,2,2.45,2,3v14l4-4h10c0.55,0,1-0.45,1-1V3
		C17,2.45,16.55,2,16,2L16,2z M21,6h-2v9H6v2c0,0.55,0.45,1,1,1h11l4,4V7C22,6.45,21.55,6,21,6L21,6z"/>
</g>
</svg>
