<?xml version="1.0" encoding="utf-8"?>
<!-- Generator: Adobe Illustrator 16.0.4, SVG Export Plug-In . SVG Version: 6.00 Build 0)  -->
<!DOCTYPE svg PUBLIC "-//W3C//DTD SVG 1.1//EN" "http://www.w3.org/Graphics/SVG/1.1/DTD/svg11.dtd">
<svg version="1.1" id="Capa_1" xmlns="http://www.w3.org/2000/svg" xmlns:xlink="http://www.w3.org/1999/xlink" x="0px" y="0px"
	 width="16px" height="18.318px" viewBox="6.311 5.152 16 18.318" enable-background="new 6.311 5.152 16 18.318"
	 xml:space="preserve">
<g>
	<path fill="#333333" d="M14.311,5.152c-4.418,0-8,3.582-8,8c0,3.023,1.676,5.65,4.147,7.011l-0.094,3.307l3.775-2.326
		c0.057,0.001,0.114,0.009,0.172,0.009c4.418,0,8-3.582,8-8S18.729,5.152,14.311,5.152z M13.952,17.963
		c-0.714,0-1.2-0.526-1.2-1.228c0-0.716,0.498-1.229,1.2-1.229c0.73,0,1.202,0.513,1.215,1.229
		C15.167,17.436,14.682,17.963,13.952,17.963z M15.584,12.942c-0.498,0.554-0.701,1.079-0.688,1.688v0.242h-1.794l-0.014-0.35
		c-0.041-0.688,0.188-1.391,0.797-2.118c0.431-0.514,0.783-0.945,0.783-1.404c0-0.472-0.312-0.782-0.987-0.809
		c-0.444,0-0.985,0.161-1.333,0.405l-0.46-1.473c0.486-0.283,1.294-0.551,2.253-0.551c1.782,0,2.591,0.984,2.591,2.105
		C16.731,11.701,16.099,12.375,15.584,12.942z"/>
</g>
</svg>
