<?xml version="1.0" encoding="utf-8"?>
<!-- Generator: Adobe Illustrator 16.0.4, SVG Export Plug-In . SVG Version: 6.00 Build 0)  -->
<!DOCTYPE svg PUBLIC "-//W3C//DTD SVG 1.1//EN" "http://www.w3.org/Graphics/SVG/1.1/DTD/svg11.dtd">
<svg version="1.1" id="Capa_1" xmlns="http://www.w3.org/2000/svg" xmlns:xlink="http://www.w3.org/1999/xlink" x="0px" y="0px"
	 width="283.46px" height="283.46px" viewBox="0 0 283.46 283.46" enable-background="new 0 0 283.46 283.46" xml:space="preserve">
<g>
	<g>
		<g>
			<path fill="#666666" d="M232.875,0L106.27,126.632l-16.648,66.61l66.619-16.648l73.985-73.993v109.013H106.579v34.135
				l-40.962-34.135H18.26V52.638h70.655V34.974H0.596v194.303h58.626l65.021,54.184v-54.184H247.89V84.937l34.974-34.948L232.875,0z
				 M113.892,168.963l5.14-20.544l15.412,15.412L113.892,168.963z M151.718,156.13l-24.976-24.985l81.183-81.156l24.949,24.95
				L151.718,156.13z M245.399,62.45l-24.985-24.977l12.461-12.497l25.013,25.012L245.399,62.45z"/>
			<rect x="35.924" y="70.302" fill="#666666" width="88.319" height="17.664"/>
			<rect x="35.924" y="105.629" fill="#666666" width="52.991" height="17.664"/>
			<rect x="35.924" y="140.957" fill="#666666" width="35.328" height="17.664"/>
			<rect x="35.924" y="176.285" fill="#666666" width="35.328" height="17.664"/>
			<rect x="141.907" y="34.974" fill="#666666" width="17.663" height="17.664"/>
			<rect x="106.579" y="34.974" fill="#666666" width="17.664" height="17.664"/>
		</g>
	</g>
</g>
</svg>
