<?xml version="1.0" encoding="utf-8"?>
<!-- Generator: Adobe Illustrator 16.0.4, SVG Export Plug-In . SVG Version: 6.00 Build 0)  -->
<!DOCTYPE svg PUBLIC "-//W3C//DTD SVG 1.1//EN" "http://www.w3.org/Graphics/SVG/1.1/DTD/svg11.dtd">
<svg version="1.1" id="Capa_1" xmlns="http://www.w3.org/2000/svg" xmlns:xlink="http://www.w3.org/1999/xlink" x="0px" y="0px"
	 width="16px" height="16px" viewBox="211.265 211.267 16 16" enable-background="new 211.265 211.267 16 16" xml:space="preserve">
<g>
	<path fill="#333333" d="M226.193,215.251c-0.716-1.226-1.686-2.196-2.911-2.912c-1.227-0.715-2.564-1.073-4.016-1.073
		c-1.451,0-2.79,0.357-4.016,1.073s-2.196,1.686-2.912,2.912s-1.073,2.564-1.073,4.016c0,1.452,0.358,2.79,1.073,4.016
		c0.715,1.226,1.686,2.195,2.912,2.911c1.226,0.715,2.564,1.073,4.016,1.073s2.79-0.358,4.016-1.073
		c1.226-0.715,2.195-1.686,2.911-2.911c0.715-1.227,1.072-2.564,1.072-4.016S226.908,216.477,226.193,215.251z M217.932,213.267
		c0-0.098,0.031-0.177,0.094-0.24s0.143-0.094,0.24-0.094h2c0.097,0,0.177,0.031,0.239,0.094s0.094,0.142,0.094,0.24v1.667
		c0,0.097-0.031,0.177-0.094,0.24s-0.143,0.093-0.239,0.093h-2c-0.097,0-0.177-0.031-0.24-0.093s-0.094-0.143-0.094-0.24V213.267z
		 M221.932,224.267c0,0.097-0.031,0.177-0.094,0.239s-0.142,0.094-0.239,0.094h-4.667c-0.097,0-0.177-0.031-0.24-0.094
		s-0.093-0.143-0.093-0.24V222.6c0-0.098,0.031-0.178,0.093-0.24c0.062-0.062,0.143-0.094,0.24-0.094h1v-3.333h-1
		c-0.097,0-0.177-0.031-0.24-0.094s-0.093-0.142-0.093-0.239v-1.667c0-0.097,0.031-0.177,0.093-0.239
		c0.063-0.062,0.143-0.094,0.24-0.094h3.334c0.097,0,0.177,0.031,0.239,0.094s0.094,0.142,0.094,0.239v5.334h1
		c0.097,0,0.177,0.031,0.239,0.093c0.062,0.062,0.094,0.143,0.094,0.24V224.267L221.932,224.267L221.932,224.267z"/>
</g>
</svg>
