<?xml version="1.0" encoding="utf-8"?>
<!-- Generator: Adobe Illustrator 16.0.4, SVG Export Plug-In . SVG Version: 6.00 Build 0)  -->
<!DOCTYPE svg PUBLIC "-//W3C//DTD SVG 1.1//EN" "http://www.w3.org/Graphics/SVG/1.1/DTD/svg11.dtd">
<svg version="1.1" id="Capa_1" xmlns="http://www.w3.org/2000/svg" xmlns:xlink="http://www.w3.org/1999/xlink" x="0px" y="0px"
	 width="16px" height="15.611px" viewBox="133.73 133.924 16 15.611" enable-background="new 133.73 133.924 16 15.611"
	 xml:space="preserve">
<g>
	<g>
		<g>
			<path fill="#333333" d="M144.786,142.119c-0.031,0.046-0.031,0.093-0.047,0.155c-0.016,0.202,0.14,0.389,0.342,0.404
				s0.389-0.14,0.404-0.342c0-0.047,0-0.094,0.016-0.171c0-0.078,0-0.125,0-0.171c0-0.451-0.077-0.886-0.218-1.306
				c-0.187-0.544-0.513-1.026-0.901-1.431c-0.482-0.482-1.073-0.824-1.742-1.011c-0.311-0.078-0.653-0.124-0.979-0.124
				c-0.109,0-0.218,0-0.342,0.015c-0.109,0.016-0.218,0.031-0.327,0.047c-0.202,0.031-0.342,0.233-0.295,0.42
				c0.031,0.202,0.233,0.342,0.42,0.295c0.093-0.016,0.171-0.031,0.265-0.031c0.015,0,0.031,0,0.046,0
				c0.078,0,0.156-0.016,0.233-0.016c0.855,0,1.648,0.342,2.208,0.917c0.561,0.56,0.902,1.322,0.918,2.177v0.031
				C144.786,142.041,144.786,142.087,144.786,142.119z"/>
			<path fill="#333333" d="M146.838,142.46c-0.016,0.202,0.14,0.389,0.342,0.404s0.389-0.14,0.404-0.342
				c0.016-0.171,0.016-0.342,0.016-0.513c0-0.342-0.031-0.669-0.078-0.995c-0.202-1.244-0.809-2.364-1.664-3.219
				c-0.979-0.979-2.285-1.617-3.731-1.726c-0.155-0.016-0.327-0.016-0.482-0.016c-0.171,0-0.342,0-0.513,0.016
				s-0.342,0.031-0.513,0.062c-0.202,0.031-0.342,0.233-0.295,0.42c0.031,0.202,0.233,0.342,0.42,0.295
				c0.109-0.016,0.202-0.031,0.311-0.046c0.046,0,0.093-0.016,0.14-0.016c0.156-0.016,0.311-0.016,0.451-0.016
				c0.529,0,1.026,0.078,1.508,0.218c0.84,0.249,1.586,0.7,2.192,1.306c0.498,0.498,0.901,1.104,1.166,1.757
				c0.233,0.591,0.373,1.244,0.373,1.928c0,0.047,0,0.109,0,0.155C146.853,142.258,146.838,142.352,146.838,142.46z"/>
			<path fill="#333333" d="M147.367,136.303c-1.478-1.478-3.499-2.379-5.738-2.379c-0.233,0-0.466,0.016-0.7,0.031
				s-0.466,0.047-0.7,0.093c-0.202,0.031-0.342,0.233-0.295,0.42c0.031,0.202,0.233,0.342,0.42,0.295
				c0.109-0.016,0.202-0.031,0.311-0.046c0.109-0.016,0.217-0.031,0.326-0.031c0.218-0.016,0.42-0.031,0.638-0.031
				c2.021,0,3.856,0.824,5.194,2.146c1.321,1.322,2.146,3.156,2.146,5.193c0,0.109,0,0.233,0,0.342c0,0.093-0.016,0.187-0.016,0.295
				c-0.016,0.202,0.14,0.389,0.342,0.404s0.389-0.14,0.404-0.342c0.016-0.233,0.031-0.467,0.031-0.684
				C149.73,139.786,148.829,137.765,147.367,136.303z"/>
			<path fill="#333333" d="M149.155,145.726l-2.752-1.478c-0.918-0.497-0.949-0.171-1.913,0.855
				c-0.233,0.249-0.668,0.901-1.182,0.777c-1.072-0.265-3.079-1.835-3.731-2.55c-0.311-0.343-1.648-1.975-1.664-2.503
				c-0.031-0.809,1.742-1.213,1.166-2.752l-1.228-2.752c-1.151-2.643-4.37,1.586-4.105,3.561
				c0.684,4.867,9.221,12.734,13.979,10.138C148.782,148.431,150.212,146.364,149.155,145.726z"/>
		</g>
	</g>
</g>
</svg>
