<?xml version="1.0" standalone="no"?>
<!DOCTYPE svg PUBLIC "-//W3C//DTD SVG 1.1//EN" "http://www.w3.org/Graphics/SVG/1.1/DTD/svg11.dtd" >
<svg>
<metadata>
Created by FontForge 20090914 at Sat Oct 17 15:45:20 2015
 By www-data
Copyright &#194;&#169; 2007 M. Hacen, All Rights Reserved / www.hacen.net
</metadata>
<defs>
<font id="HacenTunisiaLt" horiz-adv-x="990" >
  <font-face 
    font-family="Hacen Tunisia Lt"
    font-weight="400"
    font-stretch="normal"
    units-per-em="2048"
    panose-1="2 0 0 0 0 0 0 0 0 0"
    ascent="1638"
    descent="-410"
    x-height="1102"
    cap-height="1449"
    bbox="-246 -568 2701 2134"
    underline-thickness="100"
    underline-position="-700"
    unicode-range="U+0020-U+FEFF"
  />
<missing-glyph horiz-adv-x="582" 
d="M5 1257h485v-1107h-485v1107zM76 1186v-966h343v966h-343z" />
    <glyph glyph-name=".notdef" unicode="&#x640;&#x651;&#x650;" horiz-adv-x="582" 
d="M5 1257h485v-1107h-485v1107zM76 1186v-966h343v966h-343z" />
    <glyph glyph-name="shaddawithfathatanisolated" unicode="&#x651;&#x64b;" horiz-adv-x="425" 
d="M398 1823c4 -7.33301 6.00488 -12.668 6.00488 -16.001c0 -2.66699 -0.333008 -4.83398 -1 -6.50098s-1 -4.16699 -1 -7.5c0 -1.33301 0.166992 -3 0.5 -5s1.16602 -4.66699 2.49902 -8c10 -27.333 15 -55 15 -83c0 -16 -1.83301 -31.5 -5.5 -46.5
s-9.33398 -28.333 -17.001 -40s-17.334 -20.834 -29.001 -27.501s-25.5 -10 -41.5 -10c-11.333 0 -21 2 -29 6s-16.667 9.33301 -26 16c-3.33301 -9.33301 -8 -19.666 -14 -30.999s-14 -22.333 -24 -33s-22.667 -19.5 -38 -26.5s-33.333 -10.5 -54 -10.5
c-14.667 0 -26.834 2.66699 -36.501 8s-17.5 12.5 -23.5 21.5s-10.167 19.167 -12.5 30.5s-3.5 22.666 -3.5 33.999c0 14.667 1.5 28.5 4.5 41.5s6.16699 23.167 9.5 30.5c0 -0.666992 0.333008 -1 1 -1s2.16699 1.33301 4.5 4l8 9c3 3.33301 5.83301 6.33301 8.5 9
s4.66699 4 6 4c0.666992 0 1 -0.333008 1 -1c-2 -9.33301 -3.83301 -18.5 -5.5 -27.5s-2.5 -17.167 -2.5 -24.5c0 -12.667 2.66699 -23 8 -31s15 -12 29 -12c16.667 0 30.167 2.66699 40.5 8s18.5 12.333 24.5 21s10.333 18.5 13 29.5s4.5 22.167 5.5 33.5l3 32.5
c1 10.333 2.5 19.5 4.5 27.5l1 -1c1.33301 0 3 1.16699 5 3.5s4 5 6 8s4.16699 5.66699 6.5 8s4.16602 3.5 5.49902 3.5c0.666992 0 1.33398 -0.333008 2.00098 -1c-0.666992 -3.33301 -1 -7.66602 -1 -12.999c0 -25.333 6.5 -46.666 19.5 -63.999s28.833 -26 47.5 -26
c3.33301 0 7.83301 0.666992 13.5 2s11.167 3.5 16.5 6.5s10 6.83301 14 11.5s6 10.334 6 17.001c0 13.333 -4.66699 27.333 -14 42s-19 27 -29 37c3.33301 6.66699 8.16602 11.834 14.499 15.501s13 7 20 10s13.667 6.16699 20 9.5s11.5 7.66602 15.5 12.999zM390.005 2031
l-340 -193l17 91l340 193zM401.005 1903l-340 -193l17 91l340 193z" />
    <glyph glyph-name="shaddawithdammatanisolated" unicode="&#x651;&#x64c;" horiz-adv-x="484" arabic-form="isolated" 
d="M425 1928c-6 -10 -15.999 -22.6738 -29.999 -38.0068s-30.333 -30.166 -49 -44.499s-38.834 -26.666 -60.501 -36.999s-43.167 -15.5 -64.5 -15.5c-22 0 -38.333 4.5 -49 13.5s-16 19.167 -16 30.5c0 12.667 3 25.834 9 39.501s9 25.5 9 35.5
c0 6.66699 -2.33301 12 -7 16s-13.667 6 -27 6c-10 0 -22.833 -1.33301 -38.5 -4s-35.167 -7 -58.5 -13c16.667 19.333 36.167 33.833 58.5 43.5s43.833 14.5 64.5 14.5c20 0 37 -4.83301 51 -14.5s21 -24.167 21 -43.5c0 -9.33301 -1.83301 -19.666 -5.5 -30.999
s-9.83398 -23.666 -18.501 -36.999c32 11.333 61.833 24 89.5 38s52.834 31.667 75.501 53c-32 6.66699 -54.5 16.834 -67.5 30.501s-19.5 28.834 -19.5 45.501c0 14.667 4 29 12 43s18.5 26.5 31.5 37.5s27.833 20 44.5 27s33.334 10.5 50.001 10.5
c14 -1.33301 23.5 -7.66602 28.5 -19c5 -11.333 7.5 -24.666 7.5 -40c0 -17.333 -1.83301 -34 -5.5 -50s-6.83398 -27 -9.50098 -33l40 -10l-18 -65zM396.001 1845.99c17.333 -20.667 30.498 -43.835 39.498 -69.502s13.5 -51.834 13.5 -78.501
c0 -16.667 -1.83301 -32.667 -5.5 -48s-9.5 -28.666 -17.5 -39.999s-18 -20.5 -30 -27.5s-26 -10.5 -42 -10.5c-11.333 0 -20.833 2.16699 -28.5 6.5s-16.167 9.83301 -25.5 16.5c-3.33301 -8 -7.83301 -17.667 -13.5 -29s-13.334 -22.166 -23.001 -32.499
s-21.667 -19.166 -36 -26.499s-31.166 -11 -50.499 -11c-17.333 0 -31.833 4.16699 -43.5 12.5s-21 19.333 -28 33s-11.833 28.667 -14.5 45s-4 32.5 -4 48.5c0 17.333 1.33301 33 4 47s5.66699 24.667 9 32c0 -0.666992 0.333008 -1 1 -1s2.33398 1.33301 5.00098 4
l8.5 8.5l8.5 8.5c2.66699 2.66699 4.66699 4 6 4c0.666992 0 1 -0.333008 1 -1c-2 -8 -3.66699 -16.833 -5 -26.5s-2 -19.5 -2 -29.5c0 -11.333 0.833008 -22.333 2.5 -33s4.66699 -20.167 9 -28.5s9.83301 -15 16.5 -20s15 -7.5 25 -7.5c22 0 38 5.83301 48 17.5
s17 25.667 21 42s6.5 32.833 7.5 49.5s3.16699 30 6.5 40l1 -1c1.33301 0 3 1.16699 5 3.5s4.16699 5 6.5 8s4.5 5.66699 6.5 8s3.66699 3.5 5 3.5s2 -0.333008 2 -1c-0.666992 -3.33301 -1 -8 -1 -14c0 -25.333 6.5 -46.666 19.5 -63.999s28.833 -26 47.5 -26
c3.33301 0 7.83301 0.666992 13.5 2s11.167 3.33301 16.5 6s10 6.16699 14 10.5s6 9.83301 6 16.5c0 13.333 -4.66699 27.666 -14 42.999s-18.666 28 -27.999 38c7.33301 13.333 13.833 25.833 19.5 37.5zM402.999 2064.99c-4 4 -8.5 6.33203 -13.5 6.99902
s-9.16699 1 -12.5 1c-11.333 0 -19.333 -3 -24 -9s-7 -12.667 -7 -20c0 -11.333 6.66699 -19.666 20 -24.999l45 -18c0 3.33301 0.333008 6.33301 1 9c0 2.66699 0.166992 5.66699 0.5 9s0.5 7 0.5 11c0 8 -0.666992 15.5 -2 22.5s-4 11.833 -8 14.5v-2z" />
    <glyph glyph-name="shaddawithkasratanisolated" unicode="&#x651;&#x64d;" horiz-adv-x="425" arabic-form="isolated" 
d="M370 2050c16 -20 28.168 -42.5029 36.501 -67.5029s12.5 -50.167 12.5 -75.5c0 -17.333 -2 -33.833 -6 -49.5s-10 -29.5 -18 -41.5s-18 -21.5 -30 -28.5s-26 -10.5 -42 -10.5c-12 0 -21.833 2.33301 -29.5 7s-16.5 10.667 -26.5 18
c-3.33301 -8 -7.83301 -17.5 -13.5 -28.5s-13.5 -21.5 -23.5 -31.5s-22 -18.5 -36 -25.5s-30.333 -10.5 -49 -10.5c-17.333 0 -31.666 4 -42.999 12s-20.5 18.5 -27.5 31.5s-11.833 27.333 -14.5 43s-4 31.5 -4 47.5c0 18.667 1.5 35.834 4.5 51.501s6.5 27.167 10.5 34.5
c0 -0.666992 0.333008 -1 1 -1s2.33398 1.33301 5.00098 4l8.5 8.5l8.5 8.5c2.66699 2.66699 4.66699 4 6 4c0.666992 0 1 -0.333008 1 -1c-5.33301 -19.333 -8 -40 -8 -62s3.83301 -41.667 11.5 -59s21.167 -26 40.5 -26c21.333 0 37.166 5.66699 47.499 17
s17.666 25 21.999 41s7 32.333 8 49s3.5 30 7.5 40l1 -1c1.33301 0 3 1.16699 5 3.5s4.33301 4.83301 7 7.5s5 5.16699 7 7.5s3.66699 3.5 5 3.5s2 -0.333008 2 -1c-0.666992 -3.33301 -1 -6.33301 -1 -9v-9c0 -24.667 6.16699 -45.334 18.5 -62.001s27.833 -25 46.5 -25
c3.33301 0 7.66602 0.666992 12.999 2s10.666 3.33301 15.999 6s10 6.33398 14 11.001s6 10.334 6 17.001c0 12.667 -4.16699 26.334 -12.5 41.001s-17.166 27.334 -26.499 38.001l20 37c6 11.333 12.333 22.666 19 33.999zM381.001 1579l-350 -141l33 75l350 141z
M391.001 1684l-350 -141l33 75l350 141z" />
    <glyph glyph-name="shaddawithfathaisolated" unicode="&#x651;&#x64e;" horiz-adv-x="425" arabic-form="isolated" 
d="M398 1823c4 -7.33301 6.00488 -12.668 6.00488 -16.001c0 -2.66699 -0.333008 -4.83398 -1 -6.50098s-1 -4.16699 -1 -7.5c0 -1.33301 0.166992 -3 0.5 -5s1.16602 -4.66699 2.49902 -8c10 -27.333 15 -55 15 -83c0 -16 -1.83301 -31.5 -5.5 -46.5
s-9.33398 -28.333 -17.001 -40s-17.334 -20.834 -29.001 -27.501s-25.5 -10 -41.5 -10c-11.333 0 -21 2 -29 6s-16.667 9.33301 -26 16c-3.33301 -9.33301 -8 -19.666 -14 -30.999s-14 -22.333 -24 -33s-22.667 -19.5 -38 -26.5s-33.333 -10.5 -54 -10.5
c-14.667 0 -26.834 2.66699 -36.501 8s-17.5 12.5 -23.5 21.5s-10.167 19.167 -12.5 30.5s-3.5 22.666 -3.5 33.999c0 14.667 1.5 28.5 4.5 41.5s6.16699 23.167 9.5 30.5c0 -0.666992 0.333008 -1 1 -1s2.16699 1.33301 4.5 4l8 9c3 3.33301 5.83301 6.33301 8.5 9
s4.66699 4 6 4c0.666992 0 1 -0.333008 1 -1c-2 -9.33301 -3.83301 -18.5 -5.5 -27.5s-2.5 -17.167 -2.5 -24.5c0 -12.667 2.66699 -23 8 -31s15 -12 29 -12c16.667 0 30.167 2.66699 40.5 8s18.5 12.333 24.5 21s10.333 18.5 13 29.5s4.5 22.167 5.5 33.5l3 32.5
c1 10.333 2.5 19.5 4.5 27.5l1 -1c1.33301 0 3 1.16699 5 3.5s4 5 6 8s4.16699 5.66699 6.5 8s4.16602 3.5 5.49902 3.5c0.666992 0 1.33398 -0.333008 2.00098 -1c-0.666992 -3.33301 -1 -7.66602 -1 -12.999c0 -25.333 6.5 -46.666 19.5 -63.999s28.833 -26 47.5 -26
c3.33301 0 7.83301 0.666992 13.5 2s11.167 3.5 16.5 6.5s10 6.83301 14 11.5s6 10.334 6 17.001c0 13.333 -4.66699 27.333 -14 42s-19 27 -29 37c3.33301 6.66699 8.16602 11.834 14.499 15.501s13 7 20 10s13.667 6.16699 20 9.5s11.5 7.66602 15.5 12.999zM401.005 1903
l-340 -193l17 91l340 193z" />
    <glyph glyph-name="shaddawithdammaisolated" unicode="&#x651;&#x64f;" horiz-adv-x="437" arabic-form="isolated" 
d="M372 1846c17.333 -20.667 30.498 -43.835 39.498 -69.502s13.5 -51.834 13.5 -78.501c0 -16.667 -1.83301 -32.667 -5.5 -48s-9.5 -28.666 -17.5 -39.999s-18 -20.5 -30 -27.5s-26 -10.5 -42 -10.5c-11.333 0 -20.833 2.16699 -28.5 6.5s-16.167 9.83301 -25.5 16.5
c-3.33301 -8 -7.83301 -17.667 -13.5 -29s-13.334 -22.166 -23.001 -32.499s-21.667 -19.166 -36 -26.499s-31.166 -11 -50.499 -11c-17.333 0 -31.833 4.16699 -43.5 12.5s-21 19.333 -28 33s-11.833 28.667 -14.5 45s-4 32.5 -4 48.5c0 17.333 1.33301 33 4 47
s5.66699 24.667 9 32c0 -0.666992 0.333008 -1 1 -1s2.33398 1.33301 5.00098 4l8.5 8.5l8.5 8.5c2.66699 2.66699 4.66699 4 6 4c0.666992 0 1 -0.333008 1 -1c-2 -8 -3.66699 -16.833 -5 -26.5s-2 -19.5 -2 -29.5c0 -11.333 0.833008 -22.333 2.5 -33
s4.66699 -20.167 9 -28.5s9.83301 -15 16.5 -20s15 -7.5 25 -7.5c22 0 38 5.83301 48 17.5s17 25.667 21 42s6.5 32.833 7.5 49.5s3.16699 30 6.5 40l1 -1c1.33301 0 3 1.16699 5 3.5s4.16699 5 6.5 8s4.5 5.66699 6.5 8s3.66699 3.5 5 3.5s2 -0.333008 2 -1
c-0.666992 -3.33301 -1 -8 -1 -14c0 -25.333 6.5 -46.666 19.5 -63.999s28.833 -26 47.5 -26c3.33301 0 7.83301 0.666992 13.5 2s11.167 3.33301 16.5 6s10 6.16699 14 10.5s6 9.83301 6 16.5c0 13.333 -4.66699 27.666 -14 42.999s-18.666 28 -27.999 38
c7.33301 13.333 13.833 25.833 19.5 37.5zM346.998 1915c-7.33301 -12 -19.3301 -25.4971 -35.9971 -40.4971s-36.334 -29.167 -59.001 -42.5s-47.5 -24.5 -74.5 -33.5s-54.167 -13.5 -81.5 -13.5c-35.333 0 -59.833 1.16699 -73.5 3.5s-20.834 2.83301 -21.501 1.5
c0 0.666992 0.333008 1 1 1l103 34c28.667 9.33301 54.334 18.666 77.001 27.999s43.167 19.666 61.5 30.999s36.5 25.666 54.5 42.999c-34 6 -58 16 -72 30s-21 29.333 -21 46c0 14.667 4.33301 29.167 13 43.5s20 27 34 38s29.667 20 47 27s34.666 10.5 51.999 10.5
c15.333 -1.33301 25.666 -7.83301 30.999 -19.5s8 -25.167 8 -40.5c0 -16.667 -2 -33.167 -6 -49.5s-7.66699 -27.833 -11 -34.5l43 -10l-19 -63zM322.001 2054c-4 3.33301 -8.33398 5.5 -13.001 6.5s-8.66699 1.5 -12 1.5c-11.333 0 -20 -3 -26 -9s-9 -12.667 -9 -20
c0 -12 6.83301 -21 20.5 -27s29.834 -11.667 48.501 -17c0 2.66699 0.333008 5.66699 1 9c0 2.66699 0.166992 5.83398 0.5 9.50098s0.5 7.5 0.5 11.5c0 7.33301 -0.666992 14.666 -2 21.999s-4.33301 12 -9 14v-1z" />
    <glyph glyph-name="shaddawithkasraisolated" unicode="&#x651;&#x650;" horiz-adv-x="425" arabic-form="isolated" 
d="M385 1972c16 -20 28.168 -42.5029 36.501 -67.5029s12.5 -50.167 12.5 -75.5c0 -17.333 -2 -33.833 -6 -49.5s-10 -29.5 -18 -41.5s-18 -21.5 -30 -28.5s-26 -10.5 -42 -10.5c-12 0 -21.833 2.33301 -29.5 7s-16.5 10.667 -26.5 18
c-3.33301 -8 -7.83301 -17.5 -13.5 -28.5s-13.5 -21.5 -23.5 -31.5s-22 -18.5 -36 -25.5s-30.333 -10.5 -49 -10.5c-17.333 0 -31.666 4 -42.999 12s-20.5 18.5 -27.5 31.5s-11.833 27.333 -14.5 43s-4 31.5 -4 47.5c0 18.667 1.5 35.834 4.5 51.501s6.5 27.167 10.5 34.5
c0 -0.666992 0.333008 -1 1 -1s2.33398 1.33301 5.00098 4l8.5 8.5l8.5 8.5c2.66699 2.66699 4.66699 4 6 4c0.666992 0 1 -0.333008 1 -1c-5.33301 -19.333 -8 -40 -8 -62s3.83301 -41.667 11.5 -59s21.167 -26 40.5 -26c21.333 0 37.166 5.66699 47.499 17
s17.666 25 21.999 41s7 32.333 8 49s3.5 30 7.5 40l1 -1c1.33301 0 3 1.16699 5 3.5s4.33301 4.83301 7 7.5s5 5.16699 7 7.5s3.66699 3.5 5 3.5s2 -0.333008 2 -1c-0.666992 -3.33301 -1 -6.33301 -1 -9v-9c0 -24.667 6.16699 -45.334 18.5 -62.001s27.833 -25 46.5 -25
c3.33301 0 7.66602 0.666992 12.999 2s10.666 3.33301 15.999 6s10 6.33398 14 11.001s6 10.334 6 17.001c0 12.667 -4.16699 26.334 -12.5 41.001s-17.166 27.334 -26.499 38.001l20 37c6 11.333 12.333 22.666 19 33.999zM422.001 1590l-340 -193l17 91l340 193z" />
    <glyph glyph-name="shaddawithfathamedial" unicode="&#x640;&#x651;&#x64e;" horiz-adv-x="375" arabic-form="medial" 
d="M298 1190c4 -7.33301 6.00488 -12.668 6.00488 -16.001c0 -2.66699 -0.333008 -4.83398 -1 -6.50098s-1 -4.16699 -1 -7.5c0 -1.33301 0.166992 -3 0.5 -5s1.16602 -4.66699 2.49902 -8c10 -27.333 15 -55 15 -83c0 -16 -1.83301 -31.5 -5.5 -46.5
s-9.33398 -28.333 -17.001 -40s-17.334 -20.834 -29.001 -27.501s-25.5 -10 -41.5 -10c-11.333 0 -21 2 -29 6s-16.667 9.33301 -26 16c-3.33301 -9.33301 -8 -19.666 -14 -30.999s-14 -22.333 -24 -33s-22.667 -19.5 -38 -26.5s-33.333 -10.5 -54 -10.5
c-14.667 0 -26.834 2.66699 -36.501 8s-17.5 12.5 -23.5 21.5s-10.167 19.167 -12.5 30.5s-3.5 22.666 -3.5 33.999c0 14.667 1.5 28.5 4.5 41.5s6.16699 23.167 9.5 30.5c0 -0.666992 0.333008 -1 1 -1s2.16699 1.33301 4.5 4l8 9c3 3.33301 5.83301 6.33301 8.5 9
s4.66699 4 6 4c0.666992 0 1 -0.333008 1 -1c-2 -9.33301 -3.83301 -18.5 -5.5 -27.5s-2.5 -17.167 -2.5 -24.5c0 -12.667 2.66699 -23 8 -31s15 -12 29 -12c16.667 0 30.167 2.66699 40.5 8s18.5 12.333 24.5 21s10.333 18.5 13 29.5s4.5 22.167 5.5 33.5l3 33
c1 10.667 2.5 19.667 4.5 27l1 -1c1.33301 0 3 1.16699 5 3.5s4 5 6 8s4.16699 5.66699 6.5 8s4.16602 3.5 5.49902 3.5c0.666992 0 1.33398 -0.333008 2.00098 -1c-0.666992 -3.33301 -1 -7.66602 -1 -12.999c0 -25.333 6.5 -46.666 19.5 -63.999s28.833 -26 47.5 -26
c3.33301 0 7.83301 0.666992 13.5 2s11.167 3.5 16.5 6.5s10 6.83301 14 11.5s6 10.334 6 17.001c0 13.333 -4.66699 27.333 -14 42s-19 27 -29 37c3.33301 6.66699 8.16602 11.834 14.499 15.501s13 7 20 10s13.667 6.16699 20 9.5s11.5 7.66602 15.5 12.999zM301.005 1270
l-340 -193l17 91l340 193z" />
    <glyph glyph-name="shaddawithdammamedial" unicode="&#x640;&#x651;&#x64f;" horiz-adv-x="480" arabic-form="medial" 
d="M365 1238c17.333 -20.667 30.498 -43.835 39.498 -69.502s13.5 -51.834 13.5 -78.501c0 -16.667 -1.83301 -32.667 -5.5 -48s-9.5 -28.666 -17.5 -39.999s-18 -20.5 -30 -27.5s-26 -10.5 -42 -10.5c-11.333 0 -20.833 2.16699 -28.5 6.5s-16.167 9.83301 -25.5 16.5
c-3.33301 -8 -7.83301 -17.667 -13.5 -29s-13.334 -22.166 -23.001 -32.499s-21.667 -19.166 -36 -26.499s-31.166 -11 -50.499 -11c-17.333 0 -31.833 4.16699 -43.5 12.5s-21 19.333 -28 33s-11.833 28.667 -14.5 45s-4 32.5 -4 48.5c0 17.333 1.33301 33 4 47
s5.66699 24.667 9 32c0 -0.666992 0.333008 -1 1 -1s2.33398 1.33301 5.00098 4l8.5 8.5l8.5 8.5c2.66699 2.66699 4.66699 4 6 4c0.666992 0 1 -0.333008 1 -1c-2 -8 -3.66699 -16.833 -5 -26.5s-2 -19.5 -2 -29.5c0 -11.333 0.833008 -22.333 2.5 -33
s4.66699 -20.167 9 -28.5s9.83301 -15 16.5 -20s15 -7.5 25 -7.5c22 0 38 5.83301 48 17.5s17 25.667 21 42s6.5 32.833 7.5 49.5s3.16699 30 6.5 40l1 -1c1.33301 0 3 1.16699 5 3.5s4.16699 5 6.5 8s4.5 5.66699 6.5 8s3.66699 3.5 5 3.5s2 -0.333008 2 -1
c-0.666992 -3.33301 -1 -8 -1 -14c0 -25.333 6.5 -46.666 19.5 -63.999s28.833 -26 47.5 -26c3.33301 0 7.83301 0.666992 13.5 2s11.167 3.33301 16.5 6s10 6.16699 14 10.5s6 9.83301 6 16.5c0 13.333 -4.66699 27.666 -14 42.999s-18.666 28 -27.999 38
c7.33301 13.333 13.833 25.833 19.5 37.5zM339.998 1307c-7.33301 -12 -19.3301 -25.4971 -35.9971 -40.4971s-36.334 -29.167 -59.001 -42.5s-47.5 -24.5 -74.5 -33.5s-54.167 -13.5 -81.5 -13.5c-35.333 0 -59.833 1.16699 -73.5 3.5s-20.834 2.83301 -21.501 1.5
c0 0.666992 0.333008 1 1 1l103 34c28.667 9.33301 54.334 18.666 77.001 27.999s43.167 19.666 61.5 30.999s36.5 25.666 54.5 42.999c-34 6 -58 16 -72 30s-21 29.333 -21 46c0 14.667 4.33301 29.167 13 43.5s20 27 34 38s29.667 20 47 27s34.666 10.5 51.999 10.5
c15.333 -1.33301 25.666 -7.83301 30.999 -19.5s8 -25.167 8 -40.5c0 -16.667 -2 -33.167 -6 -49.5s-7.66699 -27.833 -11 -34.5l43 -10l-19 -63zM315.001 1446c-4 3.33301 -8.33398 5.5 -13.001 6.5s-8.66699 1.5 -12 1.5c-11.333 0 -20 -3 -26 -9s-9 -12.667 -9 -20
c0 -12 6.83301 -21 20.5 -27s29.834 -11.667 48.501 -17c0 2.66699 0.333008 5.66699 1 9c0 2.66699 0.166992 5.83398 0.5 9.50098s0.5 7.5 0.5 11.5c0 7.33301 -0.666992 14.666 -2 21.999s-4.33301 12 -9 14v-1z" />
    <glyph glyph-name="allahisolated" unicode="&#xfedf;&#xfee0;&#xfeea;" horiz-adv-x="2039" arabic-form="isolated" 
d="M1223 1111h178.994v-780h374v1022h179v-1103c0.666992 -2.66699 1 -5.66699 1 -9c0 -25.333 -9 -46.666 -27 -63.999s-39.333 -26 -64 -26h-1114c-28.667 0 -51 9.66699 -67 29s-24 42.666 -24 69.999l-2 559l-215 1c-29.333 0 -57 -5.83301 -83 -17.5
s-48.667 -27.167 -68 -46.5s-34.666 -42.166 -45.999 -68.499s-17 -53.833 -17 -82.5l1 -256c25.333 -4.66699 51.833 -8.16699 79.5 -10.5s55.334 -3.83301 83.001 -4.5s55 -0.833984 82 -0.500977s52.167 0.833008 75.5 1.5c1.33301 -16.667 1.83301 -32.167 1.5 -46.5
l-1 -42.5l-1 -42c-0.333008 -14 0.166992 -29 1.5 -45c-33.333 -2 -68.833 -3.16699 -106.5 -3.5s-75.5 0.666992 -113.5 3s-75.333 6.16602 -112 11.499s-71 12.666 -103 21.999c-19.333 4 -35.166 14 -47.499 30s-18.5 34.667 -18.5 56v327c0 54 10.167 105 30.5 153
s48.333 89.833 84 125.5s77.334 63.834 125.001 84.501s98.834 31 153.501 31h274c15.333 0 30.166 -3.16699 44.499 -9.5s26.833 -14.666 37.5 -24.999s19.334 -22.5 26.001 -36.5s10.334 -28.667 11.001 -44l3 -543h384v780zM1502.99 1255
c0 -13.333 -1.99805 -24.333 -5.99805 -33s-9.33301 -15.5 -16 -20.5s-14 -8.5 -22 -10.5s-16.333 -3 -25 -3h-266c-22.667 0 -39.667 5.16699 -51 15.5s-17 27.5 -17 51.5v155c0 4.66699 1.66699 8.5 5 11.5s7.33301 4.5 12 4.5h38c11.333 0 17 -5.33301 17 -16v-150h93
v150c0 4.66699 1.66699 8.5 5 11.5s7.66602 4.5 12.999 4.5h38c4.66699 0 8.66699 -1.5 12 -4.5s5 -6.83301 5 -11.5v-150h92v150c0 4.66699 1.66699 8.5 5 11.5s7.66602 4.5 12.999 4.5h38c4.66699 0 8.66699 -1.5 12 -4.5s5 -6.83301 5 -11.5v-155z" />
    <glyph glyph-name="fathamedial" unicode="&#x640;&#x64e;" horiz-adv-x="448" arabic-form="medial" 
d="M396 1157l-191.5 -102.5l-191.5 -102.5l8 39.5l7 37.5l191.5 101.5l191.5 102.5z" />
    <glyph glyph-name="dammamedial" unicode="&#x640;&#x64f;" horiz-adv-x="490" arabic-form="medial" 
d="M360 1221c-7.33301 -15.333 -19.5 -32.4961 -36.5 -51.4961s-37.167 -36.833 -60.5 -53.5s-48.666 -30.834 -75.999 -42.501s-55 -17.5 -83 -17.5c-37.333 0 -63 1.33301 -77 4s-21 3.66699 -21 3c0 0.666992 0.333008 1 1 1l105.5 43c29.667 12 56 24 79 36
s43.833 25.167 62.5 39.5s37.334 32.5 56.001 54.5c-34.667 8 -59.167 20.667 -73.5 38s-21.5 36.666 -21.5 57.999c0 18 4.16699 36 12.5 54s19.333 34.167 33 48.5s29.167 26.166 46.5 35.499s34.666 14 51.999 14s29.166 -7.33301 35.499 -22s9.5 -32.667 9.5 -54
s-2 -42.333 -6 -63s-7.66699 -35.334 -11 -44.001l44 -13l-19 -80zM335 1398c-4 4.66699 -8.83301 7.49805 -14.5 8.49805s-10.167 1.5 -13.5 1.5c-11.333 0 -19.833 -3.83301 -25.5 -11.5s-8.5 -16.167 -8.5 -25.5c0 -15.333 7 -26.666 21 -33.999
s30.667 -14.666 50 -21.999c0 3.33301 0.333008 7 1 11c0 3.33301 0.166992 7.33301 0.5 12s0.5 9.66699 0.5 15c0 10 -0.666992 19.5 -2 28.5s-4.33301 15.167 -9 18.5v-2z" />
    <glyph glyph-name="kasramedial" unicode="&#x640;&#x650;" horiz-adv-x="669" arabic-form="medial" 
d="M392 506l-191.5 -102.5l-191.5 -102.5c3.33301 15.333 6 28.333 8 39l7 38l191.5 101.5l191.5 102.5z" />
    <glyph glyph-name="shaddamedial" unicode="&#x640;&#x651;" horiz-adv-x="448" arabic-form="medial" 
d="M386 1293c11.333 -17.333 19.666 -36.4951 24.999 -57.4951s8 -41.5 8 -61.5c0 -18.667 -2.16699 -36.834 -6.5 -54.501s-10.666 -33.334 -18.999 -47.001s-18.666 -24.667 -30.999 -33s-26.833 -12.5 -43.5 -12.5s-29.167 3 -37.5 9s-17.5 13.667 -27.5 23
c-4 -7.33301 -9.33301 -15.666 -16 -24.999s-14.834 -18.166 -24.501 -26.499s-21.167 -15.333 -34.5 -21s-28.333 -8.5 -45 -8.5s-30.667 3.16699 -42 9.5s-20.333 14.666 -27 24.999s-11.334 22.166 -14.001 35.499s-4 27 -4 41c0 24.667 3 48 9 70s12 37.667 18 47
c0 -0.666992 0.333008 -1 1 -1s2.5 1.16699 5.5 3.5s6.16699 4.66602 9.5 6.99902s6.5 4.66602 9.5 6.99902s5.16699 3.5 6.5 3.5c0.666992 0 1 -0.333008 1 -1c-5.33301 -11.333 -9.5 -24.5 -12.5 -39.5s-4.5 -29.5 -4.5 -43.5c0 -19.333 3.83301 -35.5 11.5 -48.5
s21.167 -19.5 40.5 -19.5s34.166 5.33301 44.499 16s18.166 23.167 23.499 37.5s9.5 29.166 12.5 44.499s7.16699 28 12.5 38c0 -1.33301 0.666992 -2 2 -2c2.66699 0 6.83398 3.16699 12.501 9.5s9.83398 9.5 12.501 9.5c1.33301 0 2 -0.333008 2 -1
c-2.66699 -10 -4 -20.667 -4 -32c0 -22.667 5.66699 -41.667 17 -57s26 -23 44 -23c4 0 8.66699 0.5 14 1.5s10.5 2.66699 15.5 5s9.33301 5.83301 13 10.5s5.5 11 5.5 19c0 12.667 -3.16699 26.167 -9.5 40.5s-13.166 26.5 -20.499 36.5l24.5 34z" />
    <glyph glyph-name="lamwithalefmaddaaboveisolatedd" unicode="&#xfedf;&#xfe82;" horiz-adv-x="1012" arabic-form="isolated" 
d="M435 262c0 64.667 -5.00293 132.004 -15.0029 202.004c-9.33301 65.333 -23.166 131.333 -41.499 198s-41.5 132 -69.5 196s-61.333 125.5 -100 184.5s-83 114.167 -133 165.5l63.5 64l62.5 63c56.667 -58 107.167 -121 151.5 -189s82.833 -138.333 115.5 -211
s59.667 -146.667 81 -222s37 -149.666 47 -222.999c4.66699 -26.667 8.33398 -54.834 11.001 -84.501s5 -60.834 7 -93.501c40.667 34 72.5 72 95.5 114s36.5 91 40.5 147v780h179v-792c-6 -69.333 -17.833 -129 -35.5 -179s-40.834 -93 -69.501 -129
s-63 -65.833 -103 -89.5s-85 -43.834 -135 -60.501s-105.167 -31 -165.5 -43s-125.166 -23.667 -194.499 -35l-14.5 89c-4.33301 27.333 -9.16602 56.333 -14.499 87c42 5.33301 81.333 11.666 118 18.999s70.667 14.666 102 21.999zM43.9971 1400
c-5.33301 -1.33301 -9.83203 0.169922 -13.499 4.50293s-5.5 9.16602 -5.5 14.499l3 49c0 7.33301 2 13.166 6 17.499s8.66699 7.16602 14 8.49902l384 68c11.333 2 17.666 -4.33301 18.999 -19l-3 -49c0 -6 -2 -11.667 -6 -17s-8.66699 -8.33301 -14 -9z" />
    <glyph glyph-name="lamwithalefmaddaabovefinal" unicode="&#xfee0;&#xfe82;" horiz-adv-x="1076" arabic-form="final" 
d="M1081 151h-244.999c-12.667 0 -25.334 3.16699 -38.001 9.5s-24.667 15.166 -36 26.499c-40.667 -21.333 -83.334 -40.333 -128.001 -57s-90 -31.5 -136 -44.5s-92 -24.5 -138 -34.5s-91 -18.667 -135 -26l-14.5 89c-4.33301 27.333 -9.16602 56.333 -14.499 87
c40 4.66699 80.5 11.167 121.5 19.5s79.5 16.833 115.5 25.5c0 38 -1.33301 75 -4 111s-6.33398 71.667 -11.001 107c-9.33301 65.333 -23.166 131.333 -41.499 198s-41.5 132 -69.5 196s-61.333 125.5 -100 184.5s-83 114.167 -133 165.5l63.5 64l62.5 63
c56.667 -58 107.167 -121 151.5 -189s82.833 -138.333 115.5 -211s59.667 -146.667 81 -222s37 -149.666 47 -222.999c8 -52.667 14 -112 18 -178c27.333 22 55 40.333 83 55l24.5 14c10.333 6 18.833 10.667 25.5 14v958h179v-1022h156v-180zM44.001 1400
c-5.33301 -1.33301 -9.83203 0.169922 -13.499 4.50293s-5.5 9.16602 -5.5 14.499l3 49c0 7.33301 2 13.166 6 17.499s8.66699 7.16602 14 8.49902l384 68c11.333 2 17.666 -4.33301 18.999 -19l-3 -49c0 -6 -2 -11.667 -6 -17s-8.66699 -8.33301 -14 -9z" />
    <glyph glyph-name="lamwithalefhamzaaboveisolatedd" unicode="&#xfedf;&#xfe84;" horiz-adv-x="1012" arabic-form="isolated" 
d="M436 248c-1.33301 86 -8.99707 172.004 -22.9971 258.004s-35.5 170 -64.5 252s-66 161 -111 237s-99.167 147 -162.5 213l33.5 33.5l30.5 30.5l30.5 30.5l32.5 32.5c56.667 -58 107.167 -121 151.5 -189s82.666 -138.333 114.999 -211s59.166 -146.667 80.499 -222
s37.333 -149.666 48 -222.999c4 -26.667 7.33301 -54.834 10 -84.501s5 -60.834 7 -93.501c40.667 34 72.667 72 96 114s36.666 91 39.999 147v780h179v-792c-6 -69.333 -17.833 -129 -35.5 -179s-40.834 -93 -69.501 -129s-63 -65.833 -103 -89.5s-85 -43.834 -135 -60.501
s-105.167 -31 -165.5 -43s-125.166 -23.667 -194.499 -35c-5.33301 32 -10 61.667 -14 89s-8.66699 56.333 -14 87c42 5.33301 81.167 11.666 117.5 18.999s70.5 14.666 102.5 21.999zM130.003 1568c-3.33301 7.33301 -5.49902 14.998 -6.49902 22.998s-1.5 16 -1.5 24
c0 16.667 2.66699 32.834 8 48.501s13.166 29.667 23.499 42s23.333 22.166 39 29.499s33.5 11 53.5 11h111v-83l-111 1c-18 0 -31 -5.16699 -39 -15.5s-12 -21.5 -12 -33.5c0 -11.333 3.66699 -21.666 11 -30.999s19 -14.666 35 -15.999h125v-83h-274v83h38z" />
    <glyph glyph-name="lamwithalefhamzaabovefinal" unicode="&#xfee0;&#xfe84;" horiz-adv-x="1076" arabic-form="final" 
d="M1080 151l-244.999 0.00292969c-12 0 -24.5 3.16699 -37.5 9.5s-25.167 15.166 -36.5 26.499c-40.667 -21.333 -83.334 -40.333 -128.001 -57s-90 -31.5 -136 -44.5s-92 -24.5 -138 -34.5s-91 -18.667 -135 -26l-14.5 89c-4.33301 27.333 -9.16602 56.333 -14.499 87
c40.667 4.66699 81.334 11.167 122.001 19.5s79 16.833 115 25.5c0 38 -1.16699 75 -3.5 111s-5.83301 71.667 -10.5 107c-9.33301 65.333 -23.166 131.333 -41.499 198s-41.5 132 -69.5 196s-61.333 125.5 -100 184.5s-83.334 114.167 -134.001 165.5l63.5 64l62.5 63
c56.667 -58 107.167 -121 151.5 -189s82.833 -138.333 115.5 -211s59.667 -146.667 81 -222s37.333 -149.666 48 -222.999c4 -26.667 7.33301 -54.834 10 -84.501s5 -60.834 7 -93.501c13.333 10.667 27.166 20.667 41.499 30s28.166 17.666 41.499 24.999
c6.66699 3.33301 15 8 25 14s18.667 10.667 26 14v958h179v-1022h155v-180zM130.001 1568c-3.33301 7.33301 -5.49902 14.998 -6.49902 22.998s-1.5 16 -1.5 24c0 16.667 2.66699 32.834 8 48.501s13.166 29.667 23.499 42s23.333 22.166 39 29.499s33.5 11 53.5 11h111v-83
l-111 1c-18 0 -31 -5.16699 -39 -15.5s-12 -21.5 -12 -33.5c0 -11.333 3.66699 -21.666 11 -30.999s19 -14.666 35 -15.999h125v-83h-274v83h38z" />
    <glyph glyph-name="lamwithalefhamzabelowisolated" unicode="&#xfedf;&#xfe88;" horiz-adv-x="1012" arabic-form="isolated" 
d="M436 253c-1.33301 85.333 -8.99707 170.835 -22.9971 256.502s-35.5 169.334 -64.5 251.001s-66 160.334 -111 236.001s-99.167 146.167 -162.5 211.5l33.5 33.5l30.5 30.5l30.5 30.5l32.5 32.5c56.667 -58 107.167 -121 151.5 -189s82.666 -138.333 114.999 -211
s59.166 -146.667 80.499 -222s37.333 -149.666 48 -222.999c4 -26.667 7.33301 -54.834 10 -84.501s5 -60.834 7 -93.501c40.667 34 72.667 72 96 114s36.666 91 39.999 147v780h179v-792c-6 -69.333 -17.833 -129 -35.5 -179s-40.834 -93 -69.501 -129
s-63 -65.833 -103 -89.5s-85 -43.834 -135 -60.501s-105.167 -31 -165.5 -43s-125.166 -23.667 -194.499 -35c-5.33301 32 -10 61.667 -14 89s-8.66699 56.333 -14 87c42 5.33301 81.167 11.666 117.5 18.999s70.5 14.666 102.5 21.999zM170.003 -266.998
c-3.33301 7.33301 -5.49902 14.998 -6.49902 22.998s-1.5 16 -1.5 24c0 16.667 2.66699 32.834 8 48.501s13.166 29.667 23.499 42s23.333 22.166 39 29.499s33.5 11 53.5 11h111v-83l-111 1c-18 0 -31 -5.16699 -39 -15.5s-12 -21.5 -12 -33.5
c0 -11.333 3.66699 -21.666 11 -30.999s19 -14.666 35 -15.999h125v-83h-274v83h38z" />
    <glyph glyph-name="lamwithalefhamzabelowfinal" unicode="&#xfee0;&#xfe88;" horiz-adv-x="1076" arabic-form="final" 
d="M1080 151l-244.999 0.00292969c-12 0 -24.5 3.16699 -37.5 9.5s-25.167 15.166 -36.5 26.499c-40.667 -21.333 -83.334 -40.333 -128.001 -57s-90 -31.5 -136 -44.5s-92 -24.5 -138 -34.5s-91 -18.667 -135 -26l-14.5 89c-4.33301 27.333 -9.16602 56.333 -14.499 87
c40.667 4.66699 81.334 11.167 122.001 19.5s79 16.833 115 25.5c0 38 -1.16699 75 -3.5 111s-5.83301 71.667 -10.5 107c-9.33301 65.333 -23.166 131.333 -41.499 198s-41.5 132 -69.5 196s-61.333 125.5 -100 184.5s-83.334 114.167 -134.001 165.5l63.5 64l62.5 63
c56.667 -58 107.167 -121 151.5 -189s82.833 -138.333 115.5 -211s59.667 -146.667 81 -222s37.333 -149.666 48 -222.999c4 -26.667 7.33301 -54.834 10 -84.501s5 -60.834 7 -93.501c13.333 10.667 27.166 20.667 41.499 30s28.166 17.666 41.499 24.999
c6.66699 3.33301 15 8 25 14s18.667 10.667 26 14v958h179v-1022h155v-180zM170.001 -266.997c-3.33301 7.33301 -5.49902 14.998 -6.49902 22.998s-1.5 16 -1.5 24c0 16.667 2.66699 32.834 8 48.501s13.166 29.667 23.499 42s23.333 22.166 39 29.499s33.5 11 53.5 11h111
v-83l-111 1c-18 0 -31 -5.16699 -39 -15.5s-12 -21.5 -12 -33.5c0 -11.333 3.66699 -21.666 11 -30.999s19 -14.666 35 -15.999h125v-83h-274v83h38z" />
    <glyph glyph-name="lamwithalefisolated" unicode="&#xfedf;&#xfe8e;" horiz-adv-x="1012" arabic-form="isolated" 
d="M434 262c0 32 -1.16406 64.8369 -3.49707 98.5039s-5.83301 68.167 -10.5 103.5c-9.33301 65.333 -23.166 131.333 -41.499 198s-41.5 132 -69.5 196s-61.333 125.5 -100 184.5s-83.334 114.167 -134.001 165.5l33.5 33.5l30.5 30.5l30.5 30.5l32.5 32.5
c56.667 -58 107.167 -121 151.5 -189s82.666 -138.333 114.999 -211s59.166 -146.667 80.499 -222s37.333 -149.666 48 -222.999c4 -26.667 7.33301 -54.834 10 -84.501s5 -60.834 7 -93.501c40.667 34 72.667 72 96 114s36.666 91 39.999 147v780h179v-792
c-6 -69.333 -17.833 -129 -35.5 -179s-40.834 -93 -69.501 -129s-63 -65.833 -103 -89.5s-85 -43.834 -135 -60.501s-105.167 -31 -165.5 -43s-125.166 -23.667 -194.499 -35c-5.33301 32 -10 61.667 -14 89s-8.66699 56.333 -14 87c42 5.33301 81.167 11.666 117.5 18.999
s70.5 14.666 102.5 21.999z" />
    <glyph glyph-name="lamwithaleffinal" unicode="&#xfee0;&#xfe8e;" horiz-adv-x="1076" arabic-form="final" 
d="M1080 151l-244.999 0.00292969c-12 0 -24.5 3.16699 -37.5 9.5s-25.167 15.166 -36.5 26.499c-40.667 -21.333 -83.334 -40.333 -128.001 -57s-90 -31.5 -136 -44.5s-92 -24.5 -138 -34.5s-91 -18.667 -135 -26l-14.5 89c-4.33301 27.333 -9.16602 56.333 -14.499 87
c40.667 4.66699 81.334 11.167 122.001 19.5s79 16.833 115 25.5c0 38 -1.16699 75 -3.5 111s-5.83301 71.667 -10.5 107c-9.33301 65.333 -23.166 131.333 -41.499 198s-41.5 132 -69.5 196s-61.333 125.5 -100 184.5s-83.334 114.167 -134.001 165.5l63.5 64l62.5 63
c56.667 -58 107.167 -121 151.5 -189s82.833 -138.333 115.5 -211s59.667 -146.667 81 -222s37.333 -149.666 48 -222.999c4 -26.667 7.33301 -54.834 10 -84.501s5 -60.834 7 -93.501c13.333 10.667 27.166 20.667 41.499 30s28.166 17.666 41.499 24.999
c6.66699 3.33301 15 8 25 14s18.667 10.667 26 14v958h179v-1022h155v-180z" />
    <glyph glyph-name="bullet_ara" unicode="&#xfcf4;" horiz-adv-x="532" arabic-form="medial" 
d="M424 1178c-7.33301 -15.333 -19.5 -32.4961 -36.5 -51.4961s-37.167 -36.833 -60.5 -53.5s-48.666 -30.834 -75.999 -42.501s-55 -17.5 -83 -17.5c-37.333 0 -63 1.33301 -77 4s-21 3.66699 -21 3c0 0.666992 0.333008 1 1 1l105.5 43c29.667 12 56 24 79 36
s43.833 25.167 62.5 39.5s37.334 32.5 56.001 54.5c-34.667 8 -59.167 20.667 -73.5 38s-21.5 36.666 -21.5 57.999c0 18 4.16699 36 12.5 54s19.333 34.167 33 48.5s29.167 26.166 46.5 35.499s34.666 14 51.999 14s29.166 -7.33301 35.499 -22s9.5 -32.667 9.5 -54
s-2 -42.333 -6 -63s-7.66699 -35.334 -11 -44.001l44 -13l-19 -80zM399 1355c-4 4.66699 -8.83301 7.49805 -14.5 8.49805s-10.167 1.5 -13.5 1.5c-11.333 0 -19.833 -3.83301 -25.5 -11.5s-8.5 -16.167 -8.5 -25.5c0 -15.333 7 -26.666 21 -33.999
s30.667 -14.666 50 -21.999c0 3.33301 0.333008 7 1 11c0 3.33301 0.166992 7.33301 0.5 12s0.5 9.66699 0.5 15c0 10 -0.666992 19.5 -2 28.5s-4.33301 15.167 -9 18.5v-2z" />
    <glyph glyph-name="fathatanisolated" unicode="&#xfe70;" horiz-adv-x="408" arabic-form="isolated" 
d="M389 1675l-340 -193l17 91l340 193zM403 1842l-340 -193l17 91l340 193z" />
    <glyph glyph-name="fathatanabove" unicode="&#xfe71;" horiz-adv-x="669" arabic-form="medial" 
d="M383 1154l-191 -102.5l-191 -102.5c3.33301 15.333 6 28.333 8 39l7 38l191.5 101.5l191.5 102.5zM416 1345l-191.5 -102.499l-191.5 -102.5l8.5 38.5c2.33301 10.333 4.83301 23.166 7.5 38.499l191 101.5l191 102.5z" />
    <glyph glyph-name="dammatanisolated" unicode="&#xfe72;" horiz-adv-x="469" arabic-form="isolated" 
d="M409 1632c-5.33301 -12 -14.665 -27.165 -27.998 -45.498s-29 -36 -47 -53s-37.333 -31.5 -58 -43.5s-41.334 -18 -62.001 -18s-36 5.33301 -46 16s-15 22.667 -15 36c0 15.333 2.66699 31 8 47s8 29.667 8 41c0 8 -2.16699 14.5 -6.5 19.5s-13.166 7.5 -26.499 7.5
c-9.33301 0 -21.5 -1.5 -36.5 -4.5s-33.167 -8.16699 -54.5 -15.5c15.333 22.667 33.833 39.667 55.5 51s42.167 17 61.5 17s35.666 -5.5 48.999 -16.5s20 -28.167 20 -51.5c0 -22.667 -7.66699 -49.334 -23 -80.001c30.667 13.333 59.167 28 85.5 44
s50.166 36.667 71.499 62c-30 7.33301 -51.333 19.166 -64 35.499s-19 34.166 -19 53.499c0 17.333 4 34.333 12 51s18.167 31.667 30.5 45s26.333 24.166 42 32.499s31.5 12.5 47.5 12.5c13.333 -1.33301 22.333 -9 27 -23s7 -29.667 7 -47
c0 -19.333 -1.66699 -38.666 -5 -57.999s-6.33301 -32.666 -9 -39.999l38 -12l-17 -76zM388.001 1793c-4 4 -8.16699 6.66699 -12.5 8s-8.5 2 -12.5 2c-10 0 -17.333 -3.66699 -22 -11s-7 -15.333 -7 -24c0 -13.333 6.33301 -23.333 19 -30s27 -13.667 43 -21
c0 3.33301 0.333008 6.66602 1 9.99902c0 3.33301 0.166992 6.83301 0.5 10.5s0.5 7.83398 0.5 12.501c0 9.33301 -0.666992 18.5 -2 27.5s-4 14.833 -8 17.5v-2z" />
    <glyph glyph-name="kasratanisolated" unicode="&#xfe74;" horiz-adv-x="408" arabic-form="isolated" 
d="M384 -83l-191.5 -102.498l-191.5 -102.5c3.33301 15.333 6 28.166 8 38.499s4.33301 23.166 7 38.499l191.5 101.5l191.5 102.5zM416 107.002l-191.5 -102.499l-191.5 -102.5l8.5 39.5c2.33301 10.333 4.83301 23.166 7.5 38.499l191 101l191 102z" />
    <glyph glyph-name="fathaisolated" unicode="&#xfe76;" horiz-adv-x="408" arabic-form="isolated" 
d="M396 1583l-191.5 -102.5l-191.5 -102.5l8 39.5l7 37.5l191.5 101.5l191.5 102.5z" />
    <glyph glyph-name="dammaisolated" unicode="&#xfe78;" horiz-adv-x="414" arabic-form="isolated" 
d="M366 1664c-7.33301 -15.333 -19.5 -32.4961 -36.5 -51.4961s-37.167 -36.833 -60.5 -53.5s-48.666 -30.834 -75.999 -42.501s-55 -17.5 -83 -17.5c-37.333 0 -63 1.33301 -77 4s-21 3.66699 -21 3c0 0.666992 0.333008 1 1 1l105.5 43c29.667 12 56 24 79 36
s43.833 25.167 62.5 39.5s37.334 32.5 56.001 54.5c-34.667 8 -59.167 20.667 -73.5 38s-21.5 36.666 -21.5 57.999c0 18 4.16699 36 12.5 54s19.333 34.167 33 48.5s29.167 26.166 46.5 35.499s34.666 14 51.999 14s29.166 -7.33301 35.499 -22s9.5 -32.667 9.5 -54
s-2 -42.333 -6 -63s-7.66699 -35.334 -11 -44.001l44 -13l-19 -80zM341 1841c-4 4.66699 -8.83301 7.49805 -14.5 8.49805s-10.167 1.5 -13.5 1.5c-11.333 0 -19.833 -3.83301 -25.5 -11.5s-8.5 -16.167 -8.5 -25.5c0 -15.333 7 -26.666 21 -33.999
s30.667 -14.666 50 -21.999c0 3.33301 0.333008 7 1 11c0 3.33301 0.166992 7.33301 0.5 12s0.5 9.66699 0.5 15c0 10 -0.666992 19.5 -2 28.5s-4.33301 15.167 -9 18.5v-2z" />
    <glyph glyph-name="kasraisolated" unicode="&#xfe7a;" horiz-adv-x="408" arabic-form="isolated" 
d="M392 -363l-191.5 -102.5l-191.5 -102.5c3.33301 15.333 6 28.333 8 39l7 38l191.5 101.5l191.5 102.5z" />
    <glyph glyph-name="shaddaisolated" unicode="&#xfe7c;" horiz-adv-x="425" arabic-form="isolated" 
d="M398 1823c11.333 -17.333 19.666 -36.4951 24.999 -57.4951s8 -41.5 8 -61.5c0 -18.667 -2.16699 -36.834 -6.5 -54.501s-10.666 -33.334 -18.999 -47.001s-18.666 -24.667 -30.999 -33s-26.833 -12.5 -43.5 -12.5s-29.167 3 -37.5 9s-17.5 13.667 -27.5 23
c-4 -7.33301 -9.33301 -15.666 -16 -24.999s-14.834 -18.166 -24.501 -26.499s-21.167 -15.333 -34.5 -21s-28.333 -8.5 -45 -8.5s-30.667 3.16699 -42 9.5s-20.333 14.666 -27 24.999s-11.334 22.166 -14.001 35.499s-4 27 -4 41c0 24.667 3 48 9 70s12 37.667 18 47
c0 -0.666992 0.333008 -1 1 -1s2.5 1.16699 5.5 3.5s6.16699 4.66602 9.5 6.99902s6.5 4.66602 9.5 6.99902s5.16699 3.5 6.5 3.5c0.666992 0 1 -0.333008 1 -1c-5.33301 -11.333 -9.5 -24.5 -12.5 -39.5s-4.5 -29.5 -4.5 -43.5c0 -19.333 3.83301 -35.5 11.5 -48.5
s21.167 -19.5 40.5 -19.5s34.166 5.33301 44.499 16s18.166 23.167 23.499 37.5s9.5 29.166 12.5 44.499s7.16699 28 12.5 38c0 -1.33301 0.666992 -2 2 -2c2.66699 0 6.83398 3.16699 12.501 9.5s9.83398 9.5 12.501 9.5c1.33301 0 2 -0.333008 2 -1
c-2.66699 -10 -4 -20.667 -4 -32c0 -22.667 5.66699 -41.667 17 -57s26 -23 44 -23c4 0 8.66699 0.5 14 1.5s10.5 2.66699 15.5 5s9.33301 5.83301 13 10.5s5.5 11 5.5 19c0 12.667 -3.16699 26.167 -9.5 40.5s-13.166 26.5 -20.499 36.5l24.5 34z" />
    <glyph glyph-name="sukunisolated" unicode="&#xfe7e;" horiz-adv-x="328" arabic-form="isolated" 
d="M347 1696c0.666992 -2.66699 0.998047 -5.33203 0.998047 -7.99902v-8c0 -20.667 -4.83301 -42.334 -14.5 -65.001s-22.167 -48.667 -37.5 -78v1c0 0.666992 0.333008 1.33398 1 2.00098l-3 -5c-8.66699 -5.33301 -18.667 -10.5 -30 -15.5s-23.5 -9.5 -36.5 -13.5
s-26.5 -7.16699 -40.5 -9.5s-27.333 -3.5 -40 -3.5c-26.667 0 -48.334 6.5 -65.001 19.5s-25 36.167 -25 69.5c0 24.667 4 50.667 12 78s18.833 52.333 32.5 75s29.834 41.5 48.501 56.5s38.667 22.5 60 22.5c16.667 0 32.834 -4 48.501 -12s29.834 -17.833 42.501 -29.5
s23 -24.334 31 -38.001s13 -26.5 15 -38.5zM282.998 1628c-2 8.66699 -6.16602 18.166 -12.499 28.499s-14 19.833 -23 28.5s-18.833 15.834 -29.5 21.501s-21.334 8.5 -32.001 8.5c-21.333 0 -37.333 -7 -48 -21s-16 -28.333 -16 -43c0 -18.667 6.83301 -32 20.5 -40
s29.834 -12 48.501 -12c15.333 0 31.166 2.5 47.499 7.5s30.833 11.833 43.5 20.5z" />
    <glyph glyph-name="logo" unicode="&#xfe7f;" horiz-adv-x="2797" arabic-form="medial" 
d="M90 727h2611v-504h-2611v504zM1364 886l-45.0107 -26.001c-16 -9.33301 -32.5 -17.833 -49.5 -25.5s-33.833 -14.167 -50.5 -19.5s-33 -8 -49 -8c-20.667 0 -39.167 6.83301 -55.5 20.5s-30.833 35.5 -43.5 65.5l-30 -20.5
c-8.66699 -5.66699 -17.167 -10.834 -25.5 -15.501s-16.833 -8.66699 -25.5 -12l-30 -11c-12 -4 -22.667 -6 -32 -6c-11.333 0 -22.333 3.83301 -33 11.5s-16 18.834 -16 33.501c0 4.66699 0.833008 9.66699 2.5 15s3.83398 11 6.50098 17c12 26.667 28.333 52.167 49 76.5
s43.5 45.666 68.5 63.999s50.833 33 77.5 44s52 16.5 76 16.5c18 0 34 -5.33301 48 -16s21 -28 21 -52c0 -10 -4.5 -21.333 -13.5 -34s-19 -25.667 -30 -39s-21 -27.333 -30 -42s-13.5 -29 -13.5 -43c0 -10 3 -17.167 9 -21.5s13.667 -6.5 23 -6.5
c14 0 30.5 3.33301 49.5 10s37.833 14.334 56.5 23.001s35.834 17.167 51.501 25.5s26.834 14.5 33.501 18.5c5.33301 24.667 16.166 47.5 32.499 68.5s34.833 39.167 55.5 54.5s41.834 27.5 63.501 36.5s40.834 13.5 57.501 13.5c9.33301 0 16 -1.66699 20 -5
s6 -7.66602 6 -12.999c0 -6.66699 -3.66699 -13.5 -11 -20.5s-17.333 -11.167 -30 -12.5c-12.667 -4.66699 -27.334 -11 -44.001 -19s-32.5 -18 -47.5 -30s-27.667 -25.667 -38 -41s-15.5 -32.666 -15.5 -51.999c0 -21.333 5.5 -36.333 16.5 -45s25.167 -13 42.5 -13
s37 3.33301 59 10s43.5 14.5 64.5 23.5s40.333 18.167 58 27.5s31.5 16.333 41.5 21c0 24 6.33301 47.667 19 71s28.834 44.166 48.501 62.499s41.834 33 66.501 44s49 16.5 73 16.5c14.667 0 26.834 -1.5 36.501 -4.5s17 -6.66699 22 -11s8.5 -9.33301 10.5 -15
s3 -10.834 3 -15.501c0 -17.333 -9.66699 -34.666 -29 -51.999s-41.666 -33.666 -66.999 -48.999s-50.166 -28.833 -74.499 -40.5l-52.5 -25.5c10.667 -15.333 24.334 -26.5 41.001 -33.5s35.667 -10.5 57 -10.5c20 0 41.5 2.83301 64.5 8.5s46.333 13.5 70 23.5
s47 21.833 70 35.5s44.5 28.167 64.5 43.5c12.667 9.33301 25.334 20 38 32c12.667 12 26 23 40 33c2.66699 2 7 4.66699 13 8l19.5 10.5c7 3.66699 14.167 6.66699 21.5 9s14 3.5 20 3.5c10 0 15 -4.33301 15 -13c0 -3.33301 -1.33301 -8.83301 -4 -16.5
s-6 -15.167 -10 -22.5c-10.667 -30 -19.167 -55 -25.5 -75s-10.166 -35.667 -11.5 -47c0 -3.33301 2 -5 6 -5c4.66699 0 11.334 2.16699 20 6.5c8.66699 4.33301 18.5 9.66602 29.5 15.999s22.333 13.666 34 21.999s22.5 16.5 32.5 24.5
c2.66699 1.33301 10.334 6.33301 23 15c12.667 8.66699 27 17.834 43 27.501s32 18.5 48 26.5s28.667 12 38 12c8 0 12 -4 12 -12c-2 -19.333 -3 -38.333 -3 -57c0 -8 0.333008 -16.167 1 -24.5s2.16699 -15.666 4.5 -21.999s5.66602 -11.5 10 -15.5
c4.33301 -4 10.166 -6 17.5 -6c11.333 0 21.666 1.83301 31 5.5c9.33301 3.66699 18.333 8.16699 27 13.5s17.167 11.333 25.5 18s17.5 13 27.5 19l8 -21c-8 -6 -18 -14.333 -30 -25s-24.833 -21.167 -38.5 -31.5s-27.834 -19.333 -42.5 -27
c-14.667 -7.66699 -28.667 -11.5 -42 -11.5c-10 0 -18.333 2 -25 6s-11.667 9 -15 15s-5.66602 12.333 -7 19c-1.33301 6.66699 -2 13 -2 19s0.333008 12.167 1 18.5s1 12.166 1 17.499c0 7.33301 -1.16699 14.333 -3.5 21s-7.16602 10 -14.5 10
c-6.66699 0 -15.834 -3.16699 -27.5 -9.5c-11.667 -6.33301 -24.5 -14.333 -38.5 -24l-45 -31c-16 -11 -32 -21.333 -48 -31s-31.333 -17.834 -46 -24.501s-28 -10 -40 -10c-7.33301 1.33301 -14.666 4 -22 8c-7.33301 4 -11 10.333 -11 19c0 15.333 1.5 30.166 4.5 44.499
s9.16699 35.166 18.5 62.499c0 0.666992 -5.16699 -2.66602 -15.5 -9.99902s-24.666 -16.666 -43 -27.999c-18.333 -11.333 -39.666 -23.666 -63.999 -36.999s-50 -25.833 -77 -37.5s-54.667 -21.334 -83 -29.001s-55.833 -11.5 -82.5 -11.5
c-27.333 0 -52.833 5.5 -76.5 16.5s-40.167 26.5 -49.5 46.5c-12.667 -5.33301 -28.5 -12.666 -47.5 -21.999s-39.667 -18.5 -62 -27.5s-45.166 -16.667 -68.499 -23s-45.333 -9.5 -66 -9.5c-23.333 0 -43.833 5.5 -61.5 16.5s-29.5 31.167 -35.5 60.5zM523.989 1295
c5.33301 24.667 13.8359 46.001 25.5029 64.001s27.167 27 46.5 27c6.66699 0 13.167 -1.16699 19.5 -3.5s9.5 -8.16602 9.5 -17.499c0 -6 -2.66699 -14.167 -8 -24.5s-11 -19.833 -17 -28.5l-97 -192c70 3.33301 139.667 15.333 209 36s132.333 53 189 97
c23.333 20.667 43.833 35.167 61.5 43.5s32.167 12.5 43.5 12.5c16.667 0 25 -7 25 -21c0 -12.667 -7.66699 -28.5 -23 -47.5s-39.666 -37.167 -72.999 -54.5c-22 -22.667 -43 -46.667 -63 -72s-38 -52.666 -54 -81.999s-29.333 -61.333 -40 -96s-17.334 -73 -20.001 -115
c0 -12.667 -5 -19 -15 -19c-8 0 -14 4.5 -18 13.5s-6 24.167 -6 45.5c0 48.667 7.5 95.5 22.5 140.5s33.833 86.5 56.5 124.5c-50.667 -16.667 -102.334 -28.834 -155.001 -36.501s-106.334 -11.5 -161.001 -11.5l-80 -160c-10.667 -20.667 -23.834 -38.667 -39.501 -54
s-34.167 -23 -55.5 -23c-16 0 -32.667 6.16699 -50 18.5s-33 28.666 -47 48.999s-25.667 43.166 -35 68.499s-14 51 -14 77c0 22.667 5.5 41.5 16.5 56.5s29.167 22.5 54.5 22.5c34 0 68.833 -2.83301 104.5 -8.5s71.5 -8.5 107.5 -8.5zM1102.99 265h91v320l318 -320h109
v421h-91v-320l-313 320h-114v-421zM1708.99 265h430v76h-331v108h299v75h-299v87h322v75h-421v-421zM2201.99 686v-77h183v-344h89v344h183v77h-455zM426.992 1080c-72 2 -143.332 9.00195 -213.999 21.002c-8.66699 -6.66699 -13 -18.334 -13 -35.001
c0 -15.333 3.16699 -32.833 9.5 -52.5s14.833 -38.334 25.5 -56.001s22.667 -32.667 36 -45s26.666 -18.5 39.999 -18.5c10 0 19.667 4 29 12s18 21.333 26 40zM1182.99 1059c-3.33301 0.666992 -6.66504 0.999023 -9.99805 0.999023h-10c-24 0 -47.5 -5.66699 -70.5 -17
s-44.667 -25.833 -65 -43.5s-39 -37.167 -56 -58.5s-31.5 -41.666 -43.5 -60.999c27.333 0 53.166 5.5 77.499 16.5s47.166 25 68.499 42s41 36.167 59 57.5s34.667 42.333 50 63zM879.994 390.001v-125h126v125h-126zM1913.99 1091
c-33.333 -3.33301 -66.333 -15.998 -99 -37.998s-58.667 -55 -78 -99c26.667 11.333 51.167 22.666 73.5 33.999s41.833 22.333 58.5 33s29.667 20.667 39 30s14 17.666 14 24.999c0 6.66699 -2.66699 11.667 -8 15z" />
    <glyph glyph-name="hamzaisolated" unicode="&#x621;" horiz-adv-x="1002" arabic-form="isolated" 
d="M111 151v180h125c-12 29.333 -20.667 56.166 -26 80.499s-8 46.5 -8 66.5c0 40.667 7.5 80.834 22.5 120.501s37.333 75 67 106s66.5 56 110.5 75s95 28.5 153 28.5h315v-180l-315 1c-30 0 -56 -4.33301 -78 -13s-40 -20.167 -54 -34.5s-24.5 -30.5 -31.5 -48.5
s-10.5 -36.333 -10.5 -55c0 -18 3 -35.5 9 -52.5s15.5 -32.167 28.5 -45.5s29.5 -24.333 49.5 -33s44 -14 72 -16h358v-180h-787z" />
    <glyph glyph-name="alefwithmaddaaboveisolated" unicode="&#x622;" horiz-adv-x="506" arabic-form="isolated" 
d="M340 153h-179v1166l90.5 15l88.5 15v-1196zM44 1400c-5.33301 -1.33301 -9.83203 0.169922 -13.499 4.50293s-5.5 9.16602 -5.5 14.499l3 49c0 7.33301 2 13.166 6 17.499s8.66699 7.16602 14 8.49902l384 68c11.333 2 17.666 -4.33301 18.999 -19l-3 -49
c0 -6 -2 -11.667 -6 -17s-8.66699 -8.33301 -14 -9z" />
    <glyph glyph-name="alefwithmaddaabovefinal" unicode="&#x622;" horiz-adv-x="486" arabic-form="final" 
d="M497 151l-291.999 0.000976562c-24.667 0 -45.834 8.66699 -63.501 26s-26.5 38.666 -26.5 63.999c0 3.33301 0.333008 6.33301 1 9v1064c32 5.33301 62.333 11 91 17l88 18v-1018h202v-180zM44.001 1400c-5.33301 -1.33301 -9.83203 0.169922 -13.499 4.50293
s-5.5 9.16602 -5.5 14.499l3 49c0 7.33301 2 13.166 6 17.499s8.66699 7.16602 14 8.49902l384 68c11.333 2 17.666 -4.33301 18.999 -19l-3 -49c0 -6 -2 -11.667 -6 -17s-8.66699 -8.33301 -14 -9z" />
    <glyph glyph-name="alefwithhamzaaboveisolated" unicode="&#x623;" horiz-adv-x="506" arabic-form="isolated" 
d="M340 153h-179v1200h179v-1200zM130 1568c-3.33301 7.33301 -5.49902 14.998 -6.49902 22.998s-1.5 16 -1.5 24c0 16.667 2.66699 32.834 8 48.501s13.166 29.667 23.499 42s23.333 22.166 39 29.499s33.5 11 53.5 11h111v-83l-111 1c-18 0 -31 -5.16699 -39 -15.5
s-12 -21.5 -12 -33.5c0 -11.333 3.66699 -21.666 11 -30.999s19 -14.666 35 -15.999h125v-83h-274v83h38z" />
    <glyph glyph-name="alefwithhamzaabovefinal" unicode="&#x623;" horiz-adv-x="491" arabic-form="final" 
d="M496 151l-291.999 0.000976562c-24.667 0 -45.834 8.66699 -63.501 26s-26.5 38.666 -26.5 63.999c0 3.33301 0.333008 6.33301 1 9v1103h179v-1022h202v-180zM130.001 1568c-3.33301 7.33301 -5.49902 14.998 -6.49902 22.998s-1.5 16 -1.5 24
c0 16.667 2.66699 32.834 8 48.501s13.166 29.667 23.499 42s23.333 22.166 39 29.499s33.5 11 53.5 11h111v-83l-111 1c-18 0 -31 -5.16699 -39 -15.5s-12 -21.5 -12 -33.5c0 -11.333 3.66699 -21.666 11 -30.999s19 -14.666 35 -15.999h125v-83h-274v83h38z" />
    <glyph glyph-name="wawwithhamzaaboveisolated" unicode="&#x624;" horiz-adv-x="962" arabic-form="isolated" 
d="M670 164c-16 -5.33301 -41.5039 -10.333 -76.5039 -15s-74.333 -7.83398 -118 -9.50098s-88.667 -1.33398 -135 0.999023s-88.666 8.16602 -126.999 17.499s-69.833 22.833 -94.5 40.5s-37 40.834 -37 69.501v327c0 54 10.167 105 30.5 153s48.333 89.833 84 125.5
s77.334 63.834 125.001 84.501s98.834 31 153.501 31h273c16.667 0 32.334 -3.16699 47.001 -9.5s27.334 -14.833 38.001 -25.5s19.167 -23.5 25.5 -38.5s9.5 -30.833 9.5 -47.5c0 -58.667 1 -120.5 3 -185.5s2.66699 -130.833 2 -197.5s-3.5 -133 -8.5 -199
s-14.667 -129.167 -29 -189.5s-34.333 -116.833 -60 -169.5s-59.167 -99 -100.5 -139s-91.833 -72.5 -151.5 -97.5s-130.5 -40.167 -212.5 -45.5v180c54.667 2 101.167 10.833 139.5 26.5s71 36.834 98 63.501s49.167 57.667 66.5 93s32.666 73.333 45.999 114zM474.996 319
c36 0 72.167 1.83203 108.5 5.49902s72.833 9.16699 109.5 16.5c2.66699 36.667 4 75.334 4 116.001c0 41.333 -0.5 82.333 -1.5 123s-2.16699 80.5 -3.5 119.5s-2 75.5 -2 109.5l-215 1c-29.333 0 -57 -5.83301 -83 -17.5s-48.833 -27.334 -68.5 -47.001
s-35 -42.5 -46 -68.5s-16.5 -53.333 -16.5 -82l1 -254c24 -5.33301 45 -9.5 63 -12.5s34.833 -5.16699 50.5 -6.5s30.5 -2.16602 44.5 -2.49902s29 -0.5 45 -0.5h10zM339.996 1221c-4 9.33301 -7 19.5 -9 30.5s-3 22.167 -3 33.5c0 22 4.16699 43.667 12.5 65
s20.5 40.333 36.5 57s35.833 30.167 59.5 40.5s51.167 15.5 82.5 15.5h170v-113l-170 1c-28 0 -48.167 -7 -60.5 -21s-18.5 -29 -18.5 -45s5.66699 -30.333 17 -43s29.333 -19.667 54 -21h193v-113h-422v113h58z" />
    <glyph glyph-name="wawwithhamzaabovefinal" unicode="&#x624;" horiz-adv-x="1037" arabic-form="final" 
d="M637 149c-27.333 -3.33301 -54.5049 -5.83691 -81.5049 -7.50391s-54.5 -2.5 -82.5 -2.5c-16 0 -36.833 0.333008 -62.5 1s-53.167 2.16699 -82.5 4.5s-58.666 6.16602 -87.999 11.499s-55.833 12.833 -79.5 22.5s-43 21.834 -58 36.501s-22.5 32.334 -22.5 53.001v327
c0 54 10.167 105 30.5 153s48.333 89.833 84 125.5s77.334 63.834 125.001 84.501s98.834 31 153.501 31h273c16.667 0 32.334 -3.16699 47.001 -9.5s27.334 -14.833 38.001 -25.5s19 -23.5 25 -38.5s9 -30.833 9 -47.5c0 -23.333 0.5 -49.833 1.5 -79.5
s2.16699 -61 3.5 -94s2.5 -66.5 3.5 -100.5s1.83301 -67 2.5 -99s0.666992 -62.167 0 -90.5s-2 -52.833 -4 -73.5h172v-180h-196c-14.667 -69.333 -35.334 -134.166 -62.001 -194.499s-61.5 -113.333 -104.5 -159s-95 -82 -156 -109s-133.167 -41.5 -216.5 -43.5v180
c54.667 2 101.167 10.833 139.5 26.5s70.833 36.834 97.5 63.501s48.834 57.667 66.501 93s33.167 73.333 46.5 114zM472.995 318.996c36 0 72.167 1.83203 108.5 5.49902s72.833 9.16699 109.5 16.5c2.66699 36.667 4 75.334 4 116.001c0 41.333 -0.5 82.333 -1.5 123
s-2.16699 80.5 -3.5 119.5s-2 75.5 -2 109.5l-215 1c-29.333 0 -57 -5.83301 -83 -17.5s-48.833 -27.334 -68.5 -47.001s-35 -42.5 -46 -68.5s-16.5 -53.333 -16.5 -82l1 -254c24 -5.33301 45 -9.5 63 -12.5s34.667 -5.16699 50 -6.5s30 -2.16602 44 -2.49902
s29 -0.5 45 -0.5h11zM339.995 1221c-4 9.33301 -7 19.5 -9 30.5s-3 22.167 -3 33.5c0 22 4.16699 43.667 12.5 65s20.5 40.333 36.5 57s35.833 30.167 59.5 40.5s51.167 15.5 82.5 15.5h170v-113l-170 1c-28 0 -48.167 -7 -60.5 -21s-18.5 -29 -18.5 -45
s5.66699 -30.333 17 -43s29.333 -19.667 54 -21h193v-113h-422v113h58z" />
    <glyph glyph-name="alefwithhamzabelowisolated" unicode="&#x625;" horiz-adv-x="506" arabic-form="isolated" 
d="M340 153h-179v1200h179v-1200zM130 -153c-3.33301 7.33301 -5.49902 14.998 -6.49902 22.998s-1.5 16 -1.5 24c0 16.667 2.66699 32.834 8 48.501s13.166 29.667 23.499 42s23.333 22.166 39 29.499s33.5 11 53.5 11h111v-83l-111 1c-18 0 -31 -5.16699 -39 -15.5
s-12 -21.5 -12 -33.5c0 -11.333 3.66699 -21.666 11 -30.999s19 -14.666 35 -15.999h125v-83h-274v83h38z" />
    <glyph glyph-name="alefwithhamzabelowfinal" unicode="&#x625;" horiz-adv-x="491" arabic-form="final" 
d="M497 151l-292.999 0.000976562c-24.667 0 -45.834 8.66699 -63.501 26s-26.5 38.666 -26.5 63.999c0 3.33301 0.333008 6.33301 1 9v1103h179v-1022h203v-180zM130.001 -152.999c-3.33301 7.33301 -5.49902 14.998 -6.49902 22.998s-1.5 16 -1.5 24
c0 16.667 2.66699 32.834 8 48.501s13.166 29.667 23.499 42s23.333 22.166 39 29.499s33.5 11 53.5 11h111v-83l-111 1c-18 0 -31 -5.16699 -39 -15.5s-12 -21.5 -12 -33.5c0 -11.333 3.66699 -21.666 11 -30.999s19 -14.666 35 -15.999h125v-83h-274v83h38z" />
    <glyph glyph-name="yehwithhamzaaboveisolated" unicode="&#x626;" horiz-adv-x="1148" arabic-form="isolated" 
d="M275 464c-11.333 -26.667 -20.998 -57.3369 -28.998 -92.0039s-12 -70 -12 -106c0 -27.333 2.83301 -53.166 8.5 -77.499s16.5 -45.666 32.5 -63.999s38.5 -32.833 67.5 -43.5s66.833 -16 113.5 -16h303c26 0 47.667 3.33301 65 10s31.166 15.5 41.499 26.5
s17.5 23.833 21.5 38.5s6 30.334 6 47.001c0 28 -4.33301 51.333 -13 70s-21 34.667 -37 48s-35.667 24.833 -59 34.5s-50 19.5 -80 29.5c-36 12.667 -71.167 26 -105.5 40s-64.833 32.167 -91.5 54.5s-48 51 -64 86s-24 79.5 -24 133.5c0 63.333 11.333 117.5 34 162.5
s52.5 81.833 89.5 110.5s79 49.667 126 63s94.5 20 142.5 20c45.333 0 89 -4.83301 131 -14.5s80.333 -22.5 115 -38.5l-43.5 -79.5l-43.5 -77.5c-22 9.33301 -47 16.833 -75 22.5s-57 8.5 -87 8.5c-28 0 -54.667 -2.83301 -80 -8.5s-47.666 -15.5 -66.999 -29.5
s-34.666 -32.667 -45.999 -56s-17 -52.666 -17 -87.999c0 -19.333 5 -36.166 15 -50.499s22.833 -27 38.5 -38s33.167 -20.333 52.5 -28s38.666 -14.834 57.999 -21.501c22.667 -8 45.5 -16.5 68.5 -25.5s45.5 -19.5 67.5 -31.5s43 -26 63 -42s37.667 -35 53 -57
c18 -29.333 32.333 -60.833 43 -94.5s16 -67.5 16 -101.5c0 -37.333 -6.33301 -74 -19 -110s-32 -68.5 -58 -97.5s-59 -52.333 -99 -70s-87.333 -26.5 -142 -26.5c-50 0 -99.833 0.333008 -149.5 1s-99.5 1 -149.5 1c-75.333 0 -138.5 11.167 -189.5 33.5
s-92.333 51.5 -124 87.5s-54.334 76.833 -68.001 122.5s-20.5 92.5 -20.5 140.5c0 51.333 6.16699 101.333 18.5 150s27.166 91 44.499 127zM58.002 1023c-4 9.33301 -7 19.5 -9 30.5s-3 22.167 -3 33.5c0 22 4.16699 43.667 12.5 65s20.5 40.333 36.5 57
s35.833 30.167 59.5 40.5s51.167 15.5 82.5 15.5h170v-113l-170 1c-28 0 -48.167 -7 -60.5 -21s-18.5 -29 -18.5 -45s5.66699 -30.333 17 -43s29.333 -19.667 54 -21h193v-113h-422v113h58z" />
    <glyph glyph-name="yehwithhamzaabovefinal" unicode="&#x626;" horiz-adv-x="1498" arabic-form="final" 
d="M261 729c-11.333 -25.333 -21.0039 -55.499 -29.0039 -90.499s-12 -70.833 -12 -107.5c0.666992 -27.333 3.83398 -53.166 9.50098 -77.499s16.334 -45.666 32.001 -63.999s37.834 -32.833 66.501 -43.5s66.667 -16 114 -16l293 1v317c0 109.333 29.5 193.5 88.5 252.5
s143.167 88.5 252.5 88.5l94.5 -2c31 -0.666992 62.5 -1.66699 94.5 -3c25.333 -0.666992 46.166 -10 62.499 -28s24.5 -39.333 24.5 -64v-561h157v-180h-246c-25.333 0 -46.666 8.66699 -63.999 26s-26 38.666 -26 63.999v567l-101 2
c-30.667 0 -56.167 -2.83301 -76.5 -8.5s-36.5 -14.834 -48.5 -27.501s-20.5 -29.334 -25.5 -50.001s-7.5 -46 -7.5 -76l1 -397c0 -28 -8 -51.667 -24 -71s-38.333 -29 -67 -29h-382c-74 0 -136.667 11 -188 33s-92.666 51 -123.999 87s-54 77 -68 123s-21 93 -21 141
c0 52 5.83301 102.333 17.5 151s26.167 91 43.5 127zM176.996 1018c-4 9.33301 -7 19.5 -9 30.5s-3 22.167 -3 33.5c0 22 4.16699 43.667 12.5 65s20.5 40.333 36.5 57s35.833 30.167 59.5 40.5s51.167 15.5 82.5 15.5h170v-113l-170 1c-28 0 -48.167 -7 -60.5 -21
s-18.5 -29 -18.5 -45s5.66699 -30.333 17 -43s29.333 -19.667 54 -21h193v-113h-422v113h58z" />
    <glyph glyph-name="yehwithhamzaaboveinitial" unicode="&#x626;" horiz-adv-x="565" arabic-form="initial" 
d="M-12 331l288.999 -0.000976562v434h179v-515c0.666992 -2.66699 1 -5.66699 1 -9c0 -25.333 -8.66699 -46.666 -26 -63.999s-38.666 -26 -63.999 -26h-379v180zM136.999 992.999c-4 9.33301 -7 19.5 -9 30.5s-3 22.167 -3 33.5c0 22 4.16699 43.667 12.5 65
s20.5 40.333 36.5 57s35.833 30.167 59.5 40.5s51.167 15.5 82.5 15.5h170v-113l-170 1c-28 0 -48.167 -7 -60.5 -21s-18.5 -29 -18.5 -45s5.66699 -30.333 17 -43s29.333 -19.667 54 -21h193v-113h-422v113h58z" />
    <glyph glyph-name="yehwithhamzaabovemedial" unicode="&#x626;" horiz-adv-x="556" arabic-form="medial" 
d="M-8 151v180h208v433h179v-433h187v-180h-574zM137 993c-4 9.33301 -7 19.5 -9 30.5s-3 22.167 -3 33.5c0 22 4.16699 43.667 12.5 65s20.5 40.333 36.5 57s35.833 30.167 59.5 40.5s51.167 15.5 82.5 15.5h170v-113l-170 1c-28 0 -48.167 -7 -60.5 -21
s-18.5 -29 -18.5 -45s5.66699 -30.333 17 -43s29.333 -19.667 54 -21h193v-113h-422v113h58z" />
    <glyph glyph-name="alefisolated" unicode="&#x627;" horiz-adv-x="506" arabic-form="isolated" 
d="M339 153h-178v1200h178v-1200z" />
    <glyph glyph-name="aleffinal" unicode="&#x627;" horiz-adv-x="486" arabic-form="final" 
d="M496 151l-291.999 0.000976562c-24.667 0 -45.834 8.66699 -63.501 26s-26.5 38.666 -26.5 63.999c0 3.33301 0.333008 6.33301 1 9v1103h179v-1022h202v-180z" />
    <glyph glyph-name="behisolated" unicode="&#x628;" horiz-adv-x="1275" arabic-form="isolated" 
d="M1191 955l-0.00292969 -713.999c0 -25.333 -8.66699 -46.666 -26 -63.999s-38.666 -26 -63.999 -26h-636c-75.333 0 -138.5 11.167 -189.5 33.5s-92.167 51.666 -123.5 87.999s-53.833 77.5 -67.5 123.5s-20.5 92.333 -20.5 139c0 52 6 102.333 18 151s26.667 91 44 127
l80 -42.5l78 -40.5c-11.333 -26 -21 -56.333 -29 -91s-12 -70.334 -12 -107.001c0 -27.333 2.83301 -53 8.5 -77s16.334 -45.167 32.001 -63.5s37.334 -33 65.001 -44s63.167 -16.833 106.5 -17.5l557 1v624h179zM628.997 -144.999c0 14 2.5 27 7.5 39s12 22.5 21 31.5
s19.333 16 31 21s24.5 7.5 38.5 7.5s27 -2.5 39 -7.5s22.5 -12 31.5 -21s16 -19.5 21 -31.5s7.5 -25 7.5 -39c0 -28 -9.5 -51.333 -28.5 -70s-42.5 -28 -70.5 -28s-51.333 9.33301 -70 28s-28 42 -28 70z" />
    <glyph glyph-name="behfinal" unicode="&#x628;" horiz-adv-x="1354" arabic-form="final" 
d="M463 151c-75.333 0 -138.502 11.1689 -189.502 33.502s-92.167 51.666 -123.5 87.999s-53.833 77.5 -67.5 123.5s-20.5 92.333 -20.5 139c0 52 6 102.333 18 151s26.667 91 44 127l41.5 -22.5l38 -20l37.5 -19.5l41 -21c-12 -26 -21.833 -56.333 -29.5 -91
s-11.5 -70.334 -11.5 -107.001c0 -27.333 2.83301 -53 8.5 -77s16.334 -45.167 32.001 -63.5s37.334 -33 65.001 -44s63.167 -16.833 106.5 -17.5l556 1v624h179v-624h176v-180h-901zM626.998 -144.998c0 14 2.5 27 7.5 39s11.833 22.5 20.5 31.5s19 16 31 21
s24.667 7.5 38 7.5c28 0 51.5 -9.5 70.5 -28.5s28.5 -42.5 28.5 -70.5c0 -14 -2.5 -26.833 -7.5 -38.5s-12 -22 -21 -31s-19.5 -16 -31.5 -21s-25 -7.5 -39 -7.5c-27.333 0 -50.333 9.33301 -69 28s-28 42 -28 70z" />
    <glyph glyph-name="behinitial" unicode="&#x628;" horiz-adv-x="565" arabic-form="initial" 
d="M-12 331l290 -0.000976562v624h179v-705c0.666992 -2.66699 1 -5.66699 1 -9c0 -25.333 -8.83301 -46.666 -26.5 -63.999s-39.167 -26 -64.5 -26h-379v180zM137 -145.001c0 14 2.5 27 7.5 39s11.833 22.5 20.5 31.5s19 16 31 21s24.667 7.5 38 7.5
c28 0 51.5 -9.5 70.5 -28.5s28.5 -42.5 28.5 -70.5c0 -14 -2.5 -26.833 -7.5 -38.5s-12 -22 -21 -31s-19.5 -16 -31.5 -21s-25 -7.5 -39 -7.5c-27.333 0 -50.333 9.33301 -69 28s-28 42 -28 70z" />
    <glyph glyph-name="behmedial" unicode="&#x628;" horiz-adv-x="565" arabic-form="medial" 
d="M-3 151v180h208v624h179v-624h187v-180h-574zM176 -145c0 14 2.5 27 7.5 39s12 22.5 21 31.5s19.333 16 31 21s24.5 7.5 38.5 7.5s26.833 -2.5 38.5 -7.5s22 -12 31 -21s16 -19.5 21 -31.5s7.5 -25 7.5 -39c0 -28 -9.33301 -51.333 -28 -70s-42 -28 -70 -28
s-51.333 9.33301 -70 28s-28 42 -28 70z" />
    <glyph glyph-name="tehmarbutaisolated" unicode="&#x629;" horiz-adv-x="962" arabic-form="isolated" 
d="M797 180c-50 -13.333 -102.168 -23.5029 -156.501 -30.5029s-109.166 -10.5 -164.499 -10.5c-28.667 0 -56.834 1 -84.501 3s-55.5 4.66699 -83.5 8h1c-23.333 4 -48.333 8 -75 12s-51.167 9.83301 -73.5 17.5s-40.833 18.334 -55.5 32.001s-22 32.5 -22 56.5v327
c0 54 10.167 105 30.5 153s48.333 89.833 84 125.5s77.334 63.834 125.001 84.501s98.834 31 153.501 31h274c16 0 31.167 -3 45.5 -9s27 -14.5 38 -25.5s19.667 -23.833 26 -38.5s9.5 -30.667 9.5 -48l1 -600c0 -21.333 -6.83301 -40.166 -20.5 -56.499
s-30.834 -26.5 -51.501 -30.5zM475.999 318.997c36 0 71.667 1.66699 107 5s71 8.33301 107 15v470l-214 1c-29.333 0 -57 -5.83301 -83 -17.5s-48.833 -27.334 -68.5 -47.001s-35 -42.5 -46 -68.5s-16.5 -53.333 -16.5 -82l1 -254c24 -5.33301 45 -9.5 63 -12.5
s34.833 -5.16699 50.5 -6.5s30.5 -2.16602 44.5 -2.49902s29 -0.5 45 -0.5h10zM557.999 1245c0 28 9.5 51.5 28.5 70.5s42.167 28.5 69.5 28.5c14 0 27 -2.5 39 -7.5s22.5 -12 31.5 -21s16 -19.5 21 -31.5s7.5 -25 7.5 -39s-2.5 -26.833 -7.5 -38.5s-12 -22 -21 -31
s-19.5 -16 -31.5 -21s-25 -7.5 -39 -7.5c-27.333 0 -50.5 9.33301 -69.5 28s-28.5 42 -28.5 70zM282.999 1245c0 28 9.33301 51.5 28 70.5s41.667 28.5 69 28.5c14 0 27 -2.5 39 -7.5s22.5 -12 31.5 -21s16 -19.5 21 -31.5s7.5 -25 7.5 -39s-2.5 -26.833 -7.5 -38.5
s-12 -22 -21 -31s-19.5 -16 -31.5 -21s-25 -7.5 -39 -7.5c-27.333 0 -50.333 9.33301 -69 28s-28 42 -28 70z" />
    <glyph glyph-name="tehmarbutafinal" unicode="&#x629;" horiz-adv-x="1022" arabic-form="final" 
d="M1029 151l-265.005 -0.00585938c-28 0 -50 9.66699 -66 29s-24 42.666 -24 69.999l-2 559l-215 1c-29.333 0 -57 -5.83301 -83 -17.5s-48.833 -27.167 -68.5 -46.5s-35 -42.166 -46 -68.499s-16.5 -53.833 -16.5 -82.5l1 -256c26 -3.33301 48.5 -6.5 67.5 -9.5
s39.5 -4.5 61.5 -4.5c22.667 0 49 2.16699 79 6.5s69 11.5 117 21.5c2.66699 -33.333 5.33398 -63.5 8.00098 -90.5s5.33398 -56.5 8.00098 -88.5c-47.333 -7.33301 -91.5 -12.666 -132.5 -15.999s-80 -4.66602 -117 -3.99902s-72.5 3.33398 -106.5 8.00098
s-67.333 11.334 -100 20.001c-19.333 4 -35 14 -47 30s-18 34.667 -18 56v327c0 54 10.167 105 30.5 153s48.333 89.833 84 125.5s77.334 63.834 125.001 84.501s98.834 31 153.501 31h273c15.333 0 30.166 -3.16699 44.499 -9.5s26.833 -14.666 37.5 -24.999
s19.334 -22.5 26.001 -36.5s10.334 -28.667 11.001 -44l4 -543h176v-180zM555.995 1244.99c0 28 9.33301 51.5 28 70.5s42 28.5 70 28.5c14 0 27 -2.5 39 -7.5s22.5 -12 31.5 -21s16 -19.5 21 -31.5s7.5 -25 7.5 -39s-2.5 -26.833 -7.5 -38.5s-12 -22 -21 -31
s-19.5 -16 -31.5 -21s-25 -7.5 -39 -7.5c-28 0 -51.333 9.33301 -70 28s-28 42 -28 70zM280.995 1244.99c0 28 9.33301 51.5 28 70.5s41.667 28.5 69 28.5c14 0 27 -2.5 39 -7.5s22.5 -12 31.5 -21s16 -19.5 21 -31.5s7.5 -25 7.5 -39s-2.5 -26.833 -7.5 -38.5
s-12 -22 -21 -31s-19.5 -16 -31.5 -21s-25 -7.5 -39 -7.5c-27.333 0 -50.333 9.33301 -69 28s-28 42 -28 70z" />
    <glyph glyph-name="tehisolated" unicode="&#x62a;" horiz-adv-x="1275" arabic-form="isolated" 
d="M1191 955l-0.00292969 -713.999c0 -25.333 -8.66699 -46.666 -26 -63.999s-38.666 -26 -63.999 -26h-636c-75.333 0 -138.5 11.167 -189.5 33.5s-92.167 51.666 -123.5 87.999s-53.833 77.5 -67.5 123.5s-20.5 92.333 -20.5 139c0 52 6 102.333 18 151s26.667 91 44 127
l80 -42.5l78 -40.5c-11.333 -26 -21 -56.333 -29 -91s-12 -70.334 -12 -107.001c0 -27.333 2.83301 -53 8.5 -77s16.334 -45.167 32.001 -63.5s37.334 -33 65.001 -44s63.167 -16.833 106.5 -17.5l557 1v624h179zM681.997 1163c0 14 2.5 27 7.5 39s11.833 22.5 20.5 31.5
s19 16 31 21s24.667 7.5 38 7.5c28 0 51.5 -9.5 70.5 -28.5s28.5 -42.5 28.5 -70.5c0 -13.333 -2.5 -26 -7.5 -38s-12 -22.333 -21 -31s-19.5 -15.5 -31.5 -20.5s-25 -7.5 -39 -7.5c-27.333 0 -50.333 9.33301 -69 28s-28 41.667 -28 69zM405.997 1163c0 14 2.5 27 7.5 39
s12 22.5 21 31.5s19.333 16 31 21s24.5 7.5 38.5 7.5s26.833 -2.5 38.5 -7.5s22 -12 31 -21s16 -19.5 21 -31.5s7.5 -25 7.5 -39c0 -27.333 -9.33301 -50.333 -28 -69s-42 -28 -70 -28s-51.333 9.33301 -70 28s-28 41.667 -28 69z" />
    <glyph glyph-name="tehfinal" unicode="&#x62a;" horiz-adv-x="1354" arabic-form="final" 
d="M463 151c-75.333 0 -138.502 11.1689 -189.502 33.502s-92.167 51.666 -123.5 87.999s-53.833 77.5 -67.5 123.5s-20.5 92.333 -20.5 139c0 52 6 102.333 18 151s26.667 91 44 127l41.5 -22.5l38 -20l37.5 -19.5l41 -21c-12 -26 -21.833 -56.333 -29.5 -91
s-11.5 -70.334 -11.5 -107.001c0 -27.333 2.83301 -53 8.5 -77s16.334 -45.167 32.001 -63.5s37.334 -33 65.001 -44s63.167 -16.833 106.5 -17.5l556 1v624h179v-624h176v-180h-901zM615.998 1170c0 28 9.5 51.333 28.5 70s42.167 28 69.5 28c14 0 27 -2.5 39 -7.5
s22.5 -12 31.5 -21s16 -19.333 21 -31s7.5 -24.5 7.5 -38.5s-2.5 -26.833 -7.5 -38.5s-12 -22 -21 -31s-19.5 -16 -31.5 -21s-25 -7.5 -39 -7.5c-27.333 0 -50.5 9.33301 -69.5 28s-28.5 42 -28.5 70zM340.998 1170c0 28 9.33301 51.333 28 70s41.667 28 69 28
c14 0 27 -2.5 39 -7.5s22.5 -12 31.5 -21s16 -19.333 21 -31s7.5 -24.5 7.5 -38.5s-2.5 -26.833 -7.5 -38.5s-12 -22 -21 -31s-19.5 -16 -31.5 -21s-25 -7.5 -39 -7.5c-27.333 0 -50.333 9.33301 -69 28s-28 42 -28 70z" />
    <glyph glyph-name="tehinitial" unicode="&#x62a;" horiz-adv-x="570" arabic-form="initial" 
d="M-7 331l288.999 -0.000976562v624h179v-705c0.666992 -2.66699 1 -5.66699 1 -9c0 -25.333 -8.66699 -46.666 -26 -63.999s-38.666 -26 -63.999 -26h-379v180zM299.999 1245c0 28 9.33301 51.5 28 70.5s41.667 28.5 69 28.5c14 0 27 -2.5 39 -7.5s22.5 -12 31.5 -21
s16 -19.5 21 -31.5s7.5 -25 7.5 -39s-2.5 -26.833 -7.5 -38.5s-12 -22 -21 -31s-19.5 -16 -31.5 -21s-25 -7.5 -39 -7.5c-27.333 0 -50.333 9.33301 -69 28s-28 42 -28 70zM23.999 1245c0 28 9.33301 51.5 28 70.5s42 28.5 70 28.5s51.333 -9.5 70 -28.5s28 -42.5 28 -70.5
s-9.33301 -51.333 -28 -70s-42 -28 -70 -28s-51.333 9.33301 -70 28s-28 42 -28 70z" />
    <glyph glyph-name="tehmedial" unicode="&#x62a;" horiz-adv-x="556" arabic-form="medial" 
d="M-8 151v180h208v624h179v-624h187v-180h-574zM299 1245c0 28 9.33301 51.5 28 70.5s41.667 28.5 69 28.5c14 0 27 -2.5 39 -7.5s22.5 -12 31.5 -21s16 -19.5 21 -31.5s7.5 -25 7.5 -39s-2.5 -26.833 -7.5 -38.5s-12 -22 -21 -31s-19.5 -16 -31.5 -21s-25 -7.5 -39 -7.5
c-27.333 0 -50.333 9.33301 -69 28s-28 42 -28 70zM23 1245c0 28 9.33301 51.5 28 70.5s42 28.5 70 28.5s51.333 -9.5 70 -28.5s28 -42.5 28 -70.5s-9.33301 -51.333 -28 -70s-42 -28 -70 -28s-51.333 9.33301 -70 28s-28 42 -28 70z" />
    <glyph glyph-name="thehisolated" unicode="&#x62b;" horiz-adv-x="1275" arabic-form="isolated" 
d="M1191 955l-0.00292969 -713.999c0 -25.333 -8.66699 -46.666 -26 -63.999s-38.666 -26 -63.999 -26h-636c-75.333 0 -138.5 11.167 -189.5 33.5s-92.167 51.666 -123.5 87.999s-53.833 77.5 -67.5 123.5s-20.5 92.333 -20.5 139c0 52 6 102.333 18 151s26.667 91 44 127
l80 -42.5l78 -40.5c-11.333 -26 -21 -56.333 -29 -91s-12 -70.334 -12 -107.001c0 -27.333 2.83301 -53 8.5 -77s16.334 -45.167 32.001 -63.5s37.334 -33 65.001 -44s63.167 -16.833 106.5 -17.5l557 1v624h179zM489.997 1436c0 14 2.5 27 7.5 39s12 22.5 21 31.5
s19.333 16 31 21s24.5 7.5 38.5 7.5s27 -2.5 39 -7.5s22.5 -12 31.5 -21s16 -19.5 21 -31.5s7.5 -25 7.5 -39c0 -27.333 -9.5 -50.5 -28.5 -69.5s-42.5 -28.5 -70.5 -28.5s-51.333 9.5 -70 28.5s-28 42.167 -28 69.5zM324.997 1170c0 28 9.33301 51.333 28 70
s41.667 28 69 28c14 0 27 -2.5 39 -7.5s22.5 -12 31.5 -21s16 -19.333 21 -31s7.5 -24.5 7.5 -38.5s-2.5 -26.833 -7.5 -38.5s-12 -22 -21 -31s-19.5 -16 -31.5 -21s-25 -7.5 -39 -7.5c-27.333 0 -50.333 9.33301 -69 28s-28 42 -28 70zM654.997 1170
c0 28 9.33301 51.333 28 70s42 28 70 28s51.333 -9.33301 70 -28s28 -42 28 -70s-9.33301 -51.333 -28 -70s-42 -28 -70 -28s-51.333 9.33301 -70 28s-28 42 -28 70z" />
    <glyph glyph-name="thehfinal" unicode="&#x62b;" horiz-adv-x="1354" arabic-form="final" 
d="M463 151c-75.333 0 -138.502 11.1689 -189.502 33.502s-92.167 51.666 -123.5 87.999s-53.833 77.5 -67.5 123.5s-20.5 92.333 -20.5 139c0 52 6 102.333 18 151s26.667 91 44 127l41.5 -22.5l38 -20l37.5 -19.5l41 -21c-12 -26 -21.833 -56.333 -29.5 -91
s-11.5 -70.334 -11.5 -107.001c0 -27.333 2.83301 -53 8.5 -77s16.334 -45.167 32.001 -63.5s37.334 -33 65.001 -44s63.167 -16.833 106.5 -17.5l556 1v624h179v-624h176v-180h-901zM467.998 1433c0 14 2.5 27 7.5 39s12 22.5 21 31.5s19.333 16 31 21s24.5 7.5 38.5 7.5
s27 -2.5 39 -7.5s22.5 -12 31.5 -21s16 -19.5 21 -31.5s7.5 -25 7.5 -39c0 -28 -9.5 -51.333 -28.5 -70s-42.5 -28 -70.5 -28s-51.333 9.33301 -70 28s-28 42 -28 70zM632.998 1167c0 28 9.33301 51.333 28 70s41.667 28 69 28c14 0 27 -2.5 39 -7.5s22.5 -12 31.5 -21
s16 -19.333 21 -31s7.5 -24.5 7.5 -38.5s-2.5 -26.833 -7.5 -38.5s-12 -22 -21 -31s-19.5 -16 -31.5 -21s-25 -7.5 -39 -7.5c-27.333 0 -50.333 9.33301 -69 28s-28 42 -28 70zM302.998 1167c0 28 9.33301 51.333 28 70s41.667 28 69 28c14 0 27 -2.5 39 -7.5
s22.5 -12 31.5 -21s16 -19.333 21 -31s7.5 -24.5 7.5 -38.5s-2.5 -26.833 -7.5 -38.5s-12 -22 -21 -31s-19.5 -16 -31.5 -21s-25 -7.5 -39 -7.5c-27.333 0 -50.333 9.33301 -69 28s-28 42 -28 70z" />
    <glyph glyph-name="thehinitial" unicode="&#x62b;" horiz-adv-x="570" arabic-form="initial" 
d="M-8 331l288.999 -0.000976562v624h179v-705c0.666992 -2.66699 1 -5.66699 1 -9c0 -25.333 -8.66699 -46.666 -26 -63.999s-38.666 -26 -63.999 -26h-379v180zM341.999 1245c0 28 9.33301 51.5 28 70.5s42 28.5 70 28.5s51.5 -9.5 70.5 -28.5s28.5 -42.5 28.5 -70.5
s-9.5 -51.333 -28.5 -70s-42.5 -28 -70.5 -28s-51.333 9.33301 -70 28s-28 42 -28 70zM177.999 1511c0 14 2.5 27 7.5 39s11.833 22.5 20.5 31.5s19 16 31 21s24.667 7.5 38 7.5c28 0 51.5 -9.5 70.5 -28.5s28.5 -42.5 28.5 -70.5c0 -13.333 -2.5 -26 -7.5 -38
s-12 -22.5 -21 -31.5s-19.5 -16 -31.5 -21s-25 -7.5 -39 -7.5c-27.333 0 -50.333 9.5 -69 28.5s-28 42.167 -28 69.5zM11.999 1245c0 28 9.33301 51.5 28 70.5s42 28.5 70 28.5s51.333 -9.5 70 -28.5s28 -42.5 28 -70.5s-9.33301 -51.333 -28 -70s-42 -28 -70 -28
s-51.333 9.33301 -70 28s-28 42 -28 70z" />
    <glyph glyph-name="thehmedial" unicode="&#x62b;" horiz-adv-x="561" arabic-form="medial" 
d="M-10 151v180h208v624h179v-624h187v-180h-574zM180 1509c0 14 2.5 27 7.5 39s12 22.5 21 31.5s19.5 16 31.5 21s24.667 7.5 38 7.5c28 0 51.5 -9.5 70.5 -28.5s28.5 -42.5 28.5 -70.5c0 -13.333 -2.5 -26 -7.5 -38s-12 -22.5 -21 -31.5s-19.5 -16 -31.5 -21
s-25 -7.5 -39 -7.5c-27.333 0 -50.5 9.5 -69.5 28.5s-28.5 42.167 -28.5 69.5zM15 1243c0 28 9.33301 51.333 28 70s41.667 28 69 28c14 0 27 -2.5 39 -7.5s22.5 -12 31.5 -21s16 -19.333 21 -31s7.5 -24.5 7.5 -38.5s-2.5 -26.833 -7.5 -38.5s-12 -22 -21 -31
s-19.5 -16 -31.5 -21s-25 -7.5 -39 -7.5c-27.333 0 -50.333 9.33301 -69 28s-28 42 -28 70zM345 1243c0 28 9.33301 51.333 28 70s42 28 70 28s51.333 -9.33301 70 -28s28 -42 28 -70s-9.33301 -51.333 -28 -70s-42 -28 -70 -28s-51.333 9.33301 -70 28s-28 42 -28 70z" />
    <glyph glyph-name="jeemisolated" unicode="&#x62c;" horiz-adv-x="1250" arabic-form="isolated" 
d="M542 331l343.999 -0.00195312c-4 77.333 -15.833 142.833 -35.5 196.5s-44.667 97.834 -75 132.501s-64.333 61.667 -102 81s-76.834 33.5 -117.501 42.5s-81.334 14.5 -122.001 16.5s-78.667 3 -114 3c-11.333 0 -22.166 -0.166992 -32.499 -0.5
s-20.5 -0.166016 -30.5 0.500977c3.33301 34 5.83301 64.333 7.5 91s4.16699 56 7.5 88c18 -1.33301 33.5 -2.16602 46.5 -2.49902s29.833 -0.833008 50.5 -1.5c47.333 -2 97 -4.83301 149 -8.5s103.333 -12.334 154 -26.001s99 -33.834 145 -60.501
s86.833 -63.667 122.5 -111s64.834 -106.833 87.501 -178.5s35.667 -159.167 39 -262.5h90v-180h-616c-51.333 -2.66699 -95.666 -11 -132.999 -25s-68 -32 -92 -54s-41.833 -46.667 -53.5 -74s-17.5 -55.333 -17.5 -84c0 -36.667 9.33301 -73 28 -109
s46.667 -68.333 84 -97l-51.5 -76.5l-49.5 -73.5c-63.333 46.667 -111 101.667 -143 165s-48 127.333 -48 192c0 51.333 10.167 101.333 30.5 150s50.5 92.334 90.5 131.001s89.5 70 148.5 94s127.167 37.333 204.5 40h-1zM481.999 -150.002c0 28 9.5 51.5 28.5 70.5
s42.167 28.5 69.5 28.5c14 0 27 -2.5 39 -7.5s22.5 -12 31.5 -21s16 -19.5 21 -31.5s7.5 -25 7.5 -39s-2.5 -26.833 -7.5 -38.5s-12 -22 -21 -31s-19.5 -16 -31.5 -21s-25 -7.5 -39 -7.5c-27.333 0 -50.5 9.33301 -69.5 28s-28.5 42 -28.5 70z" />
    <glyph glyph-name="jeemfinal" unicode="&#x62c;" horiz-adv-x="1265" arabic-form="final" 
d="M540 331l344.003 -0.00195312c-4 77.333 -15.833 142.833 -35.5 196.5s-44.667 97.834 -75 132.501s-64.333 61.667 -102 81s-76.834 33.5 -117.501 42.5s-81.334 14.5 -122.001 16.5s-78.667 3 -114 3c-10.667 0 -21.334 -0.166992 -32.001 -0.5
s-20.667 -0.166016 -30 0.500977c3.33301 34 5.83301 64.333 7.5 91s3.83398 56 6.50098 88c18 -1.33301 33.667 -2.16602 47 -2.49902s30.333 -0.833008 51 -1.5c47.333 -2 97 -4.83301 149 -8.5s103.333 -12.334 154 -26.001s99 -33.834 145 -60.501
s86.833 -63.667 122.5 -111s64.667 -106.833 87 -178.5s35.166 -159.167 38.499 -262.5h206v-180h-732c-51.333 -2.66699 -95.5 -11 -132.5 -25s-67.667 -32 -92 -54s-42.333 -46.667 -54 -74s-17.5 -55.333 -17.5 -84c0 -36.667 9.33301 -73 28 -109s46.667 -68.333 84 -97
l-51.5 -76.5l-49.5 -73.5c-63.333 46.667 -111 101.667 -143 165s-48 127.333 -48 192c0 51.333 10.167 101.333 30.5 150s50.5 92.334 90.5 131.001s89.5 70 148.5 94s127.167 37.333 204.5 40h-1zM481.003 -150.002c0 28 9.33301 51.5 28 70.5s42 28.5 70 28.5
s51.333 -9.5 70 -28.5s28 -42.5 28 -70.5s-9.33301 -51.333 -28 -70s-42 -28 -70 -28s-51.333 9.33301 -70 28s-28 42 -28 70z" />
    <glyph glyph-name="jeeminitial" unicode="&#x62c;" horiz-adv-x="1081" arabic-form="initial" 
d="M117 982c18 -1.33301 33.5029 -2.16699 46.5029 -2.5s29.833 -0.833008 50.5 -1.5c47.333 -2 97 -4.83301 149 -8.5s103.333 -12.334 154 -26.001s99 -33.834 145 -60.501s86.833 -63.667 122.5 -111s64.667 -106.833 87 -178.5s35.166 -159.167 38.499 -262.5h91v-180
h-1003v180h732c-4 77.333 -15.833 142.833 -35.5 196.5s-44.5 97.834 -74.5 132.501s-63.833 61.667 -101.5 81s-76.834 33.5 -117.501 42.5s-81.334 14.5 -122.001 16.5s-78.667 3 -114 3c-11.333 0 -22.333 -0.166992 -33 -0.5s-20.667 -0.166016 -30 0.500977z
M347.003 -150.001c0 28 9.33301 51.5 28 70.5s41.667 28.5 69 28.5c14 0 27 -2.5 39 -7.5s22.5 -12 31.5 -21s16 -19.5 21 -31.5s7.5 -25 7.5 -39s-2.5 -26.833 -7.5 -38.5s-12 -22 -21 -31s-19.5 -16 -31.5 -21s-25 -7.5 -39 -7.5c-27.333 0 -50.333 9.33301 -69 28
s-28 42 -28 70z" />
    <glyph glyph-name="jeemmedial" unicode="&#x62c;" horiz-adv-x="1121" arabic-form="medial" 
d="M168 982c18 -1.33301 33.6699 -2.16699 47.0029 -2.5s30.333 -0.833008 51 -1.5c47.333 -2 97 -4.83301 149 -8.5s103.333 -12.334 154 -26.001s99 -33.834 145 -60.501s86.833 -63.667 122.5 -111s64.667 -106.833 87 -178.5s35.166 -159.167 38.499 -262.5h165v-180
h-1137v180h792c-4 77.333 -15.833 142.833 -35.5 196.5s-44.5 97.834 -74.5 132.501s-64 61.667 -102 81s-77.333 33.5 -118 42.5s-81.334 14.5 -122.001 16.5s-78.667 3 -114 3c-10.667 0 -21.334 -0.166992 -32.001 -0.5s-20.667 -0.166016 -30 0.500977z
M345.003 -150.001c0 28 9.33301 51.5 28 70.5s42 28.5 70 28.5s51.5 -9.5 70.5 -28.5s28.5 -42.5 28.5 -70.5s-9.5 -51.333 -28.5 -70s-42.5 -28 -70.5 -28s-51.333 9.33301 -70 28s-28 42 -28 70z" />
    <glyph glyph-name="hahisolated" unicode="&#x62d;" horiz-adv-x="1250" arabic-form="isolated" 
d="M542 331l343.999 -0.00195312c-4 77.333 -15.833 142.833 -35.5 196.5s-44.667 97.834 -75 132.501s-64.333 61.667 -102 81s-76.834 33.5 -117.501 42.5s-81.334 14.5 -122.001 16.5s-78.667 3 -114 3c-11.333 0 -22.166 -0.166992 -32.499 -0.5
s-20.5 -0.166016 -30.5 0.500977c3.33301 34 5.83301 64.333 7.5 91s4.16699 56 7.5 88c18 -1.33301 33.5 -2.16602 46.5 -2.49902s29.833 -0.833008 50.5 -1.5c47.333 -2 97 -4.83301 149 -8.5s103.333 -12.334 154 -26.001s99 -33.834 145 -60.501
s86.833 -63.667 122.5 -111s64.834 -106.833 87.501 -178.5s35.667 -159.167 39 -262.5h90v-180h-616c-51.333 -2.66699 -95.666 -11 -132.999 -25s-68 -32 -92 -54s-41.833 -46.667 -53.5 -74s-17.5 -55.333 -17.5 -84c0 -36.667 9.33301 -73 28 -109
s46.667 -68.333 84 -97l-51.5 -76.5l-49.5 -73.5c-63.333 46.667 -111 101.667 -143 165s-48 127.333 -48 192c0 51.333 10.167 101.333 30.5 150s50.5 92.334 90.5 131.001s89.5 70 148.5 94s127.167 37.333 204.5 40h-1z" />
    <glyph glyph-name="hahfinal" unicode="&#x62d;" horiz-adv-x="1265" arabic-form="final" 
d="M540 331l344.003 -0.00195312c-4 77.333 -15.833 142.833 -35.5 196.5s-44.667 97.834 -75 132.501s-64.333 61.667 -102 81s-76.834 33.5 -117.501 42.5s-81.334 14.5 -122.001 16.5s-78.667 3 -114 3c-10.667 0 -21.334 -0.166992 -32.001 -0.5
s-20.667 -0.166016 -30 0.500977c3.33301 34 5.83301 64.333 7.5 91s3.83398 56 6.50098 88c18 -1.33301 33.667 -2.16602 47 -2.49902s30.333 -0.833008 51 -1.5c47.333 -2 97 -4.83301 149 -8.5s103.333 -12.334 154 -26.001s99 -33.834 145 -60.501
s86.833 -63.667 122.5 -111s64.667 -106.833 87 -178.5s35.166 -159.167 38.499 -262.5h206v-180h-732c-51.333 -2.66699 -95.5 -11 -132.5 -25s-67.667 -32 -92 -54s-42.333 -46.667 -54 -74s-17.5 -55.333 -17.5 -84c0 -36.667 9.33301 -73 28 -109s46.667 -68.333 84 -97
l-51.5 -76.5l-49.5 -73.5c-63.333 46.667 -111 101.667 -143 165s-48 127.333 -48 192c0 51.333 10.167 101.333 30.5 150s50.5 92.334 90.5 131.001s89.5 70 148.5 94s127.167 37.333 204.5 40h-1z" />
    <glyph glyph-name="hahinitial" unicode="&#x62d;" horiz-adv-x="1081" arabic-form="initial" 
d="M116 982c18 -1.33301 33.6699 -2.16699 47.0029 -2.5s30.333 -0.833008 51 -1.5c47.333 -2 97 -4.83301 149 -8.5s103.333 -12.334 154 -26.001s99 -33.834 145 -60.501s86.833 -63.667 122.5 -111s64.667 -106.833 87 -178.5s35.166 -159.167 38.499 -262.5h91v-180
h-1003v180h732c-4 77.333 -15.833 142.833 -35.5 196.5s-44.5 97.834 -74.5 132.501s-63.833 61.667 -101.5 81s-76.834 33.5 -117.501 42.5s-81.334 14.5 -122.001 16.5s-78.667 3 -114 3c-11.333 0 -22.333 -0.166992 -33 -0.5s-20.667 -0.166016 -30 0.500977z" />
    <glyph glyph-name="hahmedial" unicode="&#x62d;" horiz-adv-x="1121" arabic-form="medial" 
d="M169 982c18 -1.33301 33.5029 -2.16699 46.5029 -2.5s29.833 -0.833008 50.5 -1.5c47.333 -2 97 -4.83301 149 -8.5s103.333 -12.334 154 -26.001s99 -33.834 145 -60.501s86.833 -63.667 122.5 -111s64.667 -106.833 87 -178.5s35.166 -159.167 38.499 -262.5h165v-180
h-1137v180h792c-4 77.333 -15.833 142.833 -35.5 196.5s-44.5 97.834 -74.5 132.501s-64 61.667 -102 81s-77.333 33.5 -118 42.5s-81.334 14.5 -122.001 16.5s-78.667 3 -114 3c-10.667 0 -21.334 -0.166992 -32.001 -0.5s-20.667 -0.166016 -30 0.500977z" />
    <glyph glyph-name="khahisolated" unicode="&#x62e;" horiz-adv-x="1250" arabic-form="isolated" 
d="M542 331l343.999 -0.00195312c-4 77.333 -15.833 142.833 -35.5 196.5s-44.667 97.834 -75 132.501s-64.333 61.667 -102 81s-76.834 33.5 -117.501 42.5s-81.334 14.5 -122.001 16.5s-78.667 3 -114 3c-11.333 0 -22.166 -0.166992 -32.499 -0.5
s-20.5 -0.166016 -30.5 0.500977c3.33301 34 5.83301 64.333 7.5 91s4.16699 56 7.5 88c18 -1.33301 33.5 -2.16602 46.5 -2.49902s29.833 -0.833008 50.5 -1.5c47.333 -2 97 -4.83301 149 -8.5s103.333 -12.334 154 -26.001s99 -33.834 145 -60.501
s86.833 -63.667 122.5 -111s64.834 -106.833 87.501 -178.5s35.667 -159.167 39 -262.5h90v-180h-616c-51.333 -2.66699 -95.666 -11 -132.999 -25s-68 -32 -92 -54s-41.833 -46.667 -53.5 -74s-17.5 -55.333 -17.5 -84c0 -36.667 9.33301 -73 28 -109
s46.667 -68.333 84 -97l-51.5 -76.5l-49.5 -73.5c-63.333 46.667 -111 101.667 -143 165s-48 127.333 -48 192c0 51.333 10.167 101.333 30.5 150s50.5 92.334 90.5 131.001s89.5 70 148.5 94s127.167 37.333 204.5 40h-1zM379.999 1243c0 28 9.33301 51.333 28 70
s41.667 28 69 28c14 0 27 -2.5 39 -7.5s22.5 -12 31.5 -21s16 -19.333 21 -31s7.5 -24.5 7.5 -38.5s-2.5 -26.833 -7.5 -38.5s-12 -22 -21 -31s-19.5 -16 -31.5 -21s-25 -7.5 -39 -7.5c-27.333 0 -50.333 9.33301 -69 28s-28 42 -28 70z" />
    <glyph glyph-name="khahfinal" unicode="&#x62e;" horiz-adv-x="1265" arabic-form="final" 
d="M540 331l344.003 -0.00195312c-4 77.333 -15.833 142.833 -35.5 196.5s-44.667 97.834 -75 132.501s-64.333 61.667 -102 81s-76.834 33.5 -117.501 42.5s-81.334 14.5 -122.001 16.5s-78.667 3 -114 3c-10.667 0 -21.334 -0.166992 -32.001 -0.5
s-20.667 -0.166016 -30 0.500977c3.33301 34 5.83301 64.333 7.5 91s3.83398 56 6.50098 88c18 -1.33301 33.667 -2.16602 47 -2.49902s30.333 -0.833008 51 -1.5c47.333 -2 97 -4.83301 149 -8.5s103.333 -12.334 154 -26.001s99 -33.834 145 -60.501
s86.833 -63.667 122.5 -111s64.667 -106.833 87 -178.5s35.166 -159.167 38.499 -262.5h206v-180h-732c-51.333 -2.66699 -95.5 -11 -132.5 -25s-67.667 -32 -92 -54s-42.333 -46.667 -54 -74s-17.5 -55.333 -17.5 -84c0 -36.667 9.33301 -73 28 -109s46.667 -68.333 84 -97
l-51.5 -76.5l-49.5 -73.5c-63.333 46.667 -111 101.667 -143 165s-48 127.333 -48 192c0 51.333 10.167 101.333 30.5 150s50.5 92.334 90.5 131.001s89.5 70 148.5 94s127.167 37.333 204.5 40h-1zM378.003 1243c0 28 9.33301 51.333 28 70s42 28 70 28
s51.333 -9.33301 70 -28s28 -42 28 -70s-9.33301 -51.333 -28 -70s-42 -28 -70 -28s-51.333 9.33301 -70 28s-28 42 -28 70z" />
    <glyph glyph-name="khahinitial" unicode="&#x62e;" horiz-adv-x="1081" arabic-form="initial" 
d="M117 982c18 -1.33301 33.5029 -2.16699 46.5029 -2.5s29.833 -0.833008 50.5 -1.5c47.333 -2 97 -4.83301 149 -8.5s103.333 -12.334 154 -26.001s99 -33.834 145 -60.501s86.833 -63.667 122.5 -111s64.667 -106.833 87 -178.5s35.166 -159.167 38.499 -262.5h91v-180
h-1003v180h732c-4 77.333 -15.833 142.833 -35.5 196.5s-44.5 97.834 -74.5 132.501s-63.833 61.667 -101.5 81s-76.834 33.5 -117.501 42.5s-81.334 14.5 -122.001 16.5s-78.667 3 -114 3c-11.333 0 -22.333 -0.166992 -33 -0.5s-20.667 -0.166016 -30 0.500977z
M251.003 1243c0 28 9.33301 51.333 28 70s42 28 70 28s51.5 -9.33301 70.5 -28s28.5 -42 28.5 -70s-9.5 -51.333 -28.5 -70s-42.5 -28 -70.5 -28s-51.333 9.33301 -70 28s-28 42 -28 70z" />
    <glyph glyph-name="khahmedial" unicode="&#x62e;" horiz-adv-x="1121" arabic-form="medial" 
d="M168 982c18 -1.33301 33.6699 -2.16699 47.0029 -2.5s30.333 -0.833008 51 -1.5c47.333 -2 97 -4.83301 149 -8.5s103.333 -12.334 154 -26.001s99 -33.834 145 -60.501s86.833 -63.667 122.5 -111s64.667 -106.833 87 -178.5s35.166 -159.167 38.499 -262.5h165v-180
h-1137v180h792c-4 77.333 -15.833 142.833 -35.5 196.5s-44.5 97.834 -74.5 132.501s-64 61.667 -102 81s-77.333 33.5 -118 42.5s-81.334 14.5 -122.001 16.5s-78.667 3 -114 3c-10.667 0 -21.334 -0.166992 -32.001 -0.5s-20.667 -0.166016 -30 0.500977zM296.003 1243
c0 28 9.33301 51.333 28 70s41.667 28 69 28c14 0 27 -2.5 39 -7.5s22.5 -12 31.5 -21s16 -19.333 21 -31s7.5 -24.5 7.5 -38.5s-2.5 -26.833 -7.5 -38.5s-12 -22 -21 -31s-19.5 -16 -31.5 -21s-25 -7.5 -39 -7.5c-27.333 0 -50.333 9.33301 -69 28s-28 42 -28 70z" />
    <glyph glyph-name="dalisolated" unicode="&#x62f;" horiz-adv-x="957" arabic-form="isolated" 
d="M170 984c136.667 0.666992 249.666 -13.1689 338.999 -41.502s161 -73.5 215 -135.5c27.333 -31.333 50 -66.333 68 -105s32.5 -81.667 43.5 -129s18.833 -98.833 23.5 -154.5s7 -116.167 7 -181.5c0 -25.333 -8.66699 -46.666 -26 -63.999s-38.666 -26 -63.999 -26h-675
v180h584c-4.66699 84.667 -14.5 157 -29.5 217s-37.5 108 -67.5 144c-36 40 -87.5 69.833 -154.5 89.5s-154.167 28.834 -261.5 27.501z" />
    <glyph glyph-name="dalfinal" unicode="&#x62f;" horiz-adv-x="977" arabic-form="final" 
d="M100 152l0.00390625 179.999h583c-4 84.667 -13.667 156.334 -29 215.001s-38 105.667 -68 141c-36 40 -87.333 69.833 -154 89.5s-153.667 28.834 -261 27.501c0 34 -0.333008 64.333 -1 91s-1 56 -1 88c68 0.666992 130 -2.5 186 -9.5s106.667 -17.667 152 -32
s85.666 -32.833 120.999 -55.5s66.666 -49.334 93.999 -80.001c45.333 -52.667 78.666 -118 99.999 -196s34.666 -171.333 39.999 -280h127v-180z" />
    <glyph glyph-name="thalisolated" unicode="&#x630;" horiz-adv-x="957" arabic-form="isolated" 
d="M170 984c136.667 0.666992 249.666 -13.1689 338.999 -41.502s161 -73.5 215 -135.5c27.333 -31.333 50 -66.333 68 -105s32.5 -81.667 43.5 -129s18.833 -98.833 23.5 -154.5s7 -116.167 7 -181.5c0 -25.333 -8.66699 -46.666 -26 -63.999s-38.666 -26 -63.999 -26h-675
v180h584c-4.66699 84.667 -14.5 157 -29.5 217s-37.5 108 -67.5 144c-36 40 -87.5 69.833 -154.5 89.5s-154.167 28.834 -261.5 27.501zM194.999 1248c0 28 9.33301 51.5 28 70.5s42 28.5 70 28.5s51.333 -9.5 70 -28.5s28 -42.5 28 -70.5s-9.33301 -51.333 -28 -70
s-42 -28 -70 -28s-51.333 9.33301 -70 28s-28 42 -28 70z" />
    <glyph glyph-name="thalfinal" unicode="&#x630;" horiz-adv-x="982" arabic-form="final" 
d="M100 152l0.00390625 179.999h583c-4 84.667 -13.667 156.334 -29 215.001s-38 105.667 -68 141c-36 40 -87.333 69.833 -154 89.5s-153.667 28.834 -261 27.501c0 34 -0.333008 64.333 -1 91s-1 56 -1 88c68 0.666992 130 -2.5 186 -9.5s106.667 -17.667 152 -32
s85.666 -32.833 120.999 -55.5s66.666 -49.334 93.999 -80.001c45.333 -52.667 78.666 -118 99.999 -196s34.666 -171.333 39.999 -280h127v-180zM193.004 1248c0 28 9.33301 51.5 28 70.5s42 28.5 70 28.5s51.5 -9.5 70.5 -28.5s28.5 -42.5 28.5 -70.5
s-9.5 -51.333 -28.5 -70s-42.5 -28 -70.5 -28s-51.333 9.33301 -70 28s-28 42 -28 70z" />
    <glyph glyph-name="rehisolated" unicode="&#x631;" horiz-adv-x="624" arabic-form="isolated" 
d="M553 848c-0.666992 -25.333 -0.668945 -48.8311 -0.00195312 -70.498s1.66699 -47.5 3 -77.5l4 -106.5c1.33301 -36.333 2 -73.833 2 -112.5c0 -54.667 -2 -110.834 -6 -168.501s-11.667 -114.834 -23 -171.501c-14 -66 -34.333 -128.667 -61 -188
s-61.5 -111.333 -104.5 -156s-95 -80.667 -156 -108s-133.167 -42 -216.5 -44v181c58.667 2.66699 108.834 13.667 150.501 33s76.834 45 105.501 77s51.5 69.333 68.5 112s30.167 88.167 39.5 136.5s15.333 98.5 18 150.5s4 103.667 4 155
c0 36.667 -0.333008 73.167 -1 109.5s-1.66699 71.5 -3 105.5c-1.33301 25.333 -2.33301 50 -3 74s-1 47 -1 69h180z" />
    <glyph glyph-name="rehfinal" unicode="&#x631;" horiz-adv-x="704" arabic-form="final" 
d="M375 705c-1.33301 25.333 -2.33398 49.998 -3.00098 73.998s-1 47 -1 69h179c0 -5.33301 0.166992 -17.166 0.5 -35.499s1 -39.833 2 -64.5s1.83301 -51.334 2.5 -80.001s1.5 -55.667 2.5 -81s1.66699 -47.666 2 -66.999s0.5 -32.333 0.5 -39
c0 -10.667 -0.166992 -22.5 -0.5 -35.5l-1 -39.5l-1 -39.5c-0.333008 -13 -0.833008 -24.833 -1.5 -35.5h153v-180h-177c-14.667 -69.333 -35.334 -134.166 -62.001 -194.499s-61.5 -113.333 -104.5 -159s-95 -82 -156 -109s-133.167 -41.5 -216.5 -43.5v181
c58.667 2.66699 108.834 13.667 150.501 33s76.834 45 105.501 77s51.5 69.333 68.5 112s30.167 88.167 39.5 136.5s15.333 98.5 18 150.5s4 103.667 4 155c0 36.667 -0.333008 73.167 -1 109.5s-1.66699 71.5 -3 105.5z" />
    <glyph glyph-name="zainisolated" unicode="&#x632;" horiz-adv-x="624" arabic-form="isolated" 
d="M553 848l0.000976562 -27c0 -3.33301 0.166992 -13.333 0.5 -30s0.833008 -36.834 1.5 -60.501s1.5 -49 2.5 -76s1.83301 -52.5 2.5 -76.5s1.16699 -45 1.5 -63s0.5 -29.333 0.5 -34c0 -64 -3 -128.667 -9 -194s-16.833 -128.666 -32.5 -189.999
s-36.834 -119 -63.501 -173s-61 -101.333 -103 -142s-92.5 -73.167 -151.5 -97.5s-128.167 -37.5 -207.5 -39.5v181c58.667 2.66699 108.834 13.667 150.501 33s76.834 45 105.501 77s51.5 69.333 68.5 112s30.167 88.167 39.5 136.5s15.333 98.5 18 150.5s4 103.667 4 155
c0 5.33301 -0.166992 17.333 -0.5 36s-0.833008 40.5 -1.5 65.5s-1.33398 51.667 -2.00098 80s-1.33398 54.833 -2.00098 79.5s-1.16699 46 -1.5 64s-0.5 29 -0.5 33h180zM353.001 1182c0 14 2.5 27 7.5 39s12 22.5 21 31.5s19.333 16 31 21s24.5 7.5 38.5 7.5
s27 -2.5 39 -7.5s22.5 -12 31.5 -21s16 -19.5 21 -31.5s7.5 -25 7.5 -39c0 -28 -9.5 -51.333 -28.5 -70s-42.5 -28 -70.5 -28s-51.333 9.33301 -70 28s-28 42 -28 70z" />
    <glyph glyph-name="zainfinal" unicode="&#x632;" horiz-adv-x="704" arabic-form="final" 
d="M375 705c-1.33301 25.333 -2.33398 49.998 -3.00098 73.998s-1 47 -1 69h179c0 -5.33301 0.166992 -17.166 0.5 -35.499s1 -39.833 2 -64.5s1.83301 -51.334 2.5 -80.001s1.5 -55.667 2.5 -81s1.66699 -47.666 2 -66.999s0.5 -32.333 0.5 -39
c0 -10.667 -0.166992 -22.5 -0.5 -35.5l-1 -39.5l-1 -39.5c-0.333008 -13 -0.833008 -24.833 -1.5 -35.5h153v-180h-177c-14.667 -69.333 -35.334 -134.166 -62.001 -194.499s-61.5 -113.333 -104.5 -159s-95 -82 -156 -109s-133.167 -41.5 -216.5 -43.5v181
c58.667 2.66699 108.834 13.667 150.501 33s76.834 45 105.501 77s51.5 69.333 68.5 112s30.167 88.167 39.5 136.5s15.333 98.5 18 150.5s4 103.667 4 155c0 36.667 -0.333008 73.167 -1 109.5s-1.66699 71.5 -3 105.5zM350.999 1182c0 14 2.5 27 7.5 39s12 22.5 21 31.5
s19.333 16 31 21s24.5 7.5 38.5 7.5s26.833 -2.5 38.5 -7.5s22 -12 31 -21s16 -19.5 21 -31.5s7.5 -25 7.5 -39c0 -28 -9.33301 -51.333 -28 -70s-42 -28 -70 -28s-51.333 9.33301 -70 28s-28 42 -28 70z" />
    <glyph glyph-name="seenisolated" unicode="&#x633;" horiz-adv-x="1850" arabic-form="isolated" 
d="M226 557l-0.000976562 -359.001c0 -36.667 6.66699 -68.334 20 -95.001s31 -48.834 53 -66.501s47.333 -30.667 76 -39s58 -12.5 88 -12.5c30.667 0 60.334 4.16699 89.001 12.5s54 21.333 76 39s39.667 39.834 53 66.501s20 58.334 20 95.001v757h181v-624h272v624h179
v-624h272v624h179v-714c0 -25.333 -8.66699 -46.666 -26 -63.999s-38.333 -26 -63 -26h-816c-8 -56.667 -25.333 -106.5 -52 -149.5s-59 -79 -97 -108s-80 -51 -126 -66s-93 -22.5 -141 -22.5c-52.667 0 -104 8.5 -154 25.5s-94.5 42 -133.5 75s-70.333 74 -94 123
s-35.5 105.5 -35.5 169.5v359h180z" />
    <glyph glyph-name="seenfinal" unicode="&#x633;" horiz-adv-x="1920" arabic-form="final" 
d="M877 151c-8 -56.667 -25.334 -106.5 -52.001 -149.5s-59 -79 -97 -108s-80 -51 -126 -66s-93 -22.5 -141 -22.5c-52.667 0 -104 8.5 -154 25.5s-94.5 42 -133.5 75s-70.333 74 -94 123s-35.5 105.5 -35.5 169.5v359h180v-359c0 -36.667 6.66699 -68.334 20 -95.001
s31 -48.834 53 -66.501s47.333 -30.667 76 -39s58 -12.5 88 -12.5c30.667 0 60.334 4.16699 89.001 12.5s54 21.333 76 39s39.667 39.834 53 66.501s20 58.334 20 95.001v757h181v-624h271v624h179v-624h273v624h179v-624h156v-180h-1061z" />
    <glyph glyph-name="seeninitial" unicode="&#x633;" horiz-adv-x="1364" arabic-form="initial" 
d="M-8 331l218 -0.000976562v624h180v-624h272v624h179v-624h272v624h179v-714c0 -25.333 -8.66699 -46.666 -26 -63.999s-38.333 -26 -63 -26h-1211v180z" />
    <glyph glyph-name="seenmedial" unicode="&#x633;" horiz-adv-x="1399" arabic-form="medial" 
d="M-10 151v180h168v624h180v-624h272v624h179v-624h272v624h179v-624h167v-180h-1417z" />
    <glyph glyph-name="sheenisolated" unicode="&#x634;" horiz-adv-x="1850" arabic-form="isolated" 
d="M226 557l-0.000976562 -359.001c0 -36.667 6.66699 -68.334 20 -95.001s31 -48.834 53 -66.501s47.333 -30.667 76 -39s58 -12.5 88 -12.5c30.667 0 60.334 4.16699 89.001 12.5s54 21.333 76 39s39.667 39.834 53 66.501s20 58.334 20 95.001v757h181v-624h272v624h179
v-624h272v624h179v-714c0 -25.333 -8.66699 -46.666 -26 -63.999s-38.333 -26 -63 -26h-816c-8 -56.667 -25.333 -106.5 -52 -149.5s-59 -79 -97 -108s-80 -51 -126 -66s-93 -22.5 -141 -22.5c-52.667 0 -104 8.5 -154 25.5s-94.5 42 -133.5 75s-70.333 74 -94 123
s-35.5 105.5 -35.5 169.5v359h180zM1141 1511c0 14 2.5 27 7.5 39s12 22.5 21 31.5s19.5 16 31.5 21s24.667 7.5 38 7.5c28 0 51.5 -9.5 70.5 -28.5s28.5 -42.5 28.5 -70.5c0 -13.333 -2.5 -26 -7.5 -38s-12 -22.5 -21 -31.5s-19.5 -16 -31.5 -21s-25 -7.5 -39 -7.5
c-27.333 0 -50.5 9.5 -69.5 28.5s-28.5 42.167 -28.5 69.5zM975.999 1245c0 28 9.33301 51.5 28 70.5s41.667 28.5 69 28.5c14 0 27 -2.5 39 -7.5s22.5 -12 31.5 -21s16 -19.5 21 -31.5s7.5 -25 7.5 -39s-2.5 -26.833 -7.5 -38.5s-12 -22 -21 -31s-19.5 -16 -31.5 -21
s-25 -7.5 -39 -7.5c-27.333 0 -50.333 9.33301 -69 28s-28 42 -28 70zM1306 1245c0 28 9.33301 51.5 28 70.5s42 28.5 70 28.5s51.333 -9.5 70 -28.5s28 -42.5 28 -70.5s-9.33301 -51.333 -28 -70s-42 -28 -70 -28s-51.333 9.33301 -70 28s-28 42 -28 70z" />
    <glyph glyph-name="sheenfinal" unicode="&#x634;" horiz-adv-x="1920" arabic-form="final" 
d="M877 151c-8 -56.667 -25.334 -106.5 -52.001 -149.5s-59 -79 -97 -108s-80 -51 -126 -66s-93 -22.5 -141 -22.5c-52.667 0 -104 8.5 -154 25.5s-94.5 42 -133.5 75s-70.333 74 -94 123s-35.5 105.5 -35.5 169.5v359h180v-359c0 -36.667 6.66699 -68.334 20 -95.001
s31 -48.834 53 -66.501s47.333 -30.667 76 -39s58 -12.5 88 -12.5c30.667 0 60.334 4.16699 89.001 12.5s54 21.333 76 39s39.667 39.834 53 66.501s20 58.334 20 95.001v757h181v-624h271v624h179v-624h273v624h179v-624h156v-180h-1061zM1139 1511c0 14 2.5 27 7.5 39
s12 22.5 21 31.5s19.333 16 31 21s24.5 7.5 38.5 7.5s27 -2.5 39 -7.5s22.5 -12 31.5 -21s16 -19.5 21 -31.5s7.5 -25 7.5 -39c0 -27.333 -9.5 -50.5 -28.5 -69.5s-42.5 -28.5 -70.5 -28.5s-51.333 9.5 -70 28.5s-28 42.167 -28 69.5zM1304 1245c0 28 9.33301 51.5 28 70.5
s41.667 28.5 69 28.5c14 0 27 -2.5 39 -7.5s22.5 -12 31.5 -21s16 -19.5 21 -31.5s7.5 -25 7.5 -39s-2.5 -26.833 -7.5 -38.5s-12 -22 -21 -31s-19.5 -16 -31.5 -21s-25 -7.5 -39 -7.5c-27.333 0 -50.333 9.33301 -69 28s-28 42 -28 70zM973.999 1245
c0 28 9.33301 51.5 28 70.5s41.667 28.5 69 28.5c14 0 27 -2.5 39 -7.5s22.5 -12 31.5 -21s16 -19.5 21 -31.5s7.5 -25 7.5 -39s-2.5 -26.833 -7.5 -38.5s-12 -22 -21 -31s-19.5 -16 -31.5 -21s-25 -7.5 -39 -7.5c-27.333 0 -50.333 9.33301 -69 28s-28 42 -28 70z" />
    <glyph glyph-name="sheeninitial" unicode="&#x634;" horiz-adv-x="1364" arabic-form="initial" 
d="M-8 331l218 -0.000976562v624h180v-624h272v624h179v-624h272v624h179v-714c0 -25.333 -8.66699 -46.666 -26 -63.999s-38.333 -26 -63 -26h-1211v180zM647 1511c0 14 2.5 27 7.5 39s12 22.5 21 31.5s19.333 16 31 21s24.5 7.5 38.5 7.5s27 -2.5 39 -7.5
s22.5 -12 31.5 -21s16 -19.5 21 -31.5s7.5 -25 7.5 -39c0 -27.333 -9.5 -50.5 -28.5 -69.5s-42.5 -28.5 -70.5 -28.5s-51.333 9.5 -70 28.5s-28 42.167 -28 69.5zM812 1245c0 28 9.33301 51.5 28 70.5s41.667 28.5 69 28.5c14 0 27 -2.5 39 -7.5s22.5 -12 31.5 -21
s16 -19.5 21 -31.5s7.5 -25 7.5 -39s-2.5 -26.833 -7.5 -38.5s-12 -22 -21 -31s-19.5 -16 -31.5 -21s-25 -7.5 -39 -7.5c-27.333 0 -50.333 9.33301 -69 28s-28 42 -28 70zM482 1245c0 28 9.33301 51.5 28 70.5s41.667 28.5 69 28.5c14 0 27 -2.5 39 -7.5s22.5 -12 31.5 -21
s16 -19.5 21 -31.5s7.5 -25 7.5 -39s-2.5 -26.833 -7.5 -38.5s-12 -22 -21 -31s-19.5 -16 -31.5 -21s-25 -7.5 -39 -7.5c-27.333 0 -50.333 9.33301 -69 28s-28 42 -28 70z" />
    <glyph glyph-name="sheenmedial" unicode="&#x634;" horiz-adv-x="1399" arabic-form="medial" 
d="M-10 151v180h168v624h180v-624h272v624h179v-624h272v624h179v-624h167v-180h-1417zM601 1511c0 14 2.5 27 7.5 39s12 22.5 21 31.5s19.5 16 31.5 21s24.667 7.5 38 7.5c28 0 51.5 -9.5 70.5 -28.5s28.5 -42.5 28.5 -70.5c0 -13.333 -2.5 -26 -7.5 -38
s-12 -22.5 -21 -31.5s-19.5 -16 -31.5 -21s-25 -7.5 -39 -7.5c-27.333 0 -50.5 9.5 -69.5 28.5s-28.5 42.167 -28.5 69.5zM436 1245c0 28 9.33301 51.5 28 70.5s41.667 28.5 69 28.5c14 0 27 -2.5 39 -7.5s22.5 -12 31.5 -21s16 -19.5 21 -31.5s7.5 -25 7.5 -39
s-2.5 -26.833 -7.5 -38.5s-12 -22 -21 -31s-19.5 -16 -31.5 -21s-25 -7.5 -39 -7.5c-27.333 0 -50.333 9.33301 -69 28s-28 42 -28 70zM766 1245c0 28 9.33301 51.5 28 70.5s42 28.5 70 28.5s51.333 -9.5 70 -28.5s28 -42.5 28 -70.5s-9.33301 -51.333 -28 -70
s-42 -28 -70 -28s-51.333 9.33301 -70 28s-28 42 -28 70z" />
    <glyph glyph-name="sadisolated" unicode="&#x635;" horiz-adv-x="1776" arabic-form="isolated" 
d="M231 557v-358.998c0 -36.667 6.66699 -68.334 20 -95.001s31 -48.834 53 -66.501s47.333 -30.667 76 -39s58.334 -12.5 89.001 -12.5c30 0 59.333 4.16699 88 12.5s54 21.333 76 39s39.667 39.834 53 66.501s20 58.334 20 95.001c0 132.667 -0.333008 264.5 -1 395.5
s-1 263.167 -1 396.5h179l1 -206c7.33301 24.667 21.666 49.167 42.999 73.5s47 46.166 77 65.499s62.833 35.166 98.5 47.499s71.5 18.5 107.5 18.5l203 -2c67.333 -0.666992 135 -1.66699 203 -3c12 0 23.5 -2.33301 34.5 -7s20.5 -11 28.5 -19s14.333 -17.333 19 -28
s7 -22 7 -34v-645c0 -28 -7.83301 -51.667 -23.5 -71s-37.5 -29 -65.5 -29h-732c-8 -56.667 -25.333 -106.5 -52 -149.5s-59 -79 -97 -108s-80 -51 -126 -66s-92.667 -22.5 -140 -22.5c-52.667 0 -104.167 8.5 -154.5 25.5s-95 42 -134 75s-70.333 74 -94 123
s-35.5 105.5 -35.5 169.5v359h180zM1205 810.002c-40.667 0 -80.167 -5.16699 -118.5 -15.5s-72.333 -26.166 -102 -47.499s-53.667 -48.333 -72 -81s-28.166 -71 -29.499 -115v-220h642v476c-103.333 1.33301 -181.833 2.16602 -235.5 2.49902s-81.834 0.5 -84.501 0.5z
" />
    <glyph glyph-name="sadfinal" unicode="&#x635;" horiz-adv-x="1845" arabic-form="final" 
d="M882 151c-8 -56.667 -25.333 -106.5 -52 -149.5s-59 -79 -97 -108s-80 -51 -126 -66s-93 -22.5 -141 -22.5c-52.667 0 -104 8.5 -154 25.5s-94.5 42 -133.5 75s-70.333 74 -94 123s-35.5 105.5 -35.5 169.5v359h180v-359c0 -36.667 6.66699 -68.334 20 -95.001
s31 -48.834 53 -66.501s47.333 -30.667 76 -39s58 -12.5 88 -12.5c30.667 0 60.334 4.16699 89.001 12.5s54 21.333 76 39s39.667 39.834 53 66.501s20 58.334 20 95.001c0 132.667 -0.333008 264.5 -1 395.5s-1 263.167 -1 396.5h179l2 -216
c7.33301 24.667 21.666 49.667 42.999 75s46.833 48.333 76.5 69s62.334 37.667 98.001 51s71.5 20 107.5 20l203 -2c67.333 -0.666992 134.666 -1.66699 201.999 -3c12.667 0 24.5 -2.33301 35.5 -7s20.5 -11 28.5 -19s14.333 -17.333 19 -28s7 -22 7 -34v-565h152v-180
h-973zM1203 810c-41.333 0 -81 -5.16699 -119 -15.5s-71.833 -26.166 -101.5 -47.499s-53.667 -48.333 -72 -81s-28.166 -71 -29.499 -115v-220h642v476c-103.333 1.33301 -181.833 2.16602 -235.5 2.49902s-81.834 0.5 -84.501 0.5z" />
    <glyph glyph-name="sadinitial" unicode="&#x635;" horiz-adv-x="1245" arabic-form="initial" 
d="M345 784c6.66699 24.667 20.833 49.1689 42.5 73.502s47.667 46.166 78 65.499s63.5 35.166 99.5 47.499s72 18.5 108 18.5l202 -2c67.333 -0.666992 135 -1.66699 203 -3c12 0 23.5 -2.33301 34.5 -7s20.5 -11 28.5 -19s14.333 -17.333 19 -28s7 -22 7 -34v-645
c0 -28 -7.83301 -51.667 -23.5 -71s-37.5 -29 -65.5 -29h-1087v180h175v659h179v-206zM666.999 810.002c-40.667 0 -79.998 -5.16699 -117.998 -15.5s-71.833 -26.166 -101.5 -47.499s-53.834 -48.333 -72.501 -81s-28.667 -71 -30 -115v-220h642v476
c-102.667 1.33301 -180.834 2.16602 -234.501 2.49902s-82.167 0.5 -85.5 0.5z" />
    <glyph glyph-name="sadmedial" unicode="&#x635;" horiz-adv-x="1305" arabic-form="medial" 
d="M-11 151l0.000976562 180h175v647h179l1 -199c7.33301 24.667 21.666 49.5 42.999 74.5s47 47.5 77 67.5s63 36.333 99 49s72 19 108 19l202 -2c67.333 -0.666992 135 -1.66699 203 -3c12 0 23.5 -2.33301 34.5 -7s20.5 -11 28.5 -19s14.333 -17.333 19 -28s7 -22 7 -34
v-565h150v-180h-1326zM665.001 810c-40.667 0 -79.998 -5.16699 -117.998 -15.5s-71.833 -26.166 -101.5 -47.499s-53.834 -48.333 -72.501 -81s-28.667 -71 -30 -115v-220h642v476c-102.667 1.33301 -180.834 2.16602 -234.501 2.49902s-82.167 0.5 -85.5 0.5z" />
    <glyph glyph-name="dadisolated" unicode="&#x636;" horiz-adv-x="1776" arabic-form="isolated" 
d="M231 557v-358.998c0 -36.667 6.66699 -68.334 20 -95.001s31 -48.834 53 -66.501s47.333 -30.667 76 -39s58.334 -12.5 89.001 -12.5c30 0 59.333 4.16699 88 12.5s54 21.333 76 39s39.667 39.834 53 66.501s20 58.334 20 95.001c0 132.667 -0.333008 264.5 -1 395.5
s-1 263.167 -1 396.5h179l1 -206c7.33301 24.667 21.666 49.167 42.999 73.5s47 46.166 77 65.499s62.833 35.166 98.5 47.499s71.5 18.5 107.5 18.5l203 -2c67.333 -0.666992 135 -1.66699 203 -3c12 0 23.5 -2.33301 34.5 -7s20.5 -11 28.5 -19s14.333 -17.333 19 -28
s7 -22 7 -34v-645c0 -28 -7.83301 -51.667 -23.5 -71s-37.5 -29 -65.5 -29h-732c-8 -56.667 -25.333 -106.5 -52 -149.5s-59 -79 -97 -108s-80 -51 -126 -66s-92.667 -22.5 -140 -22.5c-52.667 0 -104.167 8.5 -154.5 25.5s-95 42 -134 75s-70.333 74 -94 123
s-35.5 105.5 -35.5 169.5v359h180zM1205 810.002c-40.667 0 -80.167 -5.16699 -118.5 -15.5s-72.333 -26.166 -102 -47.499s-53.667 -48.333 -72 -81s-28.166 -71 -29.499 -115v-220h642v476c-103.333 1.33301 -181.833 2.16602 -235.5 2.49902s-81.834 0.5 -84.501 0.5z
M1112 1227c0 14 2.5 27 7.5 39s11.833 22.5 20.5 31.5s19 16 31 21s24.667 7.5 38 7.5c28 0 51.5 -9.5 70.5 -28.5s28.5 -42.5 28.5 -70.5c0 -13.333 -2.5 -26 -7.5 -38s-12 -22.333 -21 -31s-19.5 -15.5 -31.5 -20.5s-25 -7.5 -39 -7.5c-27.333 0 -50.333 9.33301 -69 28
s-28 41.667 -28 69z" />
    <glyph glyph-name="dadfinal" unicode="&#x636;" horiz-adv-x="1845" arabic-form="final" 
d="M882 151c-8 -56.667 -25.333 -106.5 -52 -149.5s-59 -79 -97 -108s-80 -51 -126 -66s-93 -22.5 -141 -22.5c-52.667 0 -104 8.5 -154 25.5s-94.5 42 -133.5 75s-70.333 74 -94 123s-35.5 105.5 -35.5 169.5v359h180v-359c0 -36.667 6.66699 -68.334 20 -95.001
s31 -48.834 53 -66.501s47.333 -30.667 76 -39s58 -12.5 88 -12.5c30.667 0 60.334 4.16699 89.001 12.5s54 21.333 76 39s39.667 39.834 53 66.501s20 58.334 20 95.001c0 132.667 -0.333008 264.5 -1 395.5s-1 263.167 -1 396.5h179l2 -216
c7.33301 24.667 21.666 49.667 42.999 75s46.833 48.333 76.5 69s62.334 37.667 98.001 51s71.5 20 107.5 20l203 -2c67.333 -0.666992 134.666 -1.66699 201.999 -3c12.667 0 24.5 -2.33301 35.5 -7s20.5 -11 28.5 -19s14.333 -17.333 19 -28s7 -22 7 -34v-565h152v-180
h-973zM1203 810c-41.333 0 -81 -5.16699 -119 -15.5s-71.833 -26.166 -101.5 -47.499s-53.667 -48.333 -72 -81s-28.166 -71 -29.499 -115v-220h642v476c-103.333 1.33301 -181.833 2.16602 -235.5 2.49902s-81.834 0.5 -84.501 0.5zM1109 1227c0 14 2.5 27 7.5 39
s12 22.5 21 31.5s19.5 16 31.5 21s24.667 7.5 38 7.5c28 0 51.5 -9.5 70.5 -28.5s28.5 -42.5 28.5 -70.5c0 -13.333 -2.5 -26 -7.5 -38s-12 -22.333 -21 -31s-19.5 -15.5 -31.5 -20.5s-25 -7.5 -39 -7.5c-27.333 0 -50.5 9.33301 -69.5 28s-28.5 41.667 -28.5 69z" />
    <glyph glyph-name="dadinitial" unicode="&#x636;" horiz-adv-x="1245" arabic-form="initial" 
d="M345 784c6.66699 24.667 20.833 49.1689 42.5 73.502s47.667 46.166 78 65.499s63.5 35.166 99.5 47.499s72 18.5 108 18.5l202 -2c67.333 -0.666992 135 -1.66699 203 -3c12 0 23.5 -2.33301 34.5 -7s20.5 -11 28.5 -19s14.333 -17.333 19 -28s7 -22 7 -34v-645
c0 -28 -7.83301 -51.667 -23.5 -71s-37.5 -29 -65.5 -29h-1087v180h175v659h179v-206zM666.999 810.002c-40.667 0 -79.998 -5.16699 -117.998 -15.5s-71.833 -26.166 -101.5 -47.499s-53.834 -48.333 -72.501 -81s-28.667 -71 -30 -115v-220h642v476
c-102.667 1.33301 -180.834 2.16602 -234.501 2.49902s-82.167 0.5 -85.5 0.5zM560.001 1245c0 28 9.5 51.5 28.5 70.5s42.167 28.5 69.5 28.5c14 0 27 -2.5 39 -7.5s22.5 -12 31.5 -21s16 -19.5 21 -31.5s7.5 -25 7.5 -39s-2.5 -26.833 -7.5 -38.5s-12 -22 -21 -31
s-19.5 -16 -31.5 -21s-25 -7.5 -39 -7.5c-27.333 0 -50.5 9.33301 -69.5 28s-28.5 42 -28.5 70z" />
    <glyph glyph-name="dadmedial" unicode="&#x636;" horiz-adv-x="1305" arabic-form="medial" 
d="M-11 151l0.000976562 180h175v647h179l1 -199c7.33301 24.667 21.666 49.5 42.999 74.5s47 47.5 77 67.5s63 36.333 99 49s72 19 108 19l202 -2c67.333 -0.666992 135 -1.66699 203 -3c12 0 23.5 -2.33301 34.5 -7s20.5 -11 28.5 -19s14.333 -17.333 19 -28s7 -22 7 -34
v-565h150v-180h-1326zM665.001 810c-40.667 0 -79.998 -5.16699 -117.998 -15.5s-71.833 -26.166 -101.5 -47.499s-53.834 -48.333 -72.501 -81s-28.667 -71 -30 -115v-220h642v476c-102.667 1.33301 -180.834 2.16602 -234.501 2.49902s-82.167 0.5 -85.5 0.5z
M558.003 1245c0 28 9.5 51.5 28.5 70.5s42.167 28.5 69.5 28.5c14 0 27 -2.5 39 -7.5s22.5 -12 31.5 -21s16 -19.5 21 -31.5s7.5 -25 7.5 -39s-2.5 -26.833 -7.5 -38.5s-12 -22 -21 -31s-19.5 -16 -31.5 -21s-25 -7.5 -39 -7.5c-27.333 0 -50.5 9.33301 -69.5 28
s-28.5 42 -28.5 70z" />
    <glyph glyph-name="tahisolated" unicode="&#x637;" horiz-adv-x="1260" arabic-form="isolated" 
d="M362 769c6.66699 24.667 20.667 50 42 76s47 49.667 77 71s62.833 38.833 98.5 52.5s71.5 20.5 107.5 20.5l202 -2c67.333 -0.666992 135 -1.66699 203 -3c12 0 23.5 -2.33301 34.5 -7s20.5 -11 28.5 -19s14.333 -17.333 19 -28s7 -22 7 -34v-645
c0 -28 -7.83301 -51.667 -23.5 -71s-37.5 -29 -65.5 -29h-1017v180h106v1022h179zM681 810c-40.667 0 -80 -5.16699 -118 -15.5s-71.833 -26.166 -101.5 -47.499s-53.667 -48.333 -72 -81s-28.166 -71 -29.499 -115v-220h641v476
c-102.667 1.33301 -180.834 2.16602 -234.501 2.49902s-82.167 0.5 -85.5 0.5z" />
    <glyph glyph-name="tahfinal" unicode="&#x637;" horiz-adv-x="1335" arabic-form="final" 
d="M93 151l0.000976562 179.999h100v1022h179v-594c7.33301 24.667 21.666 50.5 42.999 77.5s47 51.833 77 74.5s63 41.334 99 56.001s72 22 108 22l203 -2c67.333 -0.666992 135 -1.66699 203 -3c12 0 23.5 -2.33301 34.5 -7s20.5 -11 28.5 -19s14.333 -17.333 19 -28
s7 -22 7 -34v-565h149v-180h-1250zM694.001 809.999c-40.667 0 -80.168 -5.16699 -118.501 -15.5s-72.333 -26.166 -102 -47.499s-53.667 -48.333 -72 -81s-28.166 -71 -29.499 -115v-220h642v476c-102.667 1.33301 -181 2.16602 -235 2.49902s-82.333 0.5 -85 0.5z" />
    <glyph glyph-name="tahinitial" unicode="&#x637;" horiz-adv-x="1245" arabic-form="initial" 
d="M345 769c6.66699 24.667 20.833 50 42.5 76s47.667 49.667 78 71s63.5 38.833 99.5 52.5s72 20.5 108 20.5l202 -2c67.333 -0.666992 135 -1.66699 203 -3c12 0 23.5 -2.33301 34.5 -7s20.5 -11 28.5 -19s14.333 -17.333 19 -28s7 -22 7 -34v-645
c0 -28 -7.83301 -51.667 -23.5 -71s-37.5 -29 -65.5 -29h-1087v180h175v1022h179v-584zM666.999 810c-40.667 0 -79.998 -5.16699 -117.998 -15.5s-71.833 -26.166 -101.5 -47.499s-53.834 -48.333 -72.501 -81s-28.667 -71 -30 -115v-220h642v476
c-102.667 1.33301 -180.834 2.16602 -234.501 2.49902s-82.167 0.5 -85.5 0.5z" />
    <glyph glyph-name="tahmedial" unicode="&#x637;" horiz-adv-x="1305" arabic-form="medial" 
d="M-11 151l-0.00195312 180h175v1022h179l-1 -584c6.66699 24.667 20.834 50 42.501 76s47.834 49.667 78.501 71s64 38.833 100 52.5s72 20.5 108 20.5l202 -2c67.333 -0.666992 135 -1.66699 203 -3c12 0 23.5 -2.33301 34.5 -7s20.5 -11 28.5 -19s14.333 -17.333 19 -28
s7 -22 7 -34v-565h146v-180h-1322zM664.998 810c-40.667 0 -79.998 -5.16699 -117.998 -15.5s-71.833 -26.166 -101.5 -47.499s-53.834 -48.333 -72.501 -81s-28.667 -71 -30 -115v-220h642v476c-102.667 1.33301 -180.834 2.16602 -234.501 2.49902s-82.167 0.5 -85.5 0.5z
" />
    <glyph glyph-name="zahisolated" unicode="&#x638;" horiz-adv-x="1260" arabic-form="isolated" 
d="M362 769c6.66699 24.667 20.667 50 42 76s47 49.667 77 71s62.833 38.833 98.5 52.5s71.5 20.5 107.5 20.5l202 -2c67.333 -0.666992 135 -1.66699 203 -3c12 0 23.5 -2.33301 34.5 -7s20.5 -11 28.5 -19s14.333 -17.333 19 -28s7 -22 7 -34v-645
c0 -28 -7.83301 -51.667 -23.5 -71s-37.5 -29 -65.5 -29h-1017v180h106v1022h179zM681 810c-40.667 0 -80 -5.16699 -118 -15.5s-71.833 -26.166 -101.5 -47.499s-53.667 -48.333 -72 -81s-28.166 -71 -29.499 -115v-220h641v476
c-102.667 1.33301 -180.834 2.16602 -234.501 2.49902s-82.167 0.5 -85.5 0.5zM579 1245c0 28 9.33301 51.5 28 70.5s41.667 28.5 69 28.5c14 0 27 -2.5 39 -7.5s22.5 -12 31.5 -21s16 -19.5 21 -31.5s7.5 -25 7.5 -39s-2.5 -26.833 -7.5 -38.5s-12 -22 -21 -31
s-19.5 -16 -31.5 -21s-25 -7.5 -39 -7.5c-27.333 0 -50.333 9.33301 -69 28s-28 42 -28 70z" />
    <glyph glyph-name="zahfinal" unicode="&#x638;" horiz-adv-x="1335" arabic-form="final" 
d="M93 151l0.000976562 179.999h100v1022h179v-594c7.33301 24.667 21.666 50.5 42.999 77.5s47 51.833 77 74.5s63 41.334 99 56.001s72 22 108 22l203 -2c67.333 -0.666992 135 -1.66699 203 -3c12 0 23.5 -2.33301 34.5 -7s20.5 -11 28.5 -19s14.333 -17.333 19 -28
s7 -22 7 -34v-565h149v-180h-1250zM694.001 809.999c-40.667 0 -80.168 -5.16699 -118.501 -15.5s-72.333 -26.166 -102 -47.499s-53.667 -48.333 -72 -81s-28.166 -71 -29.499 -115v-220h642v476c-102.667 1.33301 -181 2.16602 -235 2.49902s-82.333 0.5 -85 0.5z
M576 1245c0 28 9.33301 51.5 28 70.5s42 28.5 70 28.5s51.5 -9.5 70.5 -28.5s28.5 -42.5 28.5 -70.5s-9.5 -51.333 -28.5 -70s-42.5 -28 -70.5 -28s-51.333 9.33301 -70 28s-28 42 -28 70z" />
    <glyph glyph-name="zahinitial" unicode="&#x638;" horiz-adv-x="1245" arabic-form="initial" 
d="M345 769c6.66699 24.667 20.833 50 42.5 76s47.667 49.667 78 71s63.5 38.833 99.5 52.5s72 20.5 108 20.5l202 -2c67.333 -0.666992 135 -1.66699 203 -3c12 0 23.5 -2.33301 34.5 -7s20.5 -11 28.5 -19s14.333 -17.333 19 -28s7 -22 7 -34v-645
c0 -28 -7.83301 -51.667 -23.5 -71s-37.5 -29 -65.5 -29h-1087v180h175v1022h179v-584zM666.999 810c-40.667 0 -79.998 -5.16699 -117.998 -15.5s-71.833 -26.166 -101.5 -47.499s-53.834 -48.333 -72.501 -81s-28.667 -71 -30 -115v-220h642v476
c-102.667 1.33301 -180.834 2.16602 -234.501 2.49902s-82.167 0.5 -85.5 0.5zM580.001 1245c0 28 9.33301 51.5 28 70.5s42 28.5 70 28.5s51.5 -9.5 70.5 -28.5s28.5 -42.5 28.5 -70.5s-9.5 -51.333 -28.5 -70s-42.5 -28 -70.5 -28s-51.333 9.33301 -70 28s-28 42 -28 70z
" />
    <glyph glyph-name="zahmedial" unicode="&#x638;" horiz-adv-x="1305" arabic-form="medial" 
d="M-11 151l-0.00195312 180h175v1022h179l-1 -584c6.66699 24.667 20.834 50 42.501 76s47.834 49.667 78.501 71s64 38.833 100 52.5s72 20.5 108 20.5l202 -2c67.333 -0.666992 135 -1.66699 203 -3c12 0 23.5 -2.33301 34.5 -7s20.5 -11 28.5 -19s14.333 -17.333 19 -28
s7 -22 7 -34v-565h146v-180h-1322zM664.998 810c-40.667 0 -79.998 -5.16699 -117.998 -15.5s-71.833 -26.166 -101.5 -47.499s-53.834 -48.333 -72.501 -81s-28.667 -71 -30 -115v-220h642v476c-102.667 1.33301 -180.834 2.16602 -234.501 2.49902s-82.167 0.5 -85.5 0.5z
M578 1245c0 28 9.33301 51.5 28 70.5s42 28.5 70 28.5s51.333 -9.5 70 -28.5s28 -42.5 28 -70.5s-9.33301 -51.333 -28 -70s-42 -28 -70 -28s-51.333 9.33301 -70 28s-28 42 -28 70z" />
    <glyph glyph-name="ainisolated" unicode="&#x639;" horiz-adv-x="1131" arabic-form="isolated" 
d="M543 151c-50 -2 -93.501 -9.99707 -130.501 -23.9971s-67.667 -31.667 -92 -53s-42.666 -45.833 -54.999 -73.5s-18.5 -56.167 -18.5 -85.5c0 -36.667 8.66699 -73.167 26 -109.5s46 -69.166 86 -98.499l-51 -75.5l-49 -73.5c-32 23.333 -59.833 49 -83.5 77
s-43.5 57.167 -59.5 87.5s-28 61.666 -36 93.999s-12 64.5 -12 96.5c0 38 5.83301 75.333 17.5 112s29 71.667 52 105s51.667 64 86 92s74.166 52 119.499 72c-30 44 -52 89.333 -66 136s-21 93 -21 139c0 53.333 8.33301 105.166 25 155.499s41.334 95.166 74.001 134.499
s73 70.833 121 94.5s103.667 35.5 167 35.5h356v-180h-356c-36 0 -67 -7 -93 -21s-47.5 -32.333 -64.5 -55s-29.667 -48.334 -38 -77.001s-12.5 -57.667 -12.5 -87s4.16699 -58.333 12.5 -87s21 -54.167 38 -76.5s38.5 -40.333 64.5 -54s57 -20.5 93 -20.5h386v-180h-486z
" />
    <glyph glyph-name="ainfinal" unicode="&#x639;" horiz-adv-x="1141" arabic-form="final" 
d="M535 151c-51.333 -2.66699 -95.6689 -11.0039 -133.002 -25.0039s-68 -32 -92 -54s-41.833 -46.667 -53.5 -74s-17.5 -55.333 -17.5 -84c0 -36.667 9.33301 -73 28 -109s46.667 -68.333 84 -97l-51.5 -76.5l-49.5 -73.5c-63.333 46.667 -111 101.667 -143 165
s-48 127.333 -48 192c0 42 7.5 83.667 22.5 125s37.333 79.833 67 115.5s66.334 67.334 110.001 95.001s94.167 49.167 151.5 64.5l-151 231c-18 28 -31 55.833 -39 83.5s-12 54.834 -12 81.501c0 37.333 7.5 72.833 22.5 106.5s36 63.167 63 88.5s59.333 45.5 97 60.5
s78.834 22.5 123.501 22.5h229c45.333 0 87 -7.33301 125 -22s70.5 -34.667 97.5 -60s48 -54.666 63 -87.999s22.5 -68.666 22.5 -105.999c0 -27.333 -4.33301 -55 -13 -83s-22 -56 -40 -84l-139 -215h292v-180h-616zM611.997 330.996h33l204 313
c14.667 23.333 22 46.333 22 69c0 29.333 -11.5 52.833 -34.5 70.5s-54.167 26.5 -93.5 26.5h-230c-40 -2.66699 -71.167 -12.5 -93.5 -29.5s-33.5 -39.5 -33.5 -67.5c0 -23.333 7.66699 -46.333 23 -69z" />
    <glyph glyph-name="aininitial" unicode="&#x639;" horiz-adv-x="1061" arabic-form="initial" 
d="M232 331c-20.667 42 -35.8311 83.0029 -45.498 123.003s-14.5 78.333 -14.5 115c0 53.333 8.33301 105.166 25 155.499s41.167 95.166 73.5 134.499s72.666 70.833 120.999 94.5s104.166 35.5 167.499 35.5h355v-180h-355c-36 0 -67 -7 -93 -21s-47.5 -32.333 -64.5 -55
s-29.667 -48.334 -38 -77.001s-12.5 -57.667 -12.5 -87s4 -58.333 12 -87s20.5 -54.167 37.5 -76.5s38.667 -40.333 65 -54s57.5 -20.5 93.5 -20.5h386v-180h-954v180h241z" />
    <glyph glyph-name="ainmedial" unicode="&#x639;" horiz-adv-x="1066" arabic-form="medial" 
d="M-10 331h312l-140 215c-19.333 30 -33.333 59 -42 87s-13 55.667 -13 83c0 34.667 7.33301 68.5 22 101.5s35.5 62.167 62.5 87.5s59.5 45.666 97.5 60.999s80.667 23 128 23h228c42 0 81.833 -6.83301 119.5 -20.5s70.667 -32.667 99 -57s50.833 -53.5 67.5 -87.5
s25 -71.333 25 -112c0 -53.333 -18.667 -108.666 -56 -165.999l-139 -215h310v-180h-1081v180zM515 331l32 0.000976562l204 313c16.667 25.333 25 49.333 25 72c0 15.333 -4 28.833 -12 40.5s-18.167 21.5 -30.5 29.5s-26.333 14 -42 18s-31.167 6 -46.5 6h-228
c-17.333 0 -33.833 -2.5 -49.5 -7.5s-29.5 -11.667 -41.5 -20s-21.5 -18.333 -28.5 -30s-10.5 -23.834 -10.5 -36.501c0 -23.333 8 -47.333 24 -72z" />
    <glyph glyph-name="ghainisolated" unicode="&#x63a;" horiz-adv-x="1131" arabic-form="isolated" 
d="M543 151c-50 -2 -93.501 -9.99707 -130.501 -23.9971s-67.667 -31.667 -92 -53s-42.666 -45.833 -54.999 -73.5s-18.5 -56.167 -18.5 -85.5c0 -36.667 8.66699 -73.167 26 -109.5s46 -69.166 86 -98.499l-51 -75.5l-49 -73.5c-32 23.333 -59.833 49 -83.5 77
s-43.5 57.167 -59.5 87.5s-28 61.666 -36 93.999s-12 64.5 -12 96.5c0 38 5.83301 75.333 17.5 112s29 71.667 52 105s51.667 64 86 92s74.166 52 119.499 72c-30 44 -52 89.333 -66 136s-21 93 -21 139c0 53.333 8.33301 105.166 25 155.499s41.334 95.166 74.001 134.499
s73 70.833 121 94.5s103.667 35.5 167 35.5h356v-180h-356c-36 0 -67 -7 -93 -21s-47.5 -32.333 -64.5 -55s-29.667 -48.334 -38 -77.001s-12.5 -57.667 -12.5 -87s4.16699 -58.333 12.5 -87s21 -54.167 38 -76.5s38.5 -40.333 64.5 -54s57 -20.5 93 -20.5h386v-180h-486z
M580.999 1245c0 28 9.33301 51.5 28 70.5s42 28.5 70 28.5s51.333 -9.5 70 -28.5s28 -42.5 28 -70.5s-9.33301 -51.333 -28 -70s-42 -28 -70 -28s-51.333 9.33301 -70 28s-28 42 -28 70z" />
    <glyph glyph-name="ghainfinal" unicode="&#x63a;" horiz-adv-x="1141" arabic-form="final" 
d="M535 151c-51.333 -2.66699 -95.6689 -11.0039 -133.002 -25.0039s-68 -32 -92 -54s-41.833 -46.667 -53.5 -74s-17.5 -55.333 -17.5 -84c0 -36.667 9.33301 -73 28 -109s46.667 -68.333 84 -97l-51.5 -76.5l-49.5 -73.5c-63.333 46.667 -111 101.667 -143 165
s-48 127.333 -48 192c0 42 7.5 83.667 22.5 125s37.333 79.833 67 115.5s66.334 67.334 110.001 95.001s94.167 49.167 151.5 64.5l-151 231c-18 28 -31 55.833 -39 83.5s-12 54.834 -12 81.501c0 37.333 7.5 72.833 22.5 106.5s36 63.167 63 88.5s59.333 45.5 97 60.5
s78.834 22.5 123.501 22.5h229c45.333 0 87 -7.33301 125 -22s70.5 -34.667 97.5 -60s48 -54.666 63 -87.999s22.5 -68.666 22.5 -105.999c0 -27.333 -4.33301 -55 -13 -83s-22 -56 -40 -84l-139 -215h292v-180h-616zM611.997 330.996h33l204 313
c14.667 23.333 22 46.333 22 69c0 29.333 -11.5 52.833 -34.5 70.5s-54.167 26.5 -93.5 26.5h-230c-40 -2.66699 -71.167 -12.5 -93.5 -29.5s-33.5 -39.5 -33.5 -67.5c0 -23.333 7.66699 -46.333 23 -69zM511.997 1243c0 28 9.5 51.333 28.5 70s42.167 28 69.5 28
c14 0 27 -2.5 39 -7.5s22.5 -12 31.5 -21s16 -19.333 21 -31s7.5 -24.5 7.5 -38.5s-2.5 -26.833 -7.5 -38.5s-12 -22 -21 -31s-19.5 -16 -31.5 -21s-25 -7.5 -39 -7.5c-27.333 0 -50.5 9.33301 -69.5 28s-28.5 42 -28.5 70z" />
    <glyph glyph-name="ghaininitial" unicode="&#x63a;" horiz-adv-x="1061" arabic-form="initial" 
d="M232 331c-20.667 42 -35.8311 83.0029 -45.498 123.003s-14.5 78.333 -14.5 115c0 53.333 8.33301 105.166 25 155.499s41.167 95.166 73.5 134.499s72.666 70.833 120.999 94.5s104.166 35.5 167.499 35.5h355v-180h-355c-36 0 -67 -7 -93 -21s-47.5 -32.333 -64.5 -55
s-29.667 -48.334 -38 -77.001s-12.5 -57.667 -12.5 -87s4 -58.333 12 -87s20.5 -54.167 37.5 -76.5s38.667 -40.333 65 -54s57.5 -20.5 93.5 -20.5h386v-180h-954v180h241zM399.003 1238c0 28 9.33301 51.333 28 70s42 28 70 28s51.5 -9.33301 70.5 -28s28.5 -42 28.5 -70
s-9.5 -51.333 -28.5 -70s-42.5 -28 -70.5 -28s-51.333 9.33301 -70 28s-28 42 -28 70z" />
    <glyph glyph-name="ghainmedial" unicode="&#x63a;" horiz-adv-x="1066" arabic-form="medial" 
d="M-10 331h312l-140 215c-19.333 30 -33.333 59 -42 87s-13 55.667 -13 83c0 34.667 7.33301 68.5 22 101.5s35.5 62.167 62.5 87.5s59.5 45.666 97.5 60.999s80.667 23 128 23h228c42 0 81.833 -6.83301 119.5 -20.5s70.667 -32.667 99 -57s50.833 -53.5 67.5 -87.5
s25 -71.333 25 -112c0 -53.333 -18.667 -108.666 -56 -165.999l-139 -215h310v-180h-1081v180zM515 331l32 0.000976562l204 313c16.667 25.333 25 49.333 25 72c0 15.333 -4 28.833 -12 40.5s-18.167 21.5 -30.5 29.5s-26.333 14 -42 18s-31.167 6 -46.5 6h-228
c-17.333 0 -33.833 -2.5 -49.5 -7.5s-29.5 -11.667 -41.5 -20s-21.5 -18.333 -28.5 -30s-10.5 -23.834 -10.5 -36.501c0 -23.333 8 -47.333 24 -72zM428 1243c0 28 9.33301 51.333 28 70s42 28 70 28s51.5 -9.33301 70.5 -28s28.5 -42 28.5 -70s-9.5 -51.333 -28.5 -70
s-42.5 -28 -70.5 -28s-51.333 9.33301 -70 28s-28 42 -28 70z" />
    <glyph glyph-name="fehisolated" unicode="&#x641;" horiz-adv-x="1419" arabic-form="isolated" 
d="M624 331c-20.667 42 -36.0029 83.0029 -46.0029 123.003s-15 78.333 -15 115c0 53.333 8.33301 105.166 25 155.499s41.334 95.166 74.001 134.499s73 70.833 121 94.5s103.667 35.5 167 35.5h271c16.667 0 32.334 -3.33301 47.001 -10s27.334 -15.667 38.001 -27
s19 -24.333 25 -39s9 -30.334 9 -47.001l1 -625c0 -25.333 -8.66699 -46.666 -26 -63.999s-38.333 -26 -63 -26h-802c-74 0 -136.5 11 -187.5 33s-92.5 51 -124.5 87s-55 77 -69 123s-21 93 -21 141c0 51.333 6.16699 101.5 18.5 150.5s27.166 91.5 44.499 127.5l79.5 -42.5
l78.5 -40.5c-12 -26 -21.833 -56.333 -29.5 -91s-11.5 -70.334 -11.5 -107.001c0 -27.333 2.83301 -53 8.5 -77s16.334 -45.167 32.001 -63.5s37.5 -33 65.5 -44s64.333 -16.833 109 -17.5c2 0.666992 4.33301 1 7 1h174zM760.997 465.003
c6.66699 -18.667 15.667 -36.165 27 -52.498s24.833 -30.5 40.5 -42.5s33.5 -21.5 53.5 -28.5s42.667 -10.5 68 -10.5h211v478h-211c-36 0 -67 -7 -93 -21s-47.5 -32.333 -64.5 -55s-29.667 -48.334 -38 -77.001s-12.5 -57.667 -12.5 -87c0 -17.333 1.33301 -34.833 4 -52.5
s7.66699 -34.834 15 -51.501zM925.997 1245c0 28 9.5 51.5 28.5 70.5s42.167 28.5 69.5 28.5c14 0 27 -2.5 39 -7.5s22.5 -12 31.5 -21s16 -19.5 21 -31.5s7.5 -25 7.5 -39s-2.5 -26.833 -7.5 -38.5s-12 -22 -21 -31s-19.5 -16 -31.5 -21s-25 -7.5 -39 -7.5
c-27.333 0 -50.5 9.33301 -69.5 28s-28.5 42 -28.5 70z" />
    <glyph glyph-name="fehfinal" unicode="&#x641;" horiz-adv-x="1483" arabic-form="final" 
d="M448 151c-74 0 -136.501 11.0039 -187.501 33.0039s-92.5 51 -124.5 87s-55 77 -69 123s-21 93 -21 141c0 51.333 6.16699 101.5 18.5 150.5s27.166 91.5 44.499 127.5l41.5 -22.5l38 -20l37.5 -19.5l41 -21c-12 -26 -21.833 -56.333 -29.5 -91
s-11.5 -70.334 -11.5 -107.001c0 -27.333 2.83301 -53 8.5 -77s16.334 -45.167 32.001 -63.5s37.5 -33 65.5 -44s64.333 -16.833 109 -17.5c2 0.666992 4.33301 1 7 1h174c-20.667 42 -36 83 -46 123s-15 78.333 -15 115c0 53.333 8.33301 105.166 25 155.499
s41.334 95.166 74.001 134.499s73 70.833 121 94.5s103.667 35.5 167 35.5h271c16.667 0 32.167 -3.33301 46.5 -10s26.833 -15.667 37.5 -27s19.167 -24.333 25.5 -39s9.5 -30.334 9.5 -47.001v-535h155v-180h-1045zM758.999 465.004
c6.66699 -18.667 15.501 -36.165 26.501 -52.498s24.333 -30.5 40 -42.5s33.667 -21.5 54 -28.5s43.166 -10.5 68.499 -10.5h211v478h-211c-36 0 -67 -7 -93 -21s-47.5 -32.333 -64.5 -55s-29.667 -48.334 -38 -77.001s-12.5 -57.667 -12.5 -87
c0 -17.333 1.33301 -34.833 4 -52.5s7.66699 -34.834 15 -51.501zM924 1245.01c0 28 9.5 51.5 28.5 70.5s42.167 28.5 69.5 28.5c14 0 27 -2.5 39 -7.5s22.5 -12 31.5 -21s16 -19.5 21 -31.5s7.5 -25 7.5 -39s-2.5 -26.833 -7.5 -38.5s-12 -22 -21 -31s-19.5 -16 -31.5 -21
s-25 -7.5 -39 -7.5c-27.333 0 -50.5 9.33301 -69.5 28s-28.5 42 -28.5 70z" />
    <glyph glyph-name="fehinitial" unicode="&#x641;" horiz-adv-x="1027" arabic-form="initial" 
d="M-3 151l-0.000976562 180.002h230c-20.667 42 -35.834 83 -45.501 123s-14.5 78.333 -14.5 115c0 53.333 8.33301 105.166 25 155.499s41.167 95.166 73.5 134.499s72.5 70.833 120.5 94.5s103.667 35.5 167 35.5h271c16.667 0 32.334 -3.33301 47.001 -10
s27.334 -15.667 38.001 -27s19 -24.333 25 -39s9 -30.334 9 -47.001l1 -625c0 -25.333 -8.66699 -46.666 -26 -63.999s-38.333 -26 -63 -26h-858zM363.999 465.002c6.66699 -18.667 15.666 -36.165 26.999 -52.498s24.833 -30.5 40.5 -42.5s33.667 -21.5 54 -28.5
s42.833 -10.5 67.5 -10.5h211v478h-211c-36 0 -67 -7 -93 -21s-47.5 -32.333 -64.5 -55s-29.5 -48.334 -37.5 -77.001s-12 -57.667 -12 -87c0 -17.333 1.33301 -34.833 4 -52.5s7.33398 -34.834 14.001 -51.501zM511.998 1245c0 28 9.33301 51.5 28 70.5s42 28.5 70 28.5
s51.5 -9.5 70.5 -28.5s28.5 -42.5 28.5 -70.5s-9.5 -51.333 -28.5 -70s-42.5 -28 -70.5 -28s-51.333 9.33301 -70 28s-28 42 -28 70z" />
    <glyph glyph-name="fehmedial" unicode="&#x641;" horiz-adv-x="1066" arabic-form="medial" 
d="M-10 151l-0.00292969 180.003h210c-20.667 42 -36 83 -46 123s-15 78.333 -15 115c0 53.333 8.33301 105.166 25 155.499s41.334 95.166 74.001 134.499s73 70.833 121 94.5s103.667 35.5 167 35.5h270c16.667 0 32.334 -3.33301 47.001 -10s27.334 -15.667 38.001 -27
s19.167 -24.333 25.5 -39s9.5 -30.334 9.5 -47.001v-535h153v-180h-1079zM336.997 465.003c6.66699 -18.667 15.501 -36.165 26.501 -52.498s24.333 -30.5 40 -42.5s33.667 -21.5 54 -28.5s43.166 -10.5 68.499 -10.5h211v478h-211c-36 0 -67 -7 -93 -21
s-47.5 -32.333 -64.5 -55s-29.667 -48.334 -38 -77.001s-12.5 -57.667 -12.5 -87c0 -17.333 1.33301 -34.833 4 -52.5s7.66699 -34.834 15 -51.501zM473.998 1245c0 28 9.5 51.5 28.5 70.5s42.167 28.5 69.5 28.5c14 0 27 -2.5 39 -7.5s22.5 -12 31.5 -21s16 -19.5 21 -31.5
s7.5 -25 7.5 -39s-2.5 -26.833 -7.5 -38.5s-12 -22 -21 -31s-19.5 -16 -31.5 -21s-25 -7.5 -39 -7.5c-27.333 0 -50.5 9.33301 -69.5 28s-28.5 42 -28.5 70z" />
    <glyph glyph-name="qafisolated" unicode="&#x642;" horiz-adv-x="1419" arabic-form="isolated" 
d="M624 331c-20.667 42 -36.0029 83.0029 -46.0029 123.003s-15 78.333 -15 115c0 53.333 8.33301 105.166 25 155.499s41.334 95.166 74.001 134.499s73 70.833 121 94.5s103.667 35.5 167 35.5h271c16.667 0 32.334 -3.33301 47.001 -10s27.334 -15.667 38.001 -27
s19 -24.333 25 -39s9 -30.334 9 -47.001l1 -625c0 -25.333 -8.66699 -46.666 -26 -63.999s-38.333 -26 -63 -26h-802c-74 0 -136.5 11 -187.5 33s-92.5 51 -124.5 87s-55 77 -69 123s-21 93 -21 141c0 51.333 6.16699 101.5 18.5 150.5s27.166 91.5 44.499 127.5l79.5 -42.5
l78.5 -40.5c-12 -26 -21.833 -56.333 -29.5 -91s-11.5 -70.334 -11.5 -107.001c0 -27.333 2.83301 -53 8.5 -77s16.334 -45.167 32.001 -63.5s37.5 -33 65.5 -44s64.333 -16.833 109 -17.5c2 0.666992 4.33301 1 7 1h174zM760.997 465.003
c6.66699 -18.667 15.667 -36.165 27 -52.498s24.833 -30.5 40.5 -42.5s33.5 -21.5 53.5 -28.5s42.667 -10.5 68 -10.5h211v478h-211c-36 0 -67 -7 -93 -21s-47.5 -32.333 -64.5 -55s-29.667 -48.334 -38 -77.001s-12.5 -57.667 -12.5 -87c0 -17.333 1.33301 -34.833 4 -52.5
s7.66699 -34.834 15 -51.501zM731.997 1245c0 28 9.33301 51.5 28 70.5s42 28.5 70 28.5s51.5 -9.5 70.5 -28.5s28.5 -42.5 28.5 -70.5s-9.5 -51.333 -28.5 -70s-42.5 -28 -70.5 -28s-51.333 9.33301 -70 28s-28 42 -28 70zM1008 1245c0 28 9.33301 51.5 28 70.5
s41.667 28.5 69 28.5c14 0 27 -2.5 39 -7.5s22.5 -12 31.5 -21s16 -19.5 21 -31.5s7.5 -25 7.5 -39s-2.5 -26.833 -7.5 -38.5s-12 -22 -21 -31s-19.5 -16 -31.5 -21s-25 -7.5 -39 -7.5c-27.333 0 -50.333 9.33301 -69 28s-28 42 -28 70z" />
    <glyph glyph-name="qaffinal" unicode="&#x642;" horiz-adv-x="1483" arabic-form="final" 
d="M448 151c-74 0 -136.501 11.0039 -187.501 33.0039s-92.5 51 -124.5 87s-55 77 -69 123s-21 93 -21 141c0 51.333 6.16699 101.5 18.5 150.5s27.166 91.5 44.499 127.5l41.5 -22.5l38 -20l37.5 -19.5l41 -21c-12 -26 -21.833 -56.333 -29.5 -91
s-11.5 -70.334 -11.5 -107.001c0 -27.333 2.83301 -53 8.5 -77s16.334 -45.167 32.001 -63.5s37.5 -33 65.5 -44s64.333 -16.833 109 -17.5c2 0.666992 4.33301 1 7 1h174c-20.667 42 -36 83 -46 123s-15 78.333 -15 115c0 53.333 8.33301 105.166 25 155.499
s41.334 95.166 74.001 134.499s73 70.833 121 94.5s103.667 35.5 167 35.5h271c16.667 0 32.167 -3.33301 46.5 -10s26.833 -15.667 37.5 -27s19.167 -24.333 25.5 -39s9.5 -30.334 9.5 -47.001v-535h155v-180h-1045zM758.999 465.004
c6.66699 -18.667 15.501 -36.165 26.501 -52.498s24.333 -30.5 40 -42.5s33.667 -21.5 54 -28.5s43.166 -10.5 68.499 -10.5h211v478h-211c-36 0 -67 -7 -93 -21s-47.5 -32.333 -64.5 -55s-29.667 -48.334 -38 -77.001s-12.5 -57.667 -12.5 -87
c0 -17.333 1.33301 -34.833 4 -52.5s7.66699 -34.834 15 -51.501zM1006 1245.01c0 28 9.33301 51.5 28 70.5s41.667 28.5 69 28.5c14 0 27 -2.5 39 -7.5s22.5 -12 31.5 -21s16 -19.5 21 -31.5s7.5 -25 7.5 -39s-2.5 -26.833 -7.5 -38.5s-12 -22 -21 -31s-19.5 -16 -31.5 -21
s-25 -7.5 -39 -7.5c-27.333 0 -50.333 9.33301 -69 28s-28 42 -28 70zM730 1245.01c0 28 9.33301 51.5 28 70.5s42 28.5 70 28.5s51.333 -9.5 70 -28.5s28 -42.5 28 -70.5s-9.33301 -51.333 -28 -70s-42 -28 -70 -28s-51.333 9.33301 -70 28s-28 42 -28 70z" />
    <glyph glyph-name="qafinitial" unicode="&#x642;" horiz-adv-x="1027" arabic-form="initial" 
d="M-3 151l-0.000976562 180.002h230c-20.667 42 -35.834 83 -45.501 123s-14.5 78.333 -14.5 115c0 53.333 8.33301 105.166 25 155.499s41.167 95.166 73.5 134.499s72.5 70.833 120.5 94.5s103.667 35.5 167 35.5h271c16.667 0 32.334 -3.33301 47.001 -10
s27.334 -15.667 38.001 -27s19 -24.333 25 -39s9 -30.334 9 -47.001l1 -625c0 -25.333 -8.66699 -46.666 -26 -63.999s-38.333 -26 -63 -26h-858zM363.999 465.002c6.66699 -18.667 15.666 -36.165 26.999 -52.498s24.833 -30.5 40.5 -42.5s33.667 -21.5 54 -28.5
s42.833 -10.5 67.5 -10.5h211v478h-211c-36 0 -67 -7 -93 -21s-47.5 -32.333 -64.5 -55s-29.5 -48.334 -37.5 -77.001s-12 -57.667 -12 -87c0 -17.333 1.33301 -34.833 4 -52.5s7.33398 -34.834 14.001 -51.501zM592.998 1245c0 28 9.5 51.5 28.5 70.5
s42.167 28.5 69.5 28.5c14 0 27 -2.5 39 -7.5s22.5 -12 31.5 -21s16 -19.5 21 -31.5s7.5 -25 7.5 -39s-2.5 -26.833 -7.5 -38.5s-12 -22 -21 -31s-19.5 -16 -31.5 -21s-25 -7.5 -39 -7.5c-27.333 0 -50.5 9.33301 -69.5 28s-28.5 42 -28.5 70zM317.998 1245
c0 28 9.33301 51.5 28 70.5s41.667 28.5 69 28.5c14 0 27 -2.5 39 -7.5s22.5 -12 31.5 -21s16 -19.5 21 -31.5s7.5 -25 7.5 -39s-2.5 -26.833 -7.5 -38.5s-12 -22 -21 -31s-19.5 -16 -31.5 -21s-25 -7.5 -39 -7.5c-27.333 0 -50.333 9.33301 -69 28s-28 42 -28 70z" />
    <glyph glyph-name="qafmedial" unicode="&#x642;" horiz-adv-x="1076" arabic-form="medial" 
d="M0 151l-0.00292969 180.003h210c-20.667 42 -36 83 -46 123s-15 78.333 -15 115c0 53.333 8.33301 105.166 25 155.499s41.334 95.166 74.001 134.499s73 70.833 121 94.5s103.667 35.5 167 35.5h270c16.667 0 32.334 -3.33301 47.001 -10s27.334 -15.667 38.001 -27
s19.167 -24.333 25.5 -39s9.5 -30.334 9.5 -47.001v-535h155v-180h-1081zM346.997 465.003c6.66699 -18.667 15.501 -36.165 26.501 -52.498s24.333 -30.5 40 -42.5s33.667 -21.5 54 -28.5s43.166 -10.5 68.499 -10.5h211v478h-211c-36 0 -67 -7 -93 -21
s-47.5 -32.333 -64.5 -55s-29.667 -48.334 -38 -77.001s-12.5 -57.667 -12.5 -87c0 -17.333 1.33301 -34.833 4 -52.5s7.66699 -34.834 15 -51.501zM334.998 1245c0 28 9.33301 51.5 28 70.5s42 28.5 70 28.5c14 0 27 -2.5 39 -7.5s22.5 -12 31.5 -21s16 -19.5 21 -31.5
s7.5 -25 7.5 -39s-2.5 -26.833 -7.5 -38.5s-12 -22 -21 -31s-19.5 -16 -31.5 -21s-25 -7.5 -39 -7.5c-28 0 -51.333 9.33301 -70 28s-28 42 -28 70zM610.998 1245c0 28 9.33301 51.5 28 70.5s42 28.5 70 28.5s51.333 -9.5 70 -28.5s28 -42.5 28 -70.5
s-9.33301 -51.333 -28 -70s-42 -28 -70 -28s-51.333 9.33301 -70 28s-28 42 -28 70z" />
    <glyph glyph-name="kafisolated" unicode="&#x643;" horiz-adv-x="1300" arabic-form="isolated" 
d="M1194 1353l-0.00292969 -1112c0 -25.333 -8.66699 -46.666 -26 -63.999s-38.666 -26 -63.999 -26h-636c-75.333 0 -138.5 11.167 -189.5 33.5s-92.167 51.666 -123.5 87.999s-53.833 77.5 -67.5 123.5s-20.5 92.333 -20.5 139c0 52 6 102.333 18 151s26.667 91 44 127
l80 -42.5l78 -40.5c-11.333 -26 -21 -56.333 -29 -91s-12 -70.334 -12 -107.001c0 -27.333 2.83301 -53 8.5 -77s16.334 -45.167 32.001 -63.5s37.334 -33 65.001 -44s63.167 -16.833 106.5 -17.5l557 1v1022h179zM439.997 962.001
c-5.33301 11.333 -9.00293 23.333 -11.0029 36s-3 25.667 -3 39c0 26 4.83301 51.5 14.5 76.5s23.834 47.167 42.501 66.5s41.834 35 69.501 47s59.834 18 96.501 18h199v-132l-199 1c-32 0 -55.333 -8 -70 -24s-22 -33.667 -22 -53c0 -18.667 6.5 -35.5 19.5 -50.5
s34.167 -23.167 63.5 -24.5h225v-132h-493v132h68z" />
    <glyph glyph-name="arabickaffinal" unicode="&#x643;" horiz-adv-x="1359" arabic-form="final" 
d="M466 151c-75.333 0 -138.502 11.1689 -189.502 33.502s-92.167 51.666 -123.5 87.999s-53.833 77.5 -67.5 123.5s-20.5 92.333 -20.5 139c0 52 5.83301 102.333 17.5 151s26.167 91 43.5 127l41.5 -22.5l38.5 -20l38 -19.5l41 -21c-12 -26 -21.833 -56.333 -29.5 -91
s-11.5 -70.334 -11.5 -107.001c0 -27.333 2.83301 -53 8.5 -77s16.334 -45.167 32.001 -63.5s37.334 -33 65.001 -44s63.167 -16.833 106.5 -17.5l556 1v1022h179v-1022h183v-180h-908zM439.998 962.002c-5.33301 11.333 -9.00293 23.333 -11.0029 36s-3 25.667 -3 39
c0 26 4.83301 51.5 14.5 76.5s23.834 47.167 42.501 66.5s41.834 35 69.501 47s59.834 18 96.501 18h199v-132l-199 1c-32 0 -55.333 -8 -70 -24s-22 -33.667 -22 -53c0 -18.667 6.5 -35.5 19.5 -50.5s34.167 -23.167 63.5 -24.5h225v-132h-493v132h68z" />
    <glyph glyph-name="kafinitial" unicode="&#x643;" horiz-adv-x="1250" arabic-form="initial" 
d="M-3 331h998.002v128c0 42.667 -1.33301 75.667 -4 99s-9.16699 40.666 -19.5 51.999s-25.5 18.333 -45.5 21s-47.333 4 -82 4c-89.333 0 -178.333 0.333008 -267 1s-177.667 1 -267 1c-25.333 0 -47.333 4 -66 12s-34 18.5 -46 31.5s-21 28.167 -27 45.5s-9 36 -9 56
c0 40 10.333 80.333 31 121c34.667 70.667 80.5 132.834 137.5 186.501s120.167 98.667 189.5 135s142.666 63.666 219.999 81.999s153.666 27.5 228.999 27.5h15c-1.33301 -33.333 -2.66602 -63.666 -3.99902 -90.999s-2.33301 -57 -3 -89c-58 0 -117.5 -7 -178.5 -21
s-119.667 -35.167 -176 -63.5s-108.333 -63.666 -156 -105.999s-86.834 -91.833 -117.501 -148.5h425c52 0 98 -0.833008 138 -2.5s75 -5.66699 105 -12s55 -16.333 75 -30s36.333 -32.334 49 -56.001s21.667 -53.334 27 -89.001s8 -79.167 8 -130.5v-118
c0 -21.333 -0.166992 -43 -0.5 -65s-0.5 -45.667 -0.5 -71s-8.66699 -46.666 -26 -63.999s-38.333 -26 -63 -26h-1089v180z" />
    <glyph glyph-name="kafmedial" unicode="&#x643;" horiz-adv-x="1329" arabic-form="medial" 
d="M-11 331l998.999 0.000976562v128c0 42.667 -1.33301 75.667 -4 99s-9.16699 40.666 -19.5 51.999s-25.5 18.333 -45.5 21s-47.333 4 -82 4c-89.333 0 -178.333 0.333008 -267 1s-177.667 1 -267 1c-25.333 0 -47.333 4 -66 12s-34 18.5 -46 31.5s-21 28.167 -27 45.5
s-9 36 -9 56c0 40 10.333 80.333 31 121c34.667 70.667 80.5 132.834 137.5 186.501s120.167 98.667 189.5 135s142.5 63.666 219.5 81.999s153.167 27.5 228.5 27.5h16c-1.33301 -33.333 -2.66602 -63.666 -3.99902 -90.999s-2.33301 -57 -3 -89
c-58 0 -117.5 -7 -178.5 -21s-119.833 -35.167 -176.5 -63.5s-108.667 -63.666 -156 -105.999s-86.333 -91.833 -117 -148.5h425c52 0 98 -0.833008 138 -2.5s75 -5.66699 105 -12s55 -16.333 75 -30s36.333 -32.334 49 -56.001s21.667 -53.334 27 -89.001
s8 -79.167 8 -130.5v-164h170v-180h-1350v180z" />
    <glyph glyph-name="lamisolated" unicode="&#x644;" horiz-adv-x="1027" arabic-form="isolated" 
d="M268 557v-359c0 -36.667 6.83301 -68.334 20.5 -95.001s31.5 -48.834 53.5 -66.501s47.333 -30.667 76 -39s58 -12.5 88 -12.5s59.333 4.16699 88 12.5s54.167 21.333 76.5 39s40.166 39.834 53.499 66.501s20 58.334 20 95.001v1155h181v-1155
c0 -64 -12 -120.5 -36 -169.5s-55.667 -90 -95 -123s-84.166 -58 -134.499 -75s-101.5 -25.5 -153.5 -25.5c-52.667 0 -104.167 8.5 -154.5 25.5s-95 42 -134 75s-70.333 74 -94 123s-35.5 105.5 -35.5 169.5v359h180z" />
    <glyph glyph-name="lamfinal" unicode="&#x644;" horiz-adv-x="1106" arabic-form="final" 
d="M919 151c-8 -56.667 -25.332 -106.5 -51.999 -149.5s-59 -79 -97 -108s-80 -51 -126 -66s-93 -22.5 -141 -22.5c-52.667 0 -104 8.5 -154 25.5s-94.5 42 -133.5 75s-70.333 74 -94 123s-35.5 105.5 -35.5 169.5v359h180v-359c0 -36.667 6.66699 -68.334 20 -95.001
s31.166 -48.834 53.499 -66.501s47.666 -30.667 75.999 -39s57.5 -12.5 87.5 -12.5c30.667 0 60.334 4.16699 89.001 12.5s54 21.333 76 39s39.667 39.834 53 66.501s20 58.334 20 95.001v1155h181v-1022h188v-180h-191z" />
    <glyph glyph-name="laminitial" unicode="&#x644;" horiz-adv-x="476" arabic-form="initial" 
d="M-4 331l197.001 -0.000976562v1022h179v-1103c0.666992 -2.66699 1 -5.66699 1 -9c0 -25.333 -8.83301 -46.666 -26.5 -63.999s-38.834 -26 -63.501 -26h-287v180z" />
    <glyph glyph-name="lammedial" unicode="&#x644;" horiz-adv-x="561" arabic-form="medial" 
d="M0 151v180h204v1022h179v-1022h188v-180h-571z" />
    <glyph glyph-name="meemisolated" unicode="&#x645;" horiz-adv-x="1230" arabic-form="isolated" 
d="M371 603c0.666992 44.667 11.333 90.332 32 136.999s48.5 88.667 83.5 126s76.167 67.5 123.5 90.5s97.666 33.833 150.999 32.5l156.5 -2c52.333 -0.666992 104.5 -1.66699 156.5 -3c12 0 23.5 -2.33301 34.5 -7s20.5 -11 28.5 -19s14.333 -17.333 19 -28s7 -22 7 -34
v-655c0 -25.333 -8.66699 -46.666 -26 -63.999s-38.333 -26 -63 -26h-624c-31.333 0 -59.666 -1.66699 -84.999 -5s-47 -10.833 -65 -22.5s-31.833 -28.5 -41.5 -50.5s-14.5 -52 -14.5 -90v-334h-180v334c0 52.667 7.66699 99 23 139s36.833 74 64.5 102
s60.167 50.333 97.5 67s78 28.667 122 36v276zM550.999 329.998l432 0.000976562v477c-50 0.666992 -89.833 1.16699 -119.5 1.5s-52.167 0.666016 -67.5 0.999023s-25.333 0.5 -30 0.5h-7c-26.667 0 -52.5 -5.66699 -77.5 -17s-47.167 -26.666 -66.5 -45.999
s-34.833 -41.833 -46.5 -67.5s-17.5 -52.834 -17.5 -81.501v-268z" />
    <glyph glyph-name="meemfinal" unicode="&#x645;" horiz-adv-x="1309" arabic-form="final" 
d="M369 603c0.666992 44.667 11.333 90.333 32 137s48.5 88.667 83.5 126s76.167 67.5 123.5 90.5s97.666 33.833 150.999 32.5l156.5 -2c52.333 -0.666992 104.5 -1.66699 156.5 -3c12 0 23.5 -2.33301 34.5 -7s20.5 -11 28.5 -19s14.333 -17.333 19 -28s7 -22 7 -34v-565
h156v-180h-869c-31.333 0 -59.666 -1.66699 -84.999 -5s-47 -10.833 -65 -22.5s-31.833 -28.5 -41.5 -50.5s-14.5 -52 -14.5 -90v-334h-181v334c0 52.667 7.83301 99 23.5 139s37.167 74 64.5 102s59.833 50.333 97.5 67s78.5 28.667 122.5 36v276zM548.999 329.999
l432 1.00098v476c-50 0.666992 -89.833 1.16699 -119.5 1.5s-52.167 0.666016 -67.5 0.999023s-25.333 0.5 -30 0.5h-7c-26.667 0 -52.5 -5.66699 -77.5 -17s-47.167 -26.666 -66.5 -45.999s-34.833 -41.833 -46.5 -67.5s-17.5 -52.834 -17.5 -81.501v-268z" />
    <glyph glyph-name="meeminitial" unicode="&#x645;" horiz-adv-x="1047" arabic-form="initial" 
d="M-6 331h173v272c0 45.333 10.167 91.333 30.5 138s48 88.667 83 126s76.333 67.5 124 90.5s98.5 33.5 152.5 31.5l156.5 -2c52.333 -0.666992 104.5 -1.66699 156.5 -3c12 0 23.5 -2.33301 34.5 -7s20.5 -11 28.5 -19s14.333 -17.333 19 -28s7 -22 7 -34v-645
c0 -28 -7.83301 -51.667 -23.5 -71s-37.5 -29 -65.5 -29h-876v180zM347 331h432v476c-18 0 -36.167 0.166992 -54.5 0.5l-52.5 1c-16.667 0.333008 -32.334 0.5 -47.001 0.5h-34c-17.333 0.666992 -27.666 1 -30.999 1h-7c-26 0 -51.333 -6 -76 -18s-46.667 -27.5 -66 -46.5
s-34.833 -40.833 -46.5 -65.5s-17.5 -50 -17.5 -76v-273z" />
    <glyph glyph-name="meemmedial" unicode="&#x645;" horiz-adv-x="1106" arabic-form="medial" 
d="M-5 151v180h170v272c0 45.333 10.167 91.333 30.5 138s48 88.667 83 126s76.333 67.5 124 90.5s98.5 33.5 152.5 31.5l156.5 -2c52.333 -0.666992 104.5 -1.66699 156.5 -3c12 0 23.5 -2.33301 34.5 -7s20.5 -11 28.5 -19s14.333 -17.333 19 -28s7 -22 7 -34v-565h156
v-180h-1118zM345 331h432v476c-18 0 -36.167 0.166992 -54.5 0.5l-52.5 1c-16.667 0.333008 -32.334 0.5 -47.001 0.5h-34c-17.333 0.666992 -27.666 1 -30.999 1h-7c-26 0 -51.333 -6 -76 -18s-46.667 -27.5 -66 -46.5s-34.833 -40.833 -46.5 -65.5s-17.5 -50 -17.5 -76
v-273z" />
    <glyph glyph-name="noonisolated" unicode="&#x646;" horiz-adv-x="982" arabic-form="isolated" 
d="M253 557l0.000976562 -359c0 -36.667 6.66699 -68.334 20 -95.001s31.166 -48.834 53.499 -66.501s47.833 -30.667 76.5 -39s58 -12.5 88 -12.5s59.333 4.16699 88 12.5s54.167 21.333 76.5 39s40.166 39.834 53.499 66.501s20 58.334 20 95.001v743h181v-743
c0 -64 -12 -120.5 -36 -169.5s-55.667 -90 -95 -123s-84.166 -58 -134.499 -75s-101.5 -25.5 -153.5 -25.5c-52.667 0 -104.167 8.5 -154.5 25.5s-95 42 -134 75s-70.333 74 -94 123s-35.5 105.5 -35.5 169.5v359h180zM368.001 1167c0 28 9.33301 51.333 28 70
s41.667 28 69 28c14 0 27 -2.5 39 -7.5s22.5 -12 31.5 -21s16 -19.333 21 -31s7.5 -24.5 7.5 -38.5s-2.5 -26.833 -7.5 -38.5s-12 -22 -21 -31s-19.5 -16 -31.5 -21s-25 -7.5 -39 -7.5c-27.333 0 -50.333 9.33301 -69 28s-28 42 -28 70z" />
    <glyph glyph-name="noonfinal" unicode="&#x646;" horiz-adv-x="1061" arabic-form="final" 
d="M904 151c-8 -56.667 -25.334 -106.5 -52.001 -149.5s-59 -79 -97 -108s-80 -51 -126 -66s-92.667 -22.5 -140 -22.5c-52.667 0 -104.167 8.5 -154.5 25.5s-95 42 -134 75s-70.333 74 -94 123s-35.5 105.5 -35.5 169.5v359h180v-359c0 -36.667 6.66699 -68.334 20 -95.001
s31 -48.834 53 -66.501s47.333 -30.667 76 -39s58.334 -12.5 89.001 -12.5c30 0 59.333 4.16699 88 12.5s54 21.333 76 39s39.667 39.834 53 66.501s20 58.334 20 95.001v743h182v-610h156v-180h-160zM364.999 1167c0 28 9.5 51.333 28.5 70s42.167 28 69.5 28
c14 0 27 -2.5 39 -7.5s22.5 -12 31.5 -21s16 -19.333 21 -31s7.5 -24.5 7.5 -38.5s-2.5 -26.833 -7.5 -38.5s-12 -22 -21 -31s-19.5 -16 -31.5 -21s-25 -7.5 -39 -7.5c-27.333 0 -50.5 9.33301 -69.5 28s-28.5 42 -28.5 70z" />
    <glyph glyph-name="nooninitial" unicode="&#x646;" horiz-adv-x="570" arabic-form="initial" 
d="M-7 331l288.999 -0.000976562v624h179v-705c0.666992 -2.66699 1 -5.66699 1 -9c0 -25.333 -8.66699 -46.666 -26 -63.999s-38.666 -26 -63.999 -26h-379v180zM272.999 1248c0 28 9.33301 51.5 28 70.5s42 28.5 70 28.5s51.5 -9.5 70.5 -28.5s28.5 -42.5 28.5 -70.5
s-9.5 -51.333 -28.5 -70s-42.5 -28 -70.5 -28s-51.333 9.33301 -70 28s-28 42 -28 70z" />
    <glyph glyph-name="noonmedial" unicode="&#x646;" horiz-adv-x="563" arabic-form="medial" 
d="M203 331v624h179v-620h188v-181c-98.667 -0.666992 -194.667 -1.16699 -288 -1.5s-189 -0.833008 -287 -1.5v180h208zM194 1248c0 28 9.33301 51.5 28 70.5s41.667 28.5 69 28.5c14 0 27 -2.5 39 -7.5s22.5 -12 31.5 -21s16 -19.5 21 -31.5s7.5 -25 7.5 -39
s-2.5 -26.833 -7.5 -38.5s-12 -22 -21 -31s-19.5 -16 -31.5 -21s-25 -7.5 -39 -7.5c-27.333 0 -50.333 9.33301 -69 28s-28 42 -28 70z" />
    <glyph glyph-name="hehisolated" unicode="&#x647;" horiz-adv-x="962" arabic-form="isolated" 
d="M797 180c-50 -13.333 -102.168 -23.5029 -156.501 -30.5029s-109.166 -10.5 -164.499 -10.5c-28.667 0 -56.834 1 -84.501 3s-55.5 4.66699 -83.5 8h1c-23.333 4 -48.333 8 -75 12s-51.167 9.83301 -73.5 17.5s-40.833 18.334 -55.5 32.001s-22 32.5 -22 56.5v327
c0 54 10.167 105 30.5 153s48.333 89.833 84 125.5s77.334 63.834 125.001 84.501s98.834 31 153.501 31h274c16 0 31.167 -3 45.5 -9s27 -14.5 38 -25.5s19.667 -23.833 26 -38.5s9.5 -30.667 9.5 -48l1 -600c0 -21.333 -6.83301 -40.166 -20.5 -56.499
s-30.834 -26.5 -51.501 -30.5zM475.999 318.997c36 0 71.667 1.66699 107 5s71 8.33301 107 15v470l-214 1c-29.333 0 -57 -5.83301 -83 -17.5s-48.833 -27.334 -68.5 -47.001s-35 -42.5 -46 -68.5s-16.5 -53.333 -16.5 -82l1 -254c24 -5.33301 45 -9.5 63 -12.5
s34.833 -5.16699 50.5 -6.5s30.5 -2.16602 44.5 -2.49902s29 -0.5 45 -0.5h10z" />
    <glyph glyph-name="hehfinal" unicode="&#x647;" horiz-adv-x="1022" arabic-form="final" 
d="M1029 151l-265.005 -0.00585938c-28 0 -50 9.66699 -66 29s-24 42.666 -24 69.999l-2 559l-215 1c-29.333 0 -57 -5.83301 -83 -17.5s-48.833 -27.167 -68.5 -46.5s-35 -42.166 -46 -68.499s-16.5 -53.833 -16.5 -82.5l1 -256c26 -3.33301 48.5 -6.5 67.5 -9.5
s39.5 -4.5 61.5 -4.5c22.667 0 49 2.16699 79 6.5s69 11.5 117 21.5c2.66699 -33.333 5.33398 -63.5 8.00098 -90.5s5.33398 -56.5 8.00098 -88.5c-47.333 -7.33301 -91.5 -12.666 -132.5 -15.999s-80 -4.66602 -117 -3.99902s-72.5 3.33398 -106.5 8.00098
s-67.333 11.334 -100 20.001c-19.333 4 -35 14 -47 30s-18 34.667 -18 56v327c0 54 10.167 105 30.5 153s48.333 89.833 84 125.5s77.334 63.834 125.001 84.501s98.834 31 153.501 31h273c15.333 0 30.166 -3.16699 44.499 -9.5s26.833 -14.666 37.5 -24.999
s19.334 -22.5 26.001 -36.5s10.334 -28.667 11.001 -44l4 -543h176v-180z" />
    <glyph glyph-name="hehinitial" unicode="&#x647;" horiz-adv-x="1389" arabic-form="initial" 
d="M-11 151l-0.000976562 179.999h172c-6 33.333 -10 64.5 -12 93.5s-3 53.167 -3 72.5c0 56.667 10.167 111.5 30.5 164.5s47.333 101 81 144s72.334 79.333 116.001 109s88.834 49.834 135.501 60.501c21.333 3.33301 44.666 6 69.999 8s51.333 3 78 3
c44.667 0 91.5 -4 140.5 -12s97.167 -21.833 144.5 -41.5s92.833 -46.167 136.5 -79.5s82.667 -75.333 117 -126s62.5 -111 84.5 -181s35.333 -151.667 40 -245c0 -22.667 -0.166992 -47.5 -0.5 -74.5s-0.5 -52.167 -0.5 -75.5h-1330zM681.999 636.999
c0 44.667 -9.33105 81.501 -27.998 110.501s-43 45.833 -73 50.5c-28.667 4 -56.334 0 -83.001 -12s-51.167 -29.5 -73.5 -52.5s-41.666 -50.333 -57.999 -82s-28.5 -65.167 -36.5 -100.5c-2 -12 -3 -26.667 -3 -44c0 -20 2.33301 -40 7 -60s12.5 -38.333 23.5 -55
s25.167 -30.167 42.5 -40.5s38.666 -15.833 63.999 -16.5c26.667 3.33301 53.167 14.166 79.5 32.499s49.666 41.5 69.999 69.5s36.833 59.333 49.5 94s19 70 19 106zM826.001 774c2 -8 5 -17.833 9 -29.5s8 -24 12 -37s7.5 -25.667 10.5 -38s4.5 -22.833 4.5 -31.5
c0 -48 -8.5 -98.833 -25.5 -152.5s-41.5 -104.5 -73.5 -152.5h376c-4 67.333 -13.5 125.333 -28.5 174s-34.167 90 -57.5 124s-50 61.5 -80 82.5s-62 37.5 -96 49.5z" />
    <glyph glyph-name="hehmedial" unicode="&#x647;" horiz-adv-x="1463" arabic-form="medial" 
d="M-13 151v179.996h190l-12 43.5c-4 15 -7.5 29.833 -10.5 44.5s-5.5 28.834 -7.5 42.501s-3 25.5 -3 35.5c0 56.667 10.167 111.5 30.5 164.5s47.333 101 81 144s72.334 79.333 116.001 109s88.834 49.834 135.501 60.501c21.333 3.33301 44.5 6 69.5 8s50.833 3 77.5 3
c43.333 0 88.666 -3.66699 135.999 -11s94.166 -20.166 140.499 -38.499s91 -43 134 -74s81.667 -69.833 116 -116.5s63.333 -102.167 87 -166.5s39.167 -139.166 46.5 -224.499v-22h37h42c14.667 0 29 -0.166992 43 -0.5s27 -0.833008 39 -1.5v-180h-1488zM328 551.996
c-1.33301 -8 -2.5 -16.5 -3.5 -25.5s-1.5 -18.167 -1.5 -27.5c0 -20.667 2.5 -40.667 7.5 -60s13 -36.5 24 -51.5s25.167 -27.333 42.5 -37s38.333 -14.834 63 -15.501c26.667 3.33301 53.167 14.166 79.5 32.499s50 41.5 71 69.5s37.833 59.333 50.5 94s19 70 19 106
c-3.33301 37.333 -14.5 68.833 -33.5 94.5s-47.5 45.834 -85.5 60.501c-20.667 7.33301 -43 5.5 -67 -5.5s-47 -28.167 -69 -51.5s-41.667 -51.166 -59 -83.499s-30 -65.5 -38 -99.5zM833 778.996c2 -7.33301 4.5 -17.166 7.5 -29.499s6 -25.333 9 -39s5.5 -27 7.5 -40
s3 -23.833 3 -32.5c0 -48.667 -8.5 -99.834 -25.5 -153.501s-41.5 -104.5 -73.5 -152.5h375c-4 67.333 -13.5 125.5 -28.5 174.5s-34 90.5 -57 124.5s-49.5 61.5 -79.5 82.5s-62 37.5 -96 49.5z" />
    <glyph glyph-name="wawisolated" unicode="&#x648;" horiz-adv-x="962" arabic-form="isolated" 
d="M670 164c-16 -5.33301 -41.5039 -10.333 -76.5039 -15s-74.333 -7.83398 -118 -9.50098s-88.667 -1.33398 -135 0.999023s-88.666 8.16602 -126.999 17.499s-69.833 22.833 -94.5 40.5s-37 40.834 -37 69.501v327c0 54 10.167 105 30.5 153s48.333 89.833 84 125.5
s77.334 63.834 125.001 84.501s98.834 31 153.501 31h273c16.667 0 32.334 -3.16699 47.001 -9.5s27.334 -14.833 38.001 -25.5s19.167 -23.5 25.5 -38.5s9.5 -30.833 9.5 -47.5c0 -58.667 1 -120.5 3 -185.5s2.66699 -130.833 2 -197.5s-3.5 -133 -8.5 -199
s-14.667 -129.167 -29 -189.5s-34.333 -116.833 -60 -169.5s-59.167 -99 -100.5 -139s-91.833 -72.5 -151.5 -97.5s-130.5 -40.167 -212.5 -45.5v180c54.667 2 101.167 10.833 139.5 26.5s71 36.834 98 63.501s49.167 57.667 66.5 93s32.666 73.333 45.999 114zM474.996 319
c36 0 72.167 1.83203 108.5 5.49902s72.833 9.16699 109.5 16.5c2.66699 36.667 4 75.334 4 116.001c0 41.333 -0.5 82.333 -1.5 123s-2.16699 80.5 -3.5 119.5s-2 75.5 -2 109.5l-215 1c-29.333 0 -57 -5.83301 -83 -17.5s-48.833 -27.334 -68.5 -47.001
s-35 -42.5 -46 -68.5s-16.5 -53.333 -16.5 -82l1 -254c24 -5.33301 45 -9.5 63 -12.5s34.833 -5.16699 50.5 -6.5s30.5 -2.16602 44.5 -2.49902s29 -0.5 45 -0.5h10z" />
    <glyph glyph-name="wawfinal" unicode="&#x648;" horiz-adv-x="1032" arabic-form="final" 
d="M848 151c-14.667 -68.667 -35.3389 -133.335 -62.0059 -194.002s-61.5 -113.667 -104.5 -159s-95 -81.666 -156 -108.999s-133.167 -42 -216.5 -44v180c54.667 2 101.334 11.667 140.001 29s71.834 40.5 99.501 69.5s50.834 63 69.501 102s35.334 81.167 50.001 126.5
c-36 -4 -70.333 -7.16699 -103 -9.5s-63.334 -3.5 -92.001 -3.5s-56.834 1 -84.501 3s-55.5 4.66699 -83.5 8h1c-5.33301 1.33301 -11.333 2.33301 -18 3s-13 1.66699 -19 3c-22 3.33301 -44.333 7.16602 -67 11.499s-43 10.5 -61 18.5s-32.667 18.333 -44 31
s-17 29.667 -17 51v327c0 54 10.167 105 30.5 153s48.333 89.833 84 125.5s77.334 63.834 125.001 84.501s98.834 31 153.501 31h273c16.667 0 32.334 -3.16699 47.001 -9.5s27.334 -14.833 38.001 -25.5s19.167 -23.5 25.5 -38.5s9.5 -30.833 9.5 -47.5
c0 -25.333 0.333008 -52.166 1 -80.499s1.66699 -57.5 3 -87.5l4 -106.5c1.33301 -36.333 2 -73.833 2 -112.5c0 -41.333 -1 -83 -3 -125l-1 -25h165v-180h-189zM472.995 318.999c36 0 72.166 1.83008 108.499 5.49707s72.833 9.16699 109.5 16.5
c1.33301 22 2.33301 47.333 3 76s1 54.334 1 77.001c0 44 -0.666992 89.167 -2 135.5s-2.66602 89.5 -3.99902 129.5v10c0 4.66699 -0.166992 9.5 -0.5 14.5s-0.5 9.83301 -0.5 14.5v11l-215 1c-29.333 0 -57 -5.83301 -83 -17.5s-48.833 -27.167 -68.5 -46.5
s-35 -42.166 -46 -68.499s-16.5 -53.833 -16.5 -82.5l1 -254c24 -5.33301 45 -9.5 63 -12.5s34.667 -5.16699 50 -6.5s30 -2.16602 44 -2.49902s29 -0.5 45 -0.5h11z" />
    <glyph glyph-name="alefmaksuraisolated" unicode="&#x649;" horiz-adv-x="1148" arabic-form="isolated" 
d="M275 464c-11.333 -26.667 -20.999 -57.3369 -28.999 -92.0039s-12 -70 -12 -106c0 -27.333 2.83301 -53.166 8.5 -77.499s16.5 -45.666 32.5 -63.999s38.5 -32.833 67.5 -43.5s66.833 -16 113.5 -16h302c26 0 47.667 3.33301 65 10s31.166 15.5 41.499 26.5
s17.5 23.833 21.5 38.5s6 30.334 6 47.001c0 28 -4.33301 51.333 -13 70s-21 34.667 -37 48s-35.667 24.833 -59 34.5s-49.666 19.5 -78.999 29.5c-36 12.667 -71.167 26 -105.5 40s-64.833 32.167 -91.5 54.5s-48 51 -64 86s-24 79.5 -24 133.5
c0 63.333 11.333 117.5 34 162.5s52.5 81.833 89.5 110.5s79 49.667 126 63s94.5 20 142.5 20c44.667 0 88.167 -4.83301 130.5 -14.5s80.833 -22.5 115.5 -38.5l-44 -79.5l-44 -77.5c-22 9.33301 -47 16.833 -75 22.5s-56.667 8.5 -86 8.5c-28 0 -54.667 -2.83301 -80 -8.5
s-47.666 -15.5 -66.999 -29.5s-34.666 -32.667 -45.999 -56s-17 -52.666 -17 -87.999c0 -19.333 5 -36.166 15 -50.499s22.833 -27 38.5 -38s33.167 -20.333 52.5 -28s38.666 -14.834 57.999 -21.501c22.667 -8 45.5 -16.5 68.5 -25.5s45.5 -19.5 67.5 -31.5s43 -26 63 -42
s37.667 -35 53 -57c18 -29.333 32.167 -60.833 42.5 -94.5s15.5 -67.5 15.5 -101.5c0 -37.333 -6.33301 -74 -19 -110s-32 -68.5 -58 -97.5s-59 -52.333 -99 -70s-87.333 -26.5 -142 -26.5c-49.333 0 -98.833 0.333008 -148.5 1s-99.5 1 -149.5 1
c-75.333 0 -138.5 11.167 -189.5 33.5s-92.333 51.5 -124 87.5s-54.334 76.833 -68.001 122.5s-20.5 92.5 -20.5 140.5c0 51.333 6.16699 101.333 18.5 150s27.166 91 44.499 127z" />
    <glyph glyph-name="alefmaksurafinal" unicode="&#x649;" horiz-adv-x="1493" arabic-form="final" 
d="M261 729c-11.333 -25.333 -21.0039 -55.499 -29.0039 -90.499s-12 -70.833 -12 -107.5c0.666992 -27.333 3.83398 -53.166 9.50098 -77.499s16.334 -45.666 32.001 -63.999s37.834 -32.833 66.501 -43.5s66.667 -16 114 -16l293 1v317c0 109.333 29.5 193.5 88.5 252.5
s143.167 88.5 252.5 88.5l94.5 -2c31 -0.666992 62.5 -1.66699 94.5 -3c25.333 -0.666992 46.166 -10 62.499 -28s24.5 -39.333 24.5 -64v-561h157v-180h-246c-25.333 0 -46.666 8.66699 -63.999 26s-26 38.666 -26 63.999v567l-101 2
c-30.667 0 -56.167 -2.83301 -76.5 -8.5s-36.5 -14.834 -48.5 -27.501s-20.5 -29.334 -25.5 -50.001s-7.5 -46 -7.5 -76l1 -397c0 -28 -8 -51.667 -24 -71s-38.333 -29 -67 -29h-382c-74 0 -136.667 11 -188 33s-92.666 51 -123.999 87s-54 77 -68 123s-21 93 -21 141
c0 52 5.83301 102.333 17.5 151s26.167 91 43.5 127z" />
    <glyph glyph-name="yehisolated" unicode="&#x64a;" horiz-adv-x="1148" arabic-form="isolated" 
d="M275 464c-11.333 -26.667 -20.999 -57.3369 -28.999 -92.0039s-12 -70 -12 -106c0 -27.333 2.83301 -53.166 8.5 -77.499s16.5 -45.666 32.5 -63.999s38.5 -32.833 67.5 -43.5s66.833 -16 113.5 -16h302c26 0 47.667 3.33301 65 10s31.166 15.5 41.499 26.5
s17.5 23.833 21.5 38.5s6 30.334 6 47.001c0 28 -4.33301 51.333 -13 70s-21 34.667 -37 48s-35.667 24.833 -59 34.5s-49.666 19.5 -78.999 29.5c-36 12.667 -71.167 26 -105.5 40s-64.833 32.167 -91.5 54.5s-48 51 -64 86s-24 79.5 -24 133.5
c0 63.333 11.333 117.5 34 162.5s52.5 81.833 89.5 110.5s79 49.667 126 63s94.5 20 142.5 20c44.667 0 88.167 -4.83301 130.5 -14.5s80.833 -22.5 115.5 -38.5l-44 -79.5l-44 -77.5c-22 9.33301 -47 16.833 -75 22.5s-56.667 8.5 -86 8.5c-28 0 -54.667 -2.83301 -80 -8.5
s-47.666 -15.5 -66.999 -29.5s-34.666 -32.667 -45.999 -56s-17 -52.666 -17 -87.999c0 -19.333 5 -36.166 15 -50.499s22.833 -27 38.5 -38s33.167 -20.333 52.5 -28s38.666 -14.834 57.999 -21.501c22.667 -8 45.5 -16.5 68.5 -25.5s45.5 -19.5 67.5 -31.5s43 -26 63 -42
s37.667 -35 53 -57c18 -29.333 32.167 -60.833 42.5 -94.5s15.5 -67.5 15.5 -101.5c0 -37.333 -6.33301 -74 -19 -110s-32 -68.5 -58 -97.5s-59 -52.333 -99 -70s-87.333 -26.5 -142 -26.5c-49.333 0 -98.833 0.333008 -148.5 1s-99.5 1 -149.5 1
c-75.333 0 -138.5 11.167 -189.5 33.5s-92.333 51.5 -124 87.5s-54.334 76.833 -68.001 122.5s-20.5 92.5 -20.5 140.5c0 51.333 6.16699 101.333 18.5 150s27.166 91 44.499 127zM319.001 -364.003c0 28 9.33301 51.5 28 70.5s42 28.5 70 28.5s51.5 -9.5 70.5 -28.5
s28.5 -42.5 28.5 -70.5s-9.5 -51.333 -28.5 -70s-42.5 -28 -70.5 -28s-51.333 9.33301 -70 28s-28 42 -28 70zM595.001 -364.003c0 28 9.33301 51.5 28 70.5s42 28.5 70 28.5s51.333 -9.5 70 -28.5s28 -42.5 28 -70.5s-9.33301 -51.333 -28 -70s-42 -28 -70 -28
s-51.333 9.33301 -70 28s-28 42 -28 70z" />
    <glyph glyph-name="yehfinal" unicode="&#x64a;" horiz-adv-x="1493" arabic-form="final" 
d="M261 729c-11.333 -25.333 -21.0039 -55.499 -29.0039 -90.499s-12 -70.833 -12 -107.5c0.666992 -27.333 3.83398 -53.166 9.50098 -77.499s16.334 -45.666 32.001 -63.999s37.834 -32.833 66.501 -43.5s66.667 -16 114 -16l293 1v317c0 109.333 29.5 193.5 88.5 252.5
s143.167 88.5 252.5 88.5l94.5 -2c31 -0.666992 62.5 -1.66699 94.5 -3c25.333 -0.666992 46.166 -10 62.499 -28s24.5 -39.333 24.5 -64v-561h157v-180h-246c-25.333 0 -46.666 8.66699 -63.999 26s-26 38.666 -26 63.999v567l-101 2
c-30.667 0 -56.167 -2.83301 -76.5 -8.5s-36.5 -14.834 -48.5 -27.501s-20.5 -29.334 -25.5 -50.001s-7.5 -46 -7.5 -76l1 -397c0 -28 -8 -51.667 -24 -71s-38.333 -29 -67 -29h-382c-74 0 -136.667 11 -188 33s-92.666 51 -123.999 87s-54 77 -68 123s-21 93 -21 141
c0 52 5.83301 102.333 17.5 151s26.167 91 43.5 127zM312.996 -129.999c0 14 2.5 27 7.5 39s12 22.5 21 31.5s19.333 16 31 21s24.5 7.5 38.5 7.5s27 -2.5 39 -7.5s22.5 -12 31.5 -21s16 -19.5 21 -31.5s7.5 -25 7.5 -39c0 -27.333 -9.5 -50.333 -28.5 -69
s-42.5 -28 -70.5 -28s-51.333 9.33301 -70 28s-28 41.667 -28 69zM588.996 -129.999c0 14 2.5 27 7.5 39s12 22.5 21 31.5s19.333 16 31 21s24.5 7.5 38.5 7.5s26.833 -2.5 38.5 -7.5s22 -12 31 -21s16 -19.5 21 -31.5s7.5 -25 7.5 -39c0 -27.333 -9.33301 -50.333 -28 -69
s-42 -28 -70 -28s-51.333 9.33301 -70 28s-28 41.667 -28 69z" />
    <glyph glyph-name="yehinitial" unicode="&#x64a;" horiz-adv-x="619" arabic-form="initial" 
d="M-10 331h341v624h179v-705c0.666992 -2.66699 1 -5.66699 1 -9c0 -12.667 -2.33301 -24.5 -7 -35.5s-11.167 -20.5 -19.5 -28.5s-18 -14.333 -29 -19s-22.833 -7 -35.5 -7h-430v180zM-10 -150c0 28 9.33301 51.5 28 70.5s42 28.5 70 28.5s51.5 -9.5 70.5 -28.5
s28.5 -42.5 28.5 -70.5s-9.5 -51.333 -28.5 -70s-42.5 -28 -70.5 -28s-51.333 9.33301 -70 28s-28 42 -28 70zM266 -150c0 28 9.33301 51.5 28 70.5s42 28.5 70 28.5s51.333 -9.5 70 -28.5s28 -42.5 28 -70.5s-9.33301 -51.333 -28 -70s-42 -28 -70 -28
s-51.333 9.33301 -70 28s-28 42 -28 70z" />
    <glyph glyph-name="yehmedial" unicode="&#x64a;" horiz-adv-x="580" arabic-form="medial" 
d="M210 331v624h179v-624h188v-180h-575v180h208zM52 -150c0 28 9.5 51.5 28.5 70.5s42.167 28.5 69.5 28.5c14 0 27 -2.5 39 -7.5s22.5 -12 31.5 -21s16 -19.5 21 -31.5s7.5 -25 7.5 -39s-2.5 -26.833 -7.5 -38.5s-12 -22 -21 -31s-19.5 -16 -31.5 -21s-25 -7.5 -39 -7.5
c-27.333 0 -50.5 9.33301 -69.5 28s-28.5 42 -28.5 70zM328 -150c0 28 9.33301 51.5 28 70.5s42 28.5 70 28.5s51.5 -9.5 70.5 -28.5s28.5 -42.5 28.5 -70.5s-9.5 -51.333 -28.5 -70s-42.5 -28 -70.5 -28s-51.333 9.33301 -70 28s-28 42 -28 70z" />
    <glyph glyph-name="space" unicode=" " horiz-adv-x="435" 
 />
    <glyph glyph-name="exclam" unicode="!" horiz-adv-x="585" 
d="M174 1291c1.33301 12 6.49902 22.167 15.499 30.5s20.167 12.5 33.5 12.5h135c12 0 22.667 -4.33301 32 -13s15 -18.667 17 -30l-49 -675c0 -13.333 -4.66699 -25 -14 -35s-21 -15 -35 -15h-38c-13.333 0 -24.666 5 -33.999 15s-14 21.667 -14 35zM407.999 259
c0 -16 -3.16699 -31 -9.5 -45s-14.666 -26.333 -24.999 -37s-22.666 -19.167 -36.999 -25.5s-29.5 -9.5 -45.5 -9.5s-30.833 3.16699 -44.5 9.5s-25.834 14.833 -36.501 25.5s-19 23 -25 37s-9 29 -9 45s3 31.167 9 45.5s14.333 26.666 25 36.999
s22.834 18.666 36.501 24.999s28.5 9.5 44.5 9.5s31.167 -3.16699 45.5 -9.5s26.666 -14.666 36.999 -24.999s18.666 -22.666 24.999 -36.999s9.5 -29.5 9.5 -45.5z" />
    <glyph glyph-name="quotedbl" unicode="&#x22;" horiz-adv-x="622" 
d="M496 1540c0.666992 -40 1.66699 -78.001 3 -114.001s2.5 -71.5 3.5 -106.5l3 -106c1 -35.667 2.16699 -73.5 3.5 -113.5c-1.33301 -13.333 -9 -24 -23 -32s-30 -13.667 -48 -17l-20.5 106.5l-19.5 100l-19.5 100.5l-20.5 107c0 20.667 7.66699 38.334 23 53.001
s34 22 56 22h59zM245 1540c1.33301 -40 2.50098 -78.001 3.50098 -114.001l3 -106.5l3 -106c1 -35.667 2.16699 -73.5 3.5 -113.5c0 -13.333 -7.16699 -24 -21.5 -32s-30.5 -13.667 -48.5 -17l-21 106.5l-19.5 100l-19.5 100.5l-21 107
c0.666992 20.667 8.66699 38.334 24 53.001s33.666 22 54.999 22h59z" />
    <glyph glyph-name="numbersign" unicode="#" horiz-adv-x="1370" 
d="M804 1418l-141 -395h223l142 395h143l-139 -395h262l-45 -127h-263l-81 -227h280l-44 -128h-281l-141 -394h-143l140 394h-224l-141 -394h-144l138 394h-268l46 128h269l80 227h-287l45 127h289l140 395h145zM843 896h-226l-81 -229h227z" />
    <glyph glyph-name="dollar" unicode="$" horiz-adv-x="1020" 
d="M464 -44l0.00195312 169.003c-272.667 20 -409 157.333 -409 412v21h162v-15c0 -82.667 21.5 -147.667 64.5 -195s103.833 -73.333 182.5 -78v479c-254.667 42.667 -382 162 -382 358c0 52.667 9 100.667 27 144s43.5 80.666 76.5 111.999s73 56.166 120 74.499
s99.833 29.166 158.5 32.499v129h95v-129c122.667 -10 216.167 -44.833 280.5 -104.5s97.166 -141.5 98.499 -245.5h-164c-14.667 128 -86.334 196 -215.001 204v-426c152 -32.667 259 -78 321 -136c61.333 -57.333 92 -139.333 92 -246
c0 -111.333 -35.333 -200.5 -106 -267.5s-173 -107.5 -307 -121.5v-171h-95zM559.002 263.003c78 7.33301 137.667 31 179 71s62 94 62 162c0 60 -18.833 108.167 -56.5 144.5s-99.167 64.5 -184.5 84.5v-462zM464.002 913.003v412.001
c-33.333 0 -63.5 -4.83301 -90.5 -14.5s-50 -23.334 -69 -41.001s-33.667 -39.167 -44 -64.5s-15.5 -53.666 -15.5 -84.999c0 -58.667 17.5 -104.834 52.5 -138.501s90.5 -56.5 166.5 -68.5z" />
    <glyph glyph-name="percent" unicode="%" horiz-adv-x="829" 
d="M679 1413l-105 -351l-101 -336l-101 -336l-106 -350l-83.5 -45l-82.5 -44l105 350.5l101.5 337l101.5 336.5l105 350zM133 1258c14.667 0 28.667 -2.83301 42 -8.5s25 -13.334 35 -23.001s17.833 -21.167 23.5 -34.5s8.5 -27.666 8.5 -42.999
s-2.83301 -29.666 -8.5 -42.999s-13.5 -25 -23.5 -35s-21.667 -17.833 -35 -23.5s-27.333 -8.5 -42 -8.5s-28.667 2.83301 -42 8.5s-25 13.5 -35 23.5s-18 21.667 -24 35s-9 27.666 -9 42.999s3 29.666 9 42.999s14 24.833 24 34.5s21.667 17.334 35 23.001
s27.333 8.5 42 8.5zM654 302c14.667 0 28.667 -2.83301 42 -8.5s25 -13.5 35 -23.5s18 -21.667 24 -35s9 -27.333 9 -42c0 -15.333 -3 -29.5 -9 -42.5s-14 -24.5 -24 -34.5s-21.667 -17.833 -35 -23.5s-27.333 -8.5 -42 -8.5c-15.333 0 -29.5 2.83301 -42.5 8.5
s-24.5 13.5 -34.5 23.5s-17.833 21.5 -23.5 34.5s-8.5 27.167 -8.5 42.5c0 14.667 2.83301 28.667 8.5 42s13.5 25 23.5 35s21.5 17.833 34.5 23.5s27.167 8.5 42.5 8.5z" />
    <glyph glyph-name="ampersand" unicode="&#x26;" horiz-adv-x="1294" 
d="M418 945c-52.667 56.667 -91.334 110.169 -116.001 160.502s-37 101.5 -37 153.5c0 44.667 8.16699 86 24.5 124s39.166 70.5 68.499 97.5s64 48.167 104 63.5s84 23 132 23c50 0 95.333 -6.83301 136 -20.5s75.334 -33.334 104.001 -59.001s50.667 -56.5 66 -92.5
s23 -76 23 -120c0 -73.333 -20.667 -139.333 -62 -198s-106.333 -114.334 -195 -167.001l257 -314c16 30 28.5 63.5 37.5 100.5s15.5 79.833 19.5 128.5h161c0 -68.667 -8.83301 -132.667 -26.5 -192s-43.834 -116 -78.501 -170l258 -310h-230l-135 166
c-111.333 -132.667 -252.333 -199 -423 -199c-60 0 -115.167 9.83301 -165.5 29.5s-93.666 47.167 -129.999 82.5s-64.666 77.333 -84.999 126s-30.5 102 -30.5 160c0 86.667 25 163.667 75 231c49.333 66 132 131.333 248 196zM510 832.002
c-42.667 -24.667 -79.166 -48.833 -109.499 -72.5s-55 -47.5 -74 -71.5s-32.833 -49 -41.5 -75s-13 -54 -13 -84c0 -36 6.5 -69.333 19.5 -100s30.833 -57 53.5 -79s49.667 -39.167 81 -51.5s65.666 -18.5 102.999 -18.5c56 0 109.5 13.5 160.5 40.5
s99.5 66.833 145.5 119.5zM575.001 1006c66 40.667 114.333 82.167 145 124.5s46 87.833 46 136.5c0 24 -3.83301 46 -11.5 66s-18.667 37.167 -33 51.5s-31.666 25.5 -51.999 33.5s-42.833 12 -67.5 12c-54.667 0 -97.334 -14.5 -128.001 -43.5s-46 -69.5 -46 -121.5
c0 -38 11.5 -77.667 34.5 -119s60.5 -88 112.5 -140z" />
    <glyph glyph-name="quotesingle" unicode="'" horiz-adv-x="385" 
d="M245 1540c1.33301 -40 2.50098 -78.001 3.50098 -114.001l3 -106.5l3 -106c1 -35.667 2.16699 -73.5 3.5 -113.5c0 -13.333 -7.16699 -24 -21.5 -32s-30.5 -13.667 -48.5 -17l-21 106.5l-19.5 100l-19.5 100.5l-21 107c0.666992 20.667 8.66699 38.334 24 53.001
s33.666 22 54.999 22h59z" />
    <glyph glyph-name="parenleft" unicode="(" horiz-adv-x="533" 
d="M467 1589c-58 -122 -101.333 -250.832 -130 -386.499s-43 -273.5 -43 -413.5c0 -139.333 14.167 -276.333 42.5 -411s71.833 -262.667 130.5 -384h-100c-93.333 137.333 -162.833 271.166 -208.5 401.499s-68.5 259.833 -68.5 388.5c0 132 23.333 264 70 396
s116 268.333 208 409h99z" />
    <glyph glyph-name="parenright" unicode=")" horiz-adv-x="533" 
d="M179 1589c92 -140.667 161.333 -277.001 208 -409.001s70 -264 70 -396c0 -128.667 -23 -258.167 -69 -388.5s-115.333 -264.166 -208 -401.499h-100c58 121.333 101.333 249.333 130 384s43 271.667 43 411c0 140 -14.333 277.833 -43 413.5s-72 264.5 -130 386.5h99z
" />
    <glyph glyph-name="asterisk" unicode="*" horiz-adv-x="891" 
d="M444 976l-152 -219l-121 81l171 213l-247 68l44 138l239 -82v257h134v-257l236 82l48 -138l-251 -68l173 -211l-119 -88z" />
    <glyph glyph-name="plus" unicode="+" horiz-adv-x="1484" 
d="M804 1212v-470h459v-121h-459v-471h-124v471h-459v121h459v470h124z" />
    <glyph glyph-name="comma" unicode="," horiz-adv-x="488" 
d="M155 150v192h178v-208c0 -66 -15.5 -120.333 -46.5 -163s-74.833 -71 -131.5 -85v89c28 6 49.667 21.667 65 47s23 59 23 101v27h-88z" />
    <glyph glyph-name="hyphenminus" unicode="-" horiz-adv-x="884" 
d="M119 477l57 197h590l-57 -197h-590z" />
    <glyph glyph-name="period" unicode="." horiz-adv-x="497" 
d="M254 342c14.667 0 28.667 -2.83301 42 -8.5s25 -13.334 35 -23.001s18 -21.167 24 -34.5s9 -27.666 9 -42.999s-3 -29.5 -9 -42.5s-14 -24.5 -24 -34.5s-21.667 -17.833 -35 -23.5s-27.333 -8.5 -42 -8.5c-15.333 0 -29.5 2.83301 -42.5 8.5s-24.5 13.5 -34.5 23.5
s-17.833 21.5 -23.5 34.5s-8.5 27.167 -8.5 42.5s2.83301 29.666 8.5 42.999s13.5 24.833 23.5 34.5s21.5 17.334 34.5 23.001s27.167 8.5 42.5 8.5z" />
    <glyph glyph-name="slash" unicode="/" horiz-adv-x="658" 
d="M619 1413l-105.5 -351l-102 -336l-101.5 -336l-106 -350l-83.5 -45l-82.5 -44l106 350.5l101.5 337l102 336.5l105.5 350z" />
    <glyph glyph-name="zero" unicode="0" horiz-adv-x="1019" 
d="M66 717c0 100 10.332 190.333 30.999 271s50.167 149.5 88.5 206.5s84.833 100.833 139.5 131.5s116 46 184 46s129.167 -15.167 183.5 -45.5s100.833 -73.833 139.5 -130.5s68.334 -125.5 89.001 -206.5s31 -171.833 31 -272.5
c0 -98.667 -10.167 -188.334 -30.5 -269.001s-49.666 -149.667 -87.999 -207s-84.833 -101.666 -139.5 -132.999s-116.334 -47 -185.001 -47s-130.334 15.5 -185.001 46.5s-101.167 75 -139.5 132s-67.666 126 -87.999 207s-30.5 171.167 -30.5 270.5zM313.999 717
c0 -161.333 16.167 -280 48.5 -356s81.166 -114 146.499 -114s114.333 38.5 147 115.5s49 195.167 49 354.5c0 158.667 -16.333 277 -49 355s-81.667 117 -147 117s-114.166 -38.333 -146.499 -115s-48.5 -195.667 -48.5 -357z" />
    <glyph glyph-name="one" unicode="1" horiz-adv-x="1019" 
d="M478 85v1031l-240 -166l-68 162l286 239h257v-1266h-235z" />
    <glyph glyph-name="two" unicode="2" horiz-adv-x="1019" 
d="M927 85l-827.001 0.00195312l10 189c28.667 31.333 61.5 64.666 98.5 99.999l113.5 109.5l114 116.5c37.333 40 70.5 80.167 99.5 120.5s52.333 80.666 70 120.999s26.5 79.833 26.5 118.5c0 36 -5.83301 67.333 -17.5 94s-27.667 48.667 -48 66s-44 30.166 -71 38.499
s-55.5 12.5 -85.5 12.5c-40 0 -81.167 -7 -123.5 -21s-81.833 -34.667 -118.5 -62l-75 169c62.667 40.667 125.334 70.334 188.001 89.001s128.334 28 197.001 28c61.333 0 117.166 -10.5 167.499 -31.5s93.333 -49.167 129 -84.5s63.334 -76.333 83.001 -123
s29.5 -95.667 29.5 -147c0 -46.667 -8.33301 -92.667 -25 -138c-20 -54 -49.167 -107 -87.5 -159s-80.833 -101.833 -127.5 -149.5s-94.334 -92.5 -143.001 -134.5l-134 -114h557v-208z" />
    <glyph glyph-name="three" unicode="3" horiz-adv-x="1019" 
d="M435 61c-71.333 0 -133.836 6 -187.503 18s-101.834 30.667 -144.501 56l48 150c39.333 -19.333 77 -32.666 113 -39.999s73 -11 111 -11c44.667 0 84 5 118 15s62.5 23.5 85.5 40.5s40.167 36.667 51.5 59s17 45.5 17 69.5c0 27.333 -7.66699 54.5 -23 81.5
s-38.166 51.5 -68.499 73.5s-68.666 40 -114.999 54s-100.5 21.667 -162.5 23l-8 154c32 4 67.833 11.5 107.5 22.5s76.834 26 111.501 45s63.834 42.167 87.501 69.5s35.5 59.666 35.5 96.999c0 30 -6.16699 55.667 -18.5 77s-28.666 38.833 -48.999 52.5
s-44 23.667 -71 30s-54.833 9.5 -83.5 9.5c-32 0 -63.667 -3.5 -95 -10.5s-60.333 -17.167 -87 -30.5l-60 151c34 17.333 76.5 31 127.5 41s104.5 15 160.5 15c30 0 59.5 -1.66699 88.5 -5s56.667 -8.5 83 -15.5s50.833 -16 73.5 -27s42 -24.167 58 -39.5
c34.667 -34 60.334 -69.5 77.001 -106.5s25 -74.5 25 -112.5c0 -60 -20.333 -116.833 -61 -170.5s-101.334 -98.5 -182.001 -134.5c186 -73.333 279 -188 279 -344c0 -54 -10.167 -102.833 -30.5 -146.5s-49.5 -81.167 -87.5 -112.5s-84.333 -55.5 -139 -72.5
s-116.334 -25.5 -185.001 -25.5z" />
    <glyph glyph-name="four" unicode="4" horiz-adv-x="1019" 
d="M587 85v296h-547v214l310 386l310 386h148v-771h126v-215h-126v-296h-221zM588 596v439l-357 -439h357z" />
    <glyph glyph-name="five" unicode="5" horiz-adv-x="1019" 
d="M197 260c27.333 -9.33301 54.4971 -16 81.4971 -20s54.5 -6 82.5 -6c60 0 110.5 6.66699 151.5 20s74.167 31.166 99.5 53.499s43.666 47.833 54.999 76.5s17 58 17 88c0 56 -13.333 99.167 -40 129.5s-62.667 52.5 -108 66.5s-97.666 22 -156.999 24
s-121.666 3 -186.999 3l-2 656h652v-198h-453v-249c84.667 0 159.834 -9.5 225.501 -28.5s121 -46.833 166 -83.5s79.167 -81.834 102.5 -135.501s35 -115.167 35 -184.5c-1.33301 -67.333 -15.666 -126.666 -42.999 -177.999s-63.833 -94.166 -109.5 -128.499
s-98 -60.333 -157 -78s-120.5 -26.5 -184.5 -26.5c-54 0 -103.5 3.33301 -148.5 10s-86.5 17 -124.5 31z" />
    <glyph glyph-name="six" unicode="6" horiz-adv-x="1019" 
d="M95 520c0 76 12.3281 153.333 36.9951 232s59.667 155 105 229s99.833 143.833 163.5 209.5s134.834 123.5 213.501 173.5c4.66699 -5.33301 8.33398 -9.83301 11.001 -13.5l8 -10.5l8 -10.5c2.66699 -3.66699 6 -7.83398 10 -12.501v1l35 -45.5l36 -45.5
c-160 -104.667 -269.333 -226 -328 -364c44 18 90.667 27 140 27c48.667 0 96.667 -8.83301 144 -26.5s89.833 -43.667 127.5 -78s68.167 -76.833 91.5 -127.5s35 -109 35 -175c0 -61.333 -10.333 -117.833 -31 -169.5s-49.5 -96 -86.5 -133s-81 -65.833 -132 -86.5
s-107.167 -31 -168.5 -31c-67.333 0 -127.166 11.167 -179.499 33.5s-96.166 53.833 -131.499 94.5s-62.166 88.834 -80.499 144.501s-27.5 117.167 -27.5 184.5zM538.995 265c30.667 0 58 6.33008 82 18.9971s44.167 28.5 60.5 47.5s28.833 39.833 37.5 62.5
s13 44.334 13 65.001c0 34 -7.83301 65 -23.5 93s-36 52 -61 72s-53.167 35.5 -84.5 46.5s-62.333 16.5 -93 16.5c-25.333 0 -50.333 -3.66699 -75 -11s-47.667 -18.666 -69 -33.999c-8.66699 -32.667 -13 -66.667 -13 -102c0 -36 5 -70.667 15 -104
s24.5 -62.666 43.5 -87.999s42.667 -45.5 71 -60.5s60.5 -22.5 96.5 -22.5z" />
    <glyph glyph-name="seven" unicode="7" horiz-adv-x="1019" 
d="M255 131l388 1027h-552v193h795v-193l-429 -1104z" />
    <glyph glyph-name="eight" unicode="8" horiz-adv-x="1019" 
d="M509 1372c56 0 106.666 -10.1641 151.999 -30.4971s84.166 -46.833 116.499 -79.5s57.333 -69.834 75 -111.501s26.5 -83.834 26.5 -126.501c0 -26 -3.66699 -51.833 -11 -77.5s-18.5 -50.167 -33.5 -73.5s-34.167 -45 -57.5 -65s-51.333 -37.333 -84 -52
c83.333 -36.667 145.833 -82.834 187.5 -138.501s62.5 -118.834 62.5 -189.501c0 -55.333 -10.167 -105.333 -30.5 -150s-49.166 -84 -86.499 -118v1c-39.333 -32 -85.333 -56.667 -138 -74s-112.334 -26 -179.001 -26c-67.333 0 -127.5 8.66699 -180.5 26
s-99.167 42 -138.5 74v-1c-36.667 34 -65 73.667 -85 119s-30 95 -30 149c0 35.333 5.33301 68.833 16 100.5s25.834 61 45.501 88s42.834 51.167 69.501 72.5s56 39 88 53c-59.333 35.333 -103 79 -131 131s-42 105.333 -42 160c0 43.333 8.5 85.333 25.5 126
s41.833 76.834 74.5 108.501s73.167 57 121.5 76s103.833 28.5 166.5 28.5zM501.999 628.003c-32.667 0 -61.334 -5.83203 -86.001 -17.499s-45.167 -26.834 -61.5 -45.501s-28.666 -40 -36.999 -64s-12.5 -48.333 -12.5 -73s4 -48.334 12 -71.001s20 -42.667 36 -60
s36.167 -31.166 60.5 -41.499s52.5 -15.5 84.5 -15.5c31.333 0 59.833 3.33301 85.5 10s47.5 17.834 65.5 33.501s31.833 36.5 41.5 62.5s14.5 58 14.5 96c0 5.33301 -0.833008 13.666 -2.5 24.999s-5 24 -10 38s-12.167 28.167 -21.5 42.5s-21.5 27.5 -36.5 39.5
s-33.333 21.833 -55 29.5s-47.5 11.5 -77.5 11.5zM327.999 1020c0 -22.667 6.32617 -45 18.9932 -67s28.334 -41.667 47.001 -59s38.334 -31.333 59.001 -42s38.667 -16 54 -16c6.66699 0 11.334 0.666992 14.001 2c16 6 32.833 14.167 50.5 24.5s33.834 23 48.501 38
s26.834 32 36.501 51s14.5 40.167 14.5 63.5c0 26 -5.33301 49.167 -16 69.5s-24.5 37.5 -41.5 51.5s-36.167 24.667 -57.5 32s-43 11 -65 11c-21.333 0 -41.666 -3.33301 -60.999 -10s-36.666 -16.5 -51.999 -29.5s-27.5 -29.5 -36.5 -49.5s-13.5 -43.333 -13.5 -70z" />
    <glyph glyph-name="nine" unicode="9" horiz-adv-x="1019" 
d="M932 908c0 -76 -12.332 -153.334 -36.999 -232.001s-59.667 -155.167 -105 -229.5s-100 -144.333 -164 -210s-135.333 -123.167 -214 -172.5c-8.66699 10.667 -14.834 18.667 -18.501 24s-9.5 13 -17.5 23v-1c-12.667 15.333 -24.5 30.333 -35.5 45
s-23.167 29.667 -36.5 45c80.667 52.667 148.167 109.334 202.5 170.001s96.166 125.334 125.499 194.001c-44 -18 -90.333 -27 -139 -27s-96.667 8.83301 -144 26.5s-89.833 43.667 -127.5 78s-68.167 76.833 -91.5 127.5s-35 109 -35 175c0 62 10.333 118.667 31 170
s49.334 95.666 86.001 132.999s80.5 66.333 131.5 87s107.167 31 168.5 31c68 0 128 -11.167 180 -33.5s95.833 -53.833 131.5 -94.5s62.667 -89 81 -145s27.5 -117.333 27.5 -184zM487.001 1163c-30.667 0 -58 -6.33008 -82 -18.9971s-44.167 -28.5 -60.5 -47.5
s-28.833 -39.833 -37.5 -62.5s-13 -44.334 -13 -65.001c0 -34 7.83301 -65 23.5 -93s36 -52 61 -72s53 -35.5 84 -46.5s62.167 -16.5 93.5 -16.5c25.333 0 50.333 3.66699 75 11s47.667 18.666 69 33.999c8.66699 32.667 13 66.667 13 102c0 36 -5 70.667 -15 104
s-24.5 62.666 -43.5 87.999s-42.667 45.5 -71 60.5s-60.5 22.5 -96.5 22.5z" />
    <glyph glyph-name="colon" unicode=":" horiz-adv-x="505" 
d="M250 438c14.667 0 28.667 -2.83301 42 -8.5s25 -13.334 35 -23.001s18 -21.167 24 -34.5s9 -27.666 9 -42.999s-3 -29.5 -9 -42.5s-14 -24.5 -24 -34.5s-21.667 -17.833 -35 -23.5s-27.333 -8.5 -42 -8.5c-15.333 0 -29.5 2.83301 -42.5 8.5s-24.5 13.5 -34.5 23.5
s-17.833 21.5 -23.5 34.5s-8.5 27.167 -8.5 42.5s2.83301 29.666 8.5 42.999s13.5 24.833 23.5 34.5s21.5 17.334 34.5 23.001s27.167 8.5 42.5 8.5zM250 917c14.667 0 28.667 -2.83301 42 -8.5s25 -13.334 35 -23.001s18 -21.167 24 -34.5s9 -27.666 9 -42.999
s-3 -29.5 -9 -42.5s-14 -24.5 -24 -34.5s-21.667 -17.833 -35 -23.5s-27.333 -8.5 -42 -8.5c-15.333 0 -29.5 2.83301 -42.5 8.5s-24.5 13.5 -34.5 23.5s-17.833 21.5 -23.5 34.5s-8.5 27.167 -8.5 42.5s2.83301 29.666 8.5 42.999s13.5 24.833 23.5 34.5
s21.5 17.334 34.5 23.001s27.167 8.5 42.5 8.5z" />
    <glyph glyph-name="semicolon" unicode=";" horiz-adv-x="529" 
d="M175 150v192h180v-208c0 -64.667 -15.5 -118.5 -46.5 -161.5s-75.5 -71.833 -133.5 -86.5v89c28 6 49.833 22 65.5 48s23.5 59.333 23.5 100v27h-89zM175 889v193h180v-193h-180z" />
    <glyph glyph-name="less" unicode="&#x3c;" horiz-adv-x="1484" 
d="M1255 1025l-843 -344l843 -342v-134l-1025 421v112l1025 420v-133z" />
    <glyph glyph-name="equal" unicode="=" horiz-adv-x="1484" 
d="M1263 915v-122h-1042v122h1042zM1263 568v-120h-1042v120h1042z" />
    <glyph glyph-name="greater" unicode="&#x3e;" horiz-adv-x="1484" 
d="M1255 738v-112l-1025 -421v134l844 342l-844 344v133z" />
    <glyph glyph-name="question" unicode="?" horiz-adv-x="959" 
d="M382 519c0 4.66699 -0.333008 11.501 -1 20.501s-1 15.5 -1 19.5c0 34 2.66699 66.167 8 96.5s14 59.166 26 86.499s27.5 54 46.5 80s41.833 52 68.5 78l72 73c37.333 38 64.5 74.5 81.5 109.5s25.167 74.833 24.5 119.5c0 31.333 -5.5 59.833 -16.5 85.5
s-26.167 47.667 -45.5 66s-42.666 32.5 -69.999 42.5s-57.333 15 -90 15c-83.333 0 -145.666 -25 -186.999 -75s-64 -126 -68 -228h-166v25c0 68 9.66699 128.5 29 181.5s47.166 97.833 83.499 134.5s81 64.5 134 83.5s113.5 28.5 181.5 28.5
c59.333 0 113.333 -8.66699 162 -26s90.167 -41.666 124.5 -72.999s61 -69 80 -113s28.5 -93 28.5 -147c0 -60 -11.333 -115.167 -34 -165.5s-58 -97.5 -106 -141.5l-78 -75c-25.333 -24 -45.833 -45.833 -61.5 -65.5s-27.834 -39 -36.501 -58s-14.667 -38.833 -18 -59.5
s-5 -44 -5 -70c0 -12.667 0.166992 -22.334 0.5 -29.001s0.833008 -12.667 1.5 -18zM377 150.001v204h186v-204h-186z" />
    <glyph glyph-name="at" unicode="@" horiz-adv-x="1782" 
d="M1117 893l49.998 100.002h115l-128 -501c-2.66699 -9.33301 -4.33398 -18.333 -5.00098 -27s-1 -16.667 -1 -24c0 -54.667 29 -82 87 -82c28 0 57.667 7.66699 89 23s62 37.333 92 66c46.667 44 83 97.833 109 161.5s39 131.5 39 203.5c0 74.667 -14.5 143 -43.5 205
s-70 115.167 -123 159.5s-116.333 78.833 -190 103.5s-154.834 37 -243.501 37c-78 0 -149.333 -8 -214 -24s-126 -41 -184 -75c-111.333 -66 -197.333 -153 -258 -261c-60.667 -106.667 -91 -225.334 -91 -356.001c0 -102.667 18 -192 54 -268s91.667 -142.667 167 -200
c58.667 -44.667 127.334 -79 206.001 -103s162 -36 250 -36c98.667 0 194 14 286 42s177 69 255 123l47 -71c-86 -64.667 -177 -113.167 -273 -145.5s-197.333 -48.5 -304 -48.5c-126 0 -239.167 18 -339.5 54s-185.666 85.833 -255.999 149.5
s-124.166 138.667 -161.499 225s-56 179.833 -56 280.5c0 96.667 15 187.5 45 272.5s74 162.833 132 233.5c85.333 104 187 182.5 305 235.5s250.333 79.5 397 79.5c108.667 0 207.334 -16 296.001 -48s164.5 -75.333 227.5 -130s111.5 -118 145.5 -190s51 -148 51 -228
c0 -76.667 -12 -149.834 -36 -219.501s-57.5 -131 -100.5 -184s-94.5 -95.167 -154.5 -126.5s-126.333 -47 -199 -47c-116 0 -174 45.333 -174 136v17c-32 -52 -69.5 -90.167 -112.5 -114.5s-92.833 -36.5 -149.5 -36.5c-89.333 0 -157.166 24.333 -203.499 73
s-69.5 120.334 -69.5 215.001c0 68 10.667 131.167 32 189.5s50.666 109.166 87.999 152.499s81.333 77.333 132 102s105 37 163 37c48.667 0 90.667 -10.667 126 -32s63.333 -54 84 -98zM1035 563.002l51.999 206c-10 50.667 -29.833 90 -59.5 118s-67.5 42 -113.5 42
c-40 0 -77.167 -10.167 -111.5 -30.5s-64.166 -48.166 -89.499 -83.499s-45.333 -76.833 -60 -124.5s-22 -98.5 -22 -152.5c0 -60.667 14 -107.667 42 -141s68 -50 120 -50c28 0 55 5.5 81 16.5s49.667 26.167 71 45.5s39.833 42.166 55.5 68.499s27.167 54.833 34.5 85.5z
" />
    <glyph glyph-name="A" unicode="A" horiz-adv-x="1188" 
d="M517 1449h190l467 -1297h-196l-130 386h-499l-140 -386h-192zM606 1255l-200 -569h388z" />
    <glyph glyph-name="B" unicode="B" horiz-adv-x="1188" 
d="M132 1448l563 -0.00292969c54.667 0 104.334 -7.83301 149.001 -23.5s82.667 -37.667 114 -66s55.5 -62.666 72.5 -102.999s25.5 -85.166 25.5 -134.499c0 -63.333 -14.667 -117.666 -44 -162.999s-71.333 -81.666 -126 -108.999
c43.333 -17.333 79.833 -36.333 109.5 -57s53.5 -43.834 71.5 -69.501s30.833 -54 38.5 -85s11.5 -65.5 11.5 -103.5c0 -58 -10.5 -110.5 -31.5 -157.5s-50.5 -87.333 -88.5 -121s-83.833 -59.667 -137.5 -78s-112.834 -27.5 -177.501 -27.5h-550v1298zM304 300.997
l369 0.000976562c90 0 157.667 20.667 203 62s68 99.333 68 174c0 73.333 -25 128.166 -75 164.499s-124.667 54.5 -224 54.5h-341v-455zM304 898.998h312.999c92.667 0 160.334 16.667 203.001 50s64 86.666 64 159.999c0 62.667 -20.833 109.834 -62.5 141.501
s-109.167 47.5 -202.5 47.5h-315v-399z" />
    <glyph glyph-name="C" unicode="C" horiz-adv-x="1286" 
d="M1212 1044l-183.997 -0.000976562c-6 24 -11.5 44.333 -16.5 61s-10.833 31.334 -17.5 44.001s-14.5 24.5 -23.5 35.5s-20.167 23.167 -33.5 36.5c-64 60 -152 90 -264 90c-65.333 0 -123.833 -11.5 -175.5 -34.5s-95.5 -56.5 -131.5 -100.5s-63.5 -98 -82.5 -162
s-28.5 -136.667 -28.5 -218c0 -77.333 9 -147.166 27 -209.499s44.333 -115.333 79 -159s77 -77.334 127 -101.001s106.667 -35.5 170 -35.5c101.333 0 184.166 29.5 248.499 88.5s104.833 143.5 121.5 253.5h184c-17.333 -115.333 -54.333 -212.333 -111 -291
c-105.333 -143.333 -251.333 -215 -438 -215c-92.667 0 -175.834 15.333 -249.501 46s-136.334 74.5 -188.001 131.5s-91.167 126.167 -118.5 207.5s-41 172.666 -41 273.999c0 242.667 68.333 424 205 544c30 26 60.167 48.167 90.5 66.5s60.833 33.5 91.5 45.5
c60 22.667 131.667 34 215 34c76.667 0 147.167 -10 211.5 -30s120 -48.667 167 -86s84.833 -82.666 113.5 -135.999s46 -113.333 52 -180z" />
    <glyph glyph-name="D" unicode="D" horiz-adv-x="1286" 
d="M157 1449l438.001 0.000976562c109.333 0 191.666 -6 246.999 -18s107.333 -36.333 156 -73c150.667 -114 226 -295 226 -543c0 -147.333 -28 -276.333 -84 -387s-132.333 -188 -229 -232c-18 -8 -37 -14.667 -57 -20s-42 -9.83301 -66 -13.5
s-50.5 -6.33398 -79.5 -8.00098s-61.5 -2.5 -97.5 -2.5h-454v1297zM337.001 1287l0.000976562 -972h262c121.333 0 209.666 19.333 264.999 58c115.333 79.333 173 227.666 173 444.999c0 108.667 -18.167 200.334 -54.5 275.001s-88.833 128 -157.5 160
c-46 22.667 -123.333 34 -232 34h-256z" />
    <glyph glyph-name="E" unicode="E" horiz-adv-x="1188" 
d="M157 1449h935v-162h-755v-382h698v-163h-698v-427h764v-163h-944v1297z" />
    <glyph glyph-name="F" unicode="F" horiz-adv-x="1188" 
d="M157 1449h935v-162h-755v-382h698v-163h-698v-590h-180v1297z" />
    <glyph glyph-name="G" unicode="G" horiz-adv-x="1386" 
d="M1219 1048l-183.998 0.00195312c-6.66699 23.333 -13 43.166 -19 59.499s-12.5 31 -19.5 44s-14.833 25.167 -23.5 36.5s-19 23 -31 35c-59.333 58.667 -146.666 88 -261.999 88c-68 0 -128.333 -11.667 -181 -35s-97.334 -57 -134.001 -101s-64.5 -97.833 -83.5 -161.5
s-28.5 -136.167 -28.5 -217.5c0 -78 9.66699 -148.167 29 -210.5s47.166 -115.333 83.499 -159s80.833 -77.167 133.5 -100.5s112.667 -35 180 -35c44 0 85.833 5.83301 125.5 17.5s75.667 28.5 108 50.5s60.5 49 84.5 81s42.667 68.667 56 110
c12 36.667 18 87.334 18 152.001h-405v148h567v-690h-114l-43 158c-58.667 -68 -120.334 -117 -185.001 -147c-64 -29.333 -139.333 -44 -226 -44c-91.333 0 -173.833 15.833 -247.5 47.5s-136.5 76.5 -188.5 134.5s-92.167 127.833 -120.5 209.5s-42.5 172.5 -42.5 272.5
c0 104.667 14.5 199.167 43.5 283.5s70.5 156.166 124.5 215.499s119 105.166 195 137.499s161 48.5 255 48.5c180 0 316.667 -52.667 410 -158c17.333 -20 32.5 -39.5 45.5 -58.5s23.833 -38.167 32.5 -57.5s17 -41.833 25 -67.5s15.333 -54.5 22 -86.5z" />
    <glyph glyph-name="H" unicode="H" horiz-adv-x="1286" 
d="M157 1449h180v-531h615v531h182v-1297h-182v602h-615v-602h-180v1297z" />
    <glyph glyph-name="I" unicode="I" horiz-adv-x="483" 
d="M157 1449h180v-1297h-180v1297z" />
    <glyph glyph-name="J" unicode="J" horiz-adv-x="891" 
d="M27 585l177.998 -0.000976562c0 -35.333 0.333008 -64.833 1 -88.5s2.33398 -43.5 5.00098 -59.5s6.5 -29.833 11.5 -41.5s12.167 -23.167 21.5 -34.5c32 -46.667 81.333 -70 148 -70c20.667 0 40.5 3 59.5 9s36.167 15 51.5 27s28.333 26.667 39 44s18 37.333 22 60
c6 28.667 9 72.334 9 131.001v889h182v-889c0 -134.667 -21 -232.334 -63 -293.001c-32 -46 -74.5 -81.167 -127.5 -105.5s-111.833 -36.5 -176.5 -36.5c-45.333 0 -87.666 6 -126.999 18s-74.333 29 -105 51s-56.167 48.5 -76.5 79.5s-33.833 65.5 -40.5 103.5
c-8 42.667 -12 111.334 -12 206.001z" />
    <glyph glyph-name="K" unicode="K" horiz-adv-x="1188" 
d="M157 1451h180v-631l613 631h240l-524 -529l522 -770h-215l-429 650l-207 -198v-452h-180v1299z" />
    <glyph glyph-name="L" unicode="L" 
d="M157 1449h180v-1134h656v-163h-836v1297z" />
    <glyph glyph-name="M" unicode="M" horiz-adv-x="1466" 
d="M116 152v1296h219l406 -1077l394 1077h219v-1296h-159v1039l-379 -1039h-146l-396 1039v-1039h-158z" />
    <glyph glyph-name="N" unicode="N" horiz-adv-x="1286" 
d="M157 1449h201l594 -1019v1019h182v-1297h-204l-593 1028v-1028h-180v1297z" />
    <glyph glyph-name="O" unicode="O" horiz-adv-x="1386" 
d="M66 788c0 105.333 14.666 200.334 43.999 285.001s71.333 156.834 126 216.501s121 105.667 199 138s166 48.5 264 48.5c94.667 0 180.5 -15.5 257.5 -46.5s142.833 -75.167 197.5 -132.5s96.667 -126.833 126 -208.5s44 -172.834 44 -273.501
c0 -96.667 -14 -186.834 -42 -270.501s-69 -156.5 -123 -218.5s-120.333 -110.667 -199 -146s-168.667 -53 -270 -53c-95.333 0 -181.333 15.5 -258 46.5s-142.167 75.333 -196.5 133s-96.166 127.167 -125.499 208.5s-44 172.333 -44 273zM254.999 793.001
c0 -77.333 10.168 -147.006 30.501 -209.006s49.5 -114.667 87.5 -158s84.5 -76.666 139.5 -99.999s117.167 -35 186.5 -35c68.667 0 130 11.667 184 35s99.833 57.333 137.5 102s66.5 99.334 86.5 164.001s30 138.334 30 221.001c0 78.667 -10 148.834 -30 210.501
s-48.833 113.834 -86.5 156.501s-83.667 75.167 -138 97.5s-115.5 33.5 -183.5 33.5c-71.333 0 -134.5 -11.5 -189.5 -34.5s-101.333 -56.667 -139 -101s-66.334 -98.666 -86.001 -162.999s-29.5 -137.5 -29.5 -219.5z" />
    <glyph glyph-name="P" unicode="P" horiz-adv-x="1122" 
d="M137 150v1298h472c38.667 0 72.167 -0.833008 100.5 -2.5s53.166 -4.5 74.499 -8.5s40.5 -9.16699 57.5 -15.5s33.5 -14.166 49.5 -23.499c52 -28 92 -70.167 120 -126.5s42 -122.5 42 -198.5c0 -46 -5.83301 -89.333 -17.5 -130s-29 -76.834 -52 -108.501
s-51.5 -58.334 -85.5 -80.001s-73 -36.834 -117 -45.501c-41.333 -8 -109.666 -12 -204.999 -12h-265v-547h-174zM311 854.002l293.002 -0.00195312c51.333 0 94.333 3.83301 129 11.5s62.667 20.334 84 38.001s36.666 40.334 45.999 68.001s14 61.5 14 101.5
c0 38 -4.83301 70.667 -14.5 98s-24.834 49.833 -45.501 67.5s-47.5 30.5 -80.5 38.5s-72.833 12 -119.5 12h-306v-435z" />
    <glyph glyph-name="Q" unicode="Q" horiz-adv-x="1356" 
d="M1033 208c-52 -28 -106 -48.5029 -162 -61.5029s-115.333 -19.5 -178 -19.5c-98.667 0 -187 15.167 -265 45.5s-144.167 74.333 -198.5 132s-96 127.834 -125 210.501s-43.5 176.334 -43.5 281.001s14.5 198.334 43.5 281.001s70.667 152.834 125 210.501
s120.5 101.667 198.5 132s166.333 45.5 265 45.5c98 0 185.833 -15.333 263.5 -46s143.5 -74.834 197.5 -132.501s95.5 -127.834 124.5 -210.501s43.5 -176 43.5 -280c0 -103.333 -14.167 -195.666 -42.5 -276.999s-71.833 -155.333 -130.5 -222l160 -128l-88 -108z
M887 323.997l-146.001 115.997l89 107l177 -138c42 42.667 73.833 97.334 95.5 164.001s32.5 142.334 32.5 227.001c0 80.667 -10 152.834 -30 216.501s-49 117.667 -87 162s-84.333 78.166 -139 101.499s-116.667 35 -186 35s-131.5 -11.667 -186.5 -35
s-101.667 -57.166 -140 -101.499s-67.666 -98.333 -87.999 -162s-30.5 -135.834 -30.5 -216.501s10.167 -153 30.5 -217s49.5 -118.167 87.5 -162.5s84.5 -78.166 139.5 -101.499s117.5 -35 187.5 -35c36.667 0 71 3.16699 103 9.5s62.333 16.5 91 30.5z" />
    <glyph glyph-name="R" unicode="R" horiz-adv-x="1286" 
d="M157 1449l540.001 0.00292969c41.333 0 76.833 -0.5 106.5 -1.5s55.667 -3.16699 78 -6.5s42.333 -7.83301 60 -13.5s35.167 -13.167 52.5 -22.5c112.667 -60.667 169 -165 169 -313c0 -38 -3.5 -71.833 -10.5 -101.5s-18 -56.334 -33 -80.001s-34 -44.834 -57 -63.501
s-50.5 -35.667 -82.5 -51c32 -11.333 58.5 -24 79.5 -38s37.667 -32 50 -54s20.833 -49.333 25.5 -82s7 -73 7 -121v-150c0 -70 16.667 -132.333 50 -187l9 -12h-214c-10.667 34 -18.334 66.333 -23.001 97s-7 60 -7 88v162c0 113.333 -41.333 178.666 -124 195.999
c-29.333 6 -78.333 9 -147 9h-349v-552h-180v1297zM337.001 1287l0.000976562 -418.999h340c33.333 0 60.666 0.333008 81.999 1s39.333 2.16699 54 4.5s27.5 5.5 38.5 9.5s22.5 9.66699 34.5 17c60 32.667 90 91.667 90 177c0 44 -9 82.167 -27 114.5
s-44 56.166 -78 71.499c-34 16 -93.667 24 -179 24h-355z" />
    <glyph glyph-name="S" unicode="S" horiz-adv-x="1188" 
d="M80 585l186.997 -0.00195312v-37c0 -24 1 -44.5 3 -61.5s5.5 -32.167 10.5 -45.5s12 -25.333 21 -36s20.167 -21.334 33.5 -32.001c61.333 -54.667 152.666 -82 273.999 -82c47.333 0 90.5 4.83301 129.5 14.5s72.5 23.5 100.5 41.5s49.667 39.667 65 65
s23 53.666 23 84.999c0 17.333 -2.33301 35.166 -7 53.499s-12.667 35.833 -24 52.5s-26.666 32.334 -45.999 47.001s-43.666 27.334 -72.999 38.001l-400 100c-88.667 32 -152.167 74 -190.5 126s-57.5 115.667 -57.5 191c0 55.333 11 105.833 33 151.5
s53.167 84.667 93.5 117s89 57.5 146 75.5s120.833 27 191.5 27c55.333 0 107.333 -5.33301 156 -16s92.5 -26.167 131.5 -46.5s72.333 -45.166 100 -74.499s48.5 -62.333 62.5 -99c6.66699 -17.333 11.834 -37.5 15.501 -60.5s5.5 -49.5 5.5 -79.5l3 -43h-188
c0 20.667 -0.666992 38.167 -2 52.5s-3.33301 27 -6 38s-6 21 -10 30s-8.66699 18.5 -14 28.5c-11.333 16 -25.666 30.5 -42.999 43.5s-37.166 24 -59.499 33s-46.666 16 -72.999 21s-53.5 7.5 -81.5 7.5c-38.667 0 -74.5 -4.5 -107.5 -13.5s-61.667 -22 -86 -39
s-43.333 -37.667 -57 -62s-20.5 -52.166 -20.5 -83.499c0 -20.667 1.83301 -38.667 5.5 -54s10.667 -29 21 -41s24.5 -23 42.5 -33s41.333 -20 70 -30l415 -106c159.333 -57.333 239 -163 239 -317c0 -53.333 -9.5 -104.333 -28.5 -153s-49 -91.667 -90 -129
s-93.833 -67.166 -158.5 -89.499s-142.334 -33.5 -233.001 -33.5c-172.667 0 -302.834 35.167 -390.501 105.5s-131.5 174.833 -131.5 313.5v39z" />
    <glyph glyph-name="T" unicode="T" horiz-adv-x="1088" 
d="M29 1449h1038v-162h-431v-1135h-180v1135h-427v162z" />
    <glyph glyph-name="U" unicode="U" horiz-adv-x="1286" 
d="M139 1451l181.996 0.000976562v-809c0 -28.667 0.833008 -54.334 2.5 -77.001s4.83398 -43.167 9.50098 -61.5s10.5 -35 17.5 -50s16.167 -29.5 27.5 -43.5c26.667 -36.667 64.167 -65.667 112.5 -87s100.833 -32 157.5 -32c46.667 0 89.667 6.83301 129 20.5
s73.333 34.834 102 63.501s50.834 64.5 66.501 107.5s23.5 94.167 23.5 153.5v815h182v-816c0 -70 -6.66699 -129.667 -20 -179c-14.667 -52.667 -37.167 -99.5 -67.5 -140.5s-66.666 -75.5 -108.999 -103.5s-90 -49.167 -143 -63.5s-109.167 -21.5 -168.5 -21.5
c-77.333 0 -147.166 10.167 -209.499 30.5s-115.333 51.166 -159 92.499s-77.167 92.833 -100.5 154.5s-35 134.167 -35 217.5v829z" />
    <glyph glyph-name="V" unicode="V" horiz-adv-x="1088" 
d="M456 150l-456 1298h180l369 -1087l358 1087h181l-450 -1298h-182z" />
    <glyph glyph-name="W" unicode="W" horiz-adv-x="1682" 
d="M14 1449h192.998l196 -775l48 -260l24.5 115.5c5.66699 27.667 10.334 49.5 14.001 65.5s7 29.333 10 40s7.16699 23.667 12.5 39l231 775h185l230 -775c6 -15.333 11.5 -33.833 16.5 -55.5l17.5 -74.5l30 -130l22.5 133c7.66699 44 16.834 86.333 27.501 127l204 775
h194l-355 -1297h-181l-301 1052l-295 -1052h-189z" />
    <glyph glyph-name="X" unicode="X" horiz-adv-x="1078" 
d="M0 150l440 665l-417 633h214l305 -480l310 480h202l-416 -630l440 -668h-214l-330 525l-322 -525h-212z" />
    <glyph glyph-name="Y" unicode="Y" horiz-adv-x="1188" 
d="M2 1449h226l376 -615l370 615h216l-498 -786v-511h-184v511z" />
    <glyph glyph-name="Z" unicode="Z" horiz-adv-x="1088" 
d="M43 310l783 977h-726v162h951v-157l-787 -977h787v-163h-1008v158z" />
    <glyph glyph-name="bracketleft" unicode="[" horiz-adv-x="631" 
d="M216 -207v1639h347v-122h-191v-1395h191v-122h-347z" />
    <glyph glyph-name="backslash" unicode="\" horiz-adv-x="536" 
d="M428 -15l-430 1480h107l433 -1480h-110z" />
    <glyph glyph-name="bracketright" unicode="]" horiz-adv-x="631" 
d="M415 1432v-1639h-347v122h190v1395h-190v122h347z" />
    <glyph glyph-name="asciicircum" unicode="^" horiz-adv-x="1782" 
d="M971 1418l444 -484h-157l-367 365l-369 -365h-157l444 484h162z" />
    <glyph glyph-name="underscore" unicode="_" horiz-adv-x="891" 
d="M891 -146v-124h-891v124h891z" />
    <glyph glyph-name="grave" unicode="`" horiz-adv-x="891" 
d="M570 1209h-105l-248 303h175z" />
    <glyph glyph-name="a" unicode="a" 
d="M119 806c0 52.667 8.83301 98.998 26.5 138.998s43 73.5 76 100.5s72.833 47.167 119.5 60.5s99.334 20 158.001 20c60 0 112.667 -5.16699 158 -15.5s83.166 -27.333 113.499 -51s53.166 -54.5 68.499 -92.5s23 -84.667 23 -140v-453c0 -65.333 19.333 -98 58 -98l47 4
v-125c-12 -4 -22.667 -7.16699 -32 -9.5s-17.833 -4.33301 -25.5 -6s-14.834 -2.66699 -21.501 -3s-14 -0.5 -22 -0.5c-88.667 0 -139.334 48 -152.001 144c-92 -102 -200.667 -153 -326 -153c-46 0 -88 6.5 -126 19.5s-70.5 31.833 -97.5 56.5s-47.833 54.334 -62.5 89.001
s-22 74 -22 118c0 119.333 52.667 203.666 158 252.999c72 33.333 195.667 60 371 80l95 13v46c0 34.667 -4.5 63.334 -13.5 86.001s-22.167 40.834 -39.5 54.501s-38.666 23.334 -63.999 29.001s-54.666 8.5 -87.999 8.5c-67.333 0 -119.166 -14.333 -155.499 -43
s-54.5 -72.334 -54.5 -131.001h-170zM702 627.998l-60.5 -8.99805c-18.333 -2.66699 -36.833 -5.5 -55.5 -8.5s-38.5 -6.5 -59.5 -10.5s-45.167 -9 -72.5 -15c-36 -8.66699 -66.667 -17.834 -92 -27.501s-46 -20.834 -62 -33.501s-27.5 -27.5 -34.5 -44.5
s-10.5 -37.167 -10.5 -60.5c0 -46 14.833 -81.667 44.5 -107s71.5 -38 125.5 -38c38 0 73.833 6 107.5 18s63 28 88 48s44.833 43.333 59.5 70s22 55 22 85v133z" />
    <glyph glyph-name="b" unicode="b" horiz-adv-x="1059" 
d="M123 150v1298h155v-485c72 107.333 174 161 306 161c62 0 118.5 -12 169.5 -36s94.667 -58.167 131 -102.5s64.5 -97.5 84.5 -159.5s30 -131 30 -207c0 -74.667 -9.66699 -142.667 -29 -204s-47 -113.666 -83 -156.999s-79.5 -77 -130.5 -101s-107.833 -36 -170.5 -36
c-68 0 -126.333 12 -175 36s-93 61.333 -133 112v-119h-155zM272 627.999c0 -117.333 23.999 -207.667 71.999 -271s117 -95 207 -95c43.333 0 82.333 8 117 24s64.334 39 89.001 69s43.5 66.333 56.5 109s19.5 90.667 19.5 144c0 120.667 -24.333 213.167 -73 277.5
s-118 96.5 -208 96.5c-186.667 0 -280 -118 -280 -354z" />
    <glyph glyph-name="c" unicode="c" horiz-adv-x="891" 
d="M729 490l167.001 0.000976562c-8 -63.333 -23.333 -118 -46 -164s-51.167 -83.833 -85.5 -113.5s-73.5 -51.667 -117.5 -66s-91 -21.5 -141 -21.5c-70 0 -132.333 11 -187 33s-100.834 53.667 -138.501 95s-66.167 92.166 -85.5 152.499s-29 128.833 -29 205.5
c0 82 9.83301 155 29.5 219s48.167 117.833 85.5 161.5s83 77 137 100s115.667 34.5 185 34.5c55.333 0 105.666 -8 150.999 -24s84.833 -39.167 118.5 -69.5s61 -67.5 82 -111.5s34.833 -93.667 41.5 -149h-167c-30 137.333 -105.333 206 -226 206
c-84 0 -148.833 -29.833 -194.5 -89.5s-68.5 -143.834 -68.5 -252.501c0 -117.333 22.5 -207.166 67.5 -269.499s110.833 -93.5 197.5 -93.5c112.667 0 187.334 72.333 224.001 217z" />
    <glyph glyph-name="d" unicode="d" 
d="M713 1005v446.002h164v-1298h-156v121c-24 -28.667 -46.333 -52.5 -67 -71.5s-41.667 -34 -63 -45s-43.833 -18.833 -67.5 -23.5s-50.167 -7 -79.5 -7c-58 0 -110.167 11.5 -156.5 34.5s-86 55.667 -119 98s-58.333 93.333 -76 153s-26.5 126.5 -26.5 200.5
c0 76 9.33301 145.5 28 208.5s45 117.167 79 162.5s74.833 80.666 122.5 105.999s100.5 38 158.5 38c26 0 50 -2 72 -6s43 -10.833 63 -20.5s40 -22.334 60 -38.001s41.333 -35.167 64 -58.5zM483 274.002c78 0 137.5 30.167 178.5 90.5s61.5 148.166 61.5 263.499
c0 112.667 -20.5 199.167 -61.5 259.5s-100.5 90.5 -178.5 90.5c-78.667 0 -138.834 -29.833 -180.501 -89.5s-62.5 -146.5 -62.5 -260.5c0 -115.333 20.833 -203.166 62.5 -263.499s101.834 -90.5 180.501 -90.5z" />
    <glyph glyph-name="e" unicode="e" 
d="M927 574l-689.001 0.000976562c0 -98 23.167 -172.5 69.5 -223.5s112.166 -76.5 197.499 -76.5c129.333 0 208.666 63.667 237.999 191h171c-12 -53.333 -30.333 -100.833 -55 -142.5s-54.667 -77 -90 -106s-75.666 -51.167 -120.999 -66.5s-95 -23 -149 -23
c-67.333 0 -127.666 11.5 -180.999 34.5s-98.666 56.167 -135.999 99.5s-66 95.833 -86 157.5s-30 131.5 -30 209.5c0 77.333 11 146.666 33 207.999s52.667 113.333 92 156s86.333 75.334 141 98.001s114.667 34 180 34c61.333 0 117.5 -9.66699 168.5 -29
s94.833 -48.5 131.5 -87.5s65.167 -88.333 85.5 -148s30.5 -129.834 30.5 -210.501zM762.999 722.001c0 40 -6.33496 75.833 -19.002 107.5s-30.167 58.5 -52.5 80.5s-49.166 38.833 -80.499 50.5s-65.666 17.5 -102.999 17.5c-152 0 -240 -85.333 -264 -256h519z" />
    <glyph glyph-name="f" unicode="f" horiz-adv-x="471" 
d="M153 150l0.00195312 807h-153v125h153v137c0 154.667 70.333 232 211 232c10.667 0 24.5 -1 41.5 -3s41.5 -5.33301 73.5 -10v-140c-16.667 2.66699 -30.667 4.66699 -42 6s-20.333 2 -27 2c-18 0 -33.333 -2.16699 -46 -6.5s-22.834 -12 -30.501 -23
s-13.334 -26 -17.001 -45s-5.5 -42.833 -5.5 -71.5v-78h168v-125h-168v-807h-158z" />
    <glyph glyph-name="g" unicode="g" 
d="M713 975l0.000976562 127.001h162v-806c0 -81.333 -3 -145.333 -9 -192c-14.667 -115.333 -56 -201.166 -124 -257.499s-160.333 -84.5 -277 -84.5c-112.667 0 -198.5 23.333 -257.5 70s-94.167 120.334 -105.5 221.001h163c6.66699 -26 15 -48 25 -66
s22.833 -32.833 38.5 -44.5s34.167 -20 55.5 -25s47 -7.5 77 -7.5c48.667 0 88.834 7.33301 120.501 22s56.5 36.667 74.5 66s30.5 66.166 37.5 110.499s10.5 96.166 10.5 155.499c-20 -24 -40.167 -44.667 -60.5 -62s-41.166 -31.5 -62.499 -42.5s-44 -19.167 -68 -24.5
s-50 -8 -78 -8c-58 0 -109.833 11 -155.5 33s-84.334 53.833 -116.001 95.5s-55.834 92.167 -72.501 151.5s-25 126.666 -25 201.999c0 80 8.5 152 25.5 216s41.667 118.167 74 162.5s71.666 78.5 117.999 102.5s98.5 36 156.5 36c115.333 0 206.333 -50.333 273 -151z
M240.001 628.001c0 -53.333 5.5 -101.667 16.5 -145s26.833 -80.5 47.5 -111.5s45.667 -55 75 -72s62.333 -25.5 99 -25.5c36 0 68.333 8.33301 97 25s53.167 40.5 73.5 71.5s35.833 68.167 46.5 111.5s16 92 16 146c0 52.667 -5.5 100.667 -16.5 144
s-26.667 80.166 -47 110.499s-44.833 53.833 -73.5 70.5s-60.667 25 -96 25c-36.667 0 -69.667 -8.33301 -99 -25s-54.333 -40.167 -75 -70.5s-36.5 -67.166 -47.5 -110.499s-16.5 -91.333 -16.5 -144z" />
    <glyph glyph-name="h" unicode="h" horiz-adv-x="992" 
d="M116 1449l164.001 0.00195312v-449c43.333 44 87.333 76 132 96s96 30 154 30c50 0 94.333 -6 133 -18s71 -31.833 97 -59.5s45.667 -63.834 59 -108.501s20 -99.334 20 -164.001v-624h-164v586c0 43.333 -3.33301 80.333 -10 111s-17.167 55.5 -31.5 74.5
s-32.833 32.833 -55.5 41.5s-50.334 13 -83.001 13c-28 0 -55 -4.33301 -81 -13s-49.833 -21 -71.5 -37s-40.167 -35.667 -55.5 -59s-26.333 -49.333 -33 -78c-6.66699 -29.333 -10 -74.333 -10 -135v-504h-164v1297z" />
    <glyph glyph-name="i" unicode="i" horiz-adv-x="395" 
d="M116 1102h164v-950h-164v950zM116 1449h164v-185h-164v185z" />
    <glyph glyph-name="j" unicode="j" horiz-adv-x="395" 
d="M-36 -78c30 -8 52 -11.998 66 -11.998c17.333 0 31.5 2.16699 42.5 6.5s19.833 12.333 26.5 24s11.167 27.5 13.5 47.5s3.5 46 3.5 78v1036h164v-1061c0 -98.667 -18.167 -169.834 -54.5 -213.501s-91.166 -65.5 -164.499 -65.5h-56
c-9.33301 1.33301 -17.333 2.66602 -24 3.99902s-12.334 2.33301 -17.001 3v153zM116 1449h164v-185h-164v185z" />
    <glyph glyph-name="k" unicode="k" horiz-adv-x="891" 
d="M117 1449h165v-734l388 387h217l-365 -352l371 -598h-198l-283 484l-130 -122v-362h-165v1297z" />
    <glyph glyph-name="l" unicode="l" horiz-adv-x="395" 
d="M116 1458h164v-1306h-164v1306z" />
    <glyph glyph-name="m" unicode="m" horiz-adv-x="1529" 
d="M1283 150v588.002c0 48.667 -3 89.167 -9 121.5s-16 58.166 -30 77.499s-32.167 32.833 -54.5 40.5s-49.5 11.5 -81.5 11.5c-78 0 -138.333 -23.833 -181 -71.5s-64 -115.167 -64 -202.5v-565h-163v588c0 48.667 -3.16699 89.167 -9.5 121.5s-16.5 58 -30.5 77
s-32 32.5 -54 40.5s-49 12 -81 12c-38 0 -72.167 -6.33301 -102.5 -19s-56 -30.667 -77 -54s-37.167 -52 -48.5 -86s-17 -72.333 -17 -115v-565h-161v955h153v-135c36 54 78.167 94.167 126.5 120.5s105.833 39.5 172.5 39.5c60 0 110.833 -12 152.5 -36
s77.834 -62 108.501 -114c41.333 51.333 86.666 89.166 135.999 113.499s106.333 36.5 171 36.5c80.667 0 147 -18.5 199 -55.5s84.333 -91.167 97 -162.5c6 -34 9 -87.667 9 -161v-601h-161z" />
    <glyph glyph-name="n" unicode="n" 
d="M116 1102l164.001 -0.00195312v-124c48.667 56 94.667 94.667 138 116c42.667 21.333 94.334 32 155.001 32c41.333 0 80.166 -6.16699 116.499 -18.5s68.166 -30.166 95.499 -53.499s48.833 -52.166 64.5 -86.499s23.5 -73.5 23.5 -117.5l2 -93v-605h-164v574
c0 88 -10.667 147.667 -32 179c-32 48.667 -83.667 73 -155 73c-96.667 0 -167 -40.333 -211 -121c-20 -30.667 -30.333 -69.667 -31 -117l-2 -90v-498h-164v950z" />
    <glyph glyph-name="o" unicode="o" 
d="M66 628c0 78.667 9.83496 148.834 29.502 210.501s48 113.834 85 156.501s82.167 75.167 135.5 97.5s113.666 33.5 180.999 33.5c66.667 0 126.667 -11.167 180 -33.5s98.666 -54.833 135.999 -97.5s65.833 -94.834 85.5 -156.501s29.5 -131.834 29.5 -210.501
c0 -78 -9.66699 -147.833 -29 -209.5s-47.5 -114.167 -84.5 -157.5s-82.167 -76.5 -135.5 -99.5s-114 -34.5 -182 -34.5c-67.333 0 -127.5 11.5 -180.5 34.5s-98.167 56 -135.5 99s-65.833 95.5 -85.5 157.5s-29.5 132 -29.5 210zM240.002 628
c0 -54.667 5.66797 -103.832 17.001 -147.499s28 -80.834 50 -111.501s48.833 -54.167 80.5 -70.5s68.167 -24.5 109.5 -24.5c82.667 0 146 31 190 93s66 150.667 66 266c0 54 -5.66699 102.5 -17 145.5s-28 79.167 -50 108.5s-48.833 51.833 -80.5 67.5
s-67.834 23.5 -108.501 23.5c-82.667 0 -146.167 -30.333 -190.5 -91s-66.5 -147 -66.5 -259z" />
    <glyph glyph-name="p" unicode="p" horiz-adv-x="1059" 
d="M223 -222l-152 -0.000976562v1304h152v-126c36.667 54 79.5 93.5 128.5 118.5s106.833 37.5 173.5 37.5c62 0 118.333 -11.667 169 -35s93.667 -56.5 129 -99.5s62.666 -94.833 81.999 -155.5s29 -128.334 29 -203.001c0 -75.333 -9.66699 -143.666 -29 -204.999
s-46.666 -113.666 -81.999 -156.999s-78.333 -76.833 -129 -100.5s-107 -35.5 -169 -35.5c-68.667 0 -128.667 12.833 -180 38.5s-92 63.5 -122 113.5v-495zM772 628.999c0 52.667 -6.49902 100.169 -19.499 142.502s-31.667 78.166 -56 107.499s-53.833 52 -88.5 68
s-73.334 24 -116.001 24c-87.333 0 -155 -30.833 -203 -92.5s-72 -148.834 -72 -261.501c0 -115.333 23.333 -203.833 70 -265.5s113 -92.5 199 -92.5c92 0 162.667 31.833 212 95.5s74 155.167 74 274.5z" />
    <glyph glyph-name="q" unicode="q" horiz-adv-x="1059" 
d="M782 273c-30 -50 -70.501 -87.832 -121.501 -113.499s-111.5 -38.5 -181.5 -38.5c-62 0 -118.167 11.833 -168.5 35.5s-93.166 57.167 -128.499 100.5s-62.666 95.666 -81.999 156.999s-29 129.666 -29 204.999c0 74.667 9.66699 142.334 29 203.001
s46.666 112.5 81.999 155.5s78.166 76.167 128.499 99.5s106.5 35 168.5 35c66.667 0 124.334 -12.5 173.001 -37.5s92 -64.5 130 -118.5v126h152v-1304h-152v495zM232.999 629.001c0 -119.333 24.668 -210.836 74.001 -274.503s120 -95.5 212 -95.5
c86 0 152.167 30.833 198.5 92.5s69.5 150.167 69.5 265.5c0 112.667 -23.833 199.834 -71.5 261.501s-115.167 92.5 -202.5 92.5c-42.667 0 -81.334 -7.83301 -116.001 -23.5s-64.167 -38.167 -88.5 -67.5s-43 -65.166 -56 -107.499s-19.5 -90.166 -19.5 -143.499z" />
    <glyph glyph-name="r" unicode="r" horiz-adv-x="592" 
d="M117 1102h165.002v-158c33.333 66.667 70.166 113.667 110.499 141s86.166 41 137.499 41c6 0 12.667 -0.333008 20 -1s18.333 -2.66699 33 -6v-175l-52 5c-60.667 0 -112 -15.5 -154 -46.5s-69.667 -76.833 -83 -137.5c-6.66699 -31.333 -10 -78.333 -10 -141v-472h-167
v950z" />
    <glyph glyph-name="s" unicode="s" horiz-adv-x="891" 
d="M65 463l173.002 -0.000976562c0 -18.667 0.5 -34.5 1.5 -47.5s2.66699 -24.333 5 -34s6 -18.334 11 -26.001s11.5 -15.5 19.5 -23.5c38 -38.667 95.667 -58 173 -58c62 0 111.667 12.5 149 37.5s56 58.5 56 100.5c0 20 -6.5 38 -19.5 54s-37.5 32 -73.5 48l-299 93
c-110 50 -165 131 -165 243c0 40.667 8.66699 78 26 112s41.5 63.167 72.5 87.5s68.167 43.166 111.5 56.499s91.333 20 144 20c52 0 99.333 -6.33301 142 -19s79.5 -31.5 110.5 -56.5s55 -56.333 72 -94s25.5 -81.5 25.5 -131.5h-167c0 29.333 -5.16699 53.833 -15.5 73.5
s-24.333 35.5 -42 47.5s-38 20.667 -61 26s-46.833 8 -71.5 8s-47.834 -2.83301 -69.501 -8.5s-40.667 -13.667 -57 -24s-29.333 -22.666 -39 -36.999s-14.5 -29.833 -14.5 -46.5c0 -52 27.333 -88.333 82 -109l278 -86c34 -14.667 63.667 -29.5 89 -44.5
s46.5 -31.667 63.5 -50s29.833 -38.833 38.5 -61.5s13 -49 13 -79c0 -44 -8.83301 -84.667 -26.5 -122s-42.834 -69.666 -75.501 -96.999s-72.667 -48.833 -120 -64.5s-100.333 -23.5 -159 -23.5c-124 0 -218.5 28.333 -283.5 85s-97.5 140.334 -97.5 251.001z" />
    <glyph glyph-name="t" unicode="t" horiz-adv-x="525" 
d="M26 1102l125 0.000976562v233h163v-233h158v-138h-158v-576c0 -22.667 1.5 -41.5 4.5 -56.5s8.5 -27 16.5 -36s18.667 -15.333 32 -19s30.333 -5.5 51 -5.5l54 2v-139l-122 -7c-98.667 0 -159.667 35.667 -183 107c-10.667 27.333 -16 82.666 -16 165.999v564h-125v138z
" />
    <glyph glyph-name="u" unicode="u" 
d="M116 1102l164 0.00195312v-603c0 -45.333 3.66699 -82.5 11 -111.5s18.5 -51.833 33.5 -68.5s34 -28.334 57 -35.001s50.167 -10 81.5 -10c26.667 0 52.834 4.33301 78.501 13s49.167 21.334 70.5 38.001s39.666 37.167 54.999 61.5s26.333 52.166 33 83.499
c7.33301 35.333 11 85 11 149v483h164v-947h-152v146c-58 -116 -158.333 -174 -301 -174c-48 0 -91 6.16699 -129 18.5s-70 32.666 -96 60.999s-46 65.5 -60 111.5s-21 102.667 -21 170v614z" />
    <glyph glyph-name="v" unicode="v" horiz-adv-x="857" 
d="M355 150l-353 955h172l267 -765l261 765h172l-349 -955h-170z" />
    <glyph glyph-name="w" unicode="w" horiz-adv-x="1286" 
d="M14 1102h179.999l139 -554l39 -186l10.5 54l8.5 43l8.5 41l10.5 48l144 554h182l141 -547c5.33301 -18.667 10.333 -40 15 -64l24 -120c2.66699 16 4.33398 27.833 5.00098 35.5s2 16.5 4 26.5s5.33301 23.833 10 41.5l22 80.5l146 547h172l-281 -950h-168l-183 731
l-185 -731h-167z" />
    <glyph glyph-name="x" unicode="x" horiz-adv-x="869" 
d="M0 150l333 492l-317 463h188l235 -343l230 343h185l-321 -462l342 -493h-194l-250 369l-243 -369h-188z" />
    <glyph glyph-name="y" unicode="y" horiz-adv-x="891" 
d="M197 1102l255.001 -756l250 756h178l-383 -1057c-18.667 -56 -37.5 -102.333 -56.5 -139s-38.833 -66 -59.5 -88s-42.334 -37.333 -65.001 -46s-47 -13 -73 -13l-66 6c-15.333 0 -26.833 0.5 -34.5 1.5s-13.5 2.33301 -17.5 4s-7.16699 3.16699 -9.5 4.5
s-5.83301 2.33301 -10.5 3v153l18 -7c13.333 -5.33301 27 -9 41 -11s25 -3 33 -3c20.667 0 38 2.66699 52 8s27 15.833 39 31.5s23.833 38.167 35.5 67.5s25.167 68 40.5 116l-350 969h183z" />
    <glyph glyph-name="z" unicode="z" horiz-adv-x="891" 
d="M66 282l534 672h-491v148h705v-131l-536 -671h550v-148h-762v130z" />
    <glyph glyph-name="braceleft" unicode="{" horiz-adv-x="891" 
d="M753 1304h-34.999c-34.667 0 -63.334 -2.5 -86.001 -7.5s-40.667 -14.833 -54 -29.5s-22.666 -34.834 -27.999 -60.501s-8 -59.5 -8 -101.5v-210c0 -46 -3 -85.167 -9 -117.5s-15.667 -59.333 -29 -81s-31.333 -39.167 -54 -52.5s-50.334 -24.333 -83.001 -33
c32.667 -8 60.167 -18.5 82.5 -31.5s40.333 -30.167 54 -51.5s23.5 -48.333 29.5 -81s9 -72.334 9 -119.001v-210c0 -41.333 2.66699 -75 8 -101s14.666 -46.333 27.999 -61s31.333 -24.5 54 -29.5s51.667 -7.5 87 -7.5h34v-129h-37c-75.333 0 -134.5 5.33301 -177.5 16
s-75.333 28.334 -97 53.001s-35.334 56.667 -41.001 96s-8.5 87.666 -8.5 144.999v214c0 42.667 -3.66699 79 -11 109s-19.166 54.333 -35.499 73s-37.833 32.167 -64.5 40.5s-59 12.5 -97 12.5c-4.66699 0 -11.167 -0.166992 -19.5 -0.5s-14.5 -0.5 -18.5 -0.5v129
c4.66699 0 11.334 -0.333008 20.001 -1s15 -1 19 -1c38 0 70 4.16699 96 12.5s47.333 21.833 64 40.5s28.667 42.834 36 72.501s11 65.834 11 108.501v214c0 44 1.5 80.667 4.5 110s8 54 15 74s16 36.333 27 49s24.5 24 40.5 34c26 16 57.5 27.5 94.5 34.5
s86.167 10.5 147.5 10.5h32v-131z" />
    <glyph glyph-name="bar" unicode="|" horiz-adv-x="891" 
d="M512 1512v-1782h-131v1782h131z" />
    <glyph glyph-name="braceright" unicode="}" horiz-adv-x="891" 
d="M500 1123l-0.000976562 -214.002c0 -42.667 3.66699 -78.834 11 -108.501s19.333 -53.834 36 -72.501s38 -32.167 64 -40.5s58 -12.5 96 -12.5c4 0 10.333 0.333008 19 1s15.334 1 20.001 1v-129c-4 0 -10.333 0.166992 -19 0.5s-14.667 0.5 -18 0.5
c-38.667 0 -71.334 -4.16699 -98.001 -12.5s-48.167 -21.666 -64.5 -39.999s-28.166 -42.5 -35.499 -72.5s-11 -66.667 -11 -110v-214c0 -43.333 -1.5 -79.666 -4.5 -108.999s-8 -54.166 -15 -74.499s-16 -37 -27 -50s-24.5 -24.5 -40.5 -34.5
c-12 -7.33301 -25.167 -13.666 -39.5 -18.999s-30.833 -9.66602 -49.5 -12.999s-40 -5.83301 -64 -7.5s-51.667 -2.5 -83 -2.5h-38v129h34c35.333 0 64.5 2.83301 87.5 8.5s41.167 15.834 54.5 30.501s22.666 35 27.999 61s8 59.667 8 101v208c0 47.333 3 87.166 9 119.499
s15.833 59.166 29.5 80.499s31.5 38.333 53.5 51s49.333 23.334 82 32.001c-32.667 8.66699 -60.167 19.5 -82.5 32.5s-40.166 30.333 -53.499 52s-23 48.5 -29 80.5s-9 71.667 -9 119v210c0 40.667 -2.66699 74 -8 100s-14.833 46.333 -28.5 61s-32 24.667 -55 30
s-51.833 8 -86.5 8h-34v131h32c74.667 0 133.834 -5.5 177.501 -16.5s76.667 -28.833 99 -53.5s36.666 -56.834 42.999 -96.501s9.5 -88.167 9.5 -145.5z" />
    <glyph glyph-name="asciitilde" unicode="~" horiz-adv-x="1484" 
d="M1331 684c-60.667 -42 -118.501 -72.833 -173.501 -92.5s-109.833 -29.5 -164.5 -29.5c-52.667 0 -127 16.667 -223 50c-6.66699 2 -12.5 3.83301 -17.5 5.5s-9.16699 3.16699 -12.5 4.5l-13 5c-101.333 34.667 -180.333 52 -237 52c-48.667 0 -99.5 -10.667 -152.5 -32
s-113.833 -56.333 -182.5 -105v135c122 83.333 234.333 125 337 125c19.333 0 39 -1 59 -3s41.667 -5.5 65 -10.5s48.833 -12 76.5 -21s58.834 -20.167 93.501 -33.5c92.667 -33.333 162 -50 208 -50c51.333 0 103.5 10.833 156.5 32.5s113.167 56.167 180.5 103.5v-136z
" />
    <glyph glyph-name="delete" horiz-adv-x="1392" 
d="M498 520c0 -85.333 -20.667 -149.667 -62 -193s-100.333 -65 -177 -65h-183v510h175c40 0 75.333 -4.33301 106 -13s56.5 -23 77.5 -43s36.833 -46 47.5 -78s16 -71.333 16 -118zM428 520.999c0 68.667 -13.668 117.667 -41.001 147s-72.666 44 -135.999 44h-108v-390
h109c34.667 0 63.334 4.33301 86.001 13s40.667 21.5 54 38.5s22.666 37.833 27.999 62.5s8 53 8 85zM939.999 261.999h-381v510h368v-60h-301v-156h282v-60h-282v-174h314v-60zM1322 261.999h-318v510h68v-450h250v-60z" />
    <glyph glyph-name="copyright" unicode="&#xa9;" horiz-adv-x="1484" 
d="M741 1424c59.333 0 116.331 -7.66699 170.998 -23s105.834 -37 153.501 -65s91.167 -61.5 130.5 -100.5s72.833 -82.333 100.5 -130s49.167 -98.834 64.5 -153.501s23 -111.334 23 -170.001c0 -61.333 -8.33301 -119.833 -25 -175.5s-39.667 -107.167 -69 -154.5
s-64.166 -90.166 -104.499 -128.499s-84.333 -71 -132 -98s-98 -47.833 -151 -62.5s-106.833 -22 -161.5 -22c-56.667 0 -111.834 7.83301 -165.501 23.5s-104.167 37.5 -151.5 65.5s-90.666 61.667 -129.999 101s-73.333 82.833 -102 130.5s-50.834 98.5 -66.501 152.5
s-23.5 110 -23.5 168c0 56.667 7.5 112 22.5 166s36.333 104.667 64 152s60.834 90.833 99.501 130.5s81.667 73.834 129 102.501s98.333 51 153 67s111.667 24 171 24zM1299 782c0 78.667 -14.8359 151.999 -44.5029 219.999s-69.834 127 -120.501 177
s-109.667 89.333 -177 118s-138.666 43 -213.999 43c-77.333 0 -150 -15.167 -218 -45.5s-127.167 -71.166 -177.5 -122.499s-90 -110.666 -119 -177.999s-43.5 -138 -43.5 -212c0 -73.333 14.833 -143.5 44.5 -210.5s69.834 -126 120.501 -177
s109.834 -91.667 177.501 -122s139.5 -45.5 215.5 -45.5c46.667 0 92.834 6.16699 138.501 18.5s89.167 30.166 130.5 53.499s79.5 51.5 114.5 84.5s65.333 70 91 111s45.667 85.667 60 134s21.5 99.5 21.5 153.5zM915.995 938.999
c-7.33301 44.667 -26.333 78.9971 -57 102.997s-71 36 -121 36c-30.667 0 -58.167 -6.66699 -82.5 -20s-44.833 -32.833 -61.5 -58.5s-29.5 -56.834 -38.5 -93.501s-13.5 -78 -13.5 -124c0 -91.333 17.833 -162.166 53.5 -212.499s85.834 -75.5 150.501 -75.5
c48 0 87.833 13.5 119.5 40.5s51.5 64.5 59.5 112.5h126c-2.66699 -37.333 -12.167 -71.666 -28.5 -102.999s-38.166 -58.166 -65.499 -80.499s-59.333 -39.666 -96 -51.999s-76.667 -18.5 -120 -18.5c-53.333 0 -100.833 9 -142.5 27s-77 44 -106 78
s-51.167 75.5 -66.5 124.5s-23 104.167 -23 165.5c0 57.333 8.16699 109.833 24.5 157.5s39.5 88.5 69.5 122.5s66.167 60.333 108.5 79s89.166 28 140.499 28c40.667 0 78.5 -5.66699 113.5 -17s65.5 -27.5 91.5 -48.5s47.167 -46 63.5 -75s26.166 -60.833 29.499 -95.5
h-128z" />
    <glyph glyph-name="guillemotleft" unicode="&#xab;" horiz-adv-x="880" 
d="M763 22h-72l-164 192.5l-164 192.5l164.5 189.5l164.5 189.5h64l-217 -378zM461 22h-68l-163 192.5l-164 192.5l164.5 189.5l165.5 189.5h65l-219 -378z" />
    <glyph glyph-name="registered" unicode="&#xae;" horiz-adv-x="1484" 
d="M741 1424c58.667 0 115.333 -7.66699 170 -23s105.834 -37 153.501 -65s91 -61.5 130 -100.5s72.667 -82.333 101 -130s50.166 -98.834 65.499 -153.501s23 -111.334 23 -170.001c0 -60.667 -8.16699 -118.667 -24.5 -174s-39.166 -106.833 -68.499 -154.5
s-64.166 -90.667 -104.499 -129s-84.333 -71.166 -132 -98.499s-98 -48.333 -151 -63s-107.167 -22 -162.5 -22c-57.333 0 -113 7.83301 -167 23.5s-104.667 37.834 -152 66.501s-90.5 62.667 -129.5 102s-72.667 82.833 -101 130.5s-50.333 98.334 -66 152.001
s-23.5 109.167 -23.5 166.5c0 55.333 7.33301 109.5 22 162.5s35.5 103.333 62.5 151s59.5 91.5 97.5 131.5s80.667 74.667 128 104s98.666 52.166 153.999 68.499s113.666 24.5 174.999 24.5zM1299 777c0 80.667 -14.835 155.334 -44.502 224.001
s-69.834 128.167 -120.501 178.5s-109.667 89.666 -177 117.999s-138.666 42.5 -213.999 42.5c-54.667 0 -106.334 -7.33301 -155.001 -22s-93.667 -34.834 -135 -60.501s-78.5 -56 -111.5 -91s-61.167 -73.167 -84.5 -114.5s-41.166 -85 -53.499 -131
s-18.5 -92.333 -18.5 -139c0 -49.333 6.83301 -97.166 20.5 -143.499s32.667 -90 57 -131s53.5 -78.667 87.5 -113s71.5 -64 112.5 -89s84.667 -44.333 131 -58s94.5 -20.5 144.5 -20.5c74 0 144.833 14 212.5 42s127.334 66.667 179.001 116s92.834 107.5 123.501 174.5
s46 139.5 46 217.5zM758.997 1158c202 0 303 -66.333 303 -199c0 -52 -14.5 -95 -43.5 -129s-69.833 -56.333 -122.5 -67l163 -331h-154l-148 310h-135v-310h-137v726h274zM733.997 1070h-111.999v-241h116c65.333 0 112.166 9 140.499 27s42.5 47.333 42.5 88
c0 44 -14.667 76 -44 96s-77 30 -143 30z" />
    <glyph glyph-name="dagger" unicode="&#xb0;" horiz-adv-x="1024" 
d="M509 1094l456 -457l-456 -456l-457 456zM128 637l381 -380l380 380l-380 381zM509 855l217 -218l-217 -217l-217 217z" />
    <glyph glyph-name="daggerdbl" unicode="&#xb1;" horiz-adv-x="901" 
d="M450 1043l402 -291l-153 -473h-497l-154 473l201 145zM592 430l141 103l-108 333h-350l-108 -333l283 -205zM528 727l79 -56l-60 -184h-193l-60 184l156 113z" />
    <glyph glyph-name="paragraph" unicode="&#xb6;" horiz-adv-x="891" 
d="M830 1379l-106 0.000976562v-1229h-80v1229h-173v-1229h-82v690c-52 2 -98.333 10.5 -139 25.5s-75 35.5 -103 61.5s-49.333 56.833 -64 92.5s-22 75.167 -22 118.5c0 44.667 8.16699 85.5 24.5 122.5s39.333 68.667 69 95s65.167 46.666 106.5 60.999s87 21.5 137 21.5
h432v-59z" />
    <glyph glyph-name="nonbreakingspace" unicode="&#xb7;" horiz-adv-x="1082" 
d="M549 98l-198 219l198 199l201 -199zM1025 581l-214 -205l-198 205l198 198zM549 1056l196 -215l-196 -198l-198 198zM74 581l212 198l198 -198l-198 -198z" />
    <glyph glyph-name="periodcentered" unicode="&#xba;" horiz-adv-x="983" 
d="M253 1047h454l227 -393l-227 -394h-454l-227 394l113 196zM298 968l-182 -314l182 -315h364l181 315l-181 314h-364zM361 859h238l118 -205l-118 -206h-238l-118 206l59 103z" />
    <glyph glyph-name="guillemotright" unicode="&#xbb;" horiz-adv-x="880" 
d="M335 408l-108 189l-109 189h65l163.5 -189.5l165.5 -189.5l-165 -193l-163 -192h-74zM632 408l-109.5 189l-109.5 189h65l165.5 -189.5l164.5 -189.5l-163 -193l-164 -192h-68z" />
    <glyph glyph-name="questiondown" unicode="&#xbf;" horiz-adv-x="774" 
d="M77 979h675v-675h-675v675z" />
    <glyph glyph-name="multiply" unicode="&#xd7;" horiz-adv-x="1484" 
d="M748 767l408 408l85 -86l-408 -408l408 -408l-85 -84l-408 406l-408 -406l-85 84l408 408l-408 408l85 86z" />
    <glyph glyph-name="agrave" unicode="&#xe0;" 
d="M119 806c0 52.667 8.83301 98.998 26.5 138.998s43 73.5 76 100.5s72.833 47.167 119.5 60.5s99.334 20 158.001 20c60 0 112.667 -5.16699 158 -15.5s83.166 -27.333 113.499 -51s53.166 -54.5 68.499 -92.5s23 -84.667 23 -140v-453c0 -65.333 19.333 -98 58 -98l47 4
v-125c-12 -4 -22.667 -7.16699 -32 -9.5s-17.833 -4.33301 -25.5 -6s-14.834 -2.66699 -21.501 -3s-14 -0.5 -22 -0.5c-88.667 0 -139.334 48 -152.001 144c-92 -102 -200.667 -153 -326 -153c-46 0 -88 6.5 -126 19.5s-70.5 31.833 -97.5 56.5s-47.833 54.334 -62.5 89.001
s-22 74 -22 118c0 119.333 52.667 203.666 158 252.999c72 33.333 195.667 60 371 80l95 13v46c0 34.667 -4.5 63.334 -13.5 86.001s-22.167 40.834 -39.5 54.501s-38.666 23.334 -63.999 29.001s-54.666 8.5 -87.999 8.5c-67.333 0 -119.166 -14.333 -155.499 -43
s-54.5 -72.334 -54.5 -131.001h-170zM702 627.998l-60.5 -8.99805c-18.333 -2.66699 -36.833 -5.5 -55.5 -8.5s-38.5 -6.5 -59.5 -10.5s-45.167 -9 -72.5 -15c-36 -8.66699 -66.667 -17.834 -92 -27.501s-46 -20.834 -62 -33.501s-27.5 -27.5 -34.5 -44.5
s-10.5 -37.167 -10.5 -60.5c0 -46 14.833 -81.667 44.5 -107s71.5 -38 125.5 -38c38 0 73.833 6 107.5 18s63 28 88 48s44.833 43.333 59.5 70s22 55 22 85v133zM583 1224h-86l-119 145l-119 144h154z" />
    <glyph glyph-name="aacute" unicode="&#xe1;" 
d="M119 806c0 52.667 8.83301 98.998 26.5 138.998s43 73.5 76 100.5s72.833 47.167 119.5 60.5s99.334 20 158.001 20c60 0 112.667 -5.16699 158 -15.5s83.166 -27.333 113.499 -51s53.166 -54.5 68.499 -92.5s23 -84.667 23 -140v-453c0 -65.333 19.333 -98 58 -98l47 4
v-125c-12 -4 -22.667 -7.16699 -32 -9.5s-17.833 -4.33301 -25.5 -6s-14.834 -2.66699 -21.501 -3s-14 -0.5 -22 -0.5c-88.667 0 -139.334 48 -152.001 144c-92 -102 -200.667 -153 -326 -153c-46 0 -88 6.5 -126 19.5s-70.5 31.833 -97.5 56.5s-47.833 54.334 -62.5 89.001
s-22 74 -22 118c0 119.333 52.667 203.666 158 252.999c72 33.333 195.667 60 371 80l95 13v46c0 34.667 -4.5 63.334 -13.5 86.001s-22.167 40.834 -39.5 54.501s-38.666 23.334 -63.999 29.001s-54.666 8.5 -87.999 8.5c-67.333 0 -119.166 -14.333 -155.499 -43
s-54.5 -72.334 -54.5 -131.001h-170zM702 627.998l-60.5 -8.99805c-18.333 -2.66699 -36.833 -5.5 -55.5 -8.5s-38.5 -6.5 -59.5 -10.5s-45.167 -9 -72.5 -15c-36 -8.66699 -66.667 -17.834 -92 -27.501s-46 -20.834 -62 -33.501s-27.5 -27.5 -34.5 -44.5
s-10.5 -37.167 -10.5 -60.5c0 -46 14.833 -81.667 44.5 -107s71.5 -38 125.5 -38c38 0 73.833 6 107.5 18s63 28 88 48s44.833 43.333 59.5 70s22 55 22 85v133zM556 1513h154l-119 -144l-119 -145h-86z" />
    </font>
</defs>
</svg>
