<?xml version="1.0" standalone="no"?>
<!DOCTYPE svg PUBLIC "-//W3C//DTD SVG 1.1//EN" "http://www.w3.org/Graphics/SVG/1.1/DTD/svg11.dtd" >
<svg>
<metadata>
Created by FontForge 20090622 at Thu Dec 31 06:43:47 2015
 By deploy user
Font software Copyright 1998 Monotype Imaging, Inc. All rights reserved.
</metadata>
<defs>
<font id="RotisSansSerifStd-Bold" horiz-adv-x="500" >
  <font-face 
    font-family="Rotis SansSerif Std"
    font-weight="700"
    font-stretch="normal"
    units-per-em="1000"
    panose-1="2 11 8 2 3 0 0 2 2 4"
    ascent="710"
    descent="-290"
    x-height="476"
    cap-height="690"
    bbox="-56 -257 1196 971"
    underline-thickness="50"
    underline-position="-75"
    unicode-range="U+0020-U+FB02"
  />
<missing-glyph 
d="M12 0v665h475v-665h-475zM88 618l162 -243l161 243h-323zM60 575v-484l40 61l80 120l41 61zM440 575l-162 -242l162 -243v485zM411 48l-161 242l-162 -242h323z" />
    <glyph glyph-name="fi" unicode="fi" horiz-adv-x="593" 
d="M517 588h-108v102h108v-102zM509 0h-90v476h90v-476zM389 617q-48 14 -95 14q-46 0 -69.5 -29.5t-23.5 -76.5v-49h142v-70h-142v-406h-90v406h-87v70h87v55q0 170 182 170q56 0 96 -9v-75z" />
    <glyph glyph-name="fl" unicode="fl" horiz-adv-x="593" 
d="M509 0h-90v690h90v-690zM389 617q-48 14 -95 14q-46 0 -69.5 -29.5t-23.5 -76.5v-49h142v-70h-142v-406h-90v406h-87v70h87v55q0 170 182 170q56 0 96 -9v-75z" />
    <glyph glyph-name=".notdef" 
d="M12 0v665h475v-665h-475zM88 618l162 -243l161 243h-323zM60 575v-484l40 61l80 120l41 61zM440 575l-162 -242l162 -243v485zM411 48l-161 242l-162 -242h323z" />
    <glyph glyph-name=".null" horiz-adv-x="0" 
 />
    <glyph glyph-name="nonmarkingreturn" horiz-adv-x="333" 
 />
    <glyph glyph-name="space" unicode=" " horiz-adv-x="296" 
 />
    <glyph glyph-name="exclam" unicode="!" horiz-adv-x="296" 
d="M237 690l-8 -493h-87l-8 493h103zM246 0h-121v121h121v-121z" />
    <glyph glyph-name="quotedbl" unicode="&#x22;" horiz-adv-x="407" 
d="M346 690l-20 -228h-76l-20 228h116zM178 690l-20 -228h-77l-19 228h116z" />
    <glyph glyph-name="numbersign" unicode="#" horiz-adv-x="593" 
d="M529 444l-19 -74h-71l-28 -107h72l-19 -74h-72l-48 -189h-82l48 189h-98l-48 -189h-82l48 189h-68l19 74h68l28 107h-69l19 74h69l49 190h82l-49 -190h98l49 190h82l-49 -190h71zM357 370h-98l-28 -107h98z" />
    <glyph glyph-name="dollar" unicode="$" horiz-adv-x="574" 
d="M529 167q0 -49 -16 -83.5t-47 -53.5t-65.5 -28t-82.5 -13v-91h-60v91q-44 2 -77 10t-62 25t-46 47t-21 74h125q0 -89 81 -96v268q-36 11 -58 19t-51 23.5t-45.5 33t-28.5 45t-12 61.5q0 80 56 124t139 46v81h60v-81q72 -5 132.5 -47t60.5 -110h-125q-3 43 -16.5 65.5
t-51.5 31.5v-242q11 -4 36 -12t38 -13q137 -51 137 -175zM258 390v219q-70 -14 -70 -98q0 -88 70 -121zM404 158q0 52 -19.5 83.5t-66.5 50.5v-243q86 11 86 109z" />
    <glyph glyph-name="percent" unicode="%" horiz-adv-x="852" 
d="M826 213q0 -224 -159 -224q-158 0 -158 224q0 223 158 223q159 0 159 -223zM582 634l-234 -634h-78l234 634h78zM344 421q0 -223 -159 -223q-158 0 -158 223q0 224 158 224q159 0 159 -224zM754 213q0 173 -87 173q-86 0 -86 -173q0 -174 86 -174q87 0 87 174zM272 422
q0 173 -87 173q-86 0 -86 -173q0 -174 86 -174q87 0 87 174z" />
    <glyph glyph-name="ampersand" unicode="&#x26;" horiz-adv-x="667" 
d="M663 -4q-32 -7 -71 -7q-70 0 -105.5 27t-35.5 95v205h-184q-54 0 -79.5 -39t-25.5 -96q0 -58 32 -90t90 -32q48 0 92 16v-72q-48 -14 -106 -14q-99 0 -158.5 45.5t-59.5 141.5q0 72 31.5 114.5t100.5 58.5v2q-63 20 -92 52t-29 95q0 86 55.5 127t144.5 41q59 0 107 -17
v-71q-53 25 -97 25q-48 0 -74 -31t-26 -80q0 -44 25.5 -75t68.5 -31h184v189l90 57v-246h122v-70h-122v-167q0 -43 16 -66.5t57 -23.5q21 0 49 7v-70z" />
    <glyph glyph-name="quotesingle" unicode="'" horiz-adv-x="241" 
d="M179 690l-20 -228h-77l-19 228h116z" />
    <glyph glyph-name="parenleft" unicode="(" horiz-adv-x="333" 
d="M311 -156q-119 11 -173.5 73t-67.5 183q-6 57 -6 200q0 164 9 223q25 160 141 210q42 18 97 23v-55q-40 -9 -67.5 -33.5t-41 -61.5t-19.5 -70t-9 -76q-3 -40 -3 -160q0 -118 3 -158q3 -43 9 -76t19.5 -71t41 -62.5t67.5 -33.5v-55z" />
    <glyph glyph-name="parenright" unicode=")" horiz-adv-x="333" 
d="M268 300q0 -165 -9 -224q-25 -161 -143 -210q-41 -17 -94 -22v55q32 7 56.5 25.5t38 41.5t23 55t13 58t5.5 60q3 40 3 161q0 100 -6 167q-20 214 -133 234v55q118 -11 172.5 -73t67.5 -183q6 -57 6 -200z" />
    <glyph glyph-name="asterisk" unicode="*" horiz-adv-x="315" 
d="M309 516h-69q-5 0 -35 10l-2 -2l25 -25q7 -11 35 -61l-60 -35q-34 56 -36 60q0 12 -8 36h-2q-10 -35 -10 -36q-7 -14 -36 -60l-61 35q29 53 35 61q4 5 14.5 14.5t11.5 10.5l-2 2q-30 -10 -34 -10h-69v70h69q4 0 34 -10l2 2l-26 25q-1 2 -35 63l61 35q29 -48 36 -63
q3 -6 6.5 -20t3.5 -15h2q0 1 2 9.5l4 17.5l2 8q5 12 19 35l17 28l60 -35q-33 -60 -35 -63l-25 -25l2 -2q30 10 35 10h69v-70z" />
    <glyph glyph-name="plus" unicode="+" horiz-adv-x="593" 
d="M535 210h-190v-210h-97v210h-189v89h189v188h97v-188h190v-89z" />
    <glyph glyph-name="comma" unicode="," horiz-adv-x="222" 
d="M182 138l-42 -231h-83l15 231h110z" />
    <glyph glyph-name="hyphen" unicode="-" horiz-adv-x="463" 
d="M418 204h-372v107h372v-107z" />
    <glyph glyph-name="period" unicode="." horiz-adv-x="241" 
d="M189 0h-138v138h138v-138z" />
    <glyph glyph-name="slash" unicode="/" horiz-adv-x="315" 
d="M325 761l-229 -897h-106l229 897h106z" />
    <glyph glyph-name="zero" unicode="0" horiz-adv-x="537" 
d="M501 317q0 -51 -6 -95t-21.5 -88t-41 -75t-67.5 -50.5t-97 -19.5q-231 0 -231 328t231 328q55 0 97 -19.5t67.5 -50.5t41 -75t21.5 -88t6 -95zM401 317q0 258 -133 258q-36 0 -61.5 -19t-38.5 -45t-20.5 -65.5t-9 -66.5t-1.5 -62t1.5 -62t9 -66.5t20.5 -65.5t38.5 -45
t61.5 -19t62.5 19t39.5 44.5t20.5 65t9 66.5t1.5 63z" />
    <glyph glyph-name="one" unicode="1" horiz-adv-x="537" 
d="M348 0h-100v544l-126 -76v87l142 79h84v-634z" />
    <glyph glyph-name="two" unicode="2" horiz-adv-x="537" 
d="M461 0h-408v73q42 34 89 79.5t97.5 103.5t83.5 118t33 105q0 46 -25.5 71t-71.5 25q-42 0 -68.5 -23t-26.5 -64h-110q9 81 64.5 119t141.5 38q84 0 140 -45.5t56 -127.5q0 -28 -5 -55.5t-17.5 -54l-23.5 -48t-33.5 -48l-36 -42.5t-42 -42.5l-41 -38t-44 -38.5l-40.5 -35
h288v-70z" />
    <glyph glyph-name="three" unicode="3" horiz-adv-x="537" 
d="M459 178q0 -189 -205 -189q-38 0 -73.5 7.5t-67 24t-51 47t-20.5 70.5h113q0 -38 27 -58.5t66 -20.5q58 0 84.5 29t26.5 88q0 58 -29.5 89.5t-87.5 31.5h-26v70h26q48 0 76.5 28t28.5 76q0 104 -92 104q-82 0 -90 -76h-110q4 74 64.5 110t140.5 36q78 0 132.5 -42
t54.5 -118q0 -123 -102 -150v-2q114 -27 114 -155z" />
    <glyph glyph-name="four" unicode="4" horiz-adv-x="537" 
d="M517 165h-109v-165h-100v165h-272v62l262 407h110v-399h109v-70zM308 235v294h-2l-178 -294h180z" />
    <glyph glyph-name="five" unicode="5" horiz-adv-x="537" 
d="M496 184q0 -95 -61 -145t-158 -50q-86 0 -146 35.5t-66 114.5h110q0 -37 31 -58.5t70 -21.5q66 0 93 34.5t27 103.5q0 55 -29 88t-83 33q-64 0 -93 -45h-99l18 361h339v-70h-248l-9 -207q43 31 110 31q93 0 143.5 -55.5t50.5 -148.5z" />
    <glyph glyph-name="six" unicode="6" horiz-adv-x="537" 
d="M496 185q0 -93 -55.5 -144.5t-149.5 -51.5q-43 0 -77 10.5t-57 27t-40 43.5t-26 53.5t-14.5 63.5t-7 67.5t-1.5 71.5q0 53 4 94.5t18 85.5t37.5 73t65 47.5t97.5 18.5q79 0 134 -36.5t59 -111.5h-110q0 35 -24.5 56.5t-59.5 21.5q-25 0 -45 -9.5t-32.5 -23.5t-21 -37.5
t-13 -42t-7 -48.5t-2.5 -45v-42v-8q55 65 152 65q88 0 132 -54.5t44 -144.5zM396 187q0 127 -108 127q-53 0 -80.5 -36t-27.5 -91q0 -52 27 -90t77 -38q112 0 112 128z" />
    <glyph glyph-name="seven" unicode="7" horiz-adv-x="537" 
d="M466 558l-234 -558h-107l234 564h-291v70h398v-76z" />
    <glyph glyph-name="eight" unicode="8" horiz-adv-x="537" 
d="M480 171q0 -182 -211 -182t-211 182q0 126 113 157v2q-102 32 -102 151q0 83 56.5 123.5t143.5 40.5t143.5 -40t56.5 -124q0 -123 -102 -151v-2q113 -34 113 -157zM369 474q0 48 -26 74.5t-74 26.5q-47 0 -73.5 -27t-26.5 -74q0 -108 100 -108t100 108zM380 176
q0 120 -111 120q-55 0 -83 -32t-28 -88q0 -117 111 -117q58 0 84.5 29t26.5 88z" />
    <glyph glyph-name="nine" unicode="9" horiz-adv-x="537" 
d="M475 308q0 -53 -4.5 -94.5t-18.5 -85.5t-37.5 -73t-65 -47.5t-97.5 -18.5q-79 0 -133 36.5t-60 111.5h111q0 -34 24 -56t59 -22q23 0 41.5 6.5t31 22t21.5 28.5t14 39t8.5 39.5t4.5 44.5t1 39v37q-54 -64 -152 -64q-88 0 -132.5 54.5t-44.5 144.5q0 93 56 144t150 51
q43 0 77 -10.5t57 -27t40 -43.5t26 -53.5t14.5 -63.5t7 -67.5t1.5 -71.5zM365 447q0 54 -27.5 91t-79.5 37q-113 0 -113 -127t109 -127q55 0 83 35t28 91z" />
    <glyph glyph-name="colon" unicode=":" horiz-adv-x="296" 
d="M254 338h-138v138h138v-138zM254 0h-138v138h138v-138z" />
    <glyph glyph-name="semicolon" unicode=";" horiz-adv-x="278" 
d="M248 338h-138v138h138v-138zM245 138l-53 -231h-83l11 231h125z" />
    <glyph glyph-name="less" unicode="&#x3c;" horiz-adv-x="593" 
d="M535 0l-477 198v91l477 197v-91l-385 -152l385 -152v-91z" />
    <glyph glyph-name="equal" unicode="=" horiz-adv-x="593" 
d="M535 299h-477v89h477v-89zM535 121h-477v89h477v-89z" />
    <glyph glyph-name="greater" unicode="&#x3e;" horiz-adv-x="593" 
d="M535 198l-477 -198v91l386 152l-386 152v91l477 -197v-91z" />
    <glyph glyph-name="question" unicode="?" horiz-adv-x="444" 
d="M426 545q0 -14 -2.5 -27t-4.5 -22t-9 -21l-10 -17.5t-14.5 -18.5t-14 -15.5l-17.5 -17.5l-17 -17l-42 -42q-29 -29 -37.5 -39t-15 -30t-6.5 -54v-27h-93v47q0 56 10 76t54 65l59 60l13 13t14.5 15t11 14t11.5 17.5t6 16.5t3 20q0 43 -31 63.5t-77 20.5q-75 0 -142 -37v94
q81 19 143 19q85 0 146.5 -38t61.5 -118zM250 0h-124v121h124v-121z" />
    <glyph glyph-name="at" unicode="@" horiz-adv-x="1000" 
d="M905 320q0 -87 -42.5 -164.5t-115.5 -120.5q-60 -35 -123 -35q-34 0 -53.5 19t-18.5 52q-55 -65 -130 -65q-62 0 -97.5 40t-35.5 103q0 65 34 140.5t95.5 131t129.5 55.5q81 0 116 -74l22 54h87q-145 -348 -145 -377q0 -27 30 -27q38 0 79 28q58 38 90 102.5t32 137.5
q0 126 -92 199.5t-220 73.5q-95 0 -184.5 -57.5t-144 -149.5t-54.5 -187q0 -70 29.5 -126t79 -90.5t111 -52.5t128.5 -18q170 0 292 102l27 -23q-19 -22 -58 -45q-125 -79 -265 -79q-61 0 -119.5 12.5t-112 39.5t-93.5 65.5t-64 93.5t-24 120q0 117 62 220.5t166 164.5
t221 61q96 0 177.5 -38.5t132.5 -113.5t51 -172zM632 373q0 27 -17.5 45.5t-44.5 18.5q-47 0 -96 -63.5t-77 -138.5t-28 -121q0 -67 69 -67q37 0 61.5 22.5t48.5 62.5q51 87 76 194q8 40 8 47z" />
    <glyph glyph-name="A" unicode="A" horiz-adv-x="611" 
d="M603 0h-106l-68 197h-247l-67 -197h-106l235 690h123zM402 277l-95 321h-2l-100 -321h197z" />
    <glyph glyph-name="B" unicode="B" horiz-adv-x="537" 
d="M492 189q0 -189 -221 -189h-191v690h199q81 0 130.5 -42t49.5 -122q0 -118 -107 -158v-2q68 -10 104 -58t36 -119zM359 508q0 59 -30.5 80.5t-91.5 21.5h-57v-206h63q116 0 116 104zM392 198q0 64 -40 95t-105 31h-67v-244h77q59 0 97 30.5t38 87.5z" />
    <glyph glyph-name="C" unicode="C" horiz-adv-x="537" 
d="M529 501h-116q1 55 -26.5 87.5t-82.5 32.5q-45 0 -76.5 -24.5t-46 -66t-20 -80t-5.5 -81.5q0 -57 6.5 -102.5t24 -94t56.5 -76t98 -27.5q78 0 161 54v-93q-90 -41 -181 -41q-77 0 -132.5 30t-85.5 83.5t-43.5 115t-13.5 135.5q0 71 12.5 129t40.5 109.5t81 80.5t127 29
q98 0 160 -52t62 -148z" />
    <glyph glyph-name="D" unicode="D" horiz-adv-x="593" 
d="M548 347q0 -83 -14 -143.5t-46.5 -108t-90 -71.5t-140.5 -24h-177v690h177q160 0 225.5 -88t65.5 -255zM438 345q0 40 -3 70.5t-11.5 68.5t-30 66t-53.5 43q-38 17 -102 17h-58v-530h59q67 0 107 20q92 48 92 245z" />
    <glyph glyph-name="E" unicode="E" 
d="M470 0h-390v690h381v-80h-281v-211h267v-80h-267v-239h290v-80z" />
    <glyph glyph-name="F" unicode="F" horiz-adv-x="463" 
d="M450 610h-270v-211h256v-80h-256v-319h-100v690h370v-80z" />
    <glyph glyph-name="G" unicode="G" horiz-adv-x="611" 
d="M551 54q-41 -31 -100 -48t-114 -17q-291 0 -291 377q0 56 8.5 104t28.5 91.5t50.5 74t77.5 48t106 17.5q99 0 164.5 -50t65.5 -146h-111q0 55 -32.5 85.5t-87.5 30.5q-160 0 -160 -255q0 -44 3 -79t13.5 -78t28.5 -72t52.5 -48.5t80.5 -19.5q29 0 66.5 6.5t50.5 20.5v222
h-147v80h247v-344z" />
    <glyph glyph-name="H" unicode="H" horiz-adv-x="630" 
d="M551 0h-100v319h-271v-319h-100v690h100v-291h271v291h100v-690z" />
    <glyph glyph-name="I" unicode="I" horiz-adv-x="259" 
d="M180 0h-100v690h100v-690z" />
    <glyph glyph-name="J" unicode="J" horiz-adv-x="370" 
d="M302 169q0 -103 -49.5 -141.5t-157.5 -38.5q-43 0 -95 13v86q59 -19 99 -19q61 0 82 26.5t21 87.5v507h100v-521z" />
    <glyph glyph-name="K" unicode="K" horiz-adv-x="556" 
d="M556 0h-121l-253 335h-2v-335h-100v690h100v-307h2l234 307h120l-253 -329z" />
    <glyph glyph-name="L" unicode="L" horiz-adv-x="444" 
d="M445 0h-365v690h100v-610h265v-80z" />
    <glyph glyph-name="M" unicode="M" horiz-adv-x="833" 
d="M754 0h-90v572h-2l-198 -572h-95l-198 572h-2v-572h-90v690h141l196 -565h2l196 565h140v-690z" />
    <glyph glyph-name="N" unicode="N" horiz-adv-x="648" 
d="M569 0h-118l-279 553h-2v-553h-90v690h125l272 -540h2v540h90v-690z" />
    <glyph glyph-name="O" unicode="O" horiz-adv-x="630" 
d="M585 345q0 -58 -7.5 -107.5t-26.5 -96.5t-48.5 -79.5t-77.5 -52.5t-110 -20q-269 0 -269 356t269 356q270 0 270 -356zM475 345q0 276 -160 276q-159 0 -159 -276t159 -276q160 0 160 276z" />
    <glyph glyph-name="P" unicode="P" 
d="M488 494q0 -95 -61 -144.5t-158 -49.5h-89v-300h-100v690h166q115 0 178.5 -42.5t63.5 -153.5zM378 494q0 63 -31.5 89.5t-95.5 26.5h-71v-230h71q127 0 127 114z" />
    <glyph glyph-name="Q" unicode="Q" horiz-adv-x="630" 
d="M622 0h-315q-58 0 -104 19.5t-75 52t-48 78t-26.5 93.5t-7.5 102q0 356 257 356q269 0 269 -356q0 -140 -50 -233q-15 -27 -30 -38l2 -2l128 8v-80zM462 345q0 48 -5.5 89.5t-21 87t-49.5 72.5t-83 27q-147 0 -147 -276q0 -265 147 -265q37 0 64.5 11t44.5 32.5
t27.5 44.5t15 57t6 59t1.5 61z" />
    <glyph glyph-name="R" unicode="R" horiz-adv-x="537" 
d="M505 0h-91l-42 153q-21 78 -35 100q-29 44 -101 44h-57v-297h-100v690h200q93 0 147.5 -45t54.5 -136q0 -130 -136 -163v-2q26 -6 45.5 -16.5t30.5 -21.5t20 -32.5t12.5 -36.5l10.5 -45zM381 497q0 113 -121 113h-81v-233h58q64 0 104 29.5t40 90.5z" />
    <glyph glyph-name="S" unicode="S" 
d="M475 185q0 -68 -37 -114t-91 -64t-121 -18q-94 0 -175 27v104q88 -51 183 -51q55 0 93 25t38 77q0 31 -16 56.5t-35 39t-50 31.5q-7 4 -11 6l-63 37q-78 45 -103 69q-47 45 -47 113q0 92 66 135t163 43q80 0 157 -20v-94q-106 34 -162 34q-48 0 -81 -22.5t-33 -67.5
q0 -10 3.5 -20t7.5 -18t13.5 -17l15.5 -14.5t18.5 -14t17.5 -11.5l19.5 -11.5t16.5 -9.5l68 -40q30 -17 46.5 -28t38 -29t33 -35t19.5 -42.5t8 -55.5z" />
    <glyph glyph-name="T" unicode="T" horiz-adv-x="444" 
d="M444 610h-172v-610h-100v610h-172v80h444v-80z" />
    <glyph glyph-name="U" unicode="U" horiz-adv-x="611" 
d="M540 204q0 -105 -64 -160t-171 -55t-170 54.5t-63 160.5v486h100v-467q0 -76 28.5 -115t103.5 -39q76 0 106 38.5t30 115.5v467h100v-486z" />
    <glyph glyph-name="V" unicode="V" horiz-adv-x="556" 
d="M573 690l-235 -690h-124l-231 690h105l188 -576h2l190 576h105z" />
    <glyph glyph-name="W" unicode="W" horiz-adv-x="870" 
d="M844 690l-126 -690h-111l-170 542h-2l-168 -542h-111l-129 690h91l101 -551h2l171 551h88l170 -551h2l101 551h91z" />
    <glyph glyph-name="X" unicode="X" horiz-adv-x="556" 
d="M553 0h-110l-163 269l-166 -269h-110l219 363l-198 327h110l142 -235l144 235h110l-198 -327z" />
    <glyph glyph-name="Y" unicode="Y" horiz-adv-x="519" 
d="M531 690l-222 -371v-319h-100v319l-221 371h110l161 -266l162 266h110z" />
    <glyph glyph-name="Z" unicode="Z" 
d="M480 0h-460v81l328 529h-311v80h427v-81l-326 -529h342v-80z" />
    <glyph glyph-name="bracketleft" unicode="[" horiz-adv-x="333" 
d="M317 -136h-216v896h216v-70h-121v-756h121v-70z" />
    <glyph glyph-name="backslash" unicode="\" horiz-adv-x="315" 
d="M325 -136h-106l-229 897h106z" />
    <glyph glyph-name="bracketright" unicode="]" horiz-adv-x="333" 
d="M232 -136h-216v70h121v756h-121v70h216v-896z" />
    <glyph glyph-name="asciicircum" unicode="^" horiz-adv-x="426" 
d="M364 518h-80l-72 90l-69 -90h-81l118 172h63z" />
    <glyph glyph-name="underscore" unicode="_" 
d="M500 -116h-500v51h500v-51z" />
    <glyph glyph-name="grave" unicode="`" horiz-adv-x="340" 
d="M211 559h-83l-84 167h121z" />
    <glyph glyph-name="a" unicode="a" horiz-adv-x="463" 
d="M393 0h-90v59h-2q-15 -33 -49.5 -51.5t-73.5 -18.5q-61 0 -98 34t-37 94q0 47 25 80t67.5 48.5t82.5 21.5t85 6v83q0 4 -4 16q-16 45 -69 45q-35 0 -55.5 -19.5t-20.5 -53.5h-95q0 74 49.5 108.5t128.5 34.5q156 0 156 -153v-334zM303 186v27h-18q-31 0 -62 -8.5
t-55.5 -30.5t-24.5 -54q0 -24 14 -42.5t38 -18.5q44 0 76 40.5t32 86.5z" />
    <glyph glyph-name="b" unicode="b" horiz-adv-x="481" 
d="M442 233q0 -244 -193 -244q-185 0 -185 208v493h90v-279h2q15 36 49.5 56t74.5 20q162 0 162 -254zM342 236q0 28 -3 53.5t-11 57.5t-26.5 51t-46.5 19q-27 0 -48 -19t-32 -48.5t-16 -57.5t-5 -53q0 -24 0.5 -36.5t2.5 -38t8 -40.5t15 -32t25.5 -25t38.5 -8q98 0 98 177z
" />
    <glyph glyph-name="c" unicode="c" horiz-adv-x="426" 
d="M412 321h-103q0 96 -73 96q-35 0 -58 -25t-31 -55.5t-8 -64.5q0 -95 48 -154t141 -59q45 0 76 10v-62q-60 -18 -132 -18q-115 0 -174 74.5t-59 191.5q0 105 50.5 168.5t152.5 63.5q81 0 125.5 -42.5t44.5 -123.5z" />
    <glyph glyph-name="d" unicode="d" 
d="M427 0h-90v73h-2q-14 -39 -51.5 -61.5t-80.5 -22.5q-47 0 -80.5 22t-50.5 59t-24.5 76.5t-7.5 83.5q0 45 7.5 86.5t25 82t52.5 64.5t83 24q42 0 77.5 -20t49.5 -57h2v280h90v-690zM337 239q0 29 -4.5 56.5t-14.5 56.5t-32 47t-53 18q-93 0 -93 -179t94 -179q29 0 50 19
t32 48.5t16 58t5 54.5z" />
    <glyph glyph-name="e" unicode="e" horiz-adv-x="444" 
d="M406 273h-276q0 -87 45.5 -150.5t129.5 -63.5q44 0 90 17v-71q-71 -16 -119 -16q-121 0 -178.5 73.5t-57.5 198.5q0 103 48 164.5t146 61.5q85 0 128.5 -52.5t43.5 -138.5v-23zM316 333q0 38 -24.5 61t-62.5 23q-64 0 -88 -55q-7 -16 -7 -29h182z" />
    <glyph glyph-name="f" unicode="f" horiz-adv-x="352" 
d="M389 617q-48 14 -95 14q-46 0 -69.5 -29.5t-23.5 -76.5v-49h142v-70h-142v-406h-90v406h-86v70h86v55q0 170 182 170q56 0 96 -9v-75z" />
    <glyph glyph-name="g" unicode="g" 
d="M427 -19q0 -195 -220 -195q-78 0 -146 17v91q78 -38 137 -38q78 0 108.5 37t30.5 114v74h-2q-13 -38 -51 -59.5t-80 -21.5q-47 0 -81 21.5t-51 58t-24.5 75t-7.5 83.5t8 86t26 79t53 61t83 23q40 0 75 -20.5t50 -56.5h2v66h90v-495zM337 249q0 38 -8 73t-33 65t-63 30
q-29 0 -49 -18t-29 -48.5t-12 -56.5t-3 -54t3.5 -53t12 -53.5t28 -46t48.5 -17.5t51 18.5t33 47.5t16 57.5t5 55.5z" />
    <glyph glyph-name="h" unicode="h" horiz-adv-x="519" 
d="M445 0h-90v260q0 39 -1 59q-3 39 -15.5 58.5t-48.5 19.5q-59 0 -92.5 -65t-33.5 -130v-202h-90v690h90v-316h2q45 113 151 113q67 0 97.5 -44t30.5 -113v-330z" />
    <glyph glyph-name="i" unicode="i" horiz-adv-x="259" 
d="M183 588h-108v102h108v-102zM174 0h-90v476h90v-476z" />
    <glyph glyph-name="j" unicode="j" horiz-adv-x="259" 
d="M190 588h-108v102h108v-102zM181 -41q0 -90 -58.5 -131.5t-152.5 -41.5q-8 0 -26 2v71q18 -3 36 -3q70 0 90.5 34t20.5 107v479h90v-517z" />
    <glyph glyph-name="k" unicode="k" horiz-adv-x="463" 
d="M460 0h-113l-181 246h-2v-246h-90v690h90v-404l166 190h113l-176 -208z" />
    <glyph glyph-name="l" unicode="l" horiz-adv-x="259" 
d="M174 0h-90v690h90v-690z" />
    <glyph glyph-name="m" unicode="m" horiz-adv-x="759" 
d="M687 0h-90v260q0 37 -1 55q-2 41 -14.5 61.5t-50.5 20.5q-32 0 -57.5 -31.5t-36.5 -69t-11 -68.5v-228h-90v260q0 36 -1 55q-2 40 -13.5 61t-48.5 21q-36 0 -62.5 -38t-36 -80t-9.5 -77v-202h-90v476h90v-95h2q38 106 133 106q49 0 81.5 -26.5t39.5 -74.5h2
q18 46 53 73.5t82 27.5q67 0 98 -43.5t31 -113.5v-330z" />
    <glyph glyph-name="n" unicode="n" horiz-adv-x="519" 
d="M445 0h-90v260q0 39 -1 59q-3 39 -15.5 58.5t-48.5 19.5q-59 0 -92.5 -65t-33.5 -130v-202h-90v476h90v-102h2q45 113 151 113q67 0 97.5 -44t30.5 -113v-330z" />
    <glyph glyph-name="o" unicode="o" 
d="M461 238q0 -112 -51 -180.5t-159 -68.5q-109 0 -160 68.5t-51 180.5q0 113 51 181t160 68t159.5 -68t50.5 -181zM361 238q0 179 -110 179q-111 0 -111 -179t111 -179q110 0 110 179z" />
    <glyph glyph-name="p" unicode="p" 
d="M461 246q0 -46 -7.5 -87t-25 -81.5t-52.5 -64.5t-83 -24q-42 0 -76.5 19.5t-50.5 56.5h-2v-279h-90v690h90v-72h2q15 37 52.5 60t79.5 23q47 0 80.5 -22t50.5 -59t24.5 -76.5t7.5 -83.5zM361 238q0 179 -95 179q-29 0 -50 -19t-31.5 -48.5t-15.5 -58t-5 -54.5
q0 -29 4 -56.5t14.5 -57t32.5 -47t53 -17.5q93 0 93 179z" />
    <glyph glyph-name="q" unicode="q" 
d="M427 -214h-90v280h-2q-14 -37 -49.5 -57t-77.5 -20q-48 0 -83 24t-52.5 64.5t-25 82t-7.5 86.5q0 44 7.5 83.5t24.5 76.5t50.5 59t80.5 22q42 0 79.5 -20.5t52.5 -56.5h2v66h90v-690zM337 237q0 26 -5 54.5t-16 58t-32 48.5t-50 19q-94 0 -94 -179t93 -179q31 0 53 18
t32 47t14.5 56.5t4.5 56.5z" />
    <glyph glyph-name="r" unicode="r" horiz-adv-x="333" 
d="M313 389q-149 0 -149 -187v-202h-90v476h90v-96h2q17 50 56 78.5t91 28.5v-98z" />
    <glyph glyph-name="s" unicode="s" horiz-adv-x="370" 
d="M344 133q0 -76 -49.5 -110t-129.5 -34q-61 0 -128 19v79q63 -28 120 -28q97 0 97 61q0 22 -22.5 41.5t-54 37l-63.5 37t-54.5 50t-22.5 68.5q0 67 49.5 100t119.5 33q17 0 33.5 -2.5t42 -8t32.5 -6.5v-81q-61 28 -109 28q-27 0 -52.5 -13.5t-25.5 -37.5q0 -21 22.5 -39.5
t54.5 -35t63.5 -36t54 -51t22.5 -71.5z" />
    <glyph glyph-name="t" unicode="t" horiz-adv-x="352" 
d="M335 406h-132v-254q0 -45 16 -69t60 -24q27 0 48 7v-70q-32 -7 -71 -7q-68 0 -105.5 26t-37.5 90v301h-85v70h85v112l90 56v-168h132v-70z" />
    <glyph glyph-name="u" unicode="u" horiz-adv-x="519" 
d="M440 0h-90v102h-2q-42 -113 -151 -113q-67 0 -97.5 44t-30.5 113v330h90v-260q0 -39 1 -59q3 -39 15.5 -58.5t48.5 -19.5q59 0 92.5 65t33.5 130v202h90v-476z" />
    <glyph glyph-name="v" unicode="v" horiz-adv-x="444" 
d="M441 476l-165 -476h-92l-180 476h100l124 -346h2l111 346h100z" />
    <glyph glyph-name="w" unicode="w" horiz-adv-x="685" 
d="M645 476l-107 -476h-95l-99 330h-2l-96 -330h-95l-110 476h87l75 -345h2l104 345h68l104 -345h2l75 345h87z" />
    <glyph glyph-name="x" unicode="x" horiz-adv-x="463" 
d="M454 0h-105l-116 173l-118 -173h-105l171 251l-151 225h105l97 -146l97 146h105l-151 -225z" />
    <glyph glyph-name="y" unicode="y" horiz-adv-x="444" 
d="M442 476l-237 -681h-88l67 202l-181 479h100l125 -344h2l112 344h100z" />
    <glyph glyph-name="z" unicode="z" horiz-adv-x="389" 
d="M368 0h-349v70l231 336h-216v70h325v-68l-231 -338h240v-70z" />
    <glyph glyph-name="braceleft" unicode="{" horiz-adv-x="556" 
d="M434 -238q-76 3 -143.5 50.5t-67.5 119.5q0 32 12 96q2 8 6.5 29t7 36t2.5 29q0 45 -32 78.5t-78 48.5v24q47 15 78.5 47.5t31.5 79.5q0 14 -2.5 29t-7 36t-6.5 29q-12 64 -12 96q0 72 67.5 119.5t143.5 50.5v-25q-49 -11 -78 -48.5t-29 -87.5q0 -27 7 -81.5t7 -82.5
q0 -66 -41.5 -105t-113.5 -69q71 -31 113 -70.5t42 -103.5q0 -27 -7 -82t-7 -82q0 -50 29 -87.5t78 -48.5v-25z" />
    <glyph glyph-name="bar" unicode="|" horiz-adv-x="333" 
d="M191 -184h-49v1017h49v-1017z" />
    <glyph glyph-name="braceright" unicode="}" horiz-adv-x="556" 
d="M418 249q-46 -15 -78 -48.5t-32 -78.5q0 -14 2.5 -29t7 -36t6.5 -29q12 -64 12 -96q0 -72 -67.5 -119.5t-143.5 -50.5v25q49 11 78 48.5t29 87.5q0 27 -7 82t-7 82q0 64 42 103.5t113 70.5q-72 30 -113.5 69t-41.5 105q0 28 7 82.5t7 81.5q0 50 -29 87.5t-78 48.5v25
q76 -3 143.5 -50.5t67.5 -119.5q0 -32 -12 -96q-2 -8 -6.5 -29t-7 -36t-2.5 -29q0 -47 31.5 -79.5t78.5 -47.5v-24z" />
    <glyph glyph-name="asciitilde" unicode="~" horiz-adv-x="611" 
d="M546 240q0 -106 -95 -106q-10 0 -19 1.5t-19.5 5.5t-15 5.5t-18.5 9t-16 8.5l-149 73l-12.5 6.5t-19 9t-13.5 3.5t-8.5 -2.5t-5.5 -7t-3 -8.5t-1.5 -11t-0.5 -11v-10.5v-7.5v-42h-84v87q0 46 21 75t65 29q26 0 88 -31l152 -75q42 -21 52 -21q8 0 13 7.5t5 15.5v82h84v-85
z" />
    <glyph glyph-name="uni00A0" unicode="&#xa0;" horiz-adv-x="296" 
 />
    <glyph glyph-name="exclamdown" unicode="&#xa1;" horiz-adv-x="296" 
d="M172 433h-121v121h121v-121zM163 -136h-103l8 493h87z" />
    <glyph glyph-name="cent" unicode="&#xa2;" horiz-adv-x="481" 
d="M449 313h-103q0 106 -70 122v-386q24 -7 43 -7q61 0 116 24v-47q-59 -30 -159 -30v-98h-51v98q-100 15 -146 86t-46 179q0 99 48.5 164.5t143.5 68.5v81h51v-81q78 -9 125.5 -53.5t47.5 -120.5zM225 76v361q-92 -17 -92 -170q0 -131 92 -191z" />
    <glyph glyph-name="sterling" unicode="&#xa3;" horiz-adv-x="463" 
d="M472 515h-107q-1 37 -24 59t-61 22q-86 0 -86 -108v-128h129v-65h-129v-215h257v-80h-350v295h-71v65h71v151q0 80 49 117.5t132 37.5q123 0 173 -88q17 -29 17 -63z" />
    <glyph glyph-name="currency" unicode="&#xa4;" horiz-adv-x="607" 
d="M525 174l-47 -48l-68 67q-52 -38 -116 -38q-66 0 -116 38l-68 -67l-48 48l69 65q-38 55 -38 115q0 63 38 115l-69 66l48 48l68 -67q52 37 116 37q68 0 115 -37l69 67l47 -48l-68 -66q37 -52 37 -115q0 -60 -37 -115zM427 355q0 56 -40.5 93.5t-92.5 37.5
q-56 0 -94.5 -38.5t-38.5 -92.5t39 -93.5t94 -39.5t94 39t39 94z" />
    <glyph glyph-name="yen" unicode="&#xa5;" horiz-adv-x="519" 
d="M531 690l-222 -371h112v-50h-112v-54h112v-50h-112v-165h-100v165h-112v50h112v54h-112v50h112l-221 371h112l159 -267l160 267h112z" />
    <glyph glyph-name="brokenbar" unicode="&#xa6;" horiz-adv-x="259" 
d="M178 402h-97v359h97v-359zM178 -136h-97v359h97v-359z" />
    <glyph glyph-name="section" unicode="&#xa7;" horiz-adv-x="481" 
d="M448 346q0 -37 -18.5 -69t-50.5 -50q50 -45 50 -100q0 -49 -35.5 -82t-79.5 -44.5t-92 -11.5q-98 0 -150 24v86q89 -40 153 -40q22 0 43.5 4t41 18t19.5 36q0 16 -14 31.5t-39 29t-47 23t-49 20t-34 13.5q-27 13 -35 16.5t-28.5 16.5t-27.5 23t-14.5 28t-7.5 39
q0 72 70 121q-45 40 -45 89q0 65 57.5 99.5t127.5 34.5q80 0 161 -25v-83q-83 38 -152 38q-30 0 -62 -12.5t-32 -38.5q0 -12 9 -24.5t21 -21.5t32 -18.5t33 -15t33 -13t24 -8.5q50 -20 73 -33q33 -19 49 -41.5t16 -58.5zM363 315q0 15 -8.5 28t-25.5 23.5t-30.5 17.5
t-34.5 15.5t-27 11.5q-46 22 -89 38q-30 -26 -30 -58q0 -12 6.5 -24t13.5 -19.5t22.5 -16.5t23 -12.5l25.5 -11.5t21 -9q15 -7 50.5 -22t53.5 -24q29 33 29 63z" />
    <glyph glyph-name="dieresis" unicode="&#xa8;" horiz-adv-x="340" 
d="M334 571h-123v110h123v-110zM128 571h-123v110h123v-110z" />
    <glyph glyph-name="copyright" unicode="&#xa9;" 
d="M485 466q0 -98 -68.5 -166.5t-166.5 -68.5q-97 0 -166 69t-69 166t69 166t166 69t166 -69t69 -166zM450 466q0 82 -59 141t-141 59t-141 -59t-59 -141t59 -141t141 -59t141 59t59 141zM357 375q-40 -39 -95 -39q-56 0 -96.5 39t-40.5 95t40.5 95t96.5 39q50 0 95 -39
l-26 -33q-34 31 -69 31q-38 0 -65.5 -27.5t-27.5 -65.5t25.5 -65.5t63.5 -27.5q39 0 73 30z" />
    <glyph glyph-name="ordfeminine" unicode="&#xaa;" horiz-adv-x="259" 
d="M224 287h-50v33h-2q-17 -39 -69 -39q-31 0 -50 20t-19 51q0 86 140 86v9q0 22 -0.5 32t-9.5 23t-27 13q-19 0 -30.5 -10t-11.5 -28h-52q0 40 27 59t69 19q47 0 66 -23.5t19 -70.5v-174zM174 404h-9q-30 0 -55.5 -12t-25.5 -38q0 -33 36 -33q26 0 40 27t14 56z" />
    <glyph glyph-name="guillemotleft" unicode="&#xab;" horiz-adv-x="389" 
d="M348 59h-93l-73 188l73 193h93l-64 -193zM196 59h-93l-73 188l73 193h93l-64 -193z" />
    <glyph glyph-name="logicalnot" unicode="&#xac;" horiz-adv-x="593" 
d="M535 35h-97v175h-380v89h477v-264z" />
    <glyph glyph-name="uni00AD" unicode="&#xad;" horiz-adv-x="463" 
d="M418 204h-372v107h372v-107z" />
    <glyph glyph-name="registered" unicode="&#xae;" 
d="M485 466q0 -98 -68.5 -166.5t-166.5 -68.5q-97 0 -166 69t-69 166t69 166t166 69t166 -69t69 -166zM450 466q0 82 -59 141t-141 59t-141 -59t-59 -141t59 -141t141 -59t141 59t59 141zM348 348h-50l-38 100h-54v-100h-45v248h83q48 0 74.5 -17t26.5 -63q0 -25 -9.5 -37.5
t-33.5 -23.5zM298 520q0 33 -42 33h-50v-65h54q16 0 27 8t11 24z" />
    <glyph glyph-name="macron" unicode="&#xaf;" horiz-adv-x="340" 
d="M323 559h-306v77h306v-77z" />
    <glyph glyph-name="degree" unicode="&#xb0;" horiz-adv-x="400" 
d="M317 530q0 -47 -35 -82t-82 -35q-48 0 -82.5 35.5t-34.5 83.5q0 47 35 80t82 33q48 0 82.5 -33.5t34.5 -81.5zM260 531q0 24 -18 40.5t-42 16.5t-42 -16.5t-18 -40.5q0 -25 17.5 -43t42.5 -18q24 0 42 18.5t18 42.5z" />
    <glyph glyph-name="plusminus" unicode="&#xb1;" horiz-adv-x="549" 
d="M513 210h-190v-210h-97v210h-190v89h189v188h97v-188h191v-89zM513 -138h-477v89h477v-89z" />
    <glyph glyph-name="twosuperior" unicode="&#xb2;" horiz-adv-x="370" 
d="M317 202h-279v54q64 49 133.5 134.5t69.5 141.5q0 28 -17 45.5t-45 17.5q-30 0 -48 -14t-18 -43h-74q4 55 43 81t97 26q57 0 95.5 -31t38.5 -87q0 -33 -13.5 -67t-29.5 -58t-48 -55.5t-49 -45.5l-53 -43v-2h197v-54z" />
    <glyph glyph-name="threesuperior" unicode="&#xb3;" horiz-adv-x="370" 
d="M315 324q0 -129 -140 -129q-59 0 -100 23.5t-44 77.5h77q1 -51 63 -51q72 0 72 80q0 47 -22.5 63.5t-70.5 17.5v50q42 0 63.5 14.5t21.5 55.5q0 69 -59 69q-61 0 -62 -50h-74q0 48 42 74t93 26q57 0 94.5 -29t37.5 -85q0 -36 -18.5 -63.5t-51.5 -33.5v-2q78 -20 78 -108z
" />
    <glyph glyph-name="acute" unicode="&#xb4;" horiz-adv-x="340" 
d="M295 726l-84 -167h-83l46 167h121z" />
    <glyph glyph-name="mu" unicode="&#xb5;" horiz-adv-x="576" 
d="M496 -2q-12 -4 -28 -4q-57 0 -82.5 15.5t-35.5 67.5h-2q-31 -88 -107 -88q-45 0 -71 22v-214h-90v679h90v-270q0 -29 2.5 -49t10.5 -42.5t26.5 -34t47.5 -11.5q17 0 31 6.5t23.5 20.5t16.5 26.5t11 36l6 36t3 39t1 33v29.5v180h90v-365q0 -57 42 -57h15v-56z" />
    <glyph glyph-name="paragraph" unicode="&#xb6;" horiz-adv-x="537" 
d="M499 651h-69v-866h-38v866h-49v-866h-38v437q-100 19 -160.5 74t-60.5 152q0 71 30.5 121t83.5 75t109.5 35.5t123.5 10.5h68v-39z" />
    <glyph glyph-name="periodcentered" unicode="&#xb7;" horiz-adv-x="241" 
d="M182 256h-123v123h123v-123z" />
    <glyph glyph-name="cedilla" unicode="&#xb8;" horiz-adv-x="340" 
d="M305 -155q0 -50 -32 -76t-83 -26q-36 0 -75 21v63q36 -26 67 -26q20 0 32 12.5t12 31.5q0 53 -77 53l-21 -3l28 121h57l-19 -81q2 0 5.5 0.5t5.5 0.5q44 0 72 -24t28 -67z" />
    <glyph glyph-name="onesuperior" unicode="&#xb9;" horiz-adv-x="370" 
d="M237 202h-66v371l-86 -53v60l97 54h55v-432z" />
    <glyph glyph-name="ordmasculine" unicode="&#xba;" horiz-adv-x="278" 
d="M255 419q0 -61 -28.5 -99t-87.5 -38t-87.5 38t-28.5 99t28.5 98.5t87.5 37.5t87.5 -37.5t28.5 -98.5zM199 419q0 96 -60 96t-60 -96q0 -97 60 -97t60 97z" />
    <glyph glyph-name="guillemotright" unicode="&#xbb;" horiz-adv-x="389" 
d="M359 252l-73 -193h-93l65 193l-65 188h93zM207 252l-73 -193h-93l65 193l-65 188h93z" />
    <glyph glyph-name="onequarter" unicode="&#xbc;" horiz-adv-x="852" 
d="M802 113h-73v-113h-66v113h-190v49l179 271h77v-266h73v-54zM546 634l-233 -634h-77l233 634h77zM202 202h-66v371l-86 -53v60l97 54h55v-432zM663 167v196h-2l-125 -196h127z" />
    <glyph glyph-name="onehalf" unicode="&#xbd;" horiz-adv-x="852" 
d="M783 0h-279v55q63 47 133 133t70 142q0 29 -16.5 46.5t-45.5 17.5t-47.5 -14.5t-18.5 -43.5h-74q4 56 42.5 82t97.5 26q58 0 96 -31.5t38 -87.5q0 -41 -16.5 -79t-51.5 -76t-58 -58.5t-67 -55.5v-2h197v-54zM543 634l-234 -634h-76l232 634h78zM221 202h-66v371l-86 -53
v60l97 54h55v-432z" />
    <glyph glyph-name="threequarters" unicode="&#xbe;" horiz-adv-x="852" 
d="M837 113h-73v-113h-66v113h-190v49l179 271h77v-266h73v-54zM581 634l-233 -634h-77l233 634h77zM315 324q0 -129 -140 -129q-59 0 -100 23.5t-44 77.5h77q1 -51 63 -51q72 0 72 80q0 47 -22.5 64t-70.5 18v49q42 0 63.5 14.5t21.5 55.5q0 69 -59 69q-61 0 -62 -50h-74
q0 48 42 74t93 26q57 0 94.5 -29t37.5 -85q0 -36 -18.5 -63.5t-51.5 -33.5v-2q78 -20 78 -108zM698 167v196h-2l-125 -196h127z" />
    <glyph glyph-name="questiondown" unicode="&#xbf;" horiz-adv-x="444" 
d="M318 433h-123v121h123v-121zM370 -128q-79 -19 -143 -19q-85 0 -146.5 38t-61.5 118q0 14 2.5 27t4.5 22t9 21l10 17.5t14.5 18.5t14 15.5l17.5 17.5l17 17l42 42q28 28 36.5 38.5t15 30.5t6.5 53v28h93v-48q0 -56 -10 -76.5t-53 -63.5l-60 -60l-5 -5q-17 -17 -26 -27
t-18 -28t-9 -36q0 -44 31 -64t77 -20q72 0 142 36v-93z" />
    <glyph glyph-name="Agrave" unicode="&#xc0;" horiz-adv-x="611" 
d="M347 773h-83l-84 167h121zM603 0h-106l-68 197h-247l-67 -197h-106l235 690h123zM402 277l-95 321h-2l-100 -321h197z" />
    <glyph glyph-name="Aacute" unicode="&#xc1;" horiz-adv-x="611" 
d="M441 940l-84 -167h-83l46 167h121zM603 0h-106l-68 197h-247l-67 -197h-106l235 690h123zM402 277l-95 321h-2l-100 -321h197z" />
    <glyph glyph-name="Acircumflex" unicode="&#xc2;" horiz-adv-x="611" 
d="M457 773h-81l-71 84l-69 -84h-81l95 149h108zM603 0h-106l-68 197h-247l-67 -197h-106l235 690h123zM402 277l-95 321h-2l-100 -321h197z" />
    <glyph glyph-name="Atilde" unicode="&#xc3;" horiz-adv-x="611" 
d="M444 911v-17.5v-20.5t-1 -19.5t-2.5 -21t-4.5 -18t-8 -17l-11.5 -12.5t-16 -9.5t-21.5 -2.5q-32 0 -80 30.5t-53 30.5t-8.5 -2t-5.5 -5.5t-3 -7.5t-1.5 -9.5t-0.5 -9v-9.5v-8h-59q0 80 10 100q18 37 57 37q25 0 76 -33.5t57 -33.5t10 4.5t5.5 13t2 14t0.5 15.5l-1 11h59z
M603 0h-106l-68 197h-247l-67 -197h-106l235 690h123zM402 277l-95 321h-2l-100 -321h197z" />
    <glyph glyph-name="Adieresis" unicode="&#xc4;" horiz-adv-x="611" 
d="M470 785h-123v110h123v-110zM264 785h-123v110h123v-110zM603 0h-106l-68 197h-247l-67 -197h-106l235 690h123zM402 277l-95 321h-2l-100 -321h197z" />
    <glyph glyph-name="Aring" unicode="&#xc5;" horiz-adv-x="611" 
d="M408 873q0 -41 -30.5 -70.5t-71.5 -29.5q-42 0 -72 29t-30 71t31.5 70t74.5 28q40 0 69 -28.5t29 -69.5zM603 0h-106l-68 197h-247l-67 -197h-106l235 690h123zM351 874q0 17 -13.5 28.5t-30.5 11.5q-19 0 -32.5 -11.5t-13.5 -29.5t13.5 -30.5t31.5 -12.5t31.5 13
t13.5 31zM402 277l-95 321h-2l-100 -321h197z" />
    <glyph glyph-name="AE" unicode="&#xc6;" horiz-adv-x="833" 
d="M803 0h-321l-22 284h-195l-150 -284h-112l389 690h402v-80h-258l18 -246h229v-80h-223l15 -204h228v-80zM454 364l-17 241h-2l-125 -241h144z" />
    <glyph glyph-name="Ccedilla" unicode="&#xc7;" horiz-adv-x="537" 
d="M529 501h-116q1 55 -26.5 87.5t-82.5 32.5q-45 0 -76.5 -24.5t-46 -66t-20 -80t-5.5 -81.5q0 -57 6.5 -102.5t24 -94t56.5 -76t98 -27.5q78 0 161 54v-93q-90 -41 -181 -41h-15l-13 -54q2 0 5.5 0.5t5.5 0.5q44 0 72 -24t28 -67q0 -50 -32 -76t-83 -26q-36 0 -75 21v63
q36 -26 67 -26q19 0 31.5 12.5t12.5 31.5q0 53 -77 53l-21 -3l23 101q-75 17 -122 73t-64.5 126t-17.5 158q0 71 12.5 129t40.5 109.5t81 80.5t127 29q98 0 160 -52t62 -148z" />
    <glyph glyph-name="Egrave" unicode="&#xc8;" 
d="M306 773h-83l-84 167h121zM470 0h-390v690h381v-80h-281v-211h267v-80h-267v-239h290v-80z" />
    <glyph glyph-name="Eacute" unicode="&#xc9;" 
d="M395 940l-84 -167h-83l46 167h121zM470 0h-390v690h381v-80h-281v-211h267v-80h-267v-239h290v-80z" />
    <glyph glyph-name="Ecircumflex" unicode="&#xca;" 
d="M416 773h-81l-71 84l-69 -84h-81l95 149h108zM470 0h-390v690h381v-80h-281v-211h267v-80h-267v-239h290v-80z" />
    <glyph glyph-name="Edieresis" unicode="&#xcb;" 
d="M439 785h-123v110h123v-110zM233 785h-123v110h123v-110zM470 0h-390v690h381v-80h-281v-211h267v-80h-267v-239h290v-80z" />
    <glyph glyph-name="Igrave" unicode="&#xcc;" horiz-adv-x="259" 
d="M171 773h-83l-84 167h121zM180 0h-100v690h100v-690z" />
    <glyph glyph-name="Iacute" unicode="&#xcd;" horiz-adv-x="259" 
d="M260 940l-84 -167h-83l46 167h121zM180 0h-100v690h100v-690z" />
    <glyph glyph-name="Icircumflex" unicode="&#xce;" horiz-adv-x="259" 
d="M281 773h-81l-71 84l-69 -84h-81l95 149h108zM180 0h-100v690h100v-690z" />
    <glyph glyph-name="Idieresis" unicode="&#xcf;" horiz-adv-x="259" 
d="M294 785h-123v110h123v-110zM88 785h-123v110h123v-110zM180 0h-100v690h100v-690z" />
    <glyph glyph-name="Eth" unicode="&#xd0;" horiz-adv-x="593" 
d="M548 347q0 -83 -14 -143.5t-46.5 -108t-90 -71.5t-140.5 -24h-177v331h-80v56h80v303h177q160 0 225.5 -88t65.5 -255zM438 345q0 40 -3 70.5t-11.5 68.5t-30 66t-53.5 43q-38 17 -102 17h-58v-223h133v-56h-133v-251h59q67 0 107 20q92 48 92 245z" />
    <glyph glyph-name="Ntilde" unicode="&#xd1;" horiz-adv-x="648" 
d="M462 911v-17.5v-20.5t-1 -19.5t-2.5 -21t-4.5 -18t-8 -17l-11.5 -12.5t-16 -9.5t-21.5 -2.5q-32 0 -80 30.5t-53 30.5t-8.5 -2t-5.5 -5.5t-3 -7.5t-1.5 -9.5t-0.5 -9v-9.5v-8h-59q0 80 10 100q18 37 57 37q25 0 76 -33.5t57 -33.5t10 4.5t5.5 13t2 14t0.5 15.5l-1 11h59z
M569 0h-118l-279 553h-2v-553h-90v690h125l272 -540h2v540h90v-690z" />
    <glyph glyph-name="Ograve" unicode="&#xd2;" horiz-adv-x="630" 
d="M356 773h-83l-84 167h121zM585 345q0 -58 -7.5 -107.5t-26.5 -96.5t-48.5 -79.5t-77.5 -52.5t-110 -20q-269 0 -269 356t269 356q270 0 270 -356zM475 345q0 276 -160 276q-159 0 -159 -276t159 -276q160 0 160 276z" />
    <glyph glyph-name="Oacute" unicode="&#xd3;" horiz-adv-x="630" 
d="M440 940l-84 -167h-83l46 167h121zM585 345q0 -58 -7.5 -107.5t-26.5 -96.5t-48.5 -79.5t-77.5 -52.5t-110 -20q-269 0 -269 356t269 356q270 0 270 -356zM475 345q0 276 -160 276q-159 0 -159 -276t159 -276q160 0 160 276z" />
    <glyph glyph-name="Ocircumflex" unicode="&#xd4;" horiz-adv-x="630" 
d="M466 773h-81l-71 84l-69 -84h-81l95 149h108zM585 345q0 -58 -7.5 -107.5t-26.5 -96.5t-48.5 -79.5t-77.5 -52.5t-110 -20q-269 0 -269 356t269 356q270 0 270 -356zM475 345q0 276 -160 276q-159 0 -159 -276t159 -276q160 0 160 276z" />
    <glyph glyph-name="Otilde" unicode="&#xd5;" horiz-adv-x="630" 
d="M453 911v-17.5v-20.5t-1 -19.5t-2.5 -21t-4.5 -18t-8 -17l-11.5 -12.5t-16 -9.5t-21.5 -2.5q-32 0 -80 30.5t-53 30.5t-8.5 -2t-5.5 -5.5t-3 -7.5t-1.5 -9.5t-0.5 -9v-9.5v-8h-59q0 80 10 100q19 37 57 37q25 0 76 -33.5t57 -33.5t10 4.5t5.5 13t2 14t-0.5 15.5v11h59z
M585 345q0 -58 -7.5 -107.5t-26.5 -96.5t-48.5 -79.5t-77.5 -52.5t-110 -20q-269 0 -269 356t269 356q270 0 270 -356zM475 345q0 276 -160 276q-159 0 -159 -276t159 -276q160 0 160 276z" />
    <glyph glyph-name="Odieresis" unicode="&#xd6;" horiz-adv-x="630" 
d="M479 785h-123v110h123v-110zM273 785h-123v110h123v-110zM585 345q0 -58 -7.5 -107.5t-26.5 -96.5t-48.5 -79.5t-77.5 -52.5t-110 -20q-269 0 -269 356t269 356q270 0 270 -356zM475 345q0 276 -160 276q-159 0 -159 -276t159 -276q160 0 160 276z" />
    <glyph glyph-name="multiply" unicode="&#xd7;" horiz-adv-x="593" 
d="M534 68l-71 -68l-166 176l-168 -176l-70 68l170 178l-167 182l72 64l164 -174l162 174l74 -64l-169 -180z" />
    <glyph glyph-name="Oslash" unicode="&#xd8;" horiz-adv-x="630" 
d="M585 345q0 -58 -7.5 -107.5t-26.5 -96.5t-48.5 -79.5t-77.5 -52.5t-110 -20q-55 0 -87 9.5t-72 39.5l-49 -80l-51 32l56 91q-42 53 -54 114t-12 150q0 356 269 356q51 0 86.5 -9.5t73.5 -36.5l50 80l50 -31l-57 -91q67 -85 67 -268zM425 577q-36 44 -110 44
q-159 0 -159 -276q0 -95 18 -167zM475 345q0 103 -17 170l-255 -401q37 -45 112 -45q35 0 62.5 12t44.5 35t28 48.5t16 60t7 61t2 59.5z" />
    <glyph glyph-name="Ugrave" unicode="&#xd9;" horiz-adv-x="611" 
d="M347 773h-83l-84 167h121zM540 204q0 -105 -64 -160t-171 -55t-170 54.5t-63 160.5v486h100v-467q0 -76 28.5 -115t103.5 -39q76 0 106 38.5t30 115.5v467h100v-486z" />
    <glyph glyph-name="Uacute" unicode="&#xda;" horiz-adv-x="611" 
d="M431 940l-84 -167h-83l46 167h121zM540 204q0 -105 -64 -160t-171 -55t-170 54.5t-63 160.5v486h100v-467q0 -76 28.5 -115t103.5 -39q76 0 106 38.5t30 115.5v467h100v-486z" />
    <glyph glyph-name="Ucircumflex" unicode="&#xdb;" horiz-adv-x="611" 
d="M457 773h-81l-71 84l-69 -84h-81l95 149h108zM540 204q0 -105 -64 -160t-171 -55t-170 54.5t-63 160.5v486h100v-467q0 -76 28.5 -115t103.5 -39q76 0 106 38.5t30 115.5v467h100v-486z" />
    <glyph glyph-name="Udieresis" unicode="&#xdc;" horiz-adv-x="611" 
d="M470 785h-123v110h123v-110zM264 785h-123v110h123v-110zM540 204q0 -105 -64 -160t-171 -55t-170 54.5t-63 160.5v486h100v-467q0 -76 28.5 -115t103.5 -39q76 0 106 38.5t30 115.5v467h100v-486z" />
    <glyph glyph-name="Yacute" unicode="&#xdd;" horiz-adv-x="519" 
d="M385 940l-84 -167h-83l46 167h121zM531 690l-222 -371v-319h-100v319l-221 371h110l161 -266l162 266h110z" />
    <glyph glyph-name="Thorn" unicode="&#xde;" horiz-adv-x="611" 
d="M563 363q0 -119 -53.5 -164t-171.5 -45h-154v-154h-100v690h100v-125h154q117 0 171 -43t54 -159zM453 359q0 58 -28 92t-85 34h-156v-251h156q113 0 113 125z" />
    <glyph glyph-name="germandbls" unicode="&#xdf;" horiz-adv-x="537" 
d="M494 186q0 -96 -52.5 -145.5t-149.5 -49.5q-40 0 -76 10v62q36 -12 66 -12q59 0 85.5 38t26.5 99q0 83 -30.5 118.5t-110.5 36.5v60q104 0 104 125q0 46 -24 79.5t-68 33.5q-60 0 -80.5 -36.5t-20.5 -101.5v-503h-90v478q0 109 43 166t150 57q82 0 136 -44.5t54 -124.5
q0 -64 -25 -102.5t-83 -55.5v-2q145 -19 145 -186z" />
    <glyph glyph-name="agrave" unicode="&#xe0;" horiz-adv-x="463" 
d="M273 559h-83l-84 167h121zM393 0h-90v59h-2q-15 -33 -49.5 -51.5t-73.5 -18.5q-61 0 -98 34t-37 94q0 47 25 80t67.5 48.5t82.5 21.5t85 6v83q0 4 -4 16q-16 45 -69 45q-35 0 -55.5 -19.5t-20.5 -53.5h-95q0 74 49.5 108.5t128.5 34.5q156 0 156 -153v-334zM303 186v27
h-18q-31 0 -62 -8.5t-55.5 -30.5t-24.5 -54q0 -24 14 -42.5t38 -18.5q44 0 76 40.5t32 86.5z" />
    <glyph glyph-name="aacute" unicode="&#xe1;" horiz-adv-x="463" 
d="M357 726l-84 -167h-83l46 167h121zM393 0h-90v59h-2q-15 -33 -49.5 -51.5t-73.5 -18.5q-61 0 -98 34t-37 94q0 47 25 80t67.5 48.5t82.5 21.5t85 6v83q0 4 -4 16q-16 45 -69 45q-35 0 -55.5 -19.5t-20.5 -53.5h-95q0 74 49.5 108.5t128.5 34.5q156 0 156 -153v-334z
M303 186v27h-18q-31 0 -62 -8.5t-55.5 -30.5t-24.5 -54q0 -24 14 -42.5t38 -18.5q44 0 76 40.5t32 86.5z" />
    <glyph glyph-name="acircumflex" unicode="&#xe2;" horiz-adv-x="463" 
d="M383 559h-81l-71 84l-69 -84h-81l95 149h108zM393 0h-90v59h-2q-15 -33 -49.5 -51.5t-73.5 -18.5q-61 0 -98 34t-37 94q0 47 25 80t67.5 48.5t82.5 21.5t85 6v83q0 4 -4 16q-16 45 -69 45q-35 0 -55.5 -19.5t-20.5 -53.5h-95q0 74 49.5 108.5t128.5 34.5q156 0 156 -153
v-334zM303 186v27h-18q-31 0 -62 -8.5t-55.5 -30.5t-24.5 -54q0 -24 14 -42.5t38 -18.5q44 0 76 40.5t32 86.5z" />
    <glyph glyph-name="atilde" unicode="&#xe3;" horiz-adv-x="463" 
d="M370 697v-17.5v-20.5t-1 -19.5t-2.5 -21t-4.5 -18t-8 -17l-11.5 -12.5t-16 -9.5t-21.5 -2.5q-32 0 -80 30.5t-53 30.5t-8.5 -2t-5.5 -5.5t-3 -7.5t-1.5 -9.5t-0.5 -9v-9.5v-8h-59q0 80 10 100q18 37 57 37q25 0 76 -33.5t57 -33.5t10 4.5t5.5 13t2 14t0.5 15.5l-1 11h59z
M393 0h-90v59h-2q-15 -33 -49.5 -51.5t-73.5 -18.5q-61 0 -98 34t-37 94q0 47 25 80t67.5 48.5t82.5 21.5t85 6v83q0 4 -4 16q-16 45 -69 45q-35 0 -55.5 -19.5t-20.5 -53.5h-95q0 74 49.5 108.5t128.5 34.5q156 0 156 -153v-334zM303 186v27h-18q-31 0 -62 -8.5
t-55.5 -30.5t-24.5 -54q0 -24 14 -42.5t38 -18.5q44 0 76 40.5t32 86.5z" />
    <glyph glyph-name="adieresis" unicode="&#xe4;" horiz-adv-x="463" 
d="M396 571h-123v110h123v-110zM190 571h-123v110h123v-110zM393 0h-90v59h-2q-15 -33 -49.5 -51.5t-73.5 -18.5q-61 0 -98 34t-37 94q0 47 25 80t67.5 48.5t82.5 21.5t85 6v83q0 4 -4 16q-16 45 -69 45q-35 0 -55.5 -19.5t-20.5 -53.5h-95q0 74 49.5 108.5t128.5 34.5
q156 0 156 -153v-334zM303 186v27h-18q-31 0 -62 -8.5t-55.5 -30.5t-24.5 -54q0 -24 14 -42.5t38 -18.5q44 0 76 40.5t32 86.5z" />
    <glyph glyph-name="aring" unicode="&#xe5;" horiz-adv-x="463" 
d="M334 659q0 -41 -30.5 -70.5t-71.5 -29.5q-42 0 -72 29t-30 71t31.5 70t74.5 28q40 0 69 -28.5t29 -69.5zM393 0h-90v59h-2q-15 -33 -49.5 -51.5t-73.5 -18.5q-61 0 -98 34t-37 94q0 47 25 80t67.5 48.5t82.5 21.5t85 6v83q0 4 -4 16q-16 45 -69 45q-35 0 -55.5 -19.5
t-20.5 -53.5h-95q0 74 49.5 108.5t128.5 34.5q156 0 156 -153v-334zM277 660q0 17 -13.5 28.5t-30.5 11.5q-19 0 -32.5 -11.5t-13.5 -29.5t13.5 -30.5t31.5 -12.5t31.5 13t13.5 31zM303 186v27h-18q-31 0 -62 -8.5t-55.5 -30.5t-24.5 -54q0 -24 14 -42.5t38 -18.5
q44 0 76 40.5t32 86.5z" />
    <glyph glyph-name="ae" unicode="&#xe6;" horiz-adv-x="722" 
d="M684 245h-278q19 -186 176 -186q51 0 91 13v-66q-63 -17 -124 -17q-64 0 -107 20.5t-83 69.5q-54 -90 -170 -90q-64 0 -104.5 39t-40.5 103q0 52 25 88.5t68.5 54t86 24.5t92.5 7v24q0 88 -79 88q-31 0 -54 -16t-23 -46h-97q0 64 51.5 98t118.5 34q45 0 75 -12.5
t58 -43.5q62 56 143 56q89 0 132 -51t43 -141v-50zM594 305q0 49 -21 80.5t-69 31.5q-47 0 -72.5 -32t-25.5 -80h188zM316 207v38h-26q-60 0 -108 -27.5t-48 -83.5q0 -34 20 -54.5t54 -20.5q56 0 82 44t26 104z" />
    <glyph glyph-name="ccedilla" unicode="&#xe7;" horiz-adv-x="426" 
d="M412 321h-103q0 96 -73 96q-35 0 -58 -25t-31 -55.5t-8 -64.5q0 -95 48 -154t141 -59q45 0 76 10v-62q-60 -18 -132 -18q-15 0 -22 1l-13 -55q2 0 5.5 0.5t5.5 0.5q44 0 72 -24t28 -67q0 -50 -32 -76t-83 -26q-36 0 -75 21v63q36 -26 67 -26q19 0 31.5 12.5t12.5 31.5
q0 53 -77 53l-21 -3l24 105q-77 23 -116.5 91.5t-39.5 163.5q0 105 50.5 168.5t152.5 63.5q81 0 125.5 -42.5t44.5 -123.5z" />
    <glyph glyph-name="egrave" unicode="&#xe8;" horiz-adv-x="444" 
d="M273 559h-83l-84 167h121zM406 273h-276q0 -87 45.5 -150.5t129.5 -63.5q44 0 90 17v-71q-71 -16 -119 -16q-121 0 -178.5 73.5t-57.5 198.5q0 103 48 164.5t146 61.5q85 0 128.5 -52.5t43.5 -138.5v-23zM316 333q0 38 -24.5 61t-62.5 23q-64 0 -88 -55q-7 -16 -7 -29
h182z" />
    <glyph glyph-name="eacute" unicode="&#xe9;" horiz-adv-x="444" 
d="M357 726l-84 -167h-83l46 167h121zM406 273h-276q0 -87 45.5 -150.5t129.5 -63.5q44 0 90 17v-71q-71 -16 -119 -16q-121 0 -178.5 73.5t-57.5 198.5q0 103 48 164.5t146 61.5q85 0 128.5 -52.5t43.5 -138.5v-23zM316 333q0 38 -24.5 61t-62.5 23q-64 0 -88 -55
q-7 -16 -7 -29h182z" />
    <glyph glyph-name="ecircumflex" unicode="&#xea;" horiz-adv-x="444" 
d="M383 559h-81l-71 84l-69 -84h-81l95 149h108zM406 273h-276q0 -87 45.5 -150.5t129.5 -63.5q44 0 90 17v-71q-71 -16 -119 -16q-121 0 -178.5 73.5t-57.5 198.5q0 103 48 164.5t146 61.5q85 0 128.5 -52.5t43.5 -138.5v-23zM316 333q0 38 -24.5 61t-62.5 23
q-64 0 -88 -55q-7 -16 -7 -29h182z" />
    <glyph glyph-name="edieresis" unicode="&#xeb;" horiz-adv-x="444" 
d="M386 571h-123v110h123v-110zM180 571h-123v110h123v-110zM406 273h-276q0 -87 45.5 -150.5t129.5 -63.5q44 0 90 17v-71q-71 -16 -119 -16q-121 0 -178.5 73.5t-57.5 198.5q0 103 48 164.5t146 61.5q85 0 128.5 -52.5t43.5 -138.5v-23zM316 333q0 38 -24.5 61t-62.5 23
q-64 0 -88 -55q-7 -16 -7 -29h182z" />
    <glyph glyph-name="igrave" unicode="&#xec;" horiz-adv-x="259" 
d="M171 559h-83l-84 167h121zM174 0h-90v476h90v-476z" />
    <glyph glyph-name="iacute" unicode="&#xed;" horiz-adv-x="259" 
d="M255 726l-84 -167h-83l46 167h121zM174 0h-90v476h90v-476z" />
    <glyph glyph-name="icircumflex" unicode="&#xee;" horiz-adv-x="259" 
d="M281 559h-81l-71 84l-69 -84h-81l95 149h108zM174 0h-90v476h90v-476z" />
    <glyph glyph-name="idieresis" unicode="&#xef;" horiz-adv-x="259" 
d="M294 571h-123v110h123v-110zM88 571h-123v110h123v-110zM174 0h-90v476h90v-476z" />
    <glyph glyph-name="eth" unicode="&#xf0;" 
d="M454 238q0 -110 -48.5 -179.5t-154.5 -69.5t-155 69t-49 180q0 63 16 116.5t59 93t108 39.5q56 0 85 -28l2 2q-32 51 -73 85l-96 -36l-16 44l69 26q-67 40 -100 51v3h142q26 -16 38 -25l78 30l16 -44l-54 -21q70 -81 101.5 -157.5t31.5 -178.5zM354 238q0 179 -103 179
q-104 0 -104 -179t104 -179q103 0 103 179z" />
    <glyph glyph-name="ntilde" unicode="&#xf1;" horiz-adv-x="519" 
d="M398 697v-17.5v-20.5t-1 -19.5t-2.5 -21t-4.5 -18t-8 -17l-11.5 -12.5t-16 -9.5t-21.5 -2.5q-32 0 -80 30.5t-53 30.5t-8.5 -2t-5.5 -5.5t-3 -7.5t-1.5 -9.5t-0.5 -9v-9.5v-8h-59q0 80 10 100q18 37 57 37q25 0 76 -33.5t57 -33.5t10 4.5t5.5 13t2 14t0.5 15.5l-1 11h59z
M445 0h-90v260q0 39 -1 59q-3 39 -15.5 58.5t-48.5 19.5q-59 0 -92.5 -65t-33.5 -130v-202h-90v476h90v-102h2q45 113 151 113q67 0 97.5 -44t30.5 -113v-330z" />
    <glyph glyph-name="ograve" unicode="&#xf2;" 
d="M291 559h-83l-84 167h121zM461 238q0 -112 -51 -180.5t-159 -68.5q-109 0 -160 68.5t-51 180.5q0 113 51 181t160 68t159.5 -68t50.5 -181zM361 238q0 179 -110 179q-111 0 -111 -179t111 -179q110 0 110 179z" />
    <glyph glyph-name="oacute" unicode="&#xf3;" 
d="M375 726l-84 -167h-83l46 167h121zM461 238q0 -112 -51 -180.5t-159 -68.5q-109 0 -160 68.5t-51 180.5q0 113 51 181t160 68t159.5 -68t50.5 -181zM361 238q0 179 -110 179q-111 0 -111 -179t111 -179q110 0 110 179z" />
    <glyph glyph-name="ocircumflex" unicode="&#xf4;" 
d="M401 559h-81l-71 84l-69 -84h-81l95 149h108zM461 238q0 -112 -51 -180.5t-159 -68.5q-109 0 -160 68.5t-51 180.5q0 113 51 181t160 68t159.5 -68t50.5 -181zM361 238q0 179 -110 179q-111 0 -111 -179t111 -179q110 0 110 179z" />
    <glyph glyph-name="otilde" unicode="&#xf5;" 
d="M388 697v-17.5v-20.5t-1 -19.5t-2.5 -21t-4.5 -18t-8 -17l-11.5 -12.5t-16 -9.5t-21.5 -2.5q-32 0 -80 30.5t-53 30.5t-8.5 -2t-5.5 -5.5t-3 -7.5t-1.5 -9.5t-0.5 -9v-9.5v-8h-59q0 80 10 100q18 37 57 37q25 0 76 -33.5t57 -33.5t10 4.5t5.5 13t2 14t0.5 15.5l-1 11h59z
M461 238q0 -112 -51 -180.5t-159 -68.5q-109 0 -160 68.5t-51 180.5q0 113 51 181t160 68t159.5 -68t50.5 -181zM361 238q0 179 -110 179q-111 0 -111 -179t111 -179q110 0 110 179z" />
    <glyph glyph-name="odieresis" unicode="&#xf6;" 
d="M414 571h-123v110h123v-110zM208 571h-123v110h123v-110zM461 238q0 -112 -51 -180.5t-159 -68.5q-109 0 -160 68.5t-51 180.5q0 113 51 181t160 68t159.5 -68t50.5 -181zM361 238q0 179 -110 179q-111 0 -111 -179t111 -179q110 0 110 179z" />
    <glyph glyph-name="divide" unicode="&#xf7;" horiz-adv-x="549" 
d="M333 392h-117v117h117v-117zM513 210h-477v89h477v-89zM333 0h-117v117h117v-117z" />
    <glyph glyph-name="oslash" unicode="&#xf8;" 
d="M461 230q0 -241 -213 -241q-60 0 -113 30l-47 -73l-40 27l50 76q-58 68 -58 193q0 112 53 178.5t162 66.5q60 0 113 -28l45 69l40 -27l-50 -74q58 -64 58 -197zM322 390q-26 27 -66 27q-116 0 -116 -174q0 -51 13 -110zM361 217q0 72 -14 122l-168 -253q29 -27 70 -27
q112 0 112 158z" />
    <glyph glyph-name="ugrave" unicode="&#xf9;" horiz-adv-x="519" 
d="M301 559h-83l-84 167h121zM440 0h-90v102h-2q-42 -113 -151 -113q-67 0 -97.5 44t-30.5 113v330h90v-260q0 -39 1 -59q3 -39 15.5 -58.5t48.5 -19.5q59 0 92.5 65t33.5 130v202h90v-476z" />
    <glyph glyph-name="uacute" unicode="&#xfa;" horiz-adv-x="519" 
d="M385 726l-84 -167h-83l46 167h121zM440 0h-90v102h-2q-42 -113 -151 -113q-67 0 -97.5 44t-30.5 113v330h90v-260q0 -39 1 -59q3 -39 15.5 -58.5t48.5 -19.5q59 0 92.5 65t33.5 130v202h90v-476z" />
    <glyph glyph-name="ucircumflex" unicode="&#xfb;" horiz-adv-x="519" 
d="M411 559h-81l-71 84l-69 -84h-81l95 149h108zM440 0h-90v102h-2q-42 -113 -151 -113q-67 0 -97.5 44t-30.5 113v330h90v-260q0 -39 1 -59q3 -39 15.5 -58.5t48.5 -19.5q59 0 92.5 65t33.5 130v202h90v-476z" />
    <glyph glyph-name="udieresis" unicode="&#xfc;" horiz-adv-x="519" 
d="M424 571h-123v110h123v-110zM218 571h-123v110h123v-110zM440 0h-90v102h-2q-42 -113 -151 -113q-67 0 -97.5 44t-30.5 113v330h90v-260q0 -39 1 -59q3 -39 15.5 -58.5t48.5 -19.5q59 0 92.5 65t33.5 130v202h90v-476z" />
    <glyph glyph-name="yacute" unicode="&#xfd;" horiz-adv-x="444" 
d="M352 726l-84 -167h-83l46 167h121zM442 476l-237 -681h-88l67 202l-181 479h100l125 -344h2l112 344h100z" />
    <glyph glyph-name="thorn" unicode="&#xfe;" 
d="M455 246q0 -45 -7.5 -86.5t-25 -82t-52.5 -64.5t-83 -24q-42 0 -76.5 20t-50.5 57h-2v-280h-90v904h90v-287h2q16 40 52 62t80 22q47 0 80.5 -22t50.5 -59t24.5 -76.5t7.5 -83.5zM355 238q0 179 -95 179q-28 0 -49.5 -19t-32 -48.5t-15.5 -58t-5 -54.5q0 -29 4.5 -56.5
t14.5 -56.5t32 -47t53 -18q93 0 93 179z" />
    <glyph glyph-name="ydieresis" unicode="&#xff;" horiz-adv-x="444" 
d="M386 571h-123v110h123v-110zM180 571h-123v110h123v-110zM442 476l-237 -681h-88l67 202l-181 479h100l125 -344h2l112 344h100z" />
    <glyph glyph-name="dotlessi" unicode="&#x131;" horiz-adv-x="259" 
d="M174 0h-90v476h90v-476z" />
    <glyph glyph-name="Lslash" unicode="&#x141;" horiz-adv-x="444" 
d="M445 0h-365v258l-80 -61v81l80 62v350h100v-271l160 124v-86l-160 -122v-255h265v-80z" />
    <glyph glyph-name="lslash" unicode="&#x142;" horiz-adv-x="259" 
d="M260 421l-81 -63v-358h-100v278l-80 -63v71l80 63v341h100v-261l81 63v-71z" />
    <glyph glyph-name="OE" unicode="&#x152;" horiz-adv-x="889" 
d="M859 0h-387v84h-2q-23 -40 -70 -67.5t-93 -27.5q-64 0 -111.5 20t-75.5 51.5t-45 79.5t-23 96.5t-6 108.5t6 108t23 96t45 80t75.5 52t111.5 20q45 0 91 -27.5t72 -67.5h2v84h377v-80h-277v-210h263v-80h-263v-240h287v-80zM472 345q0 38 -3 71.5t-14 72.5t-28 67
t-48 46.5t-72 18.5q-35 0 -61 -12.5t-42 -36t-26.5 -49t-14.5 -60.5t-5.5 -60t-1.5 -58t1.5 -58t5.5 -60t14.5 -60.5t26.5 -49t42 -36t61 -12.5q165 0 165 276z" />
    <glyph glyph-name="oe" unicode="&#x153;" horiz-adv-x="778" 
d="M740 244h-285q19 -185 181 -185q45 0 92 14v-67q-70 -17 -126 -17q-129 0 -184 84q-58 -84 -157 -84q-111 0 -166 68t-55 181q0 114 52 181.5t159 67.5h5q43 0 83.5 -18.5t66.5 -51.5q60 70 156 70q178 0 178 -209v-34zM650 304q0 52 -24 82.5t-75 30.5q-44 0 -70 -34
t-26 -79h195zM355 238q0 22 -1 39t-4 39.5t-10 38.5t-18 31t-29 23t-42 8q-33 0 -56.5 -17t-34.5 -45.5t-15.5 -57t-4.5 -59.5q0 -179 111 -179q29 0 49.5 12t30.5 29t16 44t7 46.5t1 47.5z" />
    <glyph glyph-name="Scaron" unicode="&#x160;" 
d="M401 922l-96 -149h-108l-98 149h81l71 -84l69 84h81zM475 185q0 -68 -37 -114t-91 -64t-121 -18q-94 0 -175 27v104q88 -51 183 -51q55 0 93 25t38 77q0 31 -16 56.5t-35 39t-50 31.5q-7 4 -11 6l-63 37q-78 45 -103 69q-47 45 -47 113q0 92 66 135t163 43q80 0 157 -20
v-94q-106 34 -162 34q-48 0 -81 -22.5t-33 -67.5q0 -10 3.5 -20t7.5 -18t13.5 -17l15.5 -14.5t18.5 -14t17.5 -11.5l19.5 -11.5t16.5 -9.5l68 -40q30 -17 46.5 -28t38 -29t33 -35t19.5 -42.5t8 -55.5z" />
    <glyph glyph-name="scaron" unicode="&#x161;" horiz-adv-x="370" 
d="M336 708l-96 -149h-108l-98 149h81l71 -84l69 84h81zM344 133q0 -76 -49.5 -110t-129.5 -34q-61 0 -128 19v79q63 -28 120 -28q97 0 97 61q0 22 -22.5 41.5t-54 37l-63.5 37t-54.5 50t-22.5 68.5q0 67 49.5 100t119.5 33q17 0 33.5 -2.5t42 -8t32.5 -6.5v-81
q-61 28 -109 28q-27 0 -52.5 -13.5t-25.5 -37.5q0 -21 22.5 -39.5t54.5 -35t63.5 -36t54 -51t22.5 -71.5z" />
    <glyph glyph-name="Ydieresis" unicode="&#x178;" horiz-adv-x="519" 
d="M424 785h-123v110h123v-110zM218 785h-123v110h123v-110zM531 690l-222 -371v-319h-100v319l-221 371h110l161 -266l162 266h110z" />
    <glyph glyph-name="Zcaron" unicode="&#x17d;" 
d="M401 922l-96 -149h-108l-98 149h81l71 -84l69 84h81zM480 0h-460v81l328 529h-311v80h427v-81l-326 -529h342v-80z" />
    <glyph glyph-name="zcaron" unicode="&#x17e;" horiz-adv-x="389" 
d="M346 708l-96 -149h-108l-98 149h81l71 -84l69 84h81zM368 0h-349v70l231 336h-216v70h325v-68l-231 -338h240v-70z" />
    <glyph glyph-name="florin" unicode="&#x192;" horiz-adv-x="426" 
d="M468 678l-12 -71q-45 13 -73 13q-37 0 -61 -9t-37.5 -30.5t-19.5 -42.5t-13 -59h134l-11 -60h-133l-73 -419h-100l73 419h-85l13 60h82l11 63q13 72 69.5 110t133.5 38q44 0 102 -12z" />
    <glyph glyph-name="circumflex" unicode="&#x2c6;" horiz-adv-x="340" 
d="M321 559h-81l-71 84l-69 -84h-81l95 149h108z" />
    <glyph glyph-name="caron" unicode="&#x2c7;" horiz-adv-x="340" 
d="M321 708l-96 -149h-108l-98 149h81l71 -84l69 84h81z" />
    <glyph glyph-name="uni02C9" unicode="&#x2c9;" horiz-adv-x="340" 
d="M323 559h-306v77h306v-77z" />
    <glyph glyph-name="breve" unicode="&#x2d8;" horiz-adv-x="340" 
d="M322 716q0 -70 -43.5 -113.5t-114.5 -43.5q-67 0 -106.5 44.5t-39.5 112.5h68q5 -31 28 -53t54 -22q34 0 57.5 21t28.5 54h68z" />
    <glyph glyph-name="dotaccent" unicode="&#x2d9;" horiz-adv-x="340" 
d="M233 571h-126v113h126v-113z" />
    <glyph glyph-name="ring" unicode="&#x2da;" horiz-adv-x="340" 
d="M272 659q0 -41 -30.5 -70.5t-71.5 -29.5q-42 0 -72 29t-30 71t31.5 70t74.5 28q40 0 69 -28.5t29 -69.5zM215 660q0 17 -13.5 28.5t-30.5 11.5q-19 0 -32.5 -11.5t-13.5 -29.5t13.5 -30.5t31.5 -12.5t31.5 13t13.5 31z" />
    <glyph glyph-name="ogonek" unicode="&#x2db;" horiz-adv-x="340" 
d="M283 -238q-39 -11 -66 -11q-46 0 -79 27.5t-33 72.5q0 41 26 83.5t62 72.5h58q-66 -68 -66 -130q0 -27 14.5 -47t40.5 -20q18 0 43 14v-62z" />
    <glyph glyph-name="tilde" unicode="&#x2dc;" horiz-adv-x="340" 
d="M308 697v-17.5v-20.5t-1 -19.5t-2.5 -21t-4.5 -18t-8 -17l-11.5 -12.5t-16 -9.5t-21.5 -2.5q-32 0 -80 30.5t-53 30.5t-8.5 -2t-5.5 -5.5t-3 -7.5t-1.5 -9.5t-0.5 -9v-9.5v-8h-59q0 80 10 100q18 37 57 37q25 0 76 -33.5t57 -33.5t10 4.5t5.5 13t2 14t0.5 15.5l-1 11h59z
" />
    <glyph glyph-name="hungarumlaut" unicode="&#x2dd;" horiz-adv-x="340" 
d="M373 726l-83 -167h-83l45 167h121zM217 726l-84 -167h-83l46 167h121z" />
    <glyph glyph-name="uni03A9" unicode="&#x3a9;" horiz-adv-x="687" 
d="M642 0h-234v83q128 121 128 291q0 112 -49.5 181t-140.5 69q-89 0 -142.5 -70t-53.5 -182q0 -174 130 -289v-83h-235v83h146q-148 121 -148 309q0 138 85 229t220 91q139 0 217 -88t78 -230q0 -191 -148 -311h147v-83z" />
    <glyph glyph-name="uni03BC" unicode="&#x3bc;" horiz-adv-x="576" 
d="M496 -2q-12 -4 -28 -4q-57 0 -82.5 15.5t-35.5 67.5h-2q-31 -88 -107 -88q-45 0 -71 22v-214h-90v679h90v-270q0 -29 2.5 -49t10.5 -42.5t26.5 -34t47.5 -11.5q17 0 31 6.5t23.5 20.5t16.5 26.5t11 36l6 36t3 39t1 33v29.5v180h90v-365q0 -57 42 -57h15v-56z" />
    <glyph glyph-name="pi" unicode="&#x3c0;" horiz-adv-x="634" 
d="M629 10q-29 -18 -78 -18q-68 0 -97.5 40.5t-29.5 103.5v287h-173v-285q0 -85 -14 -138h-105q16 60 16 143v280q-47 -2 -91 -23l-28 67q56 33 150 33h444v-77h-96v-274q0 -80 53 -80q14 0 30 9q12 -46 19 -68z" />
    <glyph glyph-name="endash" unicode="&#x2013;" horiz-adv-x="556" 
d="M510 204h-464v107h464v-107z" />
    <glyph glyph-name="emdash" unicode="&#x2014;" horiz-adv-x="722" 
d="M677 204h-632v107h632v-107z" />
    <glyph glyph-name="quoteleft" unicode="&#x2018;" horiz-adv-x="222" 
d="M169 690l-9 -228h-116l38 228h87z" />
    <glyph glyph-name="quoteright" unicode="&#x2019;" horiz-adv-x="222" 
d="M178 690l-37 -228h-88l10 228h115z" />
    <glyph glyph-name="quotesinglbase" unicode="&#x201a;" horiz-adv-x="222" 
d="M178 138l-37 -228h-88l10 228h115z" />
    <glyph glyph-name="quotedblleft" unicode="&#x201c;" horiz-adv-x="389" 
d="M345 690l-10 -228h-115l37 228h88zM178 690l-10 -228h-115l37 228h88z" />
    <glyph glyph-name="quotedblright" unicode="&#x201d;" horiz-adv-x="389" 
d="M345 690l-37 -228h-88l10 228h115zM178 690l-37 -228h-88l10 228h115z" />
    <glyph glyph-name="quotedblbase" unicode="&#x201e;" horiz-adv-x="389" 
d="M345 138l-37 -228h-88l10 228h115zM178 138l-37 -228h-88l10 228h115z" />
    <glyph glyph-name="dagger" unicode="&#x2020;" horiz-adv-x="537" 
d="M506 376h-187v-376h-100v376h-188v75h188v239h100v-239h187v-75z" />
    <glyph glyph-name="daggerdbl" unicode="&#x2021;" horiz-adv-x="556" 
d="M516 302h-188v-302h-100v302h-188v75h188v71h-188v75h188v167h100v-167h188v-75h-188v-71h188v-75z" />
    <glyph glyph-name="bullet" unicode="&#x2022;" horiz-adv-x="537" 
d="M450 360q0 -74 -53.5 -127t-127.5 -53t-127.5 53t-53.5 127q0 75 53 128.5t128 53.5t128 -53.5t53 -128.5z" />
    <glyph glyph-name="ellipsis" unicode="&#x2026;" horiz-adv-x="722" 
d="M661 0h-117v117h117v-117zM420 0h-117v117h117v-117zM179 0h-117v117h117v-117z" />
    <glyph glyph-name="perthousand" unicode="&#x2030;" horiz-adv-x="1222" 
d="M1196 213q0 -224 -158 -224t-158 224q0 223 158 223t158 -223zM826 213q0 -224 -159 -224q-158 0 -158 224q0 223 158 223q159 0 159 -223zM582 634l-234 -634h-78l234 634h78zM344 421q0 -223 -159 -223q-158 0 -158 223q0 224 158 224q159 0 159 -224zM1124 213
q0 173 -86 173t-86 -173q0 -174 86 -174t86 174zM754 213q0 173 -87 173q-86 0 -86 -173q0 -174 86 -174q87 0 87 174zM272 422q0 173 -87 173q-86 0 -86 -173q0 -174 86 -174q87 0 87 174z" />
    <glyph glyph-name="guilsinglleft" unicode="&#x2039;" horiz-adv-x="241" 
d="M198 59h-93l-73 188l73 193h93l-65 -193z" />
    <glyph glyph-name="guilsinglright" unicode="&#x203a;" horiz-adv-x="241" 
d="M209 252l-73 -193h-93l65 193l-65 188h93z" />
    <glyph glyph-name="fraction" unicode="&#x2044;" horiz-adv-x="300" 
d="M305 634l-233 -634h-77l232 634h78z" />
    <glyph glyph-name="Euro" unicode="&#x20ac;" horiz-adv-x="574" 
d="M556 477h-110q-3 116 -88 116q-50 0 -80.5 -47t-39.5 -138v-5h198l-10 -51h-191v-3q0 -7 1 -20.5t1 -19.5v-5h180l-10 -51h-165l1 -5q19 -94 53.5 -137.5t97.5 -43.5q68 0 138 49v-88q-88 -39 -156 -39q-103 0 -166 69.5t-76 194.5h-101l10 51h88v29v14v5h-79l10 51h71
q11 127 70 195t159 68q89 0 141 -51t53 -138z" />
    <glyph glyph-name="litre" unicode="&#x2113;" horiz-adv-x="485" 
d="M400 48q-62 -62 -132 -62q-57 0 -89 34q-39 40 -39 125v94l-56 -60q-17 25 -34 46l90 96v221q0 91 36 138.5t97 47.5q53 0 78.5 -34.5t25.5 -78.5q0 -117 -113 -261l-17 -20t-15 -18v-165q0 -93 59 -93q37 0 78 45l17 -30.5zM316 604q0 51 -36 51q-48 0 -48 -102v-149
q5 4 17 22q67 98 67 178z" />
    <glyph glyph-name="trademark" unicode="&#x2122;" horiz-adv-x="611" 
d="M492 400h-44v262h-2l-57 -262h-53l-57 262h-2v-262h-44v290h80l48 -228h2l49 228h80v-290zM200 648h-73v-248h-44v248h-73v42h190v-42z" />
    <glyph glyph-name="Omega" unicode="&#x2126;" horiz-adv-x="699" 
d="M642 0h-234v83q128 121 128 291q0 112 -49.5 181t-140.5 69q-89 0 -142.5 -70t-53.5 -182q0 -174 130 -289v-83h-235v83h146q-148 121 -148 309q0 138 85 229t220 91q139 0 217 -88t78 -230q0 -191 -148 -311h147v-83z" />
    <glyph glyph-name="estimated" unicode="&#x212e;" horiz-adv-x="654" 
d="M598 283h-437v-195q65 -63 155 -63q131 0 209 129l17.5 -11.5t17.5 -10.5q-48 -71 -104.5 -107.5t-139.5 -36.5q-124 0 -200 84.5t-76 210.5q0 127 75 211.5t201 84.5q128 0 202.5 -83.5t79.5 -212.5zM473 320v157q-65 65 -157 65q-94 0 -155 -64v-158h312z" />
    <glyph glyph-name="partialdiff" unicode="&#x2202;" horiz-adv-x="565" 
d="M529 478q0 -94 -24 -192q-32 -125 -103.5 -211t-173.5 -86q-83 0 -134.5 53t-51.5 139q0 141 78.5 228t178.5 87q45 0 78 -19t48 -46h2q4 40 4 65q0 77 -34 116.5t-95 39.5q-48 0 -93 -25q-2 7 -10 31t-12 37q51 34 128 34q99 0 156.5 -65t57.5 -186zM415 347
q-25 77 -102 77q-68 0 -119.5 -73t-51.5 -175q0 -50 23.5 -79.5t63.5 -29.5q65 0 114.5 78.5t71.5 201.5z" />
    <glyph glyph-name="Delta" unicode="&#x2206;" horiz-adv-x="621" 
d="M598 0h-575v46l222 654h134l219 -654v-46zM479 83l-154 468q-5 15 -10 34.5t-6 24.5h-3l-3.5 -14.5l-5 -21.5t-5.5 -21l-155 -470h342z" />
    <glyph glyph-name="product" unicode="&#x220f;" horiz-adv-x="704" 
d="M625 -230h-102v842h-342v-842h-102v930h546v-930z" />
    <glyph glyph-name="summation" unicode="&#x2211;" horiz-adv-x="619" 
d="M569 -230h-546v50l300 419l-279 404v57h503v-83h-379l260 -376l-277 -388h418v-83z" />
    <glyph glyph-name="minus" unicode="&#x2212;" horiz-adv-x="593" 
d="M535 210h-477v89h477v-89z" />
    <glyph glyph-name="uni2215" unicode="&#x2215;" horiz-adv-x="300" 
d="M305 634l-233 -634h-77l232 634h78z" />
    <glyph glyph-name="uni2219" unicode="&#x2219;" horiz-adv-x="241" 
d="M182 256h-123v123h123v-123z" />
    <glyph glyph-name="radical" unicode="&#x221a;" horiz-adv-x="498" 
d="M506 729l-177 -741h-84l-127 324l-53 -33l-33 54l131 84l123 -316l149 628h71z" />
    <glyph glyph-name="infinity" unicode="&#x221e;" horiz-adv-x="766" 
d="M719 294q0 -73 -46.5 -121.5t-117.5 -48.5q-54 0 -100 29t-76 77h-2q-72 -106 -172 -106q-71 0 -119 45.5t-48 121.5q0 75 47.5 121t117.5 46q106 0 174 -105h2q28 43 72 74t101 31q72 0 119.5 -46t47.5 -118zM638 293q0 41 -24 67.5t-68 26.5q-70 0 -130 -95
q55 -97 130 -97q45 0 68.5 28.5t23.5 69.5zM340 292q-59 96 -130 96q-44 0 -68 -28.5t-24 -69.5t26 -68t66 -27q71 0 130 97z" />
    <glyph glyph-name="integral" unicode="&#x222b;" horiz-adv-x="482" 
d="M402 663q-20 8 -42 8q-75 0 -75 -93v-627q0 -83 -41.5 -131.5t-120.5 -48.5q-45 0 -75 12q12 50 19 74q22 -8 42 -8q75 0 75 93v627q0 82 41.5 131t122.5 49q49 0 75 -14z" />
    <glyph glyph-name="approxequal" unicode="&#x2248;" horiz-adv-x="593" 
d="M540 422q-59 -90 -142 -90q-58 0 -108 31q-52 32 -90 32q-44 0 -83 -66l-63 73q61 90 142 90q56 0 107 -30q55 -33 91 -33q44 0 83 66zM540 192q-59 -90 -142 -90q-58 0 -108 31q-52 32 -90 32q-44 0 -83 -66l-63 74q29 42 62 65.5t80 23.5q56 0 107 -30q55 -33 91 -33
q44 0 83 66z" />
    <glyph glyph-name="notequal" unicode="&#x2260;" horiz-adv-x="593" 
d="M512 135h-236l-50 -111h-106l50 111h-88v97h131l61 133h-192v97h236l55 125h106l-56 -125h89v-97h-132l-61 -133h193v-97z" />
    <glyph glyph-name="lessequal" unicode="&#x2264;" horiz-adv-x="593" 
d="M512 0h-430v97h430v-97zM512 141l-430 181v87l430 181v-101l-305 -123v-2l305 -122v-101z" />
    <glyph glyph-name="greaterequal" unicode="&#x2265;" horiz-adv-x="593" 
d="M511 0h-429v97h429v-97zM512 323l-430 -181v102l305 122v2l-305 122v101l430 -181v-87z" />
    <glyph glyph-name="lozenge" unicode="&#x25ca;" horiz-adv-x="525" 
d="M483 350l-196 -350h-50l-195 349l195 351h50zM405 350l-143 256l-142 -256l142 -256z" />
    </font>
</defs>
</svg>
