<?xml version="1.0" encoding="UTF-8" standalone="no"?>
<!DOCTYPE svg PUBLIC "-//W3C//DTD SVG 1.0//EN" "http://www.w3.org/TR/2001/REC-SVG-20010904/DTD/svg10.dtd">
<!-- Generated by Microsoft Visio 11.0, SVG Export, v1.0 Qubool Process.svg Page-1 -->
<svg xmlns="http://www.w3.org/2000/svg" xmlns:xlink="http://www.w3.org/1999/xlink" xmlns:ev="http://www.w3.org/2001/xml-events"
		xmlns:v="http://schemas.microsoft.com/visio/2003/SVGExtensions/" width="11.6929in" height="8.26772in"
		viewBox="0 0 841.89 595.276" xml:space="preserve" color-interpolation-filters="sRGB" class="st10">
	<v:documentProperties v:langID="1033" v:metric="true" v:viewMarkup="false">
		<v:userDefs>
			<v:ud v:nameU="msvNoAutoConnect" v:val="VT0(0):26"/>
			<v:ud v:nameU="visV14CFF" v:prompt="" v:val="VT0(1):26"/>
			<v:ud v:nameU="visFlowchartType" v:prompt="" v:val="VT4(CrossFunctional)"/>
		</v:userDefs>
	</v:documentProperties>

	<style type="text/css">
	<![CDATA[
		.st1 {visibility:visible}
		.st2 {fill:#cdcdcd;fill-opacity:0.5;stroke:#cdcdcd;stroke-linecap:round;stroke-linejoin:round;stroke-opacity:0.5;stroke-width:0.25}
		.st3 {fill:url(#grad30-6);stroke:#404040;stroke-linecap:round;stroke-linejoin:round;stroke-width:0.25}
		.st4 {fill:#000000;font-family:Calibri;font-size:0.75em}
		.st5 {font-size:1em}
		.st6 {fill:url(#grad30-14);stroke:#404040;stroke-linecap:round;stroke-linejoin:round;stroke-width:0.25}
		.st7 {fill:url(#grad30-49);stroke:#404040;stroke-linecap:round;stroke-linejoin:round;stroke-width:0.25}
		.st8 {fill:url(#grad30-147);stroke:#404040;stroke-linecap:round;stroke-linejoin:round;stroke-width:0.25}
		.st9 {fill:#000000;font-family:Calibri;font-size:0.833336em}
		.st10 {fill:none;fill-rule:evenodd;font-size:12px;overflow:visible;stroke-linecap:square;stroke-miterlimit:3}
	]]>
	</style>

	<defs id="Patterns_And_Gradients">
		<linearGradient id="grad30-6" v:fillPattern="30" v:foreground="#c9c9c9" v:background="#d8d8d8" x1="0" y1="1" x2="0" y2="0">
			<stop offset="0" style="stop-color:#c9c9c9;stop-opacity:1"/>
			<stop offset="1" style="stop-color:#d8d8d8;stop-opacity:1"/>
		</linearGradient>
		<linearGradient id="grad30-14" v:fillPattern="30" v:foreground="#f0f0f0" v:background="#ffffff" x1="0" y1="1" x2="0" y2="0">
			<stop offset="0" style="stop-color:#f0f0f0;stop-opacity:1"/>
			<stop offset="1" style="stop-color:#ffffff;stop-opacity:1"/>
		</linearGradient>
		<linearGradient id="grad30-49" v:fillPattern="30" v:foreground="#c1ce9b" v:background="#b3c283" x1="0" y1="1" x2="0" y2="0">
			<stop offset="0" style="stop-color:#c1ce9b;stop-opacity:1"/>
			<stop offset="1" style="stop-color:#b3c283;stop-opacity:1"/>
		</linearGradient>
		<linearGradient id="grad30-147" v:fillPattern="30" v:foreground="#a7b96f" v:background="#b3c283" x1="0" y1="1" x2="0"
				y2="0">
			<stop offset="0" style="stop-color:#a7b96f;stop-opacity:1"/>
			<stop offset="1" style="stop-color:#b3c283;stop-opacity:1"/>
		</linearGradient>
	</defs>
	<g v:mID="0" v:index="1" v:groupContext="foregroundPage">
		<v:userDefs>
			<v:ud v:nameU="msvThemeColors" v:val="VT0(36):26"/>
			<v:ud v:nameU="msvThemeEffects" v:val="VT0(16):26"/>
			<v:ud v:nameU="msvThemeOrder" v:val="VT0(0):26"/>
		</v:userDefs>
		<title>Page-1</title>
		<v:pageProperties v:drawingScale="0.0393701" v:pageScale="0.0393701" v:drawingUnits="24" v:shadowOffsetX="8.50394"
				v:shadowOffsetY="-8.50394"/>
		<v:layer v:name="Connector" v:index="0"/>
		<v:layer v:name="Flowchart" v:index="1"/>
		<g id="shape1-1" v:mID="1" v:groupContext="shape" v:layerMember="0;1" transform="translate(118.033,-377.008)">
			<title>On-page reference</title>
			<desc>Phase 1 Registration</desc>
			<v:userDefs>
				<v:ud v:nameU="visVersion" v:prompt="" v:val="VT0(14):26"/>
				<v:ud v:nameU="msvThemeColors" v:val="VT0(36):26"/>
				<v:ud v:nameU="msvThemeEffects" v:val="VT0(16):26"/>
			</v:userDefs>
			<v:textBlock v:margins="rect(2,2,2,2)" v:tabSpace="42.5197"/>
			<v:textRect cx="40.0476" cy="555.228" width="80.1" height="80.0952"/>
			<g id="shadow1-2" v:groupContext="shadow" v:shadowOffsetX="1.44" v:shadowOffsetY="-1.44" v:shadowType="1"
					transform="matrix(1,0,0,1,1.44,1.44)" class="st1">
				<path d="M0 555.23 A40.0476 40.0476 0 0 1 80.1 555.23 A40.0476 40.0476 0 1 1 0 555.23 Z" class="st2"/>
			</g>
			<path d="M0 555.23 A40.0476 40.0476 0 0 1 80.1 555.23 A40.0476 40.0476 0 1 1 0 555.23 Z" class="st3"/>
			<text x="25.91" y="552.53" class="st4" v:langID="1033"><v:paragraph v:horizAlign="1"/><v:tabList/>Phase 1 <tspan
						x="17.95" dy="1.2em" class="st5">Registration </tspan> </text>		</g>
		<g id="shape2-9" v:mID="2" v:groupContext="shape" v:layerMember="0;1" transform="translate(362.324,-377.008)">
			<title>On-page reference.2</title>
			<desc>Results</desc>
			<v:userDefs>
				<v:ud v:nameU="visVersion" v:prompt="" v:val="VT0(14):26"/>
				<v:ud v:nameU="msvThemeColors" v:val="VT0(36):26"/>
				<v:ud v:nameU="msvThemeEffects" v:val="VT0(16):26"/>
			</v:userDefs>
			<v:textBlock v:margins="rect(2,2,2,2)" v:tabSpace="42.5197"/>
			<v:textRect cx="40.0476" cy="555.228" width="80.1" height="80.0952"/>
			<g id="shadow2-10" v:groupContext="shadow" v:shadowOffsetX="1.44" v:shadowOffsetY="-1.44" v:shadowType="1"
					transform="matrix(1,0,0,1,1.44,1.44)" class="st1">
				<path d="M0 555.23 A40.0476 40.0476 0 0 1 80.1 555.23 A40.0476 40.0476 0 1 1 0 555.23 Z" class="st2"/>
			</g>
			<path d="M0 555.23 A40.0476 40.0476 0 0 1 80.1 555.23 A40.0476 40.0476 0 1 1 0 555.23 Z" class="st6"/>
			<text x="26.94" y="557.93" class="st4" v:langID="1033"><v:paragraph v:horizAlign="1"/><v:tabList/>Results</text>		</g>
		<g id="shape3-16" v:mID="3" v:groupContext="shape" v:layerMember="0;1" transform="translate(240.179,-377.008)">
			<title>On-page reference.3</title>
			<desc>Data processing</desc>
			<v:userDefs>
				<v:ud v:nameU="visVersion" v:prompt="" v:val="VT0(14):26"/>
				<v:ud v:nameU="msvThemeColors" v:val="VT0(36):26"/>
				<v:ud v:nameU="msvThemeEffects" v:val="VT0(16):26"/>
			</v:userDefs>
			<v:textBlock v:margins="rect(2,2,2,2)" v:tabSpace="42.5197"/>
			<v:textRect cx="40.0476" cy="555.228" width="80.1" height="80.0952"/>
			<g id="shadow3-17" v:groupContext="shadow" v:shadowOffsetX="1.44" v:shadowOffsetY="-1.44" v:shadowType="1"
					transform="matrix(1,0,0,1,1.44,1.44)" class="st1">
				<path d="M0 555.23 A40.0476 40.0476 0 0 1 80.1 555.23 A40.0476 40.0476 0 1 1 0 555.23 Z" class="st2"/>
			</g>
			<path d="M0 555.23 A40.0476 40.0476 0 0 1 80.1 555.23 A40.0476 40.0476 0 1 1 0 555.23 Z" class="st6"/>
			<text x="10.96" y="557.93" class="st4" v:langID="1033"><v:paragraph v:horizAlign="1"/><v:tabList/>Data processing</text>		</g>
		<g id="shape4-22" v:mID="4" v:groupContext="shape" v:layerMember="0;1" transform="translate(486.471,-377.008)">
			<title>On-page reference.4</title>
			<desc>Phase 2 Student confirmation</desc>
			<v:userDefs>
				<v:ud v:nameU="visVersion" v:prompt="" v:val="VT0(14):26"/>
				<v:ud v:nameU="msvThemeColors" v:val="VT0(36):26"/>
				<v:ud v:nameU="msvThemeEffects" v:val="VT0(16):26"/>
			</v:userDefs>
			<v:textBlock v:margins="rect(2,2,2,2)" v:tabSpace="42.5197"/>
			<v:textRect cx="40.0476" cy="555.228" width="80.1" height="80.0952"/>
			<g id="shadow4-23" v:groupContext="shadow" v:shadowOffsetX="1.44" v:shadowOffsetY="-1.44" v:shadowType="1"
					transform="matrix(1,0,0,1,1.44,1.44)" class="st1">
				<path d="M0 555.23 A40.0476 40.0476 0 0 1 80.1 555.23 A40.0476 40.0476 0 1 1 0 555.23 Z" class="st2"/>
			</g>
			<path d="M0 555.23 A40.0476 40.0476 0 0 1 80.1 555.23 A40.0476 40.0476 0 1 1 0 555.23 Z" class="st6"/>
			<text x="25.91" y="547.13" class="st4" v:langID="1033"><v:paragraph v:horizAlign="1"/><v:tabList/>Phase 2<v:newlineChar/><tspan
						x="25.63" dy="1.2em" class="st5">Student </tspan><tspan x="16.41" dy="1.2em" class="st5">confirmation</tspan></text>		</g>
		<g id="shape5-30" v:mID="5" v:groupContext="shape" v:layerMember="0;1" transform="translate(606.614,-377.008)">
			<title>On-page reference.5</title>
			<desc>Complete student information and upload documents</desc>
			<v:userDefs>
				<v:ud v:nameU="visVersion" v:prompt="" v:val="VT0(14):26"/>
				<v:ud v:nameU="msvThemeColors" v:val="VT0(36):26"/>
				<v:ud v:nameU="msvThemeEffects" v:val="VT0(16):26"/>
			</v:userDefs>
			<v:textBlock v:margins="rect(2,2,2,2)" v:tabSpace="42.5197"/>
			<v:textRect cx="40.0476" cy="555.228" width="80.1" height="80.0952"/>
			<g id="shadow5-31" v:groupContext="shadow" v:shadowOffsetX="1.44" v:shadowOffsetY="-1.44" v:shadowType="1"
					transform="matrix(1,0,0,1,1.44,1.44)" class="st1">
				<path d="M0 555.23 A40.0476 40.0476 0 0 1 80.1 555.23 A40.0476 40.0476 0 1 1 0 555.23 Z" class="st2"/>
			</g>
			<path d="M0 555.23 A40.0476 40.0476 0 0 1 80.1 555.23 A40.0476 40.0476 0 1 1 0 555.23 Z" class="st6"/>
			<text x="7.17" y="547.13" class="st4" v:langID="1033"><v:paragraph v:horizAlign="1"/><v:tabList/>Complete student <tspan
						x="10.41" dy="1.2em" class="st5">information and </tspan><tspan x="5.91" dy="1.2em" class="st5">upload documents</tspan></text>		</g>
		<g id="shape6-38" v:mID="6" v:groupContext="shape" v:layerMember="0;1" transform="translate(726.757,-377.008)">
			<title>On-page reference.6</title>
			<desc>Admitted</desc>
			<v:userDefs>
				<v:ud v:nameU="visVersion" v:prompt="" v:val="VT0(14):26"/>
				<v:ud v:nameU="msvThemeColors" v:val="VT0(36):26"/>
				<v:ud v:nameU="msvThemeEffects" v:val="VT0(16):26"/>
			</v:userDefs>
			<v:textBlock v:margins="rect(2,2,2,2)" v:tabSpace="42.5197"/>
			<v:textRect cx="40.0476" cy="555.228" width="80.1" height="80.0952"/>
			<g id="shadow6-39" v:groupContext="shadow" v:shadowOffsetX="1.44" v:shadowOffsetY="-1.44" v:shadowType="1"
					transform="matrix(1,0,0,1,1.44,1.44)" class="st1">
				<path d="M0 555.23 A40.0476 40.0476 0 0 1 80.1 555.23 A40.0476 40.0476 0 1 1 0 555.23 Z" class="st2"/>
			</g>
			<path d="M0 555.23 A40.0476 40.0476 0 0 1 80.1 555.23 A40.0476 40.0476 0 1 1 0 555.23 Z" class="st6"/>
			<text x="22.83" y="557.93" class="st4" v:langID="1033"><v:paragraph v:horizAlign="1"/><v:tabList/>Admitted</text>		</g>
		<g id="shape7-44" v:mID="7" v:groupContext="shape" transform="translate(240.179,-408.552) scale(-1,1)">
			<title>45 degree single</title>
			<v:userDefs>
				<v:ud v:nameU="visVersion" v:val="VT0(14):26"/>
				<v:ud v:nameU="msvThemeColors" v:val="VT0(36):26"/>
				<v:ud v:nameU="msvThemeEffects" v:val="VT0(16):26"/>
			</v:userDefs>
			<g id="shadow7-45" v:groupContext="shadow" v:shadowOffsetX="1.44" v:shadowOffsetY="-1.44" v:shadowType="1"
					transform="matrix(1,0,0,1,-1.44,1.44)" class="st1">
				<path d="M0 586.77 L8.5 578.27 L8.5 583.88 L42.05 583.88 L42.05 589.66 L8.5 589.66 L8.5 595.28 L0 586.77 Z"
						class="st2"/>
			</g>
			<path d="M0 586.77 L8.5 578.27 L8.5 583.88 L42.05 583.88 L42.05 589.66 L8.5 589.66 L8.5 595.28 L0 586.77 Z" class="st7"/>
		</g>
		<g id="shape8-50" v:mID="8" v:groupContext="shape" transform="translate(362.324,-408.552) scale(-1,1)">
			<title>45 degree single.8</title>
			<v:userDefs>
				<v:ud v:nameU="visVersion" v:val="VT0(14):26"/>
				<v:ud v:nameU="msvThemeColors" v:val="VT0(36):26"/>
				<v:ud v:nameU="msvThemeEffects" v:val="VT0(16):26"/>
			</v:userDefs>
			<g id="shadow8-51" v:groupContext="shadow" v:shadowOffsetX="1.44" v:shadowOffsetY="-1.44" v:shadowType="1"
					transform="matrix(1,0,0,1,-1.44,1.44)" class="st1">
				<path d="M0 586.77 L8.5 578.27 L8.5 583.88 L42.05 583.88 L42.05 589.66 L8.5 589.66 L8.5 595.28 L0 586.77 Z"
						class="st2"/>
			</g>
			<path d="M0 586.77 L8.5 578.27 L8.5 583.88 L42.05 583.88 L42.05 589.66 L8.5 589.66 L8.5 595.28 L0 586.77 Z" class="st7"/>
		</g>
		<g id="shape9-55" v:mID="9" v:groupContext="shape" transform="translate(486.471,-408.552) scale(-1,1)">
			<title>45 degree single.9</title>
			<v:userDefs>
				<v:ud v:nameU="visVersion" v:val="VT0(14):26"/>
				<v:ud v:nameU="msvThemeColors" v:val="VT0(36):26"/>
				<v:ud v:nameU="msvThemeEffects" v:val="VT0(16):26"/>
			</v:userDefs>
			<g id="shadow9-56" v:groupContext="shadow" v:shadowOffsetX="1.44" v:shadowOffsetY="-1.44" v:shadowType="1"
					transform="matrix(1,0,0,1,-1.44,1.44)" class="st1">
				<path d="M0 586.77 L8.5 578.27 L8.5 583.88 L44.05 583.88 L44.05 589.66 L8.5 589.66 L8.5 595.28 L0 586.77 Z"
						class="st2"/>
			</g>
			<path d="M0 586.77 L8.5 578.27 L8.5 583.88 L44.05 583.88 L44.05 589.66 L8.5 589.66 L8.5 595.28 L0 586.77 Z" class="st7"/>
		</g>
		<g id="shape10-60" v:mID="10" v:groupContext="shape" transform="translate(606.614,-408.552) scale(-1,1)">
			<title>45 degree single.10</title>
			<v:userDefs>
				<v:ud v:nameU="visVersion" v:val="VT0(14):26"/>
				<v:ud v:nameU="msvThemeColors" v:val="VT0(36):26"/>
				<v:ud v:nameU="msvThemeEffects" v:val="VT0(16):26"/>
			</v:userDefs>
			<g id="shadow10-61" v:groupContext="shadow" v:shadowOffsetX="1.44" v:shadowOffsetY="-1.44" v:shadowType="1"
					transform="matrix(1,0,0,1,-1.44,1.44)" class="st1">
				<path d="M0 586.77 L8.5 578.27 L8.5 583.88 L40.05 583.88 L40.05 589.66 L8.5 589.66 L8.5 595.28 L0 586.77 Z"
						class="st2"/>
			</g>
			<path d="M0 586.77 L8.5 578.27 L8.5 583.88 L40.05 583.88 L40.05 589.66 L8.5 589.66 L8.5 595.28 L0 586.77 Z" class="st7"/>
		</g>
		<g id="shape11-65" v:mID="11" v:groupContext="shape" transform="translate(726.757,-408.552) scale(-1,1)">
			<title>45 degree single.11</title>
			<v:userDefs>
				<v:ud v:nameU="visVersion" v:val="VT0(14):26"/>
				<v:ud v:nameU="msvThemeColors" v:val="VT0(36):26"/>
				<v:ud v:nameU="msvThemeEffects" v:val="VT0(16):26"/>
			</v:userDefs>
			<g id="shadow11-66" v:groupContext="shadow" v:shadowOffsetX="1.44" v:shadowOffsetY="-1.44" v:shadowType="1"
					transform="matrix(1,0,0,1,-1.44,1.44)" class="st1">
				<path d="M0 586.77 L8.5 578.27 L8.5 583.88 L40.05 583.88 L40.05 589.66 L8.5 589.66 L8.5 595.28 L0 586.77 Z"
						class="st2"/>
			</g>
			<path d="M0 586.77 L8.5 578.27 L8.5 583.88 L40.05 583.88 L40.05 589.66 L8.5 589.66 L8.5 595.28 L0 586.77 Z" class="st7"/>
		</g>
		<g id="shape12-70" v:mID="12" v:groupContext="shape" v:layerMember="0;1" transform="translate(118.8,-274.235)">
			<title>On-page reference.12</title>
			<desc>Phase 1 Registration</desc>
			<v:userDefs>
				<v:ud v:nameU="visVersion" v:prompt="" v:val="VT0(14):26"/>
				<v:ud v:nameU="msvThemeColors" v:val="VT0(36):26"/>
				<v:ud v:nameU="msvThemeEffects" v:val="VT0(16):26"/>
			</v:userDefs>
			<v:textBlock v:margins="rect(2,2,2,2)" v:tabSpace="42.5197"/>
			<v:textRect cx="40.0476" cy="555.228" width="80.1" height="80.0952"/>
			<g id="shadow12-71" v:groupContext="shadow" v:shadowOffsetX="1.44" v:shadowOffsetY="-1.44" v:shadowType="1"
					transform="matrix(1,0,0,1,1.44,1.44)" class="st1">
				<path d="M0 555.23 A40.0476 40.0476 0 0 1 80.1 555.23 A40.0476 40.0476 0 1 1 0 555.23 Z" class="st2"/>
			</g>
			<path d="M0 555.23 A40.0476 40.0476 0 0 1 80.1 555.23 A40.0476 40.0476 0 1 1 0 555.23 Z" class="st3"/>
			<text x="25.91" y="552.53" class="st4" v:langID="1033"><v:paragraph v:horizAlign="1"/><v:tabList/>Phase 1 <tspan
						x="17.95" dy="1.2em" class="st5">Registration </tspan> </text>		</g>
		<g id="shape13-77" v:mID="13" v:groupContext="shape" v:layerMember="0;1" transform="translate(363.09,-274.235)">
			<title>On-page reference.13</title>
			<desc>Results</desc>
			<v:userDefs>
				<v:ud v:nameU="visVersion" v:prompt="" v:val="VT0(14):26"/>
				<v:ud v:nameU="msvThemeColors" v:val="VT0(36):26"/>
				<v:ud v:nameU="msvThemeEffects" v:val="VT0(16):26"/>
			</v:userDefs>
			<v:textBlock v:margins="rect(2,2,2,2)" v:tabSpace="42.5197"/>
			<v:textRect cx="40.0476" cy="555.228" width="80.1" height="80.0952"/>
			<g id="shadow13-78" v:groupContext="shadow" v:shadowOffsetX="1.44" v:shadowOffsetY="-1.44" v:shadowType="1"
					transform="matrix(1,0,0,1,1.44,1.44)" class="st1">
				<path d="M0 555.23 A40.0476 40.0476 0 0 1 80.1 555.23 A40.0476 40.0476 0 1 1 0 555.23 Z" class="st2"/>
			</g>
			<path d="M0 555.23 A40.0476 40.0476 0 0 1 80.1 555.23 A40.0476 40.0476 0 1 1 0 555.23 Z" class="st6"/>
			<text x="26.94" y="557.93" class="st4" v:langID="1033"><v:paragraph v:horizAlign="1"/><v:tabList/>Results</text>		</g>
		<g id="shape14-83" v:mID="14" v:groupContext="shape" v:layerMember="0;1" transform="translate(240.945,-274.235)">
			<title>On-page reference.14</title>
			<desc>Data processing</desc>
			<v:userDefs>
				<v:ud v:nameU="visVersion" v:prompt="" v:val="VT0(14):26"/>
				<v:ud v:nameU="msvThemeColors" v:val="VT0(36):26"/>
				<v:ud v:nameU="msvThemeEffects" v:val="VT0(16):26"/>
			</v:userDefs>
			<v:textBlock v:margins="rect(2,2,2,2)" v:tabSpace="42.5197"/>
			<v:textRect cx="40.0476" cy="555.228" width="80.1" height="80.0952"/>
			<g id="shadow14-84" v:groupContext="shadow" v:shadowOffsetX="1.44" v:shadowOffsetY="-1.44" v:shadowType="1"
					transform="matrix(1,0,0,1,1.44,1.44)" class="st1">
				<path d="M0 555.23 A40.0476 40.0476 0 0 1 80.1 555.23 A40.0476 40.0476 0 1 1 0 555.23 Z" class="st2"/>
			</g>
			<path d="M0 555.23 A40.0476 40.0476 0 0 1 80.1 555.23 A40.0476 40.0476 0 1 1 0 555.23 Z" class="st6"/>
			<text x="10.96" y="557.93" class="st4" v:langID="1033"><v:paragraph v:horizAlign="1"/><v:tabList/>Data processing</text>		</g>
		<g id="shape18-89" v:mID="18" v:groupContext="shape" transform="translate(240.945,-305.779) scale(-1,1)">
			<title>45 degree single.18</title>
			<v:userDefs>
				<v:ud v:nameU="visVersion" v:val="VT0(14):26"/>
				<v:ud v:nameU="msvThemeColors" v:val="VT0(36):26"/>
				<v:ud v:nameU="msvThemeEffects" v:val="VT0(16):26"/>
			</v:userDefs>
			<g id="shadow18-90" v:groupContext="shadow" v:shadowOffsetX="1.44" v:shadowOffsetY="-1.44" v:shadowType="1"
					transform="matrix(1,0,0,1,-1.44,1.44)" class="st1">
				<path d="M0 586.77 L8.5 578.27 L8.5 583.88 L42.05 583.88 L42.05 589.66 L8.5 589.66 L8.5 595.28 L0 586.77 Z"
						class="st2"/>
			</g>
			<path d="M0 586.77 L8.5 578.27 L8.5 583.88 L42.05 583.88 L42.05 589.66 L8.5 589.66 L8.5 595.28 L0 586.77 Z" class="st7"/>
		</g>
		<g id="shape19-94" v:mID="19" v:groupContext="shape" transform="translate(363.09,-305.779) scale(-1,1)">
			<title>45 degree single.19</title>
			<v:userDefs>
				<v:ud v:nameU="visVersion" v:val="VT0(14):26"/>
				<v:ud v:nameU="msvThemeColors" v:val="VT0(36):26"/>
				<v:ud v:nameU="msvThemeEffects" v:val="VT0(16):26"/>
			</v:userDefs>
			<g id="shadow19-95" v:groupContext="shadow" v:shadowOffsetX="1.44" v:shadowOffsetY="-1.44" v:shadowType="1"
					transform="matrix(1,0,0,1,-1.44,1.44)" class="st1">
				<path d="M0 586.77 L8.5 578.27 L8.5 583.88 L42.05 583.88 L42.05 589.66 L8.5 589.66 L8.5 595.28 L0 586.77 Z"
						class="st2"/>
			</g>
			<path d="M0 586.77 L8.5 578.27 L8.5 583.88 L42.05 583.88 L42.05 589.66 L8.5 589.66 L8.5 595.28 L0 586.77 Z" class="st7"/>
		</g>
		<g id="shape23-99" v:mID="23" v:groupContext="shape" v:layerMember="0;1" transform="translate(117.893,-164.409)">
			<title>On-page reference.23</title>
			<desc>Results</desc>
			<v:userDefs>
				<v:ud v:nameU="visVersion" v:prompt="" v:val="VT0(14):26"/>
				<v:ud v:nameU="msvThemeColors" v:val="VT0(36):26"/>
				<v:ud v:nameU="msvThemeEffects" v:val="VT0(16):26"/>
			</v:userDefs>
			<v:textBlock v:margins="rect(2,2,2,2)" v:tabSpace="42.5197"/>
			<v:textRect cx="40.0476" cy="555.228" width="80.1" height="80.0952"/>
			<g id="shadow23-100" v:groupContext="shadow" v:shadowOffsetX="1.44" v:shadowOffsetY="-1.44" v:shadowType="1"
					transform="matrix(1,0,0,1,1.44,1.44)" class="st1">
				<path d="M0 555.23 A40.0476 40.0476 0 0 1 80.1 555.23 A40.0476 40.0476 0 1 1 0 555.23 Z" class="st2"/>
			</g>
			<path d="M0 555.23 A40.0476 40.0476 0 0 1 80.1 555.23 A40.0476 40.0476 0 1 1 0 555.23 Z" class="st3"/>
			<text x="26.94" y="557.93" class="st4" v:langID="1033"><v:paragraph v:horizAlign="1"/><v:tabList/>Results</text>		</g>
		<g id="shape24-105" v:mID="24" v:groupContext="shape" v:layerMember="0;1" transform="translate(242.041,-164.409)">
			<title>On-page reference.24</title>
			<desc>Phase 2 Student confirmation</desc>
			<v:userDefs>
				<v:ud v:nameU="visVersion" v:prompt="" v:val="VT0(14):26"/>
				<v:ud v:nameU="msvThemeColors" v:val="VT0(36):26"/>
				<v:ud v:nameU="msvThemeEffects" v:val="VT0(16):26"/>
			</v:userDefs>
			<v:textBlock v:margins="rect(2,2,2,2)" v:tabSpace="42.5197"/>
			<v:textRect cx="40.0476" cy="555.228" width="80.1" height="80.0952"/>
			<g id="shadow24-106" v:groupContext="shadow" v:shadowOffsetX="1.44" v:shadowOffsetY="-1.44" v:shadowType="1"
					transform="matrix(1,0,0,1,1.44,1.44)" class="st1">
				<path d="M0 555.23 A40.0476 40.0476 0 0 1 80.1 555.23 A40.0476 40.0476 0 1 1 0 555.23 Z" class="st2"/>
			</g>
			<path d="M0 555.23 A40.0476 40.0476 0 0 1 80.1 555.23 A40.0476 40.0476 0 1 1 0 555.23 Z" class="st6"/>
			<text x="25.91" y="547.13" class="st4" v:langID="1033"><v:paragraph v:horizAlign="1"/><v:tabList/>Phase 2<v:newlineChar/><tspan
						x="25.63" dy="1.2em" class="st5">Student </tspan><tspan x="16.41" dy="1.2em" class="st5">confirmation</tspan></text>		</g>
		<g id="shape25-113" v:mID="25" v:groupContext="shape" v:layerMember="0;1" transform="translate(362.184,-164.409)">
			<title>On-page reference.25</title>
			<desc>Complete student information and upload documents</desc>
			<v:userDefs>
				<v:ud v:nameU="visVersion" v:prompt="" v:val="VT0(14):26"/>
				<v:ud v:nameU="msvThemeColors" v:val="VT0(36):26"/>
				<v:ud v:nameU="msvThemeEffects" v:val="VT0(16):26"/>
			</v:userDefs>
			<v:textBlock v:margins="rect(2,2,2,2)" v:tabSpace="42.5197"/>
			<v:textRect cx="40.0476" cy="555.228" width="80.1" height="80.0952"/>
			<g id="shadow25-114" v:groupContext="shadow" v:shadowOffsetX="1.44" v:shadowOffsetY="-1.44" v:shadowType="1"
					transform="matrix(1,0,0,1,1.44,1.44)" class="st1">
				<path d="M0 555.23 A40.0476 40.0476 0 0 1 80.1 555.23 A40.0476 40.0476 0 1 1 0 555.23 Z" class="st2"/>
			</g>
			<path d="M0 555.23 A40.0476 40.0476 0 0 1 80.1 555.23 A40.0476 40.0476 0 1 1 0 555.23 Z" class="st6"/>
			<text x="7.17" y="547.13" class="st4" v:langID="1033"><v:paragraph v:horizAlign="1"/><v:tabList/>Complete student <tspan
						x="10.41" dy="1.2em" class="st5">information and </tspan><tspan x="5.91" dy="1.2em" class="st5">upload documents</tspan></text>		</g>
		<g id="shape26-121" v:mID="26" v:groupContext="shape" v:layerMember="0;1" transform="translate(482.326,-164.409)">
			<title>On-page reference.26</title>
			<desc>Admitted</desc>
			<v:userDefs>
				<v:ud v:nameU="visVersion" v:prompt="" v:val="VT0(14):26"/>
				<v:ud v:nameU="msvThemeColors" v:val="VT0(36):26"/>
				<v:ud v:nameU="msvThemeEffects" v:val="VT0(16):26"/>
			</v:userDefs>
			<v:textBlock v:margins="rect(2,2,2,2)" v:tabSpace="42.5197"/>
			<v:textRect cx="40.0476" cy="555.228" width="80.1" height="80.0952"/>
			<g id="shadow26-122" v:groupContext="shadow" v:shadowOffsetX="1.44" v:shadowOffsetY="-1.44" v:shadowType="1"
					transform="matrix(1,0,0,1,1.44,1.44)" class="st1">
				<path d="M0 555.23 A40.0476 40.0476 0 0 1 80.1 555.23 A40.0476 40.0476 0 1 1 0 555.23 Z" class="st2"/>
			</g>
			<path d="M0 555.23 A40.0476 40.0476 0 0 1 80.1 555.23 A40.0476 40.0476 0 1 1 0 555.23 Z" class="st6"/>
			<text x="22.83" y="557.93" class="st4" v:langID="1033"><v:paragraph v:horizAlign="1"/><v:tabList/>Admitted</text>		</g>
		<g id="shape27-127" v:mID="27" v:groupContext="shape" transform="translate(242.041,-195.953) scale(-1,1)">
			<title>45 degree single.27</title>
			<v:userDefs>
				<v:ud v:nameU="visVersion" v:val="VT0(14):26"/>
				<v:ud v:nameU="msvThemeColors" v:val="VT0(36):26"/>
				<v:ud v:nameU="msvThemeEffects" v:val="VT0(16):26"/>
			</v:userDefs>
			<g id="shadow27-128" v:groupContext="shadow" v:shadowOffsetX="1.44" v:shadowOffsetY="-1.44" v:shadowType="1"
					transform="matrix(1,0,0,1,-1.44,1.44)" class="st1">
				<path d="M0 586.77 L8.5 578.27 L8.5 583.88 L44.05 583.88 L44.05 589.66 L8.5 589.66 L8.5 595.28 L0 586.77 Z"
						class="st2"/>
			</g>
			<path d="M0 586.77 L8.5 578.27 L8.5 583.88 L44.05 583.88 L44.05 589.66 L8.5 589.66 L8.5 595.28 L0 586.77 Z" class="st7"/>
		</g>
		<g id="shape28-132" v:mID="28" v:groupContext="shape" transform="translate(362.184,-195.953) scale(-1,1)">
			<title>45 degree single.28</title>
			<v:userDefs>
				<v:ud v:nameU="visVersion" v:val="VT0(14):26"/>
				<v:ud v:nameU="msvThemeColors" v:val="VT0(36):26"/>
				<v:ud v:nameU="msvThemeEffects" v:val="VT0(16):26"/>
			</v:userDefs>
			<g id="shadow28-133" v:groupContext="shadow" v:shadowOffsetX="1.44" v:shadowOffsetY="-1.44" v:shadowType="1"
					transform="matrix(1,0,0,1,-1.44,1.44)" class="st1">
				<path d="M0 586.77 L8.5 578.27 L8.5 583.88 L40.05 583.88 L40.05 589.66 L8.5 589.66 L8.5 595.28 L0 586.77 Z"
						class="st2"/>
			</g>
			<path d="M0 586.77 L8.5 578.27 L8.5 583.88 L40.05 583.88 L40.05 589.66 L8.5 589.66 L8.5 595.28 L0 586.77 Z" class="st7"/>
		</g>
		<g id="shape29-137" v:mID="29" v:groupContext="shape" transform="translate(482.326,-195.953) scale(-1,1)">
			<title>45 degree single.29</title>
			<v:userDefs>
				<v:ud v:nameU="visVersion" v:val="VT0(14):26"/>
				<v:ud v:nameU="msvThemeColors" v:val="VT0(36):26"/>
				<v:ud v:nameU="msvThemeEffects" v:val="VT0(16):26"/>
			</v:userDefs>
			<g id="shadow29-138" v:groupContext="shadow" v:shadowOffsetX="1.44" v:shadowOffsetY="-1.44" v:shadowType="1"
					transform="matrix(1,0,0,1,-1.44,1.44)" class="st1">
				<path d="M0 586.77 L8.5 578.27 L8.5 583.88 L40.05 583.88 L40.05 589.66 L8.5 589.66 L8.5 595.28 L0 586.77 Z"
						class="st2"/>
			</g>
			<path d="M0 586.77 L8.5 578.27 L8.5 583.88 L40.05 583.88 L40.05 589.66 L8.5 589.66 L8.5 595.28 L0 586.77 Z" class="st7"/>
		</g>
		<g id="shape15-142" v:mID="15" v:groupContext="shape" v:layerMember="1" transform="translate(31.1811,-402.882)">
			<title>Start/End</title>
			<desc>All phases</desc>
			<v:custProps>
				<v:cp v:nameU="Cost" v:lbl="Cost" v:prompt="" v:type="7" v:format="@" v:sortKey="" v:invis="false" v:ask="false"
						v:langID="1033" v:cal="0"/>
				<v:cp v:nameU="ProcessNumber" v:lbl="Process Number" v:prompt="" v:type="2" v:format="" v:sortKey=""
						v:invis="false" v:ask="false" v:langID="1033" v:cal="0"/>
				<v:cp v:nameU="Owner" v:lbl="Owner" v:prompt="" v:type="0" v:format="" v:sortKey="" v:invis="false" v:ask="false"
						v:langID="1033" v:cal="0"/>
				<v:cp v:nameU="Function" v:lbl="Function" v:prompt="" v:type="0" v:format="" v:sortKey="" v:invis="false"
						v:ask="false" v:langID="1033" v:cal="0" v:val="VT4()"/>
				<v:cp v:nameU="StartDate" v:lbl="Start Date" v:prompt="" v:type="5" v:format="" v:sortKey="" v:invis="false"
						v:ask="false" v:langID="1033" v:cal="0"/>
				<v:cp v:nameU="EndDate" v:lbl="End Date" v:prompt="" v:type="5" v:format="" v:sortKey="" v:invis="false"
						v:ask="false" v:langID="1033" v:cal="0"/>
				<v:cp v:nameU="Status" v:lbl="Status" v:prompt="" v:type="4"
						v:format=";Not Started;In Progress;Completed;Deferred;Waiting on Input" v:sortKey="" v:invis="false"
						v:ask="false" v:langID="1033" v:cal="0" v:val="VT4()"/>
			</v:custProps>
			<v:userDefs>
				<v:ud v:nameU="visVersion" v:prompt="" v:val="VT0(14):26"/>
				<v:ud v:nameU="DefaultWidth" v:prompt="" v:val="VT0(0.98425196850394):24"/>
				<v:ud v:nameU="DefaultHeight" v:prompt="" v:val="VT0(0.39370078740157):24"/>
				<v:ud v:nameU="ResizeTxtHeight" v:prompt="" v:val="VT0(0.39370078740157):24"/>
				<v:ud v:nameU="msvThemeColors" v:val="VT0(36):26"/>
				<v:ud v:nameU="msvThemeEffects" v:val="VT0(16):26"/>
			</v:userDefs>
			<v:textBlock v:margins="rect(2,2,2,2)" v:tabSpace="42.5197"/>
			<v:textRect cx="35.4331" cy="581.102" width="70.87" height="28.3465"/>
			<g id="shadow15-143" v:groupContext="shadow" v:shadowOffsetX="1.44" v:shadowOffsetY="-1.44" v:shadowType="1"
					transform="matrix(1,0,0,1,1.44,1.44)" class="st1">
				<path d="M14.17 595.28 L56.69 595.28 A14.1732 14.1732 -180 0 0 56.69 566.93 L14.17 566.93 A14.1732 14.1732 -180 1
							 0 14.17 595.28 Z" class="st2"/>
			</g>
			<path d="M14.17 595.28 L56.69 595.28 A14.1732 14.1732 -180 0 0 56.69 566.93 L14.17 566.93 A14.1732 14.1732 -180 1 0 14.17
						 595.28 Z" class="st8"/>
			<text x="15.07" y="584.1" class="st9" v:langID="1033"><v:paragraph v:horizAlign="1"/><v:tabList/>All phases</text>		</g>
		<g id="shape16-149" v:mID="16" v:groupContext="shape" v:layerMember="1" transform="translate(31.1811,-300.11)">
			<title>Start/End.16</title>
			<desc>Phase 1</desc>
			<v:custProps>
				<v:cp v:nameU="Cost" v:lbl="Cost" v:prompt="" v:type="7" v:format="@" v:sortKey="" v:invis="false" v:ask="false"
						v:langID="1033" v:cal="0"/>
				<v:cp v:nameU="ProcessNumber" v:lbl="Process Number" v:prompt="" v:type="2" v:format="" v:sortKey=""
						v:invis="false" v:ask="false" v:langID="1033" v:cal="0"/>
				<v:cp v:nameU="Owner" v:lbl="Owner" v:prompt="" v:type="0" v:format="" v:sortKey="" v:invis="false" v:ask="false"
						v:langID="1033" v:cal="0"/>
				<v:cp v:nameU="Function" v:lbl="Function" v:prompt="" v:type="0" v:format="" v:sortKey="" v:invis="false"
						v:ask="false" v:langID="1033" v:cal="0" v:val="VT4()"/>
				<v:cp v:nameU="StartDate" v:lbl="Start Date" v:prompt="" v:type="5" v:format="" v:sortKey="" v:invis="false"
						v:ask="false" v:langID="1033" v:cal="0"/>
				<v:cp v:nameU="EndDate" v:lbl="End Date" v:prompt="" v:type="5" v:format="" v:sortKey="" v:invis="false"
						v:ask="false" v:langID="1033" v:cal="0"/>
				<v:cp v:nameU="Status" v:lbl="Status" v:prompt="" v:type="4"
						v:format=";Not Started;In Progress;Completed;Deferred;Waiting on Input" v:sortKey="" v:invis="false"
						v:ask="false" v:langID="1033" v:cal="0" v:val="VT4()"/>
			</v:custProps>
			<v:userDefs>
				<v:ud v:nameU="visVersion" v:prompt="" v:val="VT0(14):26"/>
				<v:ud v:nameU="DefaultWidth" v:prompt="" v:val="VT0(0.98425196850394):24"/>
				<v:ud v:nameU="DefaultHeight" v:prompt="" v:val="VT0(0.39370078740157):24"/>
				<v:ud v:nameU="ResizeTxtHeight" v:prompt="" v:val="VT0(0.39370078740157):24"/>
				<v:ud v:nameU="msvThemeColors" v:val="VT0(36):26"/>
				<v:ud v:nameU="msvThemeEffects" v:val="VT0(16):26"/>
			</v:userDefs>
			<v:textBlock v:margins="rect(2,2,2,2)" v:tabSpace="42.5197"/>
			<v:textRect cx="35.4331" cy="581.102" width="70.87" height="28.3465"/>
			<g id="shadow16-150" v:groupContext="shadow" v:shadowOffsetX="1.44" v:shadowOffsetY="-1.44" v:shadowType="1"
					transform="matrix(1,0,0,1,1.44,1.44)" class="st1">
				<path d="M14.17 595.28 L56.69 595.28 A14.1732 14.1732 -180 0 0 56.69 566.93 L14.17 566.93 A14.1732 14.1732 -180 1
							 0 14.17 595.28 Z" class="st2"/>
			</g>
			<path d="M14.17 595.28 L56.69 595.28 A14.1732 14.1732 -180 0 0 56.69 566.93 L14.17 566.93 A14.1732 14.1732 -180 1 0 14.17
						 595.28 Z" class="st8"/>
			<text x="19.72" y="584.1" class="st9" v:langID="1033"><v:paragraph v:horizAlign="1"/><v:tabList/>Phase 1</text>		</g>
		<g id="shape17-155" v:mID="17" v:groupContext="shape" v:layerMember="1" transform="translate(29.7638,-189.921)">
			<title>Start/End.17</title>
			<desc>Phase 2</desc>
			<v:custProps>
				<v:cp v:nameU="Cost" v:lbl="Cost" v:prompt="" v:type="7" v:format="@" v:sortKey="" v:invis="false" v:ask="false"
						v:langID="1033" v:cal="0"/>
				<v:cp v:nameU="ProcessNumber" v:lbl="Process Number" v:prompt="" v:type="2" v:format="" v:sortKey=""
						v:invis="false" v:ask="false" v:langID="1033" v:cal="0"/>
				<v:cp v:nameU="Owner" v:lbl="Owner" v:prompt="" v:type="0" v:format="" v:sortKey="" v:invis="false" v:ask="false"
						v:langID="1033" v:cal="0"/>
				<v:cp v:nameU="Function" v:lbl="Function" v:prompt="" v:type="0" v:format="" v:sortKey="" v:invis="false"
						v:ask="false" v:langID="1033" v:cal="0" v:val="VT4()"/>
				<v:cp v:nameU="StartDate" v:lbl="Start Date" v:prompt="" v:type="5" v:format="" v:sortKey="" v:invis="false"
						v:ask="false" v:langID="1033" v:cal="0"/>
				<v:cp v:nameU="EndDate" v:lbl="End Date" v:prompt="" v:type="5" v:format="" v:sortKey="" v:invis="false"
						v:ask="false" v:langID="1033" v:cal="0"/>
				<v:cp v:nameU="Status" v:lbl="Status" v:prompt="" v:type="4"
						v:format=";Not Started;In Progress;Completed;Deferred;Waiting on Input" v:sortKey="" v:invis="false"
						v:ask="false" v:langID="1033" v:cal="0" v:val="VT4()"/>
			</v:custProps>
			<v:userDefs>
				<v:ud v:nameU="visVersion" v:prompt="" v:val="VT0(14):26"/>
				<v:ud v:nameU="DefaultWidth" v:prompt="" v:val="VT0(0.98425196850394):24"/>
				<v:ud v:nameU="DefaultHeight" v:prompt="" v:val="VT0(0.39370078740157):24"/>
				<v:ud v:nameU="ResizeTxtHeight" v:prompt="" v:val="VT0(0.39370078740157):24"/>
				<v:ud v:nameU="msvThemeColors" v:val="VT0(36):26"/>
				<v:ud v:nameU="msvThemeEffects" v:val="VT0(16):26"/>
			</v:userDefs>
			<v:textBlock v:margins="rect(2,2,2,2)" v:tabSpace="42.5197"/>
			<v:textRect cx="35.4331" cy="581.102" width="70.87" height="28.3465"/>
			<g id="shadow17-156" v:groupContext="shadow" v:shadowOffsetX="1.44" v:shadowOffsetY="-1.44" v:shadowType="1"
					transform="matrix(1,0,0,1,1.44,1.44)" class="st1">
				<path d="M14.17 595.28 L56.69 595.28 A14.1732 14.1732 -180 0 0 56.69 566.93 L14.17 566.93 A14.1732 14.1732 -180 1
							 0 14.17 595.28 Z" class="st2"/>
			</g>
			<path d="M14.17 595.28 L56.69 595.28 A14.1732 14.1732 -180 0 0 56.69 566.93 L14.17 566.93 A14.1732 14.1732 -180 1 0 14.17
						 595.28 Z" class="st8"/>
			<text x="19.72" y="584.1" class="st9" v:langID="1033"><v:paragraph v:horizAlign="1"/><v:tabList/>Phase 2</text>		</g>
	</g>
</svg>
